G04*
G04 #@! TF.GenerationSoftware,Altium Limited,Altium Designer,18.1.9 (240)*
G04*
G04 Layer_Color=128*
%FSLAX25Y25*%
%MOIN*%
G70*
G01*
G75*
%ADD15R,0.03000X0.05000*%
%ADD16R,0.10512X0.10000*%
%ADD18R,0.06890X0.06693*%
%ADD32R,0.07362X0.04055*%
%ADD34R,0.07087X0.04134*%
%ADD35R,0.04055X0.07362*%
%ADD48R,0.04134X0.07087*%
%ADD49R,0.07874X0.01575*%
D15*
X50644Y-25300D02*
D03*
D16*
X59900D02*
D03*
D18*
X61437Y-2264D02*
D03*
Y-11319D02*
D03*
X61614Y26589D02*
D03*
Y17534D02*
D03*
D32*
X17717Y-32008D02*
D03*
Y-43189D02*
D03*
X46457Y70157D02*
D03*
Y58976D02*
D03*
X33563Y-512D02*
D03*
Y-11693D02*
D03*
X24400Y-509D02*
D03*
Y-11691D02*
D03*
D34*
X10827Y35626D02*
D03*
Y23815D02*
D03*
X-4476Y35626D02*
D03*
Y23815D02*
D03*
X17224Y-62697D02*
D03*
Y-50886D02*
D03*
X-26280Y62106D02*
D03*
Y50295D02*
D03*
X-78740Y3248D02*
D03*
Y15059D02*
D03*
X-17323Y50098D02*
D03*
Y61910D02*
D03*
X-31299Y41535D02*
D03*
Y29724D02*
D03*
X50341Y26903D02*
D03*
Y15092D02*
D03*
X-71468Y23230D02*
D03*
Y35041D02*
D03*
D35*
X-17819Y-42323D02*
D03*
X-6638D02*
D03*
X-17819Y-51181D02*
D03*
X-6638D02*
D03*
X40753Y32283D02*
D03*
X29572D02*
D03*
X38391Y20768D02*
D03*
X27209D02*
D03*
X23910Y7100D02*
D03*
X35091D02*
D03*
X-4016Y58661D02*
D03*
X7165D02*
D03*
D48*
X-18134Y-33465D02*
D03*
X-6323D02*
D03*
X53839Y51988D02*
D03*
X65650D02*
D03*
X54213Y-1379D02*
D03*
X42402D02*
D03*
D49*
X-38500Y-51624D02*
D03*
Y-46900D02*
D03*
Y-42176D02*
D03*
M02*
