G04*
G04 #@! TF.GenerationSoftware,Altium Limited,Altium Designer,18.1.9 (240)*
G04*
G04 Layer_Color=32896*
%FSLAX25Y25*%
%MOIN*%
G70*
G01*
G75*
%ADD53C,0.00197*%
D53*
X-4020Y-46614D02*
Y-38032D01*
X-20437Y-46614D02*
X-4020D01*
X-20437D02*
Y-38032D01*
X-4020D01*
Y-55472D02*
Y-46890D01*
X-20437Y-55472D02*
X-4020D01*
X-20437D02*
Y-46890D01*
X-4020D01*
X13425Y-45807D02*
X22008D01*
X13425D02*
Y-29390D01*
X22008D01*
Y-45807D02*
Y-29390D01*
X42165Y56358D02*
X50748D01*
X42165D02*
Y72776D01*
X50748D01*
Y56358D02*
Y72776D01*
X26954Y27992D02*
Y36575D01*
X43371D01*
Y27992D02*
Y36575D01*
X26954Y27992D02*
X43371D01*
X24591Y16477D02*
Y25059D01*
X41009D01*
Y16477D02*
Y25059D01*
X24591Y16477D02*
X41009D01*
X37709Y2809D02*
Y11391D01*
X21291Y2809D02*
X37709D01*
X21291D02*
Y11391D01*
X37709D01*
X29272Y-14311D02*
X37854D01*
X29272D02*
Y2106D01*
X37854D01*
Y-14311D02*
Y2106D01*
X20109Y-14309D02*
X28691D01*
X20109D02*
Y2109D01*
X28691D01*
Y-14309D02*
Y2109D01*
X9783Y54370D02*
Y62953D01*
X-6634Y54370D02*
X9783D01*
X-6634D02*
Y62953D01*
X9783D01*
X-3272Y-37992D02*
Y-28937D01*
X-21185Y-37992D02*
X-3272D01*
X-21185D02*
Y-28937D01*
X-3272D01*
X6299Y20764D02*
X15354D01*
X6299D02*
Y38677D01*
X15354D01*
Y20764D02*
Y38677D01*
X-9004Y20764D02*
X51D01*
X-9004D02*
Y38677D01*
X51D01*
Y20764D02*
Y38677D01*
X12697Y-47835D02*
X21752D01*
Y-65748D02*
Y-47835D01*
X12697Y-65748D02*
X21752D01*
X12697D02*
Y-47835D01*
X68701Y47461D02*
Y56516D01*
X50787Y47461D02*
X68701D01*
X50787D02*
Y56516D01*
X68701D01*
X-30807Y47244D02*
X-21752D01*
X-30807D02*
Y65158D01*
X-21752D01*
Y47244D02*
Y65158D01*
X-83268Y18110D02*
X-74213D01*
Y197D02*
Y18110D01*
X-83268Y197D02*
X-74213D01*
X-83268D02*
Y18110D01*
X-21850Y64961D02*
X-12795D01*
Y47047D02*
Y64961D01*
X-21850Y47047D02*
X-12795D01*
X-21850D02*
Y64961D01*
X-35827Y26673D02*
X-26772D01*
X-35827D02*
Y44587D01*
X-26772D01*
Y26673D02*
Y44587D01*
X39351Y-5907D02*
Y3148D01*
X57265D01*
Y-5907D02*
Y3148D01*
X39351Y-5907D02*
X57265D01*
X45813Y12041D02*
X54869D01*
X45813D02*
Y29954D01*
X54869D01*
Y12041D02*
Y29954D01*
X-83957Y-325D02*
X-73524D01*
Y18966D01*
X-83957D02*
X-73524D01*
X-83957Y-325D02*
Y18966D01*
X56221Y-16437D02*
X66654D01*
X56221D02*
Y2854D01*
X66654D01*
Y-16437D02*
Y2854D01*
X56398Y12415D02*
X66831D01*
X56398D02*
Y31707D01*
X66831D01*
Y12415D02*
Y31707D01*
X-76586Y18654D02*
X-66153D01*
Y37946D01*
X-76586D02*
X-66153D01*
X-76586Y18654D02*
Y37946D01*
X22539Y-66535D02*
Y-47244D01*
X12106Y-66535D02*
X22539D01*
X12106D02*
Y-47244D01*
X22539D01*
X-64468Y43996D02*
X-18406D01*
Y-3445D02*
Y43996D01*
X-64468Y-3445D02*
X-18406D01*
X-64468D02*
Y43996D01*
X-35188Y67520D02*
X-5857D01*
Y45866D02*
Y67520D01*
X-35188Y45866D02*
X-5857D01*
X-35188D02*
Y67520D01*
X17913Y29528D02*
X54921D01*
Y-13780D02*
Y29528D01*
X17913Y-13780D02*
X54921D01*
X17913D02*
Y29528D01*
X44488Y39862D02*
Y73524D01*
X16142Y39862D02*
X44488D01*
X16142D02*
Y73524D01*
X44488D01*
X-33020Y-21606D02*
X8319D01*
Y-62945D02*
Y-21606D01*
X-33020Y-62945D02*
X8319D01*
X-33020D02*
Y-21606D01*
X48387Y-33164D02*
X71813D01*
Y-48636D02*
Y-33164D01*
X48387Y-48636D02*
X71813D01*
X48387D02*
Y-33164D01*
X50591Y57185D02*
X69882D01*
Y46752D02*
Y57185D01*
X50591Y46752D02*
X69882D01*
X50591D02*
Y57185D01*
X65610Y1723D02*
Y18140D01*
X57028Y1723D02*
X65610D01*
X57028D02*
Y18140D01*
X65610D01*
X-66940Y20179D02*
Y38092D01*
X-75995D02*
X-66940D01*
X-75995Y20179D02*
Y38092D01*
Y20179D02*
X-66940D01*
M02*
