G04*
G04 #@! TF.GenerationSoftware,Altium Limited,Altium Designer,18.1.9 (240)*
G04*
G04 Layer_Color=65535*
%FSLAX25Y25*%
%MOIN*%
G70*
G01*
G75*
%ADD10C,0.01000*%
%ADD11C,0.01968*%
%ADD12C,0.01575*%
%ADD13C,0.00787*%
%ADD14C,0.00591*%
G36*
X36949Y78223D02*
X36972D01*
X36998Y78221D01*
X37026Y78218D01*
X37057Y78213D01*
X37127Y78200D01*
X37204Y78179D01*
X37284Y78154D01*
X37361Y78117D01*
X37364D01*
X37372Y78112D01*
X37382Y78107D01*
X37395Y78099D01*
X37413Y78087D01*
X37434Y78074D01*
X37480Y78043D01*
X37532Y78001D01*
X37586Y77950D01*
X37635Y77893D01*
X37681Y77828D01*
X37684Y77826D01*
X37686Y77821D01*
X37692Y77810D01*
X37699Y77798D01*
X37707Y77779D01*
X37718Y77761D01*
X37728Y77738D01*
X37738Y77712D01*
X37756Y77656D01*
X37774Y77588D01*
X37787Y77516D01*
X37792Y77480D01*
Y77441D01*
Y77439D01*
Y77434D01*
Y77423D01*
X37790Y77408D01*
Y77392D01*
X37787Y77372D01*
X37779Y77323D01*
X37767Y77269D01*
X37748Y77209D01*
X37723Y77147D01*
X37686Y77085D01*
Y77083D01*
X37681Y77078D01*
X37676Y77070D01*
X37666Y77060D01*
X37643Y77029D01*
X37609Y76992D01*
X37563Y76954D01*
X37511Y76910D01*
X37447Y76869D01*
X37374Y76830D01*
X37377D01*
X37387Y76827D01*
X37400Y76822D01*
X37418Y76817D01*
X37441Y76809D01*
X37467Y76799D01*
X37496Y76789D01*
X37527Y76776D01*
X37594Y76740D01*
X37627Y76719D01*
X37663Y76696D01*
X37697Y76670D01*
X37730Y76642D01*
X37761Y76611D01*
X37790Y76575D01*
X37792Y76572D01*
X37797Y76567D01*
X37803Y76554D01*
X37813Y76541D01*
X37823Y76520D01*
X37836Y76497D01*
X37852Y76471D01*
X37865Y76440D01*
X37877Y76407D01*
X37893Y76371D01*
X37906Y76329D01*
X37916Y76288D01*
X37926Y76242D01*
X37934Y76193D01*
X37937Y76141D01*
X37939Y76087D01*
Y76082D01*
Y76069D01*
X37937Y76048D01*
X37934Y76020D01*
X37932Y75986D01*
X37924Y75948D01*
X37916Y75904D01*
X37903Y75855D01*
X37888Y75803D01*
X37870Y75752D01*
X37846Y75695D01*
X37818Y75638D01*
X37784Y75581D01*
X37746Y75527D01*
X37702Y75470D01*
X37650Y75419D01*
X37648Y75416D01*
X37637Y75406D01*
X37622Y75393D01*
X37599Y75375D01*
X37570Y75354D01*
X37537Y75331D01*
X37496Y75308D01*
X37452Y75282D01*
X37400Y75256D01*
X37346Y75233D01*
X37287Y75210D01*
X37222Y75189D01*
X37152Y75171D01*
X37080Y75158D01*
X37003Y75148D01*
X36923Y75145D01*
X36905D01*
X36884Y75148D01*
X36856D01*
X36822Y75153D01*
X36783Y75158D01*
X36740Y75166D01*
X36691Y75174D01*
X36642Y75187D01*
X36587Y75202D01*
X36533Y75223D01*
X36476Y75243D01*
X36422Y75272D01*
X36366Y75303D01*
X36314Y75339D01*
X36262Y75380D01*
X36260Y75383D01*
X36252Y75390D01*
X36239Y75403D01*
X36221Y75424D01*
X36200Y75447D01*
X36177Y75476D01*
X36154Y75509D01*
X36128Y75545D01*
X36102Y75589D01*
X36077Y75635D01*
X36051Y75684D01*
X36028Y75739D01*
X36007Y75798D01*
X35989Y75860D01*
X35976Y75924D01*
X35966Y75994D01*
X36337Y76043D01*
Y76041D01*
X36340Y76030D01*
X36345Y76012D01*
X36350Y75991D01*
X36355Y75966D01*
X36366Y75937D01*
X36376Y75904D01*
X36386Y75868D01*
X36417Y75793D01*
X36453Y75718D01*
X36474Y75682D01*
X36500Y75648D01*
X36523Y75617D01*
X36551Y75589D01*
X36554Y75586D01*
X36559Y75584D01*
X36567Y75576D01*
X36580Y75568D01*
X36593Y75558D01*
X36611Y75545D01*
X36631Y75532D01*
X36654Y75522D01*
X36680Y75509D01*
X36709Y75496D01*
X36773Y75473D01*
X36845Y75457D01*
X36884Y75455D01*
X36925Y75452D01*
X36951D01*
X36969Y75455D01*
X36992Y75457D01*
X37018Y75463D01*
X37047Y75468D01*
X37080Y75476D01*
X37114Y75483D01*
X37150Y75496D01*
X37186Y75512D01*
X37222Y75530D01*
X37261Y75550D01*
X37297Y75573D01*
X37333Y75602D01*
X37367Y75633D01*
X37369Y75635D01*
X37374Y75641D01*
X37382Y75651D01*
X37395Y75666D01*
X37408Y75682D01*
X37423Y75705D01*
X37441Y75728D01*
X37457Y75757D01*
X37475Y75788D01*
X37490Y75821D01*
X37506Y75857D01*
X37519Y75899D01*
X37532Y75940D01*
X37539Y75984D01*
X37545Y76030D01*
X37547Y76079D01*
Y76082D01*
Y76090D01*
Y76105D01*
X37545Y76123D01*
X37542Y76144D01*
X37539Y76170D01*
X37534Y76198D01*
X37527Y76229D01*
X37506Y76293D01*
X37493Y76329D01*
X37477Y76366D01*
X37457Y76399D01*
X37434Y76435D01*
X37408Y76469D01*
X37380Y76500D01*
X37377Y76502D01*
X37372Y76508D01*
X37361Y76515D01*
X37348Y76525D01*
X37333Y76538D01*
X37315Y76551D01*
X37292Y76567D01*
X37266Y76582D01*
X37235Y76598D01*
X37204Y76613D01*
X37168Y76626D01*
X37132Y76639D01*
X37091Y76649D01*
X37049Y76657D01*
X37003Y76662D01*
X36956Y76665D01*
X36938D01*
X36915Y76662D01*
X36884Y76660D01*
X36845Y76654D01*
X36801Y76649D01*
X36753Y76639D01*
X36696Y76626D01*
X36737Y76951D01*
X36742D01*
X36758Y76949D01*
X36778Y76946D01*
X36820D01*
X36835Y76949D01*
X36856D01*
X36882Y76954D01*
X36907Y76956D01*
X36938Y76962D01*
X37003Y76977D01*
X37075Y76998D01*
X37147Y77029D01*
X37183Y77049D01*
X37220Y77070D01*
X37222Y77073D01*
X37227Y77075D01*
X37238Y77083D01*
X37251Y77093D01*
X37263Y77106D01*
X37279Y77122D01*
X37297Y77142D01*
X37315Y77163D01*
X37333Y77189D01*
X37351Y77217D01*
X37367Y77248D01*
X37380Y77281D01*
X37392Y77320D01*
X37403Y77359D01*
X37408Y77403D01*
X37410Y77449D01*
Y77452D01*
Y77460D01*
Y77470D01*
X37408Y77483D01*
X37405Y77501D01*
X37403Y77521D01*
X37392Y77568D01*
X37377Y77622D01*
X37351Y77679D01*
X37336Y77707D01*
X37317Y77733D01*
X37297Y77761D01*
X37271Y77787D01*
X37268Y77790D01*
X37266Y77792D01*
X37258Y77800D01*
X37245Y77808D01*
X37232Y77818D01*
X37217Y77828D01*
X37196Y77841D01*
X37176Y77854D01*
X37124Y77880D01*
X37062Y77901D01*
X36992Y77916D01*
X36956Y77919D01*
X36915Y77921D01*
X36894D01*
X36879Y77919D01*
X36861Y77916D01*
X36840Y77914D01*
X36791Y77903D01*
X36735Y77888D01*
X36673Y77865D01*
X36644Y77849D01*
X36613Y77831D01*
X36585Y77808D01*
X36557Y77785D01*
X36554Y77782D01*
X36551Y77779D01*
X36544Y77769D01*
X36533Y77759D01*
X36523Y77746D01*
X36510Y77728D01*
X36494Y77707D01*
X36479Y77681D01*
X36464Y77656D01*
X36448Y77625D01*
X36433Y77591D01*
X36417Y77555D01*
X36404Y77516D01*
X36391Y77472D01*
X36381Y77426D01*
X36373Y77377D01*
X36002Y77444D01*
Y77449D01*
X36004Y77460D01*
X36009Y77480D01*
X36017Y77506D01*
X36025Y77537D01*
X36035Y77573D01*
X36048Y77612D01*
X36066Y77656D01*
X36084Y77702D01*
X36108Y77749D01*
X36131Y77795D01*
X36159Y77844D01*
X36193Y77890D01*
X36226Y77937D01*
X36265Y77981D01*
X36309Y78019D01*
X36311Y78022D01*
X36319Y78027D01*
X36335Y78037D01*
X36353Y78053D01*
X36376Y78068D01*
X36404Y78084D01*
X36435Y78105D01*
X36474Y78123D01*
X36515Y78141D01*
X36562Y78161D01*
X36611Y78177D01*
X36662Y78195D01*
X36719Y78208D01*
X36778Y78218D01*
X36843Y78223D01*
X36907Y78226D01*
X36931D01*
X36949Y78223D01*
D02*
G37*
G36*
X34229Y78210D02*
X34265D01*
X34307Y78208D01*
X34394Y78202D01*
X34482Y78195D01*
X34567Y78184D01*
X34609Y78177D01*
X34645Y78169D01*
X34647D01*
X34655Y78166D01*
X34670Y78164D01*
X34688Y78156D01*
X34709Y78151D01*
X34735Y78143D01*
X34766Y78133D01*
X34797Y78120D01*
X34867Y78089D01*
X34939Y78053D01*
X35014Y78007D01*
X35086Y77952D01*
X35088Y77950D01*
X35096Y77942D01*
X35109Y77932D01*
X35124Y77916D01*
X35145Y77895D01*
X35168Y77872D01*
X35194Y77844D01*
X35220Y77813D01*
X35248Y77777D01*
X35279Y77738D01*
X35308Y77694D01*
X35339Y77650D01*
X35367Y77601D01*
X35395Y77550D01*
X35421Y77493D01*
X35445Y77436D01*
X35447Y77434D01*
X35450Y77423D01*
X35455Y77405D01*
X35462Y77382D01*
X35473Y77351D01*
X35483Y77315D01*
X35493Y77276D01*
X35504Y77230D01*
X35514Y77178D01*
X35524Y77124D01*
X35535Y77065D01*
X35545Y77003D01*
X35553Y76936D01*
X35558Y76866D01*
X35563Y76794D01*
Y76719D01*
Y76717D01*
Y76704D01*
Y76686D01*
Y76662D01*
X35561Y76631D01*
X35558Y76598D01*
X35555Y76556D01*
X35553Y76515D01*
X35548Y76469D01*
X35543Y76420D01*
X35530Y76317D01*
X35509Y76213D01*
X35481Y76110D01*
Y76108D01*
X35478Y76097D01*
X35473Y76084D01*
X35465Y76066D01*
X35457Y76043D01*
X35450Y76017D01*
X35437Y75989D01*
X35424Y75955D01*
X35395Y75886D01*
X35359Y75814D01*
X35321Y75741D01*
X35274Y75672D01*
X35272Y75669D01*
X35269Y75664D01*
X35261Y75656D01*
X35254Y75643D01*
X35241Y75628D01*
X35228Y75612D01*
X35194Y75573D01*
X35153Y75530D01*
X35107Y75483D01*
X35055Y75439D01*
X35001Y75398D01*
X34998D01*
X34993Y75393D01*
X34985Y75388D01*
X34975Y75383D01*
X34959Y75372D01*
X34944Y75365D01*
X34923Y75352D01*
X34900Y75341D01*
X34848Y75315D01*
X34787Y75292D01*
X34719Y75266D01*
X34642Y75246D01*
X34639D01*
X34632Y75243D01*
X34621Y75241D01*
X34606Y75238D01*
X34585Y75236D01*
X34560Y75230D01*
X34534Y75225D01*
X34503Y75223D01*
X34469Y75217D01*
X34431Y75212D01*
X34392Y75207D01*
X34348Y75205D01*
X34258Y75199D01*
X34157Y75197D01*
X33071D01*
Y78213D01*
X34196D01*
X34229Y78210D01*
D02*
G37*
G36*
X-47356Y54246D02*
X-47317Y54244D01*
X-47271Y54238D01*
X-47217Y54231D01*
X-47155Y54220D01*
X-47090Y54207D01*
X-47021Y54189D01*
X-46946Y54169D01*
X-46871Y54143D01*
X-46796Y54109D01*
X-46721Y54073D01*
X-46646Y54029D01*
X-46577Y53978D01*
X-46510Y53921D01*
X-46507Y53918D01*
X-46499Y53913D01*
X-46489Y53900D01*
X-46476Y53885D01*
X-46458Y53864D01*
X-46440Y53841D01*
X-46417Y53813D01*
X-46394Y53779D01*
X-46368Y53743D01*
X-46345Y53702D01*
X-46319Y53655D01*
X-46293Y53606D01*
X-46267Y53552D01*
X-46244Y53493D01*
X-46221Y53433D01*
X-46200Y53366D01*
X-46804Y53222D01*
Y53224D01*
X-46806Y53232D01*
X-46809Y53245D01*
X-46814Y53261D01*
X-46822Y53281D01*
X-46830Y53302D01*
X-46853Y53356D01*
X-46881Y53413D01*
X-46923Y53475D01*
X-46969Y53537D01*
X-46997Y53565D01*
X-47028Y53591D01*
X-47031Y53593D01*
X-47036Y53596D01*
X-47046Y53604D01*
X-47059Y53611D01*
X-47075Y53622D01*
X-47096Y53635D01*
X-47119Y53648D01*
X-47144Y53661D01*
X-47173Y53671D01*
X-47204Y53684D01*
X-47273Y53707D01*
X-47354Y53722D01*
X-47397Y53725D01*
X-47441Y53728D01*
X-47457D01*
X-47472Y53725D01*
X-47498D01*
X-47526Y53720D01*
X-47557Y53715D01*
X-47596Y53707D01*
X-47635Y53697D01*
X-47679Y53684D01*
X-47722Y53668D01*
X-47766Y53648D01*
X-47813Y53624D01*
X-47857Y53599D01*
X-47903Y53565D01*
X-47944Y53529D01*
X-47986Y53485D01*
X-47988Y53483D01*
X-47993Y53475D01*
X-48004Y53459D01*
X-48017Y53439D01*
X-48035Y53413D01*
X-48050Y53382D01*
X-48071Y53343D01*
X-48089Y53297D01*
X-48107Y53248D01*
X-48127Y53188D01*
X-48143Y53126D01*
X-48158Y53054D01*
X-48174Y52979D01*
X-48184Y52894D01*
X-48189Y52804D01*
X-48192Y52706D01*
Y52703D01*
Y52701D01*
Y52690D01*
Y52680D01*
Y52667D01*
X-48189Y52652D01*
Y52613D01*
X-48187Y52567D01*
X-48182Y52512D01*
X-48174Y52453D01*
X-48166Y52391D01*
X-48156Y52324D01*
X-48143Y52257D01*
X-48125Y52190D01*
X-48107Y52123D01*
X-48084Y52058D01*
X-48055Y51999D01*
X-48024Y51942D01*
X-47988Y51893D01*
X-47986Y51891D01*
X-47978Y51883D01*
X-47967Y51870D01*
X-47949Y51854D01*
X-47931Y51836D01*
X-47906Y51816D01*
X-47877Y51795D01*
X-47844Y51772D01*
X-47807Y51749D01*
X-47766Y51728D01*
X-47722Y51707D01*
X-47676Y51689D01*
X-47624Y51674D01*
X-47570Y51661D01*
X-47513Y51653D01*
X-47454Y51651D01*
X-47431D01*
X-47413Y51653D01*
X-47392Y51656D01*
X-47366Y51658D01*
X-47341Y51664D01*
X-47310Y51671D01*
X-47245Y51689D01*
X-47209Y51702D01*
X-47175Y51715D01*
X-47139Y51733D01*
X-47103Y51754D01*
X-47070Y51777D01*
X-47036Y51806D01*
X-47034Y51808D01*
X-47028Y51813D01*
X-47018Y51821D01*
X-47008Y51834D01*
X-46992Y51852D01*
X-46977Y51872D01*
X-46959Y51896D01*
X-46938Y51924D01*
X-46917Y51958D01*
X-46897Y51994D01*
X-46876Y52033D01*
X-46856Y52076D01*
X-46835Y52125D01*
X-46817Y52177D01*
X-46799Y52234D01*
X-46783Y52293D01*
X-46192Y52105D01*
Y52102D01*
X-46195Y52100D01*
Y52092D01*
X-46198Y52084D01*
X-46208Y52058D01*
X-46218Y52025D01*
X-46234Y51983D01*
X-46252Y51934D01*
X-46275Y51883D01*
X-46301Y51826D01*
X-46329Y51769D01*
X-46363Y51707D01*
X-46401Y51645D01*
X-46443Y51586D01*
X-46487Y51527D01*
X-46536Y51470D01*
X-46590Y51419D01*
X-46646Y51369D01*
X-46649Y51367D01*
X-46662Y51359D01*
X-46678Y51346D01*
X-46703Y51333D01*
X-46734Y51313D01*
X-46770Y51295D01*
X-46814Y51271D01*
X-46863Y51251D01*
X-46920Y51227D01*
X-46979Y51204D01*
X-47046Y51186D01*
X-47116Y51168D01*
X-47194Y51153D01*
X-47273Y51140D01*
X-47359Y51132D01*
X-47446Y51130D01*
X-47472D01*
X-47488Y51132D01*
X-47503D01*
X-47524Y51135D01*
X-47547Y51137D01*
X-47599Y51142D01*
X-47658Y51150D01*
X-47722Y51163D01*
X-47795Y51181D01*
X-47872Y51202D01*
X-47952Y51230D01*
X-48035Y51264D01*
X-48117Y51302D01*
X-48200Y51349D01*
X-48280Y51406D01*
X-48360Y51468D01*
X-48434Y51540D01*
X-48440Y51545D01*
X-48450Y51558D01*
X-48471Y51584D01*
X-48494Y51614D01*
X-48525Y51656D01*
X-48556Y51707D01*
X-48592Y51767D01*
X-48625Y51834D01*
X-48662Y51909D01*
X-48698Y51994D01*
X-48729Y52087D01*
X-48760Y52187D01*
X-48783Y52293D01*
X-48803Y52409D01*
X-48814Y52533D01*
X-48819Y52662D01*
Y52665D01*
Y52670D01*
Y52680D01*
Y52696D01*
X-48816Y52714D01*
Y52734D01*
X-48814Y52760D01*
Y52786D01*
X-48811Y52817D01*
X-48806Y52850D01*
X-48798Y52923D01*
X-48785Y53003D01*
X-48770Y53090D01*
X-48749Y53183D01*
X-48723Y53279D01*
X-48693Y53377D01*
X-48656Y53472D01*
X-48612Y53568D01*
X-48558Y53661D01*
X-48499Y53748D01*
X-48432Y53831D01*
X-48427Y53836D01*
X-48414Y53849D01*
X-48391Y53869D01*
X-48362Y53895D01*
X-48321Y53929D01*
X-48274Y53962D01*
X-48220Y54001D01*
X-48158Y54040D01*
X-48089Y54078D01*
X-48011Y54117D01*
X-47926Y54151D01*
X-47836Y54184D01*
X-47738Y54210D01*
X-47635Y54231D01*
X-47526Y54244D01*
X-47410Y54249D01*
X-47372D01*
X-47356Y54246D01*
D02*
G37*
G36*
X-40230Y51181D02*
X-40839D01*
X-42062Y53160D01*
Y51181D01*
X-42624D01*
Y54197D01*
X-42036D01*
X-40793Y52169D01*
Y54197D01*
X-40230D01*
Y51181D01*
D02*
G37*
G36*
X-42952D02*
X-43615D01*
X-43878Y51867D01*
X-45081D01*
X-45331Y51181D01*
X-45976D01*
X-44804Y54197D01*
X-44157D01*
X-42952Y51181D01*
D02*
G37*
G36*
X-31898Y76772D02*
X-32507D01*
X-33730Y78750D01*
Y76772D01*
X-34292D01*
Y79788D01*
X-33704D01*
X-32460Y77760D01*
Y79788D01*
X-31898D01*
Y76772D01*
D02*
G37*
G36*
X-36852D02*
X-37507D01*
X-38583Y79788D01*
X-37925D01*
X-37161Y77556D01*
X-36423Y79788D01*
X-35776D01*
X-36852Y76772D01*
D02*
G37*
G36*
X-34875D02*
X-35484D01*
Y79788D01*
X-34875D01*
Y76772D01*
D02*
G37*
G36*
X-71579Y-18260D02*
Y-18915D01*
X-74595Y-19991D01*
Y-19333D01*
X-72363Y-18570D01*
X-74595Y-17832D01*
Y-17184D01*
X-71579Y-18260D01*
D02*
G37*
G36*
X-72554Y-20120D02*
X-72528D01*
X-72495Y-20125D01*
X-72456Y-20128D01*
X-72414Y-20136D01*
X-72368Y-20144D01*
X-72316Y-20156D01*
X-72265Y-20169D01*
X-72208Y-20187D01*
X-72151Y-20208D01*
X-72095Y-20234D01*
X-72038Y-20262D01*
X-71981Y-20296D01*
X-71924Y-20335D01*
X-71919Y-20337D01*
X-71906Y-20347D01*
X-71888Y-20366D01*
X-71862Y-20389D01*
X-71832Y-20420D01*
X-71798Y-20456D01*
X-71762Y-20497D01*
X-71726Y-20546D01*
X-71690Y-20603D01*
X-71653Y-20662D01*
X-71620Y-20729D01*
X-71589Y-20804D01*
X-71563Y-20881D01*
X-71545Y-20967D01*
X-71532Y-21057D01*
X-71527Y-21152D01*
Y-21170D01*
X-71530Y-21194D01*
Y-21222D01*
X-71535Y-21256D01*
X-71540Y-21297D01*
X-71545Y-21343D01*
X-71555Y-21392D01*
X-71566Y-21447D01*
X-71581Y-21501D01*
X-71599Y-21557D01*
X-71620Y-21614D01*
X-71646Y-21671D01*
X-71677Y-21728D01*
X-71710Y-21782D01*
X-71749Y-21834D01*
X-71751Y-21836D01*
X-71759Y-21844D01*
X-71772Y-21859D01*
X-71790Y-21875D01*
X-71813Y-21895D01*
X-71839Y-21919D01*
X-71873Y-21944D01*
X-71909Y-21970D01*
X-71950Y-21999D01*
X-71994Y-22024D01*
X-72043Y-22050D01*
X-72097Y-22076D01*
X-72154Y-22099D01*
X-72216Y-22117D01*
X-72280Y-22133D01*
X-72350Y-22146D01*
X-72412Y-21570D01*
X-72409D01*
X-72404Y-21568D01*
X-72394D01*
X-72378Y-21565D01*
X-72363Y-21560D01*
X-72345Y-21557D01*
X-72301Y-21544D01*
X-72249Y-21524D01*
X-72198Y-21501D01*
X-72149Y-21467D01*
X-72102Y-21426D01*
Y-21423D01*
X-72097Y-21421D01*
X-72092Y-21413D01*
X-72084Y-21405D01*
X-72066Y-21379D01*
X-72046Y-21346D01*
X-72025Y-21305D01*
X-72007Y-21256D01*
X-71994Y-21201D01*
X-71991Y-21173D01*
X-71989Y-21145D01*
Y-21127D01*
X-71991Y-21114D01*
X-71994Y-21098D01*
X-71997Y-21080D01*
X-72007Y-21039D01*
X-72025Y-20990D01*
X-72038Y-20964D01*
X-72051Y-20938D01*
X-72069Y-20912D01*
X-72087Y-20887D01*
X-72110Y-20861D01*
X-72136Y-20838D01*
X-72139Y-20835D01*
X-72144Y-20832D01*
X-72151Y-20825D01*
X-72164Y-20817D01*
X-72180Y-20809D01*
X-72198Y-20796D01*
X-72221Y-20786D01*
X-72247Y-20773D01*
X-72275Y-20763D01*
X-72309Y-20750D01*
X-72345Y-20740D01*
X-72386Y-20732D01*
X-72427Y-20721D01*
X-72477Y-20716D01*
X-72526Y-20714D01*
X-72580Y-20711D01*
X-72582D01*
X-72593D01*
X-72606D01*
X-72626Y-20714D01*
X-72649D01*
X-72675Y-20719D01*
X-72703Y-20721D01*
X-72737Y-20727D01*
X-72804Y-20742D01*
X-72874Y-20765D01*
X-72907Y-20778D01*
X-72941Y-20796D01*
X-72969Y-20814D01*
X-72998Y-20838D01*
X-73000Y-20840D01*
X-73003Y-20843D01*
X-73010Y-20851D01*
X-73018Y-20861D01*
X-73031Y-20871D01*
X-73041Y-20887D01*
X-73067Y-20925D01*
X-73093Y-20972D01*
X-73116Y-21026D01*
X-73132Y-21090D01*
X-73134Y-21127D01*
X-73137Y-21163D01*
Y-21173D01*
X-73134Y-21186D01*
Y-21204D01*
X-73129Y-21227D01*
X-73127Y-21250D01*
X-73119Y-21279D01*
X-73109Y-21312D01*
X-73098Y-21346D01*
X-73083Y-21379D01*
X-73065Y-21418D01*
X-73044Y-21454D01*
X-73018Y-21493D01*
X-72990Y-21532D01*
X-72956Y-21570D01*
X-72918Y-21609D01*
X-72985Y-22076D01*
X-74556Y-21779D01*
Y-20252D01*
X-74014D01*
Y-21343D01*
X-73501Y-21434D01*
Y-21431D01*
X-73506Y-21426D01*
X-73511Y-21416D01*
X-73516Y-21400D01*
X-73524Y-21382D01*
X-73532Y-21361D01*
X-73539Y-21338D01*
X-73550Y-21312D01*
X-73568Y-21253D01*
X-73583Y-21186D01*
X-73594Y-21114D01*
X-73599Y-21039D01*
Y-21021D01*
X-73596Y-21003D01*
X-73594Y-20974D01*
X-73591Y-20941D01*
X-73583Y-20902D01*
X-73576Y-20861D01*
X-73563Y-20812D01*
X-73550Y-20763D01*
X-73529Y-20711D01*
X-73509Y-20657D01*
X-73480Y-20600D01*
X-73449Y-20546D01*
X-73410Y-20492D01*
X-73367Y-20438D01*
X-73318Y-20386D01*
X-73315Y-20383D01*
X-73305Y-20373D01*
X-73289Y-20360D01*
X-73266Y-20345D01*
X-73238Y-20324D01*
X-73204Y-20301D01*
X-73165Y-20278D01*
X-73122Y-20252D01*
X-73072Y-20226D01*
X-73016Y-20203D01*
X-72956Y-20180D01*
X-72892Y-20159D01*
X-72822Y-20144D01*
X-72750Y-20128D01*
X-72673Y-20120D01*
X-72590Y-20118D01*
X-72585D01*
X-72575D01*
X-72554Y-20120D01*
D02*
G37*
G36*
X-37168Y-14675D02*
X-37135D01*
X-37099Y-14677D01*
X-37057Y-14680D01*
X-37011Y-14682D01*
X-36962Y-14687D01*
X-36910Y-14695D01*
X-36802Y-14711D01*
X-36694Y-14734D01*
X-36588Y-14765D01*
X-36585D01*
X-36572Y-14770D01*
X-36557Y-14778D01*
X-36534Y-14785D01*
X-36505Y-14798D01*
X-36472Y-14811D01*
X-36436Y-14829D01*
X-36397Y-14848D01*
X-36312Y-14894D01*
X-36224Y-14951D01*
X-36136Y-15015D01*
X-36095Y-15051D01*
X-36056Y-15090D01*
X-36054Y-15093D01*
X-36049Y-15098D01*
X-36041Y-15105D01*
X-36031Y-15118D01*
X-36018Y-15134D01*
X-36002Y-15155D01*
X-35987Y-15175D01*
X-35969Y-15201D01*
X-35948Y-15232D01*
X-35930Y-15263D01*
X-35909Y-15299D01*
X-35889Y-15335D01*
X-35868Y-15376D01*
X-35850Y-15420D01*
X-35832Y-15467D01*
X-35814Y-15516D01*
Y-15518D01*
X-35811Y-15526D01*
X-35809Y-15536D01*
X-35803Y-15552D01*
X-35798Y-15572D01*
X-35793Y-15598D01*
X-35788Y-15627D01*
X-35783Y-15660D01*
X-35778Y-15696D01*
X-35772Y-15738D01*
X-35767Y-15781D01*
X-35762Y-15828D01*
X-35757Y-15879D01*
X-35754Y-15936D01*
X-35752Y-15993D01*
Y-17200D01*
X-38768D01*
Y-16026D01*
X-38765Y-15996D01*
Y-15959D01*
X-38763Y-15918D01*
X-38760Y-15874D01*
X-38752Y-15784D01*
X-38742Y-15688D01*
X-38737Y-15642D01*
X-38729Y-15596D01*
X-38719Y-15554D01*
X-38708Y-15516D01*
Y-15513D01*
X-38706Y-15503D01*
X-38701Y-15490D01*
X-38693Y-15472D01*
X-38685Y-15449D01*
X-38672Y-15423D01*
X-38660Y-15392D01*
X-38644Y-15358D01*
X-38605Y-15289D01*
X-38585Y-15250D01*
X-38559Y-15211D01*
X-38530Y-15172D01*
X-38500Y-15134D01*
X-38466Y-15098D01*
X-38430Y-15062D01*
X-38427Y-15059D01*
X-38422Y-15054D01*
X-38409Y-15044D01*
X-38394Y-15031D01*
X-38376Y-15015D01*
X-38353Y-14997D01*
X-38324Y-14976D01*
X-38296Y-14953D01*
X-38260Y-14930D01*
X-38223Y-14907D01*
X-38182Y-14884D01*
X-38141Y-14858D01*
X-38094Y-14835D01*
X-38045Y-14814D01*
X-37942Y-14773D01*
X-37940D01*
X-37929Y-14767D01*
X-37914Y-14762D01*
X-37891Y-14757D01*
X-37862Y-14749D01*
X-37829Y-14742D01*
X-37790Y-14731D01*
X-37746Y-14721D01*
X-37695Y-14713D01*
X-37640Y-14703D01*
X-37584Y-14695D01*
X-37519Y-14687D01*
X-37452Y-14682D01*
X-37382Y-14677D01*
X-37308Y-14672D01*
X-37230D01*
X-37225D01*
X-37215D01*
X-37194D01*
X-37168Y-14675D01*
D02*
G37*
G36*
X-35752Y-18452D02*
X-37731Y-19675D01*
X-35752D01*
Y-20237D01*
X-38768D01*
Y-19649D01*
X-36740Y-18405D01*
X-38768D01*
Y-17843D01*
X-35752D01*
Y-18452D01*
D02*
G37*
G36*
X-36165Y-20805D02*
X-36160Y-20810D01*
X-36149Y-20823D01*
X-36136Y-20838D01*
X-36121Y-20859D01*
X-36100Y-20882D01*
X-36079Y-20910D01*
X-36056Y-20944D01*
X-36033Y-20983D01*
X-36005Y-21024D01*
X-35979Y-21068D01*
X-35950Y-21119D01*
X-35922Y-21174D01*
X-35894Y-21230D01*
X-35868Y-21292D01*
X-35840Y-21359D01*
X-35837Y-21364D01*
X-35834Y-21375D01*
X-35827Y-21396D01*
X-35819Y-21421D01*
X-35809Y-21455D01*
X-35796Y-21494D01*
X-35783Y-21537D01*
X-35770Y-21586D01*
X-35757Y-21641D01*
X-35744Y-21697D01*
X-35734Y-21757D01*
X-35721Y-21821D01*
X-35705Y-21953D01*
X-35703Y-22022D01*
X-35700Y-22092D01*
Y-22113D01*
X-35703Y-22139D01*
Y-22172D01*
X-35705Y-22213D01*
X-35711Y-22260D01*
X-35716Y-22314D01*
X-35726Y-22373D01*
X-35736Y-22435D01*
X-35749Y-22502D01*
X-35765Y-22569D01*
X-35783Y-22642D01*
X-35806Y-22711D01*
X-35832Y-22781D01*
X-35863Y-22851D01*
X-35896Y-22918D01*
X-35899Y-22923D01*
X-35907Y-22933D01*
X-35917Y-22951D01*
X-35932Y-22975D01*
X-35953Y-23005D01*
X-35979Y-23039D01*
X-36007Y-23075D01*
X-36041Y-23116D01*
X-36079Y-23158D01*
X-36123Y-23201D01*
X-36170Y-23245D01*
X-36219Y-23289D01*
X-36276Y-23331D01*
X-36335Y-23372D01*
X-36397Y-23411D01*
X-36464Y-23447D01*
X-36469Y-23449D01*
X-36482Y-23454D01*
X-36500Y-23462D01*
X-36528Y-23475D01*
X-36565Y-23488D01*
X-36603Y-23501D01*
X-36652Y-23519D01*
X-36704Y-23534D01*
X-36761Y-23550D01*
X-36823Y-23565D01*
X-36890Y-23581D01*
X-36959Y-23594D01*
X-37034Y-23607D01*
X-37109Y-23614D01*
X-37189Y-23619D01*
X-37269Y-23622D01*
X-37271D01*
X-37274D01*
X-37290D01*
X-37315Y-23619D01*
X-37349D01*
X-37390Y-23617D01*
X-37437Y-23612D01*
X-37491Y-23607D01*
X-37550Y-23596D01*
X-37615Y-23586D01*
X-37682Y-23573D01*
X-37751Y-23558D01*
X-37821Y-23539D01*
X-37893Y-23516D01*
X-37966Y-23491D01*
X-38038Y-23460D01*
X-38107Y-23426D01*
X-38113Y-23423D01*
X-38123Y-23416D01*
X-38144Y-23405D01*
X-38167Y-23390D01*
X-38198Y-23369D01*
X-38234Y-23343D01*
X-38273Y-23312D01*
X-38314Y-23279D01*
X-38360Y-23240D01*
X-38404Y-23196D01*
X-38451Y-23150D01*
X-38497Y-23098D01*
X-38543Y-23042D01*
X-38587Y-22982D01*
X-38629Y-22918D01*
X-38667Y-22848D01*
X-38670Y-22846D01*
X-38675Y-22835D01*
X-38680Y-22817D01*
X-38691Y-22796D01*
X-38703Y-22768D01*
X-38716Y-22732D01*
X-38729Y-22693D01*
X-38745Y-22649D01*
X-38758Y-22598D01*
X-38770Y-22544D01*
X-38783Y-22484D01*
X-38796Y-22420D01*
X-38807Y-22353D01*
X-38812Y-22280D01*
X-38817Y-22206D01*
X-38820Y-22126D01*
Y-22087D01*
X-38817Y-22072D01*
Y-22033D01*
X-38812Y-21986D01*
X-38807Y-21932D01*
X-38799Y-21870D01*
X-38791Y-21806D01*
X-38778Y-21736D01*
X-38763Y-21664D01*
X-38742Y-21592D01*
X-38719Y-21519D01*
X-38693Y-21447D01*
X-38660Y-21377D01*
X-38623Y-21310D01*
X-38582Y-21248D01*
X-38579Y-21246D01*
X-38572Y-21236D01*
X-38559Y-21217D01*
X-38538Y-21197D01*
X-38515Y-21174D01*
X-38487Y-21143D01*
X-38453Y-21112D01*
X-38412Y-21078D01*
X-38368Y-21045D01*
X-38322Y-21011D01*
X-38267Y-20978D01*
X-38208Y-20944D01*
X-38146Y-20913D01*
X-38079Y-20885D01*
X-38007Y-20861D01*
X-37932Y-20841D01*
X-37818Y-21444D01*
X-37821D01*
X-37829Y-21447D01*
X-37839Y-21452D01*
X-37855Y-21457D01*
X-37875Y-21465D01*
X-37896Y-21475D01*
X-37945Y-21499D01*
X-38002Y-21532D01*
X-38061Y-21574D01*
X-38118Y-21625D01*
X-38144Y-21656D01*
X-38169Y-21687D01*
X-38172Y-21690D01*
X-38175Y-21695D01*
X-38182Y-21705D01*
X-38190Y-21718D01*
X-38200Y-21736D01*
X-38211Y-21757D01*
X-38221Y-21780D01*
X-38234Y-21808D01*
X-38247Y-21837D01*
X-38257Y-21870D01*
X-38267Y-21906D01*
X-38278Y-21945D01*
X-38293Y-22030D01*
X-38296Y-22077D01*
X-38298Y-22126D01*
Y-22144D01*
X-38296Y-22164D01*
X-38293Y-22193D01*
X-38291Y-22226D01*
X-38285Y-22265D01*
X-38278Y-22309D01*
X-38267Y-22355D01*
X-38252Y-22404D01*
X-38236Y-22456D01*
X-38216Y-22510D01*
X-38190Y-22562D01*
X-38162Y-22613D01*
X-38128Y-22665D01*
X-38087Y-22714D01*
X-38043Y-22760D01*
X-38040Y-22763D01*
X-38030Y-22771D01*
X-38017Y-22781D01*
X-37996Y-22796D01*
X-37968Y-22815D01*
X-37937Y-22835D01*
X-37898Y-22856D01*
X-37855Y-22876D01*
X-37806Y-22900D01*
X-37749Y-22920D01*
X-37687Y-22941D01*
X-37620Y-22959D01*
X-37547Y-22975D01*
X-37470Y-22985D01*
X-37385Y-22993D01*
X-37295Y-22995D01*
X-37292D01*
X-37290D01*
X-37282D01*
X-37271D01*
X-37243Y-22993D01*
X-37207D01*
X-37163Y-22987D01*
X-37111Y-22982D01*
X-37055Y-22975D01*
X-36993Y-22964D01*
X-36928Y-22954D01*
X-36861Y-22938D01*
X-36794Y-22918D01*
X-36730Y-22895D01*
X-36663Y-22869D01*
X-36601Y-22835D01*
X-36544Y-22799D01*
X-36490Y-22758D01*
X-36487Y-22755D01*
X-36479Y-22747D01*
X-36464Y-22732D01*
X-36448Y-22714D01*
X-36428Y-22691D01*
X-36405Y-22662D01*
X-36381Y-22629D01*
X-36356Y-22590D01*
X-36330Y-22546D01*
X-36307Y-22500D01*
X-36283Y-22448D01*
X-36263Y-22391D01*
X-36247Y-22332D01*
X-36234Y-22267D01*
X-36224Y-22200D01*
X-36221Y-22131D01*
Y-22097D01*
X-36224Y-22082D01*
X-36227Y-22061D01*
Y-22038D01*
X-36232Y-22012D01*
X-36239Y-21953D01*
X-36252Y-21888D01*
X-36270Y-21821D01*
X-36294Y-21749D01*
Y-21746D01*
X-36296Y-21741D01*
X-36301Y-21731D01*
X-36307Y-21715D01*
X-36314Y-21700D01*
X-36322Y-21679D01*
X-36345Y-21635D01*
X-36371Y-21584D01*
X-36402Y-21527D01*
X-36438Y-21470D01*
X-36477Y-21416D01*
X-36859D01*
Y-22113D01*
X-37369D01*
Y-20802D01*
X-36167D01*
X-36165Y-20805D01*
D02*
G37*
G36*
X-38368Y-28196D02*
X-35863D01*
Y-28805D01*
X-38368D01*
Y-29700D01*
X-38879D01*
Y-27303D01*
X-38368D01*
Y-28196D01*
D02*
G37*
G36*
X-36694Y-30002D02*
X-36671Y-30004D01*
X-36645Y-30007D01*
X-36614Y-30012D01*
X-36580Y-30017D01*
X-36544Y-30025D01*
X-36505Y-30035D01*
X-36425Y-30061D01*
X-36382Y-30077D01*
X-36338Y-30095D01*
X-36296Y-30118D01*
X-36253Y-30144D01*
X-36250Y-30146D01*
X-36242Y-30151D01*
X-36232Y-30159D01*
X-36216Y-30169D01*
X-36196Y-30185D01*
X-36175Y-30203D01*
X-36152Y-30224D01*
X-36126Y-30250D01*
X-36098Y-30275D01*
X-36069Y-30306D01*
X-36041Y-30340D01*
X-36015Y-30376D01*
X-35987Y-30417D01*
X-35961Y-30458D01*
X-35938Y-30502D01*
X-35915Y-30551D01*
Y-30554D01*
X-35909Y-30564D01*
X-35904Y-30577D01*
X-35897Y-30598D01*
X-35889Y-30624D01*
X-35881Y-30654D01*
X-35871Y-30691D01*
X-35860Y-30732D01*
X-35850Y-30778D01*
X-35840Y-30827D01*
X-35832Y-30882D01*
X-35824Y-30938D01*
X-35816Y-31000D01*
X-35811Y-31065D01*
X-35809Y-31134D01*
X-35806Y-31207D01*
Y-31245D01*
X-35809Y-31261D01*
X-35811Y-31302D01*
X-35814Y-31348D01*
X-35819Y-31403D01*
X-35829Y-31465D01*
X-35840Y-31532D01*
X-35853Y-31601D01*
X-35871Y-31674D01*
X-35891Y-31746D01*
X-35917Y-31818D01*
X-35948Y-31890D01*
X-35982Y-31960D01*
X-36023Y-32027D01*
X-36069Y-32086D01*
X-36072Y-32089D01*
X-36082Y-32099D01*
X-36098Y-32115D01*
X-36118Y-32135D01*
X-36147Y-32159D01*
X-36180Y-32187D01*
X-36219Y-32215D01*
X-36266Y-32246D01*
X-36317Y-32277D01*
X-36374Y-32308D01*
X-36436Y-32339D01*
X-36505Y-32368D01*
X-36580Y-32393D01*
X-36663Y-32417D01*
X-36748Y-32437D01*
X-36841Y-32450D01*
X-36898Y-31857D01*
X-36895D01*
X-36885Y-31854D01*
X-36869Y-31852D01*
X-36849Y-31846D01*
X-36823Y-31839D01*
X-36794Y-31831D01*
X-36763Y-31823D01*
X-36730Y-31810D01*
X-36660Y-31782D01*
X-36585Y-31746D01*
X-36518Y-31699D01*
X-36487Y-31671D01*
X-36459Y-31643D01*
X-36456Y-31640D01*
X-36454Y-31635D01*
X-36446Y-31625D01*
X-36438Y-31612D01*
X-36428Y-31596D01*
X-36415Y-31576D01*
X-36402Y-31552D01*
X-36389Y-31527D01*
X-36376Y-31496D01*
X-36364Y-31462D01*
X-36353Y-31426D01*
X-36340Y-31387D01*
X-36332Y-31343D01*
X-36325Y-31299D01*
X-36322Y-31253D01*
X-36320Y-31201D01*
Y-31173D01*
X-36322Y-31152D01*
Y-31129D01*
X-36327Y-31101D01*
X-36330Y-31070D01*
X-36335Y-31036D01*
X-36351Y-30964D01*
X-36371Y-30889D01*
X-36402Y-30820D01*
X-36423Y-30786D01*
X-36443Y-30758D01*
X-36446Y-30755D01*
X-36449Y-30750D01*
X-36456Y-30745D01*
X-36467Y-30735D01*
X-36492Y-30711D01*
X-36526Y-30683D01*
X-36570Y-30654D01*
X-36619Y-30631D01*
X-36645Y-30621D01*
X-36676Y-30613D01*
X-36704Y-30611D01*
X-36735Y-30608D01*
X-36740D01*
X-36753D01*
X-36774Y-30611D01*
X-36797Y-30616D01*
X-36825Y-30624D01*
X-36856Y-30637D01*
X-36887Y-30652D01*
X-36916Y-30673D01*
X-36918Y-30675D01*
X-36928Y-30685D01*
X-36941Y-30701D01*
X-36959Y-30724D01*
X-36980Y-30753D01*
X-37003Y-30791D01*
X-37027Y-30838D01*
X-37047Y-30892D01*
X-37050Y-30897D01*
X-37052Y-30905D01*
X-37055Y-30915D01*
X-37058Y-30928D01*
X-37063Y-30946D01*
X-37070Y-30967D01*
X-37078Y-30992D01*
X-37086Y-31023D01*
X-37096Y-31057D01*
X-37106Y-31098D01*
X-37117Y-31142D01*
X-37132Y-31194D01*
X-37145Y-31248D01*
X-37161Y-31310D01*
X-37179Y-31380D01*
Y-31382D01*
X-37181Y-31385D01*
X-37184Y-31400D01*
X-37192Y-31426D01*
X-37202Y-31460D01*
X-37212Y-31498D01*
X-37228Y-31545D01*
X-37243Y-31594D01*
X-37264Y-31648D01*
X-37305Y-31761D01*
X-37357Y-31875D01*
X-37385Y-31929D01*
X-37416Y-31978D01*
X-37447Y-32024D01*
X-37478Y-32066D01*
X-37481Y-32068D01*
X-37488Y-32079D01*
X-37504Y-32092D01*
X-37522Y-32110D01*
X-37548Y-32130D01*
X-37576Y-32153D01*
X-37610Y-32177D01*
X-37648Y-32203D01*
X-37690Y-32228D01*
X-37736Y-32254D01*
X-37788Y-32277D01*
X-37842Y-32298D01*
X-37899Y-32316D01*
X-37958Y-32329D01*
X-38020Y-32339D01*
X-38087Y-32342D01*
X-38089D01*
X-38097D01*
X-38110D01*
X-38126Y-32339D01*
X-38146Y-32337D01*
X-38170Y-32334D01*
X-38198Y-32331D01*
X-38226Y-32326D01*
X-38293Y-32311D01*
X-38366Y-32288D01*
X-38404Y-32272D01*
X-38440Y-32254D01*
X-38479Y-32236D01*
X-38518Y-32213D01*
X-38520Y-32210D01*
X-38526Y-32208D01*
X-38536Y-32200D01*
X-38551Y-32190D01*
X-38567Y-32174D01*
X-38587Y-32159D01*
X-38608Y-32138D01*
X-38631Y-32117D01*
X-38657Y-32092D01*
X-38680Y-32063D01*
X-38706Y-32032D01*
X-38732Y-31999D01*
X-38758Y-31963D01*
X-38781Y-31924D01*
X-38804Y-31880D01*
X-38825Y-31836D01*
Y-31834D01*
X-38830Y-31826D01*
X-38835Y-31810D01*
X-38840Y-31792D01*
X-38851Y-31769D01*
X-38858Y-31741D01*
X-38869Y-31707D01*
X-38879Y-31671D01*
X-38887Y-31630D01*
X-38897Y-31583D01*
X-38907Y-31534D01*
X-38915Y-31483D01*
X-38920Y-31426D01*
X-38925Y-31369D01*
X-38931Y-31307D01*
Y-31204D01*
X-38928Y-31189D01*
Y-31150D01*
X-38923Y-31103D01*
X-38918Y-31049D01*
X-38910Y-30987D01*
X-38900Y-30923D01*
X-38887Y-30856D01*
X-38869Y-30784D01*
X-38851Y-30714D01*
X-38825Y-30644D01*
X-38796Y-30575D01*
X-38763Y-30507D01*
X-38724Y-30446D01*
X-38680Y-30389D01*
X-38678Y-30386D01*
X-38670Y-30376D01*
X-38655Y-30363D01*
X-38636Y-30345D01*
X-38611Y-30322D01*
X-38580Y-30299D01*
X-38546Y-30270D01*
X-38505Y-30244D01*
X-38458Y-30216D01*
X-38409Y-30190D01*
X-38355Y-30164D01*
X-38296Y-30141D01*
X-38234Y-30121D01*
X-38164Y-30105D01*
X-38092Y-30092D01*
X-38017Y-30087D01*
X-37991Y-30696D01*
X-37994D01*
X-38002Y-30698D01*
X-38015Y-30701D01*
X-38030Y-30703D01*
X-38048Y-30709D01*
X-38072Y-30716D01*
X-38120Y-30732D01*
X-38175Y-30755D01*
X-38229Y-30786D01*
X-38280Y-30822D01*
X-38304Y-30843D01*
X-38324Y-30866D01*
Y-30869D01*
X-38329Y-30871D01*
X-38335Y-30879D01*
X-38340Y-30889D01*
X-38348Y-30902D01*
X-38358Y-30920D01*
X-38366Y-30938D01*
X-38376Y-30961D01*
X-38386Y-30987D01*
X-38394Y-31016D01*
X-38404Y-31047D01*
X-38412Y-31080D01*
X-38417Y-31119D01*
X-38422Y-31158D01*
X-38427Y-31201D01*
Y-31274D01*
X-38425Y-31292D01*
Y-31315D01*
X-38422Y-31341D01*
X-38417Y-31369D01*
X-38415Y-31400D01*
X-38402Y-31467D01*
X-38381Y-31534D01*
X-38353Y-31601D01*
X-38337Y-31635D01*
X-38317Y-31663D01*
X-38314Y-31668D01*
X-38304Y-31679D01*
X-38288Y-31694D01*
X-38267Y-31710D01*
X-38242Y-31728D01*
X-38208Y-31743D01*
X-38172Y-31754D01*
X-38131Y-31759D01*
X-38126D01*
X-38113Y-31756D01*
X-38092Y-31754D01*
X-38066Y-31748D01*
X-38038Y-31736D01*
X-38007Y-31720D01*
X-37976Y-31699D01*
X-37948Y-31668D01*
Y-31666D01*
X-37942Y-31663D01*
X-37937Y-31656D01*
X-37930Y-31643D01*
X-37922Y-31630D01*
X-37911Y-31609D01*
X-37899Y-31586D01*
X-37886Y-31555D01*
X-37870Y-31521D01*
X-37855Y-31483D01*
X-37839Y-31436D01*
X-37821Y-31385D01*
X-37803Y-31328D01*
X-37782Y-31263D01*
X-37764Y-31191D01*
X-37744Y-31111D01*
Y-31106D01*
X-37739Y-31091D01*
X-37734Y-31070D01*
X-37726Y-31039D01*
X-37715Y-31003D01*
X-37705Y-30959D01*
X-37692Y-30913D01*
X-37677Y-30863D01*
X-37643Y-30755D01*
X-37607Y-30647D01*
X-37586Y-30595D01*
X-37566Y-30544D01*
X-37545Y-30497D01*
X-37525Y-30456D01*
Y-30453D01*
X-37519Y-30446D01*
X-37514Y-30435D01*
X-37504Y-30420D01*
X-37494Y-30402D01*
X-37478Y-30381D01*
X-37444Y-30335D01*
X-37401Y-30280D01*
X-37349Y-30224D01*
X-37287Y-30169D01*
X-37218Y-30121D01*
X-37215Y-30118D01*
X-37210Y-30115D01*
X-37197Y-30110D01*
X-37184Y-30102D01*
X-37163Y-30092D01*
X-37140Y-30082D01*
X-37114Y-30071D01*
X-37086Y-30059D01*
X-37052Y-30048D01*
X-37016Y-30038D01*
X-36975Y-30028D01*
X-36934Y-30017D01*
X-36887Y-30009D01*
X-36841Y-30004D01*
X-36789Y-29999D01*
X-36738D01*
X-36735D01*
X-36727D01*
X-36712D01*
X-36694Y-30002D01*
D02*
G37*
G36*
X-35863Y-33356D02*
X-36518Y-33792D01*
X-36524Y-33794D01*
X-36534Y-33802D01*
X-36552Y-33815D01*
X-36575Y-33830D01*
X-36603Y-33849D01*
X-36634Y-33872D01*
X-36668Y-33895D01*
X-36704Y-33921D01*
X-36781Y-33972D01*
X-36854Y-34027D01*
X-36885Y-34052D01*
X-36916Y-34076D01*
X-36939Y-34096D01*
X-36959Y-34114D01*
X-36965Y-34117D01*
X-36975Y-34130D01*
X-36990Y-34145D01*
X-37011Y-34168D01*
X-37032Y-34197D01*
X-37052Y-34228D01*
X-37070Y-34261D01*
X-37086Y-34297D01*
X-37089Y-34303D01*
X-37091Y-34315D01*
X-37096Y-34339D01*
X-37104Y-34372D01*
X-37112Y-34414D01*
X-37114Y-34439D01*
X-37117Y-34468D01*
X-37119Y-34499D01*
Y-34530D01*
X-37122Y-34566D01*
Y-34726D01*
X-35863D01*
Y-35335D01*
X-38879D01*
Y-33975D01*
X-38876Y-33936D01*
X-38874Y-33890D01*
X-38871Y-33841D01*
X-38869Y-33787D01*
X-38858Y-33670D01*
X-38846Y-33554D01*
X-38835Y-33500D01*
X-38825Y-33446D01*
X-38812Y-33397D01*
X-38796Y-33353D01*
Y-33351D01*
X-38794Y-33343D01*
X-38789Y-33333D01*
X-38781Y-33317D01*
X-38771Y-33299D01*
X-38760Y-33276D01*
X-38729Y-33227D01*
X-38711Y-33198D01*
X-38691Y-33170D01*
X-38667Y-33142D01*
X-38642Y-33113D01*
X-38611Y-33082D01*
X-38580Y-33054D01*
X-38546Y-33028D01*
X-38508Y-33002D01*
X-38505Y-33000D01*
X-38497Y-32997D01*
X-38487Y-32989D01*
X-38471Y-32982D01*
X-38451Y-32971D01*
X-38427Y-32961D01*
X-38399Y-32948D01*
X-38371Y-32935D01*
X-38337Y-32925D01*
X-38301Y-32912D01*
X-38260Y-32902D01*
X-38219Y-32891D01*
X-38131Y-32876D01*
X-38082Y-32873D01*
X-38033Y-32871D01*
X-38030D01*
X-38017D01*
X-37999D01*
X-37976Y-32873D01*
X-37948Y-32876D01*
X-37914Y-32881D01*
X-37875Y-32889D01*
X-37834Y-32897D01*
X-37790Y-32907D01*
X-37746Y-32920D01*
X-37700Y-32935D01*
X-37651Y-32956D01*
X-37604Y-32979D01*
X-37558Y-33005D01*
X-37514Y-33036D01*
X-37470Y-33072D01*
X-37468Y-33075D01*
X-37460Y-33082D01*
X-37450Y-33093D01*
X-37434Y-33108D01*
X-37419Y-33129D01*
X-37398Y-33154D01*
X-37377Y-33185D01*
X-37354Y-33222D01*
X-37331Y-33260D01*
X-37305Y-33304D01*
X-37282Y-33353D01*
X-37261Y-33405D01*
X-37241Y-33464D01*
X-37220Y-33526D01*
X-37205Y-33593D01*
X-37192Y-33665D01*
Y-33663D01*
X-37187Y-33658D01*
X-37181Y-33647D01*
X-37171Y-33632D01*
X-37161Y-33616D01*
X-37148Y-33596D01*
X-37117Y-33552D01*
X-37081Y-33500D01*
X-37037Y-33446D01*
X-36990Y-33392D01*
X-36939Y-33340D01*
X-36936Y-33338D01*
X-36931Y-33335D01*
X-36923Y-33327D01*
X-36913Y-33317D01*
X-36898Y-33304D01*
X-36877Y-33289D01*
X-36854Y-33271D01*
X-36828Y-33247D01*
X-36794Y-33224D01*
X-36761Y-33198D01*
X-36720Y-33170D01*
X-36676Y-33139D01*
X-36627Y-33108D01*
X-36573Y-33072D01*
X-36516Y-33033D01*
X-36451Y-32995D01*
X-35863Y-32626D01*
Y-33356D01*
D02*
G37*
G36*
X-31850Y74340D02*
X-31476D01*
Y73835D01*
X-31850D01*
Y73228D01*
X-32410D01*
Y73835D01*
X-33643D01*
Y74338D01*
X-32338Y76257D01*
X-31850D01*
Y74340D01*
D02*
G37*
G36*
X-35111Y76242D02*
X-35005D01*
X-34946Y76239D01*
X-34825Y76234D01*
X-34765Y76229D01*
X-34706Y76224D01*
X-34652Y76219D01*
X-34603Y76213D01*
X-34559Y76206D01*
X-34523Y76198D01*
X-34520D01*
X-34512Y76195D01*
X-34497Y76190D01*
X-34479Y76185D01*
X-34458Y76175D01*
X-34433Y76164D01*
X-34404Y76152D01*
X-34371Y76136D01*
X-34340Y76118D01*
X-34304Y76097D01*
X-34267Y76072D01*
X-34231Y76046D01*
X-34195Y76015D01*
X-34159Y75981D01*
X-34123Y75942D01*
X-34089Y75901D01*
X-34087Y75899D01*
X-34082Y75891D01*
X-34074Y75878D01*
X-34061Y75860D01*
X-34048Y75837D01*
X-34033Y75811D01*
X-34017Y75780D01*
X-34002Y75744D01*
X-33986Y75703D01*
X-33968Y75659D01*
X-33955Y75610D01*
X-33942Y75558D01*
X-33929Y75504D01*
X-33922Y75445D01*
X-33917Y75380D01*
X-33914Y75316D01*
Y75313D01*
Y75303D01*
Y75290D01*
X-33917Y75269D01*
Y75246D01*
X-33919Y75217D01*
X-33922Y75187D01*
X-33927Y75153D01*
X-33937Y75078D01*
X-33955Y75001D01*
X-33981Y74923D01*
X-34015Y74849D01*
Y74846D01*
X-34020Y74841D01*
X-34025Y74831D01*
X-34033Y74818D01*
X-34043Y74802D01*
X-34056Y74784D01*
X-34084Y74740D01*
X-34123Y74694D01*
X-34167Y74645D01*
X-34216Y74596D01*
X-34273Y74552D01*
X-34275D01*
X-34280Y74547D01*
X-34288Y74542D01*
X-34298Y74534D01*
X-34314Y74526D01*
X-34329Y74516D01*
X-34371Y74493D01*
X-34417Y74469D01*
X-34471Y74446D01*
X-34528Y74423D01*
X-34587Y74407D01*
X-34590D01*
X-34598Y74405D01*
X-34611D01*
X-34629Y74402D01*
X-34649Y74397D01*
X-34678Y74395D01*
X-34711Y74392D01*
X-34747Y74387D01*
X-34789Y74384D01*
X-34835Y74379D01*
X-34887Y74376D01*
X-34943Y74374D01*
X-35005Y74371D01*
X-35072Y74369D01*
X-35142Y74366D01*
X-35612D01*
Y73228D01*
X-36220D01*
Y76244D01*
X-35155D01*
X-35111Y76242D01*
D02*
G37*
G36*
X-52560Y-13484D02*
X-53138D01*
Y-11307D01*
X-53140Y-11309D01*
X-53153Y-11320D01*
X-53169Y-11335D01*
X-53195Y-11356D01*
X-53226Y-11379D01*
X-53262Y-11407D01*
X-53303Y-11438D01*
X-53350Y-11472D01*
X-53401Y-11508D01*
X-53461Y-11544D01*
X-53520Y-11580D01*
X-53587Y-11616D01*
X-53657Y-11650D01*
X-53729Y-11683D01*
X-53804Y-11714D01*
X-53884Y-11743D01*
Y-11219D01*
X-53881D01*
X-53873Y-11216D01*
X-53860Y-11211D01*
X-53845Y-11203D01*
X-53824Y-11196D01*
X-53798Y-11186D01*
X-53770Y-11173D01*
X-53739Y-11157D01*
X-53703Y-11139D01*
X-53664Y-11118D01*
X-53626Y-11095D01*
X-53582Y-11072D01*
X-53538Y-11044D01*
X-53491Y-11013D01*
X-53442Y-10977D01*
X-53393Y-10940D01*
X-53391Y-10938D01*
X-53381Y-10930D01*
X-53368Y-10920D01*
X-53350Y-10904D01*
X-53329Y-10884D01*
X-53303Y-10860D01*
X-53277Y-10832D01*
X-53249Y-10801D01*
X-53218Y-10768D01*
X-53187Y-10729D01*
X-53159Y-10690D01*
X-53128Y-10646D01*
X-53099Y-10602D01*
X-53074Y-10556D01*
X-53050Y-10507D01*
X-53030Y-10455D01*
X-52560D01*
Y-13484D01*
D02*
G37*
G36*
X-55607Y-10471D02*
X-55501D01*
X-55442Y-10473D01*
X-55321Y-10479D01*
X-55261Y-10484D01*
X-55202Y-10489D01*
X-55148Y-10494D01*
X-55099Y-10499D01*
X-55055Y-10507D01*
X-55019Y-10515D01*
X-55016D01*
X-55009Y-10517D01*
X-54993Y-10522D01*
X-54975Y-10528D01*
X-54954Y-10538D01*
X-54928Y-10548D01*
X-54900Y-10561D01*
X-54867Y-10577D01*
X-54836Y-10595D01*
X-54799Y-10615D01*
X-54763Y-10641D01*
X-54727Y-10667D01*
X-54691Y-10698D01*
X-54655Y-10731D01*
X-54619Y-10770D01*
X-54585Y-10811D01*
X-54583Y-10814D01*
X-54578Y-10822D01*
X-54570Y-10835D01*
X-54557Y-10853D01*
X-54544Y-10876D01*
X-54529Y-10902D01*
X-54513Y-10933D01*
X-54498Y-10969D01*
X-54482Y-11010D01*
X-54464Y-11054D01*
X-54451Y-11103D01*
X-54438Y-11154D01*
X-54425Y-11209D01*
X-54418Y-11268D01*
X-54413Y-11332D01*
X-54410Y-11397D01*
Y-11400D01*
Y-11410D01*
Y-11423D01*
X-54413Y-11444D01*
Y-11467D01*
X-54415Y-11495D01*
X-54418Y-11526D01*
X-54423Y-11560D01*
X-54433Y-11634D01*
X-54451Y-11712D01*
X-54477Y-11789D01*
X-54510Y-11864D01*
Y-11867D01*
X-54516Y-11872D01*
X-54521Y-11882D01*
X-54529Y-11895D01*
X-54539Y-11910D01*
X-54552Y-11929D01*
X-54580Y-11972D01*
X-54619Y-12019D01*
X-54663Y-12068D01*
X-54712Y-12117D01*
X-54769Y-12161D01*
X-54771D01*
X-54776Y-12166D01*
X-54784Y-12171D01*
X-54794Y-12179D01*
X-54810Y-12186D01*
X-54825Y-12197D01*
X-54867Y-12220D01*
X-54913Y-12243D01*
X-54967Y-12267D01*
X-55024Y-12290D01*
X-55083Y-12305D01*
X-55086D01*
X-55094Y-12308D01*
X-55107D01*
X-55125Y-12310D01*
X-55145Y-12315D01*
X-55174Y-12318D01*
X-55207Y-12321D01*
X-55243Y-12326D01*
X-55285Y-12328D01*
X-55331Y-12334D01*
X-55383Y-12336D01*
X-55439Y-12339D01*
X-55501Y-12341D01*
X-55568Y-12344D01*
X-55638Y-12347D01*
X-56107D01*
Y-13484D01*
X-56716D01*
Y-10468D01*
X-55651D01*
X-55607Y-10471D01*
D02*
G37*
G36*
X60124Y22278D02*
X60163Y22276D01*
X60209Y22271D01*
X60264Y22263D01*
X60325Y22253D01*
X60390Y22240D01*
X60460Y22222D01*
X60535Y22201D01*
X60609Y22175D01*
X60684Y22142D01*
X60759Y22106D01*
X60834Y22062D01*
X60903Y22010D01*
X60970Y21953D01*
X60973Y21951D01*
X60981Y21946D01*
X60991Y21933D01*
X61004Y21917D01*
X61022Y21897D01*
X61040Y21873D01*
X61063Y21845D01*
X61087Y21811D01*
X61112Y21775D01*
X61136Y21734D01*
X61161Y21688D01*
X61187Y21639D01*
X61213Y21584D01*
X61236Y21525D01*
X61259Y21466D01*
X61280Y21399D01*
X60676Y21254D01*
Y21257D01*
X60674Y21264D01*
X60671Y21277D01*
X60666Y21293D01*
X60658Y21314D01*
X60651Y21334D01*
X60627Y21388D01*
X60599Y21445D01*
X60558Y21507D01*
X60511Y21569D01*
X60483Y21597D01*
X60452Y21623D01*
X60449Y21626D01*
X60444Y21628D01*
X60434Y21636D01*
X60421Y21644D01*
X60405Y21654D01*
X60385Y21667D01*
X60362Y21680D01*
X60336Y21693D01*
X60307Y21703D01*
X60277Y21716D01*
X60207Y21739D01*
X60127Y21755D01*
X60083Y21757D01*
X60039Y21760D01*
X60024D01*
X60008Y21757D01*
X59982D01*
X59954Y21752D01*
X59923Y21747D01*
X59884Y21739D01*
X59846Y21729D01*
X59802Y21716D01*
X59758Y21700D01*
X59714Y21680D01*
X59668Y21657D01*
X59624Y21631D01*
X59577Y21597D01*
X59536Y21561D01*
X59495Y21517D01*
X59492Y21515D01*
X59487Y21507D01*
X59477Y21492D01*
X59464Y21471D01*
X59446Y21445D01*
X59430Y21414D01*
X59410Y21375D01*
X59391Y21329D01*
X59373Y21280D01*
X59353Y21221D01*
X59337Y21159D01*
X59322Y21087D01*
X59306Y21012D01*
X59296Y20926D01*
X59291Y20836D01*
X59288Y20738D01*
Y20736D01*
Y20733D01*
Y20723D01*
Y20712D01*
Y20699D01*
X59291Y20684D01*
Y20645D01*
X59294Y20599D01*
X59299Y20545D01*
X59306Y20485D01*
X59314Y20423D01*
X59324Y20356D01*
X59337Y20289D01*
X59355Y20222D01*
X59373Y20155D01*
X59397Y20091D01*
X59425Y20031D01*
X59456Y19974D01*
X59492Y19926D01*
X59495Y19923D01*
X59503Y19915D01*
X59513Y19902D01*
X59531Y19887D01*
X59549Y19869D01*
X59575Y19848D01*
X59603Y19827D01*
X59637Y19804D01*
X59673Y19781D01*
X59714Y19760D01*
X59758Y19740D01*
X59804Y19722D01*
X59856Y19706D01*
X59910Y19693D01*
X59967Y19685D01*
X60026Y19683D01*
X60049D01*
X60067Y19685D01*
X60088Y19688D01*
X60114Y19691D01*
X60140Y19696D01*
X60171Y19704D01*
X60235Y19722D01*
X60271Y19735D01*
X60305Y19747D01*
X60341Y19766D01*
X60377Y19786D01*
X60411Y19809D01*
X60444Y19838D01*
X60447Y19840D01*
X60452Y19846D01*
X60462Y19853D01*
X60473Y19866D01*
X60488Y19884D01*
X60504Y19905D01*
X60522Y19928D01*
X60542Y19956D01*
X60563Y19990D01*
X60584Y20026D01*
X60604Y20065D01*
X60625Y20109D01*
X60645Y20158D01*
X60663Y20209D01*
X60681Y20266D01*
X60697Y20325D01*
X61288Y20137D01*
Y20134D01*
X61285Y20132D01*
Y20124D01*
X61283Y20116D01*
X61272Y20091D01*
X61262Y20057D01*
X61247Y20016D01*
X61229Y19967D01*
X61205Y19915D01*
X61180Y19858D01*
X61151Y19802D01*
X61118Y19740D01*
X61079Y19678D01*
X61038Y19618D01*
X60994Y19559D01*
X60945Y19502D01*
X60891Y19451D01*
X60834Y19402D01*
X60831Y19399D01*
X60818Y19391D01*
X60803Y19378D01*
X60777Y19366D01*
X60746Y19345D01*
X60710Y19327D01*
X60666Y19304D01*
X60617Y19283D01*
X60560Y19260D01*
X60501Y19237D01*
X60434Y19218D01*
X60364Y19200D01*
X60287Y19185D01*
X60207Y19172D01*
X60122Y19164D01*
X60034Y19162D01*
X60008D01*
X59993Y19164D01*
X59977D01*
X59957Y19167D01*
X59933Y19170D01*
X59882Y19175D01*
X59822Y19182D01*
X59758Y19195D01*
X59686Y19213D01*
X59608Y19234D01*
X59528Y19262D01*
X59446Y19296D01*
X59363Y19335D01*
X59281Y19381D01*
X59201Y19438D01*
X59121Y19500D01*
X59046Y19572D01*
X59041Y19577D01*
X59030Y19590D01*
X59010Y19616D01*
X58987Y19647D01*
X58956Y19688D01*
X58925Y19740D01*
X58888Y19799D01*
X58855Y19866D01*
X58819Y19941D01*
X58783Y20026D01*
X58752Y20119D01*
X58721Y20220D01*
X58697Y20325D01*
X58677Y20441D01*
X58666Y20565D01*
X58661Y20694D01*
Y20697D01*
Y20702D01*
Y20712D01*
Y20728D01*
X58664Y20746D01*
Y20766D01*
X58666Y20792D01*
Y20818D01*
X58669Y20849D01*
X58674Y20883D01*
X58682Y20955D01*
X58695Y21035D01*
X58710Y21123D01*
X58731Y21215D01*
X58757Y21311D01*
X58788Y21409D01*
X58824Y21504D01*
X58868Y21600D01*
X58922Y21693D01*
X58981Y21780D01*
X59048Y21863D01*
X59053Y21868D01*
X59066Y21881D01*
X59090Y21902D01*
X59118Y21927D01*
X59159Y21961D01*
X59206Y21995D01*
X59260Y22033D01*
X59322Y22072D01*
X59391Y22111D01*
X59469Y22149D01*
X59554Y22183D01*
X59644Y22217D01*
X59742Y22242D01*
X59846Y22263D01*
X59954Y22276D01*
X60070Y22281D01*
X60109D01*
X60124Y22278D01*
D02*
G37*
G36*
X62647Y22240D02*
X62681Y22237D01*
X62720Y22232D01*
X62764Y22224D01*
X62815Y22211D01*
X62869Y22198D01*
X62929Y22178D01*
X62991Y22155D01*
X63052Y22126D01*
X63115Y22093D01*
X63179Y22051D01*
X63241Y22005D01*
X63300Y21948D01*
X63357Y21886D01*
X63360Y21881D01*
X63370Y21868D01*
X63385Y21848D01*
X63403Y21819D01*
X63424Y21778D01*
X63450Y21732D01*
X63476Y21675D01*
X63504Y21608D01*
X63532Y21530D01*
X63558Y21445D01*
X63584Y21350D01*
X63605Y21244D01*
X63625Y21128D01*
X63633Y21066D01*
X63638Y21001D01*
X63643Y20934D01*
X63648Y20865D01*
X63651Y20792D01*
Y20718D01*
Y20715D01*
Y20707D01*
Y20697D01*
Y20681D01*
Y20661D01*
X63648Y20638D01*
Y20612D01*
X63646Y20583D01*
X63643Y20550D01*
X63641Y20514D01*
X63636Y20436D01*
X63625Y20351D01*
X63612Y20258D01*
X63597Y20160D01*
X63576Y20062D01*
X63551Y19962D01*
X63522Y19863D01*
X63486Y19768D01*
X63445Y19680D01*
X63398Y19598D01*
X63372Y19559D01*
X63344Y19523D01*
X63341Y19518D01*
X63331Y19508D01*
X63313Y19489D01*
X63287Y19466D01*
X63259Y19438D01*
X63220Y19407D01*
X63179Y19373D01*
X63130Y19340D01*
X63073Y19306D01*
X63014Y19273D01*
X62949Y19242D01*
X62877Y19213D01*
X62802Y19190D01*
X62720Y19172D01*
X62635Y19162D01*
X62544Y19157D01*
X62529D01*
X62511Y19159D01*
X62485D01*
X62457Y19162D01*
X62420Y19167D01*
X62382Y19172D01*
X62340Y19180D01*
X62297Y19190D01*
X62250Y19203D01*
X62201Y19218D01*
X62155Y19237D01*
X62106Y19257D01*
X62059Y19283D01*
X62015Y19311D01*
X61971Y19345D01*
X61969Y19347D01*
X61961Y19353D01*
X61951Y19366D01*
X61938Y19381D01*
X61920Y19399D01*
X61899Y19425D01*
X61879Y19453D01*
X61855Y19487D01*
X61832Y19523D01*
X61809Y19567D01*
X61786Y19613D01*
X61762Y19662D01*
X61742Y19719D01*
X61724Y19778D01*
X61708Y19843D01*
X61695Y19910D01*
X62255Y19972D01*
Y19969D01*
Y19964D01*
X62258Y19956D01*
X62261Y19943D01*
X62266Y19913D01*
X62276Y19876D01*
X62289Y19833D01*
X62307Y19791D01*
X62330Y19750D01*
X62358Y19716D01*
X62364Y19714D01*
X62374Y19704D01*
X62395Y19691D01*
X62420Y19678D01*
X62454Y19662D01*
X62493Y19649D01*
X62537Y19639D01*
X62588Y19636D01*
X62606D01*
X62619Y19639D01*
X62635Y19642D01*
X62653Y19644D01*
X62694Y19657D01*
X62743Y19675D01*
X62766Y19691D01*
X62792Y19706D01*
X62818Y19724D01*
X62844Y19745D01*
X62869Y19771D01*
X62893Y19799D01*
X62895Y19802D01*
X62898Y19807D01*
X62906Y19817D01*
X62913Y19833D01*
X62924Y19853D01*
X62934Y19879D01*
X62947Y19910D01*
X62960Y19946D01*
X62973Y19990D01*
X62988Y20039D01*
X63001Y20096D01*
X63014Y20158D01*
X63024Y20227D01*
X63037Y20305D01*
X63045Y20390D01*
X63052Y20483D01*
X63050Y20480D01*
X63042Y20472D01*
X63029Y20459D01*
X63014Y20444D01*
X62993Y20423D01*
X62967Y20403D01*
X62936Y20380D01*
X62903Y20356D01*
X62867Y20333D01*
X62826Y20310D01*
X62779Y20289D01*
X62733Y20269D01*
X62681Y20253D01*
X62627Y20240D01*
X62568Y20233D01*
X62508Y20230D01*
X62493D01*
X62475Y20233D01*
X62449Y20235D01*
X62418Y20238D01*
X62382Y20245D01*
X62343Y20253D01*
X62299Y20263D01*
X62250Y20279D01*
X62201Y20297D01*
X62152Y20318D01*
X62098Y20346D01*
X62046Y20377D01*
X61995Y20413D01*
X61943Y20454D01*
X61894Y20503D01*
X61892Y20506D01*
X61884Y20516D01*
X61871Y20532D01*
X61855Y20552D01*
X61835Y20581D01*
X61814Y20614D01*
X61791Y20653D01*
X61768Y20697D01*
X61742Y20746D01*
X61719Y20800D01*
X61698Y20859D01*
X61680Y20921D01*
X61662Y20991D01*
X61649Y21063D01*
X61641Y21141D01*
X61639Y21221D01*
Y21223D01*
Y21226D01*
Y21241D01*
X61641Y21264D01*
X61644Y21298D01*
X61646Y21337D01*
X61654Y21381D01*
X61662Y21432D01*
X61672Y21486D01*
X61688Y21543D01*
X61706Y21602D01*
X61726Y21664D01*
X61752Y21726D01*
X61783Y21788D01*
X61819Y21848D01*
X61863Y21907D01*
X61910Y21961D01*
X61912Y21964D01*
X61923Y21974D01*
X61938Y21987D01*
X61959Y22005D01*
X61987Y22026D01*
X62018Y22051D01*
X62057Y22075D01*
X62098Y22103D01*
X62147Y22129D01*
X62199Y22155D01*
X62255Y22178D01*
X62317Y22198D01*
X62384Y22217D01*
X62454Y22229D01*
X62526Y22240D01*
X62604Y22242D01*
X62624D01*
X62647Y22240D01*
D02*
G37*
G36*
X72459Y50664D02*
X72490D01*
X72526Y50659D01*
X72570Y50654D01*
X72619Y50646D01*
X72671Y50636D01*
X72725Y50623D01*
X72782Y50607D01*
X72841Y50587D01*
X72900Y50564D01*
X72957Y50538D01*
X73014Y50504D01*
X73068Y50468D01*
X73117Y50424D01*
X73120Y50422D01*
X73127Y50414D01*
X73140Y50401D01*
X73158Y50380D01*
X73176Y50357D01*
X73197Y50329D01*
X73220Y50298D01*
X73246Y50259D01*
X73269Y50218D01*
X73292Y50174D01*
X73313Y50122D01*
X73334Y50071D01*
X73349Y50014D01*
X73362Y49955D01*
X73370Y49893D01*
X73372Y49826D01*
Y49823D01*
Y49815D01*
Y49805D01*
Y49792D01*
X73370Y49774D01*
Y49751D01*
X73367Y49728D01*
X73362Y49702D01*
X73354Y49640D01*
X73341Y49575D01*
X73323Y49506D01*
X73298Y49436D01*
Y49433D01*
X73295Y49428D01*
X73290Y49418D01*
X73285Y49405D01*
X73277Y49387D01*
X73267Y49366D01*
X73256Y49346D01*
X73241Y49320D01*
X73210Y49261D01*
X73171Y49196D01*
X73122Y49126D01*
X73068Y49052D01*
Y49049D01*
X73063Y49046D01*
X73058Y49039D01*
X73047Y49026D01*
X73034Y49013D01*
X73019Y48995D01*
X73001Y48977D01*
X72980Y48954D01*
X72957Y48928D01*
X72929Y48899D01*
X72898Y48869D01*
X72864Y48832D01*
X72825Y48796D01*
X72784Y48755D01*
X72738Y48714D01*
X72689Y48667D01*
X72686Y48665D01*
X72676Y48657D01*
X72663Y48644D01*
X72645Y48626D01*
X72624Y48608D01*
X72598Y48585D01*
X72542Y48533D01*
X72482Y48476D01*
X72426Y48422D01*
X72400Y48396D01*
X72377Y48373D01*
X72356Y48353D01*
X72340Y48334D01*
X72338Y48332D01*
X72328Y48322D01*
X72315Y48303D01*
X72299Y48283D01*
X72278Y48260D01*
X72260Y48231D01*
X72222Y48174D01*
X73372D01*
Y47638D01*
X71347D01*
Y47640D01*
X71350Y47651D01*
X71352Y47669D01*
X71355Y47689D01*
X71360Y47718D01*
X71365Y47749D01*
X71373Y47785D01*
X71383Y47824D01*
X71396Y47867D01*
X71409Y47911D01*
X71443Y48009D01*
X71463Y48058D01*
X71486Y48110D01*
X71515Y48162D01*
X71543Y48213D01*
X71546Y48216D01*
X71551Y48226D01*
X71561Y48241D01*
X71577Y48262D01*
X71597Y48291D01*
X71621Y48324D01*
X71652Y48363D01*
X71688Y48407D01*
X71726Y48456D01*
X71775Y48510D01*
X71827Y48569D01*
X71886Y48634D01*
X71953Y48703D01*
X72026Y48776D01*
X72106Y48853D01*
X72193Y48935D01*
X72198Y48941D01*
X72211Y48951D01*
X72229Y48969D01*
X72255Y48995D01*
X72286Y49023D01*
X72322Y49059D01*
X72359Y49095D01*
X72400Y49134D01*
X72482Y49217D01*
X72521Y49258D01*
X72560Y49299D01*
X72593Y49338D01*
X72624Y49372D01*
X72650Y49405D01*
X72671Y49431D01*
X72673Y49433D01*
X72676Y49439D01*
X72681Y49449D01*
X72689Y49462D01*
X72699Y49477D01*
X72709Y49495D01*
X72720Y49519D01*
X72733Y49542D01*
X72753Y49596D01*
X72774Y49655D01*
X72787Y49720D01*
X72792Y49751D01*
Y49784D01*
Y49787D01*
Y49792D01*
Y49802D01*
X72789Y49815D01*
Y49833D01*
X72787Y49851D01*
X72779Y49895D01*
X72766Y49942D01*
X72748Y49991D01*
X72722Y50040D01*
X72686Y50081D01*
X72681Y50086D01*
X72668Y50096D01*
X72645Y50115D01*
X72611Y50135D01*
X72570Y50153D01*
X72521Y50171D01*
X72464Y50182D01*
X72400Y50187D01*
X72382D01*
X72369Y50184D01*
X72356D01*
X72338Y50182D01*
X72297Y50174D01*
X72250Y50161D01*
X72201Y50140D01*
X72155Y50112D01*
X72131Y50096D01*
X72111Y50076D01*
X72106Y50071D01*
X72101Y50066D01*
X72095Y50055D01*
X72085Y50042D01*
X72077Y50029D01*
X72067Y50011D01*
X72057Y49991D01*
X72046Y49968D01*
X72036Y49939D01*
X72026Y49911D01*
X72015Y49877D01*
X72008Y49841D01*
X72000Y49802D01*
X71995Y49761D01*
X71990Y49715D01*
X71414Y49771D01*
Y49774D01*
Y49777D01*
X71417Y49792D01*
X71419Y49818D01*
X71427Y49849D01*
X71435Y49888D01*
X71445Y49934D01*
X71458Y49983D01*
X71473Y50037D01*
X71492Y50091D01*
X71515Y50148D01*
X71541Y50205D01*
X71569Y50262D01*
X71605Y50316D01*
X71644Y50367D01*
X71685Y50416D01*
X71734Y50458D01*
X71737Y50460D01*
X71747Y50468D01*
X71763Y50478D01*
X71783Y50491D01*
X71809Y50507D01*
X71842Y50525D01*
X71879Y50543D01*
X71922Y50564D01*
X71969Y50582D01*
X72021Y50600D01*
X72077Y50618D01*
X72137Y50633D01*
X72201Y50649D01*
X72268Y50659D01*
X72340Y50664D01*
X72415Y50667D01*
X72436D01*
X72459Y50664D01*
D02*
G37*
G36*
X69709Y50651D02*
X69745D01*
X69786Y50649D01*
X69830Y50646D01*
X69920Y50638D01*
X70016Y50628D01*
X70062Y50623D01*
X70109Y50615D01*
X70150Y50605D01*
X70189Y50595D01*
X70191D01*
X70202Y50592D01*
X70214Y50587D01*
X70232Y50579D01*
X70256Y50571D01*
X70282Y50558D01*
X70312Y50546D01*
X70346Y50530D01*
X70416Y50491D01*
X70454Y50471D01*
X70493Y50445D01*
X70532Y50416D01*
X70570Y50385D01*
X70607Y50352D01*
X70643Y50316D01*
X70645Y50313D01*
X70651Y50308D01*
X70661Y50295D01*
X70674Y50280D01*
X70689Y50262D01*
X70707Y50238D01*
X70728Y50210D01*
X70751Y50182D01*
X70774Y50146D01*
X70798Y50109D01*
X70821Y50068D01*
X70847Y50027D01*
X70870Y49980D01*
X70890Y49931D01*
X70932Y49828D01*
Y49826D01*
X70937Y49815D01*
X70942Y49800D01*
X70947Y49777D01*
X70955Y49748D01*
X70963Y49715D01*
X70973Y49676D01*
X70983Y49632D01*
X70991Y49580D01*
X71001Y49526D01*
X71009Y49470D01*
X71017Y49405D01*
X71022Y49338D01*
X71027Y49268D01*
X71032Y49194D01*
Y49116D01*
Y49111D01*
Y49101D01*
Y49080D01*
X71030Y49054D01*
Y49021D01*
X71027Y48985D01*
X71025Y48943D01*
X71022Y48897D01*
X71017Y48848D01*
X71009Y48796D01*
X70994Y48688D01*
X70970Y48579D01*
X70939Y48474D01*
Y48471D01*
X70934Y48458D01*
X70927Y48443D01*
X70919Y48419D01*
X70906Y48391D01*
X70893Y48358D01*
X70875Y48322D01*
X70857Y48283D01*
X70811Y48198D01*
X70754Y48110D01*
X70689Y48022D01*
X70653Y47981D01*
X70614Y47942D01*
X70612Y47940D01*
X70607Y47934D01*
X70599Y47927D01*
X70586Y47916D01*
X70570Y47903D01*
X70550Y47888D01*
X70529Y47873D01*
X70503Y47855D01*
X70473Y47834D01*
X70442Y47816D01*
X70405Y47795D01*
X70369Y47774D01*
X70328Y47754D01*
X70284Y47736D01*
X70238Y47718D01*
X70189Y47700D01*
X70186D01*
X70178Y47697D01*
X70168Y47695D01*
X70153Y47689D01*
X70132Y47684D01*
X70106Y47679D01*
X70078Y47674D01*
X70044Y47669D01*
X70008Y47664D01*
X69967Y47658D01*
X69923Y47653D01*
X69876Y47648D01*
X69825Y47643D01*
X69768Y47640D01*
X69711Y47638D01*
X68504D01*
Y50654D01*
X69678D01*
X69709Y50651D01*
D02*
G37*
G36*
X61357Y-28470D02*
X61388D01*
X61424Y-28475D01*
X61468Y-28480D01*
X61517Y-28488D01*
X61569Y-28498D01*
X61623Y-28511D01*
X61680Y-28526D01*
X61739Y-28547D01*
X61798Y-28570D01*
X61855Y-28596D01*
X61912Y-28630D01*
X61966Y-28666D01*
X62015Y-28710D01*
X62018Y-28712D01*
X62025Y-28720D01*
X62038Y-28733D01*
X62056Y-28754D01*
X62074Y-28777D01*
X62095Y-28805D01*
X62118Y-28836D01*
X62144Y-28875D01*
X62167Y-28916D01*
X62190Y-28960D01*
X62211Y-29011D01*
X62232Y-29063D01*
X62247Y-29120D01*
X62260Y-29179D01*
X62268Y-29241D01*
X62270Y-29308D01*
Y-29311D01*
Y-29318D01*
Y-29329D01*
Y-29342D01*
X62268Y-29360D01*
Y-29383D01*
X62265Y-29406D01*
X62260Y-29432D01*
X62252Y-29494D01*
X62239Y-29559D01*
X62221Y-29628D01*
X62195Y-29698D01*
Y-29700D01*
X62193Y-29706D01*
X62188Y-29716D01*
X62183Y-29729D01*
X62175Y-29747D01*
X62165Y-29768D01*
X62154Y-29788D01*
X62139Y-29814D01*
X62108Y-29873D01*
X62069Y-29938D01*
X62020Y-30007D01*
X61966Y-30082D01*
Y-30085D01*
X61961Y-30087D01*
X61956Y-30095D01*
X61945Y-30108D01*
X61932Y-30121D01*
X61917Y-30139D01*
X61899Y-30157D01*
X61878Y-30180D01*
X61855Y-30206D01*
X61827Y-30234D01*
X61796Y-30265D01*
X61762Y-30301D01*
X61723Y-30338D01*
X61682Y-30379D01*
X61636Y-30420D01*
X61587Y-30467D01*
X61584Y-30469D01*
X61574Y-30477D01*
X61561Y-30490D01*
X61543Y-30508D01*
X61522Y-30526D01*
X61496Y-30549D01*
X61440Y-30601D01*
X61380Y-30658D01*
X61323Y-30712D01*
X61298Y-30738D01*
X61274Y-30761D01*
X61254Y-30781D01*
X61238Y-30799D01*
X61236Y-30802D01*
X61225Y-30812D01*
X61212Y-30830D01*
X61197Y-30851D01*
X61176Y-30874D01*
X61158Y-30903D01*
X61120Y-30959D01*
X62270D01*
Y-31496D01*
X60245D01*
Y-31493D01*
X60248Y-31483D01*
X60250Y-31465D01*
X60253Y-31444D01*
X60258Y-31416D01*
X60263Y-31385D01*
X60271Y-31349D01*
X60281Y-31310D01*
X60294Y-31266D01*
X60307Y-31223D01*
X60340Y-31124D01*
X60361Y-31076D01*
X60384Y-31024D01*
X60413Y-30972D01*
X60441Y-30921D01*
X60444Y-30918D01*
X60449Y-30908D01*
X60459Y-30892D01*
X60475Y-30872D01*
X60495Y-30843D01*
X60518Y-30810D01*
X60549Y-30771D01*
X60586Y-30727D01*
X60624Y-30678D01*
X60673Y-30624D01*
X60725Y-30565D01*
X60784Y-30500D01*
X60851Y-30430D01*
X60924Y-30358D01*
X61004Y-30281D01*
X61091Y-30198D01*
X61096Y-30193D01*
X61109Y-30183D01*
X61127Y-30165D01*
X61153Y-30139D01*
X61184Y-30111D01*
X61220Y-30075D01*
X61256Y-30038D01*
X61298Y-30000D01*
X61380Y-29917D01*
X61419Y-29876D01*
X61458Y-29834D01*
X61491Y-29796D01*
X61522Y-29762D01*
X61548Y-29729D01*
X61569Y-29703D01*
X61571Y-29700D01*
X61574Y-29695D01*
X61579Y-29685D01*
X61587Y-29672D01*
X61597Y-29656D01*
X61607Y-29638D01*
X61618Y-29615D01*
X61630Y-29592D01*
X61651Y-29538D01*
X61672Y-29478D01*
X61685Y-29414D01*
X61690Y-29383D01*
Y-29349D01*
Y-29347D01*
Y-29342D01*
Y-29331D01*
X61687Y-29318D01*
Y-29300D01*
X61685Y-29282D01*
X61677Y-29239D01*
X61664Y-29192D01*
X61646Y-29143D01*
X61620Y-29094D01*
X61584Y-29053D01*
X61579Y-29048D01*
X61566Y-29037D01*
X61543Y-29019D01*
X61509Y-28999D01*
X61468Y-28981D01*
X61419Y-28962D01*
X61362Y-28952D01*
X61298Y-28947D01*
X61280D01*
X61267Y-28950D01*
X61254D01*
X61236Y-28952D01*
X61194Y-28960D01*
X61148Y-28973D01*
X61099Y-28993D01*
X61053Y-29022D01*
X61029Y-29037D01*
X61009Y-29058D01*
X61004Y-29063D01*
X60998Y-29068D01*
X60993Y-29079D01*
X60983Y-29092D01*
X60975Y-29104D01*
X60965Y-29122D01*
X60954Y-29143D01*
X60944Y-29166D01*
X60934Y-29195D01*
X60924Y-29223D01*
X60913Y-29257D01*
X60905Y-29293D01*
X60898Y-29331D01*
X60893Y-29373D01*
X60887Y-29419D01*
X60312Y-29362D01*
Y-29360D01*
Y-29357D01*
X60315Y-29342D01*
X60317Y-29316D01*
X60325Y-29285D01*
X60333Y-29246D01*
X60343Y-29200D01*
X60356Y-29151D01*
X60372Y-29097D01*
X60390Y-29043D01*
X60413Y-28986D01*
X60439Y-28929D01*
X60467Y-28872D01*
X60503Y-28818D01*
X60542Y-28766D01*
X60583Y-28717D01*
X60632Y-28676D01*
X60635Y-28673D01*
X60645Y-28666D01*
X60660Y-28655D01*
X60681Y-28643D01*
X60707Y-28627D01*
X60740Y-28609D01*
X60777Y-28591D01*
X60820Y-28570D01*
X60867Y-28552D01*
X60918Y-28534D01*
X60975Y-28516D01*
X61035Y-28501D01*
X61099Y-28485D01*
X61166Y-28475D01*
X61238Y-28470D01*
X61313Y-28467D01*
X61334D01*
X61357Y-28470D01*
D02*
G37*
G36*
X59943Y-28991D02*
X58483D01*
Y-29703D01*
X59745D01*
Y-30214D01*
X58483D01*
Y-31496D01*
X57874D01*
Y-28480D01*
X59943D01*
Y-28991D01*
D02*
G37*
G36*
X71320Y21281D02*
Y21276D01*
Y21266D01*
Y21245D01*
Y21219D01*
X71317Y21189D01*
Y21152D01*
X71314Y21114D01*
X71312Y21070D01*
X71304Y20977D01*
X71291Y20881D01*
X71276Y20789D01*
X71265Y20745D01*
X71253Y20706D01*
Y20704D01*
X71247Y20696D01*
X71242Y20680D01*
X71235Y20662D01*
X71224Y20639D01*
X71211Y20613D01*
X71198Y20585D01*
X71180Y20554D01*
X71160Y20520D01*
X71136Y20487D01*
X71108Y20453D01*
X71080Y20417D01*
X71046Y20381D01*
X71013Y20347D01*
X70971Y20314D01*
X70930Y20283D01*
X70927Y20280D01*
X70920Y20275D01*
X70907Y20267D01*
X70889Y20260D01*
X70865Y20247D01*
X70837Y20234D01*
X70804Y20219D01*
X70767Y20206D01*
X70724Y20190D01*
X70680Y20175D01*
X70628Y20162D01*
X70574Y20151D01*
X70515Y20141D01*
X70453Y20133D01*
X70388Y20128D01*
X70319Y20126D01*
X70298D01*
X70275Y20128D01*
X70246Y20131D01*
X70208Y20133D01*
X70164Y20139D01*
X70117Y20146D01*
X70066Y20156D01*
X70012Y20169D01*
X69955Y20185D01*
X69898Y20206D01*
X69839Y20231D01*
X69784Y20260D01*
X69728Y20291D01*
X69679Y20329D01*
X69630Y20373D01*
X69627Y20376D01*
X69619Y20386D01*
X69607Y20399D01*
X69594Y20420D01*
X69573Y20446D01*
X69555Y20479D01*
X69532Y20515D01*
X69511Y20559D01*
X69488Y20608D01*
X69465Y20662D01*
X69446Y20724D01*
X69428Y20789D01*
X69413Y20861D01*
X69400Y20938D01*
X69392Y21021D01*
X69390Y21109D01*
X69963Y21176D01*
Y21173D01*
Y21165D01*
Y21150D01*
X69965Y21134D01*
X69968Y21111D01*
Y21088D01*
X69975Y21031D01*
X69983Y20972D01*
X69999Y20912D01*
X70014Y20856D01*
X70025Y20830D01*
X70037Y20809D01*
Y20807D01*
X70043Y20801D01*
X70048Y20794D01*
X70055Y20784D01*
X70079Y20758D01*
X70112Y20729D01*
X70153Y20698D01*
X70205Y20673D01*
X70233Y20662D01*
X70267Y20654D01*
X70301Y20649D01*
X70337Y20647D01*
X70357D01*
X70370Y20649D01*
X70386D01*
X70406Y20652D01*
X70450Y20662D01*
X70497Y20675D01*
X70546Y20696D01*
X70590Y20724D01*
X70608Y20742D01*
X70626Y20763D01*
Y20765D01*
X70628Y20768D01*
X70633Y20776D01*
X70639Y20786D01*
X70646Y20801D01*
X70651Y20820D01*
X70659Y20840D01*
X70669Y20866D01*
X70677Y20897D01*
X70685Y20931D01*
X70690Y20972D01*
X70698Y21016D01*
X70703Y21065D01*
X70708Y21119D01*
X70711Y21181D01*
Y21245D01*
Y23193D01*
X71320D01*
Y21281D01*
D02*
G37*
G36*
X73317Y20177D02*
X72739D01*
Y22355D01*
X72736Y22352D01*
X72723Y22342D01*
X72708Y22326D01*
X72682Y22306D01*
X72651Y22283D01*
X72615Y22254D01*
X72574Y22223D01*
X72527Y22190D01*
X72475Y22153D01*
X72416Y22117D01*
X72357Y22081D01*
X72290Y22045D01*
X72220Y22012D01*
X72148Y21978D01*
X72073Y21947D01*
X71993Y21919D01*
Y22442D01*
X71996D01*
X72003Y22445D01*
X72016Y22450D01*
X72032Y22458D01*
X72052Y22466D01*
X72078Y22476D01*
X72106Y22489D01*
X72137Y22504D01*
X72174Y22522D01*
X72212Y22543D01*
X72251Y22566D01*
X72295Y22590D01*
X72339Y22618D01*
X72385Y22649D01*
X72434Y22685D01*
X72483Y22721D01*
X72486Y22724D01*
X72496Y22731D01*
X72509Y22742D01*
X72527Y22757D01*
X72548Y22778D01*
X72574Y22801D01*
X72599Y22829D01*
X72628Y22860D01*
X72659Y22894D01*
X72690Y22933D01*
X72718Y22971D01*
X72749Y23015D01*
X72777Y23059D01*
X72803Y23106D01*
X72826Y23155D01*
X72847Y23206D01*
X73317D01*
Y20177D01*
D02*
G37*
G36*
X54253Y35159D02*
X54284D01*
X54320Y35153D01*
X54364Y35148D01*
X54413Y35141D01*
X54465Y35130D01*
X54519Y35117D01*
X54576Y35102D01*
X54635Y35081D01*
X54694Y35058D01*
X54751Y35032D01*
X54808Y34999D01*
X54862Y34962D01*
X54911Y34919D01*
X54914Y34916D01*
X54921Y34908D01*
X54934Y34896D01*
X54952Y34875D01*
X54971Y34852D01*
X54991Y34823D01*
X55014Y34792D01*
X55040Y34754D01*
X55063Y34712D01*
X55086Y34668D01*
X55107Y34617D01*
X55128Y34565D01*
X55143Y34508D01*
X55156Y34449D01*
X55164Y34387D01*
X55167Y34320D01*
Y34317D01*
Y34310D01*
Y34299D01*
Y34287D01*
X55164Y34269D01*
Y34245D01*
X55161Y34222D01*
X55156Y34196D01*
X55149Y34134D01*
X55136Y34070D01*
X55117Y34000D01*
X55092Y33931D01*
Y33928D01*
X55089Y33923D01*
X55084Y33913D01*
X55079Y33900D01*
X55071Y33882D01*
X55061Y33861D01*
X55050Y33840D01*
X55035Y33814D01*
X55004Y33755D01*
X54965Y33691D01*
X54916Y33621D01*
X54862Y33546D01*
Y33544D01*
X54857Y33541D01*
X54852Y33533D01*
X54841Y33520D01*
X54829Y33507D01*
X54813Y33489D01*
X54795Y33471D01*
X54774Y33448D01*
X54751Y33422D01*
X54723Y33394D01*
X54692Y33363D01*
X54658Y33327D01*
X54620Y33291D01*
X54578Y33249D01*
X54532Y33208D01*
X54483Y33162D01*
X54480Y33159D01*
X54470Y33151D01*
X54457Y33138D01*
X54439Y33120D01*
X54418Y33102D01*
X54392Y33079D01*
X54336Y33027D01*
X54276Y32971D01*
X54220Y32917D01*
X54194Y32891D01*
X54171Y32868D01*
X54150Y32847D01*
X54135Y32829D01*
X54132Y32826D01*
X54122Y32816D01*
X54109Y32798D01*
X54093Y32777D01*
X54073Y32754D01*
X54054Y32726D01*
X54016Y32669D01*
X55167D01*
Y32132D01*
X53141D01*
Y32135D01*
X53144Y32145D01*
X53146Y32163D01*
X53149Y32184D01*
X53154Y32212D01*
X53159Y32243D01*
X53167Y32279D01*
X53177Y32318D01*
X53190Y32362D01*
X53203Y32406D01*
X53237Y32504D01*
X53257Y32553D01*
X53281Y32604D01*
X53309Y32656D01*
X53337Y32708D01*
X53340Y32710D01*
X53345Y32721D01*
X53355Y32736D01*
X53371Y32757D01*
X53391Y32785D01*
X53415Y32819D01*
X53446Y32857D01*
X53482Y32901D01*
X53521Y32950D01*
X53570Y33004D01*
X53621Y33064D01*
X53680Y33128D01*
X53747Y33198D01*
X53820Y33270D01*
X53900Y33347D01*
X53987Y33430D01*
X53993Y33435D01*
X54005Y33446D01*
X54024Y33464D01*
X54049Y33489D01*
X54080Y33518D01*
X54116Y33554D01*
X54153Y33590D01*
X54194Y33629D01*
X54276Y33711D01*
X54315Y33753D01*
X54354Y33794D01*
X54387Y33832D01*
X54418Y33866D01*
X54444Y33900D01*
X54465Y33925D01*
X54467Y33928D01*
X54470Y33933D01*
X54475Y33943D01*
X54483Y33956D01*
X54493Y33972D01*
X54504Y33990D01*
X54514Y34013D01*
X54527Y34036D01*
X54547Y34091D01*
X54568Y34150D01*
X54581Y34214D01*
X54586Y34245D01*
Y34279D01*
Y34281D01*
Y34287D01*
Y34297D01*
X54584Y34310D01*
Y34328D01*
X54581Y34346D01*
X54573Y34390D01*
X54560Y34436D01*
X54542Y34485D01*
X54516Y34534D01*
X54480Y34576D01*
X54475Y34581D01*
X54462Y34591D01*
X54439Y34609D01*
X54405Y34630D01*
X54364Y34648D01*
X54315Y34666D01*
X54258Y34676D01*
X54194Y34681D01*
X54176D01*
X54163Y34679D01*
X54150D01*
X54132Y34676D01*
X54091Y34668D01*
X54044Y34655D01*
X53995Y34635D01*
X53949Y34607D01*
X53926Y34591D01*
X53905Y34570D01*
X53900Y34565D01*
X53895Y34560D01*
X53889Y34550D01*
X53879Y34537D01*
X53871Y34524D01*
X53861Y34506D01*
X53851Y34485D01*
X53840Y34462D01*
X53830Y34434D01*
X53820Y34405D01*
X53809Y34372D01*
X53802Y34336D01*
X53794Y34297D01*
X53789Y34256D01*
X53784Y34209D01*
X53208Y34266D01*
Y34269D01*
Y34271D01*
X53211Y34287D01*
X53214Y34312D01*
X53221Y34343D01*
X53229Y34382D01*
X53239Y34429D01*
X53252Y34477D01*
X53268Y34532D01*
X53286Y34586D01*
X53309Y34643D01*
X53335Y34699D01*
X53363Y34756D01*
X53399Y34810D01*
X53438Y34862D01*
X53479Y34911D01*
X53528Y34952D01*
X53531Y34955D01*
X53541Y34962D01*
X53557Y34973D01*
X53577Y34986D01*
X53603Y35001D01*
X53637Y35019D01*
X53673Y35037D01*
X53717Y35058D01*
X53763Y35076D01*
X53815Y35094D01*
X53871Y35112D01*
X53931Y35128D01*
X53995Y35143D01*
X54062Y35153D01*
X54135Y35159D01*
X54209Y35161D01*
X54230D01*
X54253Y35159D01*
D02*
G37*
G36*
X51645Y35146D02*
X51751D01*
X51810Y35143D01*
X51931Y35138D01*
X51990Y35133D01*
X52050Y35128D01*
X52104Y35122D01*
X52153Y35117D01*
X52197Y35110D01*
X52233Y35102D01*
X52236D01*
X52243Y35099D01*
X52259Y35094D01*
X52277Y35089D01*
X52298Y35079D01*
X52323Y35068D01*
X52352Y35055D01*
X52385Y35040D01*
X52416Y35022D01*
X52452Y35001D01*
X52488Y34975D01*
X52525Y34950D01*
X52561Y34919D01*
X52597Y34885D01*
X52633Y34846D01*
X52666Y34805D01*
X52669Y34803D01*
X52674Y34795D01*
X52682Y34782D01*
X52695Y34764D01*
X52708Y34741D01*
X52723Y34715D01*
X52739Y34684D01*
X52754Y34648D01*
X52770Y34607D01*
X52788Y34563D01*
X52801Y34514D01*
X52814Y34462D01*
X52826Y34408D01*
X52834Y34348D01*
X52839Y34284D01*
X52842Y34220D01*
Y34217D01*
Y34207D01*
Y34194D01*
X52839Y34173D01*
Y34150D01*
X52837Y34122D01*
X52834Y34091D01*
X52829Y34057D01*
X52819Y33982D01*
X52801Y33905D01*
X52775Y33827D01*
X52741Y33753D01*
Y33750D01*
X52736Y33745D01*
X52731Y33735D01*
X52723Y33722D01*
X52713Y33706D01*
X52700Y33688D01*
X52672Y33644D01*
X52633Y33598D01*
X52589Y33549D01*
X52540Y33500D01*
X52483Y33456D01*
X52481D01*
X52476Y33451D01*
X52468Y33446D01*
X52457Y33438D01*
X52442Y33430D01*
X52427Y33420D01*
X52385Y33397D01*
X52339Y33373D01*
X52285Y33350D01*
X52228Y33327D01*
X52169Y33311D01*
X52166D01*
X52158Y33309D01*
X52145D01*
X52127Y33306D01*
X52107Y33301D01*
X52078Y33298D01*
X52045Y33296D01*
X52009Y33291D01*
X51967Y33288D01*
X51921Y33283D01*
X51869Y33280D01*
X51812Y33278D01*
X51751Y33275D01*
X51683Y33273D01*
X51614Y33270D01*
X51144D01*
Y32132D01*
X50535D01*
Y35148D01*
X51601D01*
X51645Y35146D01*
D02*
G37*
G36*
X-22324Y-19043D02*
Y-19046D01*
Y-19048D01*
Y-19056D01*
Y-19066D01*
Y-19095D01*
Y-19131D01*
X-22326Y-19175D01*
Y-19226D01*
X-22329Y-19283D01*
Y-19342D01*
X-22334Y-19404D01*
X-22337Y-19469D01*
X-22344Y-19595D01*
X-22352Y-19655D01*
X-22357Y-19711D01*
X-22365Y-19763D01*
X-22375Y-19809D01*
Y-19812D01*
X-22378Y-19820D01*
X-22380Y-19830D01*
X-22386Y-19846D01*
X-22391Y-19866D01*
X-22399Y-19889D01*
X-22406Y-19913D01*
X-22417Y-19941D01*
X-22442Y-20000D01*
X-22473Y-20065D01*
X-22512Y-20127D01*
X-22558Y-20189D01*
X-22561Y-20191D01*
X-22564Y-20196D01*
X-22571Y-20204D01*
X-22582Y-20214D01*
X-22595Y-20227D01*
X-22613Y-20243D01*
X-22631Y-20258D01*
X-22651Y-20276D01*
X-22677Y-20297D01*
X-22703Y-20318D01*
X-22762Y-20356D01*
X-22832Y-20398D01*
X-22912Y-20434D01*
X-22915D01*
X-22922Y-20436D01*
X-22935Y-20441D01*
X-22953Y-20447D01*
X-22974Y-20454D01*
X-23002Y-20462D01*
X-23033Y-20470D01*
X-23067Y-20478D01*
X-23108Y-20488D01*
X-23152Y-20496D01*
X-23198Y-20503D01*
X-23250Y-20508D01*
X-23307Y-20516D01*
X-23363Y-20519D01*
X-23428Y-20524D01*
X-23534D01*
X-23562Y-20521D01*
X-23598D01*
X-23640Y-20519D01*
X-23686Y-20516D01*
X-23735Y-20511D01*
X-23789Y-20506D01*
X-23841Y-20501D01*
X-23952Y-20483D01*
X-24003Y-20472D01*
X-24055Y-20459D01*
X-24104Y-20444D01*
X-24148Y-20426D01*
X-24150D01*
X-24158Y-20421D01*
X-24168Y-20416D01*
X-24184Y-20408D01*
X-24202Y-20398D01*
X-24225Y-20385D01*
X-24274Y-20356D01*
X-24331Y-20318D01*
X-24390Y-20274D01*
X-24447Y-20225D01*
X-24499Y-20168D01*
X-24501Y-20165D01*
X-24504Y-20160D01*
X-24511Y-20153D01*
X-24519Y-20140D01*
X-24530Y-20127D01*
X-24543Y-20109D01*
X-24568Y-20065D01*
X-24597Y-20016D01*
X-24625Y-19959D01*
X-24651Y-19897D01*
X-24669Y-19833D01*
Y-19830D01*
X-24671Y-19820D01*
X-24674Y-19804D01*
X-24679Y-19784D01*
X-24682Y-19758D01*
X-24687Y-19724D01*
X-24692Y-19683D01*
X-24697Y-19639D01*
X-24705Y-19588D01*
X-24710Y-19531D01*
X-24715Y-19469D01*
X-24718Y-19399D01*
X-24723Y-19324D01*
X-24726Y-19244D01*
X-24728Y-19159D01*
Y-19066D01*
Y-17456D01*
X-24119D01*
Y-19092D01*
Y-19097D01*
Y-19110D01*
Y-19128D01*
Y-19154D01*
Y-19185D01*
Y-19221D01*
X-24117Y-19260D01*
Y-19301D01*
X-24114Y-19384D01*
X-24112Y-19469D01*
X-24109Y-19505D01*
X-24106Y-19541D01*
X-24101Y-19569D01*
X-24099Y-19595D01*
Y-19598D01*
X-24096Y-19603D01*
X-24094Y-19613D01*
X-24091Y-19626D01*
X-24086Y-19642D01*
X-24078Y-19660D01*
X-24060Y-19701D01*
X-24037Y-19750D01*
X-24003Y-19799D01*
X-23962Y-19848D01*
X-23913Y-19892D01*
X-23910D01*
X-23905Y-19897D01*
X-23898Y-19902D01*
X-23887Y-19910D01*
X-23872Y-19918D01*
X-23854Y-19928D01*
X-23830Y-19936D01*
X-23807Y-19946D01*
X-23781Y-19956D01*
X-23750Y-19967D01*
X-23717Y-19977D01*
X-23681Y-19985D01*
X-23642Y-19993D01*
X-23601Y-19998D01*
X-23557Y-20000D01*
X-23510Y-20003D01*
X-23485D01*
X-23467Y-20000D01*
X-23446D01*
X-23420Y-19998D01*
X-23394Y-19995D01*
X-23363Y-19990D01*
X-23299Y-19977D01*
X-23234Y-19959D01*
X-23173Y-19933D01*
X-23144Y-19915D01*
X-23118Y-19897D01*
X-23116Y-19895D01*
X-23113Y-19892D01*
X-23098Y-19879D01*
X-23075Y-19856D01*
X-23049Y-19825D01*
X-23023Y-19789D01*
X-22997Y-19742D01*
X-22974Y-19693D01*
X-22961Y-19639D01*
Y-19636D01*
X-22958Y-19631D01*
Y-19624D01*
X-22956Y-19608D01*
X-22953Y-19593D01*
X-22951Y-19572D01*
X-22948Y-19546D01*
X-22945Y-19518D01*
X-22943Y-19484D01*
X-22940Y-19446D01*
Y-19404D01*
X-22938Y-19358D01*
X-22935Y-19306D01*
X-22933Y-19250D01*
Y-19190D01*
Y-19126D01*
Y-17456D01*
X-22324D01*
Y-19043D01*
D02*
G37*
G36*
X-20332Y-20472D02*
X-20910D01*
Y-18295D01*
X-20912Y-18297D01*
X-20925Y-18308D01*
X-20941Y-18323D01*
X-20967Y-18344D01*
X-20998Y-18367D01*
X-21034Y-18395D01*
X-21075Y-18427D01*
X-21121Y-18460D01*
X-21173Y-18496D01*
X-21232Y-18532D01*
X-21292Y-18568D01*
X-21359Y-18605D01*
X-21428Y-18638D01*
X-21501Y-18672D01*
X-21576Y-18702D01*
X-21655Y-18731D01*
Y-18207D01*
X-21653D01*
X-21645Y-18205D01*
X-21632Y-18199D01*
X-21617Y-18192D01*
X-21596Y-18184D01*
X-21570Y-18174D01*
X-21542Y-18161D01*
X-21511Y-18145D01*
X-21475Y-18127D01*
X-21436Y-18107D01*
X-21397Y-18083D01*
X-21354Y-18060D01*
X-21310Y-18032D01*
X-21263Y-18001D01*
X-21214Y-17965D01*
X-21165Y-17929D01*
X-21163Y-17926D01*
X-21152Y-17918D01*
X-21139Y-17908D01*
X-21121Y-17892D01*
X-21101Y-17872D01*
X-21075Y-17849D01*
X-21049Y-17820D01*
X-21021Y-17789D01*
X-20990Y-17756D01*
X-20959Y-17717D01*
X-20931Y-17678D01*
X-20899Y-17634D01*
X-20871Y-17591D01*
X-20845Y-17544D01*
X-20822Y-17495D01*
X-20801Y-17444D01*
X-20332D01*
Y-20472D01*
D02*
G37*
G36*
X12916Y50445D02*
Y50442D01*
Y50440D01*
Y50432D01*
Y50422D01*
Y50393D01*
Y50357D01*
X12914Y50314D01*
Y50262D01*
X12911Y50205D01*
Y50146D01*
X12906Y50084D01*
X12903Y50019D01*
X12896Y49893D01*
X12888Y49834D01*
X12883Y49777D01*
X12875Y49725D01*
X12865Y49679D01*
Y49676D01*
X12862Y49668D01*
X12860Y49658D01*
X12854Y49643D01*
X12849Y49622D01*
X12842Y49599D01*
X12834Y49576D01*
X12823Y49547D01*
X12798Y49488D01*
X12767Y49423D01*
X12728Y49362D01*
X12682Y49299D01*
X12679Y49297D01*
X12676Y49292D01*
X12669Y49284D01*
X12658Y49274D01*
X12645Y49261D01*
X12627Y49245D01*
X12609Y49230D01*
X12589Y49212D01*
X12563Y49191D01*
X12537Y49171D01*
X12478Y49132D01*
X12408Y49091D01*
X12328Y49054D01*
X12325D01*
X12318Y49052D01*
X12305Y49047D01*
X12287Y49042D01*
X12266Y49034D01*
X12238Y49026D01*
X12207Y49018D01*
X12173Y49011D01*
X12132Y49000D01*
X12088Y48992D01*
X12042Y48985D01*
X11990Y48980D01*
X11933Y48972D01*
X11877Y48969D01*
X11812Y48964D01*
X11706D01*
X11678Y48967D01*
X11642D01*
X11601Y48969D01*
X11554Y48972D01*
X11505Y48977D01*
X11451Y48982D01*
X11399Y48987D01*
X11288Y49005D01*
X11237Y49016D01*
X11185Y49029D01*
X11136Y49044D01*
X11092Y49062D01*
X11090D01*
X11082Y49067D01*
X11072Y49073D01*
X11056Y49080D01*
X11038Y49091D01*
X11015Y49104D01*
X10966Y49132D01*
X10909Y49171D01*
X10850Y49214D01*
X10793Y49263D01*
X10741Y49320D01*
X10739Y49323D01*
X10736Y49328D01*
X10729Y49336D01*
X10721Y49349D01*
X10711Y49362D01*
X10698Y49380D01*
X10672Y49423D01*
X10643Y49472D01*
X10615Y49529D01*
X10589Y49591D01*
X10571Y49656D01*
Y49658D01*
X10569Y49668D01*
X10566Y49684D01*
X10561Y49705D01*
X10558Y49730D01*
X10553Y49764D01*
X10548Y49805D01*
X10543Y49849D01*
X10535Y49901D01*
X10530Y49957D01*
X10525Y50019D01*
X10522Y50089D01*
X10517Y50164D01*
X10514Y50244D01*
X10512Y50329D01*
Y50422D01*
Y52032D01*
X11121D01*
Y50396D01*
Y50391D01*
Y50378D01*
Y50360D01*
Y50334D01*
Y50303D01*
Y50267D01*
X11123Y50228D01*
Y50187D01*
X11126Y50104D01*
X11128Y50019D01*
X11131Y49983D01*
X11134Y49947D01*
X11139Y49919D01*
X11141Y49893D01*
Y49890D01*
X11144Y49885D01*
X11146Y49875D01*
X11149Y49862D01*
X11154Y49847D01*
X11162Y49828D01*
X11180Y49787D01*
X11203Y49738D01*
X11237Y49689D01*
X11278Y49640D01*
X11327Y49596D01*
X11330D01*
X11335Y49591D01*
X11343Y49586D01*
X11353Y49578D01*
X11368Y49570D01*
X11386Y49560D01*
X11410Y49552D01*
X11433Y49542D01*
X11459Y49532D01*
X11490Y49521D01*
X11523Y49511D01*
X11559Y49503D01*
X11598Y49496D01*
X11639Y49490D01*
X11683Y49488D01*
X11730Y49485D01*
X11755D01*
X11773Y49488D01*
X11794D01*
X11820Y49490D01*
X11846Y49493D01*
X11877Y49498D01*
X11941Y49511D01*
X12006Y49529D01*
X12067Y49555D01*
X12096Y49573D01*
X12122Y49591D01*
X12124Y49594D01*
X12127Y49596D01*
X12142Y49609D01*
X12166Y49632D01*
X12191Y49663D01*
X12217Y49699D01*
X12243Y49746D01*
X12266Y49795D01*
X12279Y49849D01*
Y49852D01*
X12282Y49857D01*
Y49865D01*
X12284Y49880D01*
X12287Y49896D01*
X12289Y49916D01*
X12292Y49942D01*
X12295Y49970D01*
X12297Y50004D01*
X12300Y50043D01*
Y50084D01*
X12302Y50130D01*
X12305Y50182D01*
X12308Y50239D01*
Y50298D01*
Y50362D01*
Y52032D01*
X12916D01*
Y50445D01*
D02*
G37*
G36*
X14469Y52042D02*
X14501D01*
X14537Y52037D01*
X14581Y52032D01*
X14629Y52024D01*
X14681Y52014D01*
X14735Y52001D01*
X14792Y51985D01*
X14851Y51965D01*
X14911Y51942D01*
X14967Y51916D01*
X15024Y51882D01*
X15078Y51846D01*
X15127Y51802D01*
X15130Y51800D01*
X15138Y51792D01*
X15151Y51779D01*
X15169Y51758D01*
X15187Y51735D01*
X15207Y51707D01*
X15231Y51676D01*
X15256Y51637D01*
X15280Y51596D01*
X15303Y51552D01*
X15324Y51500D01*
X15344Y51449D01*
X15360Y51392D01*
X15372Y51333D01*
X15380Y51271D01*
X15383Y51204D01*
Y51201D01*
Y51193D01*
Y51183D01*
Y51170D01*
X15380Y51152D01*
Y51129D01*
X15378Y51105D01*
X15372Y51080D01*
X15365Y51018D01*
X15352Y50953D01*
X15334Y50884D01*
X15308Y50814D01*
Y50811D01*
X15305Y50806D01*
X15300Y50796D01*
X15295Y50783D01*
X15287Y50765D01*
X15277Y50744D01*
X15267Y50724D01*
X15251Y50698D01*
X15220Y50639D01*
X15182Y50574D01*
X15133Y50504D01*
X15078Y50430D01*
Y50427D01*
X15073Y50424D01*
X15068Y50417D01*
X15058Y50404D01*
X15045Y50391D01*
X15029Y50373D01*
X15011Y50355D01*
X14991Y50331D01*
X14967Y50306D01*
X14939Y50277D01*
X14908Y50246D01*
X14875Y50210D01*
X14836Y50174D01*
X14795Y50133D01*
X14748Y50092D01*
X14699Y50045D01*
X14697Y50043D01*
X14686Y50035D01*
X14673Y50022D01*
X14655Y50004D01*
X14635Y49986D01*
X14609Y49963D01*
X14552Y49911D01*
X14493Y49854D01*
X14436Y49800D01*
X14410Y49774D01*
X14387Y49751D01*
X14366Y49730D01*
X14351Y49712D01*
X14348Y49710D01*
X14338Y49699D01*
X14325Y49681D01*
X14310Y49661D01*
X14289Y49637D01*
X14271Y49609D01*
X14232Y49552D01*
X15383D01*
Y49016D01*
X13358D01*
Y49018D01*
X13360Y49029D01*
X13363Y49047D01*
X13365Y49067D01*
X13370Y49096D01*
X13376Y49127D01*
X13383Y49163D01*
X13394Y49202D01*
X13407Y49245D01*
X13419Y49289D01*
X13453Y49387D01*
X13474Y49436D01*
X13497Y49488D01*
X13525Y49540D01*
X13554Y49591D01*
X13556Y49594D01*
X13561Y49604D01*
X13572Y49619D01*
X13587Y49640D01*
X13608Y49668D01*
X13631Y49702D01*
X13662Y49741D01*
X13698Y49785D01*
X13737Y49834D01*
X13786Y49888D01*
X13837Y49947D01*
X13897Y50012D01*
X13964Y50081D01*
X14036Y50153D01*
X14116Y50231D01*
X14204Y50314D01*
X14209Y50319D01*
X14222Y50329D01*
X14240Y50347D01*
X14266Y50373D01*
X14297Y50401D01*
X14333Y50437D01*
X14369Y50473D01*
X14410Y50512D01*
X14493Y50595D01*
X14532Y50636D01*
X14570Y50677D01*
X14604Y50716D01*
X14635Y50749D01*
X14660Y50783D01*
X14681Y50809D01*
X14684Y50811D01*
X14686Y50817D01*
X14691Y50827D01*
X14699Y50840D01*
X14709Y50855D01*
X14720Y50873D01*
X14730Y50897D01*
X14743Y50920D01*
X14764Y50974D01*
X14784Y51033D01*
X14797Y51098D01*
X14802Y51129D01*
Y51162D01*
Y51165D01*
Y51170D01*
Y51180D01*
X14800Y51193D01*
Y51211D01*
X14797Y51229D01*
X14789Y51273D01*
X14777Y51320D01*
X14759Y51369D01*
X14733Y51418D01*
X14697Y51459D01*
X14691Y51464D01*
X14679Y51474D01*
X14655Y51493D01*
X14622Y51513D01*
X14581Y51531D01*
X14532Y51549D01*
X14475Y51560D01*
X14410Y51565D01*
X14392D01*
X14379Y51562D01*
X14366D01*
X14348Y51560D01*
X14307Y51552D01*
X14261Y51539D01*
X14211Y51518D01*
X14165Y51490D01*
X14142Y51474D01*
X14121Y51454D01*
X14116Y51449D01*
X14111Y51443D01*
X14106Y51433D01*
X14095Y51420D01*
X14088Y51407D01*
X14077Y51389D01*
X14067Y51369D01*
X14057Y51345D01*
X14046Y51317D01*
X14036Y51289D01*
X14026Y51255D01*
X14018Y51219D01*
X14010Y51180D01*
X14005Y51139D01*
X14000Y51093D01*
X13425Y51149D01*
Y51152D01*
Y51155D01*
X13427Y51170D01*
X13430Y51196D01*
X13438Y51227D01*
X13445Y51266D01*
X13456Y51312D01*
X13468Y51361D01*
X13484Y51415D01*
X13502Y51469D01*
X13525Y51526D01*
X13551Y51583D01*
X13579Y51640D01*
X13615Y51694D01*
X13654Y51745D01*
X13695Y51794D01*
X13745Y51836D01*
X13747Y51838D01*
X13758Y51846D01*
X13773Y51856D01*
X13794Y51869D01*
X13819Y51885D01*
X13853Y51903D01*
X13889Y51921D01*
X13933Y51942D01*
X13979Y51960D01*
X14031Y51978D01*
X14088Y51996D01*
X14147Y52011D01*
X14211Y52027D01*
X14279Y52037D01*
X14351Y52042D01*
X14426Y52045D01*
X14446D01*
X14469Y52042D01*
D02*
G37*
G36*
X31834Y31351D02*
Y31348D01*
Y31345D01*
Y31338D01*
Y31327D01*
Y31299D01*
Y31263D01*
X31831Y31219D01*
Y31167D01*
X31828Y31111D01*
Y31051D01*
X31823Y30989D01*
X31821Y30925D01*
X31813Y30799D01*
X31805Y30739D01*
X31800Y30682D01*
X31792Y30631D01*
X31782Y30584D01*
Y30582D01*
X31780Y30574D01*
X31777Y30564D01*
X31772Y30548D01*
X31767Y30528D01*
X31759Y30504D01*
X31751Y30481D01*
X31741Y30453D01*
X31715Y30393D01*
X31684Y30329D01*
X31645Y30267D01*
X31599Y30205D01*
X31596Y30202D01*
X31594Y30197D01*
X31586Y30190D01*
X31576Y30179D01*
X31563Y30166D01*
X31545Y30151D01*
X31527Y30135D01*
X31506Y30117D01*
X31480Y30097D01*
X31454Y30076D01*
X31395Y30037D01*
X31325Y29996D01*
X31245Y29960D01*
X31243D01*
X31235Y29957D01*
X31222Y29952D01*
X31204Y29947D01*
X31183Y29939D01*
X31155Y29932D01*
X31124Y29924D01*
X31091Y29916D01*
X31049Y29906D01*
X31005Y29898D01*
X30959Y29890D01*
X30907Y29885D01*
X30851Y29877D01*
X30794Y29875D01*
X30729Y29870D01*
X30624D01*
X30595Y29872D01*
X30559D01*
X30518Y29875D01*
X30472Y29877D01*
X30422Y29883D01*
X30368Y29888D01*
X30317Y29893D01*
X30206Y29911D01*
X30154Y29921D01*
X30103Y29934D01*
X30053Y29950D01*
X30010Y29968D01*
X30007D01*
X29999Y29973D01*
X29989Y29978D01*
X29974Y29986D01*
X29956Y29996D01*
X29932Y30009D01*
X29883Y30037D01*
X29827Y30076D01*
X29767Y30120D01*
X29710Y30169D01*
X29659Y30226D01*
X29656Y30228D01*
X29654Y30233D01*
X29646Y30241D01*
X29638Y30254D01*
X29628Y30267D01*
X29615Y30285D01*
X29589Y30329D01*
X29561Y30378D01*
X29532Y30435D01*
X29506Y30497D01*
X29489Y30561D01*
Y30564D01*
X29486Y30574D01*
X29483Y30590D01*
X29478Y30610D01*
X29476Y30636D01*
X29470Y30670D01*
X29465Y30711D01*
X29460Y30755D01*
X29452Y30806D01*
X29447Y30863D01*
X29442Y30925D01*
X29439Y30994D01*
X29434Y31069D01*
X29432Y31149D01*
X29429Y31234D01*
Y31327D01*
Y32937D01*
X30038D01*
Y31302D01*
Y31296D01*
Y31284D01*
Y31265D01*
Y31240D01*
Y31209D01*
Y31173D01*
X30041Y31134D01*
Y31093D01*
X30043Y31010D01*
X30046Y30925D01*
X30048Y30889D01*
X30051Y30853D01*
X30056Y30824D01*
X30059Y30799D01*
Y30796D01*
X30061Y30791D01*
X30064Y30780D01*
X30066Y30768D01*
X30072Y30752D01*
X30079Y30734D01*
X30097Y30693D01*
X30121Y30644D01*
X30154Y30595D01*
X30195Y30546D01*
X30244Y30502D01*
X30247D01*
X30252Y30497D01*
X30260Y30491D01*
X30270Y30484D01*
X30286Y30476D01*
X30304Y30466D01*
X30327Y30458D01*
X30350Y30448D01*
X30376Y30437D01*
X30407Y30427D01*
X30441Y30417D01*
X30477Y30409D01*
X30515Y30401D01*
X30557Y30396D01*
X30601Y30393D01*
X30647Y30391D01*
X30673D01*
X30691Y30393D01*
X30711D01*
X30737Y30396D01*
X30763Y30399D01*
X30794Y30404D01*
X30858Y30417D01*
X30923Y30435D01*
X30985Y30461D01*
X31013Y30479D01*
X31039Y30497D01*
X31042Y30499D01*
X31044Y30502D01*
X31060Y30515D01*
X31083Y30538D01*
X31109Y30569D01*
X31135Y30605D01*
X31160Y30651D01*
X31183Y30700D01*
X31196Y30755D01*
Y30757D01*
X31199Y30762D01*
Y30770D01*
X31202Y30786D01*
X31204Y30801D01*
X31207Y30822D01*
X31209Y30847D01*
X31212Y30876D01*
X31214Y30909D01*
X31217Y30948D01*
Y30989D01*
X31220Y31036D01*
X31222Y31087D01*
X31225Y31144D01*
Y31203D01*
Y31268D01*
Y32937D01*
X31834D01*
Y31351D01*
D02*
G37*
G36*
X34040Y31033D02*
X34414D01*
Y30528D01*
X34040D01*
Y29921D01*
X33480D01*
Y30528D01*
X32247D01*
Y31031D01*
X33552Y32950D01*
X34040D01*
Y31033D01*
D02*
G37*
G36*
X-19643Y69540D02*
Y69537D01*
Y69534D01*
Y69527D01*
Y69516D01*
Y69488D01*
Y69452D01*
X-19645Y69408D01*
Y69356D01*
X-19648Y69300D01*
Y69240D01*
X-19653Y69178D01*
X-19656Y69114D01*
X-19663Y68987D01*
X-19671Y68928D01*
X-19676Y68871D01*
X-19684Y68820D01*
X-19694Y68773D01*
Y68771D01*
X-19697Y68763D01*
X-19699Y68753D01*
X-19705Y68737D01*
X-19710Y68717D01*
X-19717Y68693D01*
X-19725Y68670D01*
X-19736Y68642D01*
X-19761Y68582D01*
X-19792Y68518D01*
X-19831Y68456D01*
X-19877Y68394D01*
X-19880Y68392D01*
X-19883Y68386D01*
X-19890Y68379D01*
X-19901Y68368D01*
X-19914Y68355D01*
X-19932Y68340D01*
X-19950Y68324D01*
X-19970Y68306D01*
X-19996Y68286D01*
X-20022Y68265D01*
X-20081Y68226D01*
X-20151Y68185D01*
X-20231Y68149D01*
X-20234D01*
X-20241Y68146D01*
X-20254Y68141D01*
X-20272Y68136D01*
X-20293Y68128D01*
X-20321Y68121D01*
X-20352Y68113D01*
X-20386Y68105D01*
X-20427Y68095D01*
X-20471Y68087D01*
X-20517Y68079D01*
X-20569Y68074D01*
X-20626Y68066D01*
X-20682Y68064D01*
X-20747Y68059D01*
X-20853D01*
X-20881Y68061D01*
X-20917D01*
X-20958Y68064D01*
X-21005Y68066D01*
X-21054Y68072D01*
X-21108Y68077D01*
X-21160Y68082D01*
X-21271Y68100D01*
X-21322Y68110D01*
X-21374Y68123D01*
X-21423Y68139D01*
X-21467Y68157D01*
X-21469D01*
X-21477Y68162D01*
X-21487Y68167D01*
X-21503Y68175D01*
X-21521Y68185D01*
X-21544Y68198D01*
X-21593Y68226D01*
X-21650Y68265D01*
X-21709Y68309D01*
X-21766Y68358D01*
X-21818Y68415D01*
X-21820Y68417D01*
X-21823Y68422D01*
X-21831Y68430D01*
X-21838Y68443D01*
X-21849Y68456D01*
X-21861Y68474D01*
X-21887Y68518D01*
X-21916Y68567D01*
X-21944Y68624D01*
X-21970Y68686D01*
X-21988Y68750D01*
Y68753D01*
X-21991Y68763D01*
X-21993Y68779D01*
X-21998Y68799D01*
X-22001Y68825D01*
X-22006Y68858D01*
X-22011Y68900D01*
X-22016Y68944D01*
X-22024Y68995D01*
X-22029Y69052D01*
X-22034Y69114D01*
X-22037Y69183D01*
X-22042Y69258D01*
X-22045Y69338D01*
X-22047Y69424D01*
Y69516D01*
Y71126D01*
X-21438D01*
Y69490D01*
Y69485D01*
Y69472D01*
Y69454D01*
Y69429D01*
Y69398D01*
Y69362D01*
X-21436Y69323D01*
Y69282D01*
X-21433Y69199D01*
X-21431Y69114D01*
X-21428Y69078D01*
X-21426Y69042D01*
X-21420Y69013D01*
X-21418Y68987D01*
Y68985D01*
X-21415Y68980D01*
X-21413Y68969D01*
X-21410Y68957D01*
X-21405Y68941D01*
X-21397Y68923D01*
X-21379Y68882D01*
X-21356Y68833D01*
X-21322Y68784D01*
X-21281Y68735D01*
X-21232Y68691D01*
X-21229D01*
X-21224Y68686D01*
X-21216Y68680D01*
X-21206Y68673D01*
X-21191Y68665D01*
X-21173Y68655D01*
X-21149Y68647D01*
X-21126Y68637D01*
X-21100Y68626D01*
X-21069Y68616D01*
X-21036Y68606D01*
X-21000Y68598D01*
X-20961Y68590D01*
X-20920Y68585D01*
X-20876Y68582D01*
X-20830Y68580D01*
X-20804D01*
X-20786Y68582D01*
X-20765D01*
X-20739Y68585D01*
X-20713Y68587D01*
X-20682Y68593D01*
X-20618Y68606D01*
X-20553Y68624D01*
X-20492Y68650D01*
X-20463Y68668D01*
X-20437Y68686D01*
X-20435Y68688D01*
X-20432Y68691D01*
X-20417Y68704D01*
X-20393Y68727D01*
X-20368Y68758D01*
X-20342Y68794D01*
X-20316Y68840D01*
X-20293Y68889D01*
X-20280Y68944D01*
Y68946D01*
X-20277Y68951D01*
Y68959D01*
X-20275Y68975D01*
X-20272Y68990D01*
X-20270Y69011D01*
X-20267Y69037D01*
X-20265Y69065D01*
X-20262Y69098D01*
X-20259Y69137D01*
Y69178D01*
X-20257Y69225D01*
X-20254Y69276D01*
X-20252Y69333D01*
Y69393D01*
Y69457D01*
Y71126D01*
X-19643D01*
Y69540D01*
D02*
G37*
G36*
X-18136Y71137D02*
X-18105Y71134D01*
X-18069Y71131D01*
X-18028Y71124D01*
X-17981Y71116D01*
X-17932Y71106D01*
X-17878Y71090D01*
X-17821Y71072D01*
X-17764Y71051D01*
X-17708Y71023D01*
X-17651Y70992D01*
X-17597Y70956D01*
X-17543Y70915D01*
X-17493Y70866D01*
X-17491Y70863D01*
X-17483Y70855D01*
X-17473Y70842D01*
X-17460Y70827D01*
X-17445Y70806D01*
X-17426Y70780D01*
X-17406Y70752D01*
X-17385Y70721D01*
X-17367Y70685D01*
X-17346Y70646D01*
X-17328Y70605D01*
X-17313Y70561D01*
X-17300Y70515D01*
X-17290Y70466D01*
X-17282Y70417D01*
X-17279Y70365D01*
Y70360D01*
Y70347D01*
X-17282Y70327D01*
X-17287Y70301D01*
X-17292Y70267D01*
X-17303Y70226D01*
X-17315Y70185D01*
X-17334Y70138D01*
X-17357Y70086D01*
X-17385Y70035D01*
X-17421Y69983D01*
X-17463Y69929D01*
X-17514Y69877D01*
X-17571Y69826D01*
X-17638Y69777D01*
X-17715Y69731D01*
X-17713D01*
X-17705Y69728D01*
X-17690Y69725D01*
X-17672Y69720D01*
X-17651Y69712D01*
X-17625Y69702D01*
X-17597Y69692D01*
X-17566Y69679D01*
X-17501Y69645D01*
X-17468Y69627D01*
X-17432Y69604D01*
X-17398Y69578D01*
X-17365Y69550D01*
X-17334Y69516D01*
X-17303Y69483D01*
X-17300Y69480D01*
X-17295Y69475D01*
X-17287Y69462D01*
X-17277Y69449D01*
X-17266Y69429D01*
X-17254Y69408D01*
X-17238Y69382D01*
X-17223Y69351D01*
X-17210Y69318D01*
X-17194Y69284D01*
X-17181Y69245D01*
X-17168Y69204D01*
X-17161Y69160D01*
X-17153Y69114D01*
X-17148Y69065D01*
X-17145Y69013D01*
Y69008D01*
Y68995D01*
X-17148Y68975D01*
X-17150Y68946D01*
X-17153Y68913D01*
X-17161Y68874D01*
X-17168Y68830D01*
X-17181Y68781D01*
X-17197Y68729D01*
X-17218Y68675D01*
X-17241Y68619D01*
X-17269Y68562D01*
X-17303Y68505D01*
X-17341Y68448D01*
X-17385Y68392D01*
X-17437Y68337D01*
X-17439Y68335D01*
X-17450Y68324D01*
X-17465Y68312D01*
X-17488Y68293D01*
X-17517Y68273D01*
X-17550Y68250D01*
X-17592Y68224D01*
X-17635Y68198D01*
X-17684Y68172D01*
X-17741Y68146D01*
X-17801Y68123D01*
X-17863Y68103D01*
X-17932Y68084D01*
X-18004Y68072D01*
X-18079Y68061D01*
X-18159Y68059D01*
X-18177D01*
X-18198Y68061D01*
X-18226D01*
X-18262Y68066D01*
X-18304Y68072D01*
X-18348Y68079D01*
X-18399Y68087D01*
X-18451Y68100D01*
X-18505Y68115D01*
X-18562Y68136D01*
X-18618Y68157D01*
X-18678Y68185D01*
X-18732Y68216D01*
X-18789Y68252D01*
X-18840Y68293D01*
X-18843Y68296D01*
X-18851Y68304D01*
X-18866Y68317D01*
X-18882Y68337D01*
X-18905Y68361D01*
X-18928Y68389D01*
X-18954Y68420D01*
X-18980Y68458D01*
X-19008Y68500D01*
X-19034Y68546D01*
X-19060Y68598D01*
X-19083Y68652D01*
X-19106Y68711D01*
X-19124Y68773D01*
X-19140Y68840D01*
X-19150Y68910D01*
X-18590Y68980D01*
Y68977D01*
X-18587Y68969D01*
Y68959D01*
X-18585Y68944D01*
X-18580Y68925D01*
X-18575Y68905D01*
X-18562Y68858D01*
X-18544Y68804D01*
X-18520Y68750D01*
X-18487Y68696D01*
X-18448Y68650D01*
X-18446D01*
X-18443Y68644D01*
X-18428Y68631D01*
X-18402Y68613D01*
X-18368Y68595D01*
X-18327Y68575D01*
X-18278Y68557D01*
X-18224Y68544D01*
X-18195Y68541D01*
X-18164Y68538D01*
X-18146D01*
X-18133Y68541D01*
X-18118Y68544D01*
X-18100Y68546D01*
X-18059Y68557D01*
X-18012Y68572D01*
X-17961Y68595D01*
X-17935Y68611D01*
X-17909Y68629D01*
X-17886Y68650D01*
X-17863Y68673D01*
X-17860Y68675D01*
X-17857Y68678D01*
X-17852Y68688D01*
X-17842Y68699D01*
X-17834Y68711D01*
X-17824Y68727D01*
X-17811Y68748D01*
X-17801Y68771D01*
X-17788Y68794D01*
X-17777Y68822D01*
X-17757Y68884D01*
X-17744Y68957D01*
X-17741Y68998D01*
X-17739Y69039D01*
Y69042D01*
Y69049D01*
Y69060D01*
X-17741Y69075D01*
Y69093D01*
X-17744Y69116D01*
X-17754Y69165D01*
X-17767Y69220D01*
X-17788Y69276D01*
X-17819Y69333D01*
X-17837Y69359D01*
X-17857Y69385D01*
Y69387D01*
X-17863Y69390D01*
X-17878Y69405D01*
X-17904Y69426D01*
X-17937Y69449D01*
X-17979Y69472D01*
X-18025Y69493D01*
X-18082Y69509D01*
X-18110Y69511D01*
X-18141Y69514D01*
X-18162D01*
X-18185Y69511D01*
X-18216Y69509D01*
X-18255Y69503D01*
X-18298Y69496D01*
X-18350Y69485D01*
X-18404Y69470D01*
X-18342Y69942D01*
X-18304D01*
X-18283Y69945D01*
X-18262D01*
X-18208Y69952D01*
X-18151Y69963D01*
X-18092Y69981D01*
X-18035Y70007D01*
X-18007Y70025D01*
X-17984Y70043D01*
X-17981Y70045D01*
X-17979Y70048D01*
X-17963Y70063D01*
X-17945Y70086D01*
X-17922Y70120D01*
X-17899Y70161D01*
X-17878Y70210D01*
X-17865Y70265D01*
X-17863Y70296D01*
X-17860Y70329D01*
Y70332D01*
Y70337D01*
Y70345D01*
X-17863Y70355D01*
X-17865Y70383D01*
X-17870Y70417D01*
X-17883Y70455D01*
X-17899Y70497D01*
X-17922Y70535D01*
X-17953Y70572D01*
X-17958Y70577D01*
X-17968Y70587D01*
X-17989Y70600D01*
X-18017Y70618D01*
X-18051Y70636D01*
X-18092Y70649D01*
X-18138Y70659D01*
X-18193Y70664D01*
X-18206D01*
X-18218Y70662D01*
X-18244Y70659D01*
X-18280Y70652D01*
X-18319Y70639D01*
X-18360Y70621D01*
X-18404Y70595D01*
X-18446Y70561D01*
X-18451Y70556D01*
X-18461Y70543D01*
X-18479Y70517D01*
X-18500Y70486D01*
X-18523Y70443D01*
X-18544Y70391D01*
X-18562Y70332D01*
X-18572Y70262D01*
X-19106Y70352D01*
Y70355D01*
X-19104Y70365D01*
X-19101Y70378D01*
X-19096Y70396D01*
X-19091Y70419D01*
X-19083Y70448D01*
X-19075Y70476D01*
X-19065Y70507D01*
X-19041Y70577D01*
X-19013Y70649D01*
X-18980Y70721D01*
X-18941Y70786D01*
X-18938Y70788D01*
X-18936Y70793D01*
X-18928Y70801D01*
X-18920Y70814D01*
X-18894Y70842D01*
X-18858Y70881D01*
X-18814Y70922D01*
X-18760Y70964D01*
X-18698Y71005D01*
X-18626Y71044D01*
X-18624D01*
X-18616Y71049D01*
X-18606Y71051D01*
X-18590Y71059D01*
X-18572Y71067D01*
X-18549Y71075D01*
X-18523Y71082D01*
X-18495Y71093D01*
X-18464Y71100D01*
X-18428Y71108D01*
X-18353Y71124D01*
X-18268Y71134D01*
X-18177Y71139D01*
X-18159D01*
X-18136Y71137D01*
D02*
G37*
G36*
X-51926Y45425D02*
Y45423D01*
Y45420D01*
Y45412D01*
Y45402D01*
Y45374D01*
Y45338D01*
X-51929Y45294D01*
Y45242D01*
X-51931Y45185D01*
Y45126D01*
X-51937Y45064D01*
X-51939Y45000D01*
X-51947Y44873D01*
X-51955Y44814D01*
X-51960Y44757D01*
X-51967Y44706D01*
X-51978Y44659D01*
Y44657D01*
X-51980Y44649D01*
X-51983Y44638D01*
X-51988Y44623D01*
X-51993Y44602D01*
X-52001Y44579D01*
X-52009Y44556D01*
X-52019Y44528D01*
X-52045Y44468D01*
X-52076Y44404D01*
X-52114Y44342D01*
X-52161Y44280D01*
X-52163Y44277D01*
X-52166Y44272D01*
X-52174Y44264D01*
X-52184Y44254D01*
X-52197Y44241D01*
X-52215Y44226D01*
X-52233Y44210D01*
X-52254Y44192D01*
X-52280Y44172D01*
X-52305Y44151D01*
X-52365Y44112D01*
X-52434Y44071D01*
X-52514Y44035D01*
X-52517D01*
X-52525Y44032D01*
X-52538Y44027D01*
X-52556Y44022D01*
X-52576Y44014D01*
X-52605Y44006D01*
X-52636Y43999D01*
X-52669Y43991D01*
X-52710Y43981D01*
X-52754Y43973D01*
X-52801Y43965D01*
X-52852Y43960D01*
X-52909Y43952D01*
X-52966Y43950D01*
X-53030Y43944D01*
X-53136D01*
X-53164Y43947D01*
X-53201D01*
X-53242Y43950D01*
X-53288Y43952D01*
X-53337Y43957D01*
X-53392Y43962D01*
X-53443Y43968D01*
X-53554Y43986D01*
X-53606Y43996D01*
X-53657Y44009D01*
X-53706Y44024D01*
X-53750Y44043D01*
X-53753D01*
X-53760Y44048D01*
X-53771Y44053D01*
X-53786Y44061D01*
X-53804Y44071D01*
X-53828Y44084D01*
X-53877Y44112D01*
X-53933Y44151D01*
X-53993Y44195D01*
X-54049Y44244D01*
X-54101Y44300D01*
X-54104Y44303D01*
X-54106Y44308D01*
X-54114Y44316D01*
X-54122Y44329D01*
X-54132Y44342D01*
X-54145Y44360D01*
X-54171Y44404D01*
X-54199Y44453D01*
X-54228Y44510D01*
X-54253Y44571D01*
X-54271Y44636D01*
Y44638D01*
X-54274Y44649D01*
X-54277Y44664D01*
X-54282Y44685D01*
X-54284Y44711D01*
X-54289Y44744D01*
X-54295Y44785D01*
X-54300Y44829D01*
X-54308Y44881D01*
X-54313Y44938D01*
X-54318Y45000D01*
X-54320Y45069D01*
X-54325Y45144D01*
X-54328Y45224D01*
X-54331Y45309D01*
Y45402D01*
Y47012D01*
X-53722D01*
Y45376D01*
Y45371D01*
Y45358D01*
Y45340D01*
Y45314D01*
Y45283D01*
Y45247D01*
X-53719Y45209D01*
Y45167D01*
X-53717Y45085D01*
X-53714Y45000D01*
X-53711Y44964D01*
X-53709Y44927D01*
X-53704Y44899D01*
X-53701Y44873D01*
Y44871D01*
X-53699Y44866D01*
X-53696Y44855D01*
X-53693Y44842D01*
X-53688Y44827D01*
X-53680Y44809D01*
X-53663Y44767D01*
X-53639Y44719D01*
X-53606Y44669D01*
X-53564Y44620D01*
X-53515Y44577D01*
X-53513D01*
X-53508Y44571D01*
X-53500Y44566D01*
X-53490Y44559D01*
X-53474Y44551D01*
X-53456Y44540D01*
X-53433Y44533D01*
X-53410Y44522D01*
X-53384Y44512D01*
X-53353Y44502D01*
X-53319Y44491D01*
X-53283Y44484D01*
X-53245Y44476D01*
X-53203Y44471D01*
X-53159Y44468D01*
X-53113Y44466D01*
X-53087D01*
X-53069Y44468D01*
X-53048D01*
X-53023Y44471D01*
X-52997Y44473D01*
X-52966Y44478D01*
X-52901Y44491D01*
X-52837Y44510D01*
X-52775Y44535D01*
X-52747Y44553D01*
X-52721Y44571D01*
X-52718Y44574D01*
X-52716Y44577D01*
X-52700Y44589D01*
X-52677Y44613D01*
X-52651Y44644D01*
X-52625Y44680D01*
X-52600Y44726D01*
X-52576Y44775D01*
X-52563Y44829D01*
Y44832D01*
X-52561Y44837D01*
Y44845D01*
X-52558Y44860D01*
X-52556Y44876D01*
X-52553Y44897D01*
X-52551Y44922D01*
X-52548Y44951D01*
X-52545Y44984D01*
X-52543Y45023D01*
Y45064D01*
X-52540Y45111D01*
X-52538Y45162D01*
X-52535Y45219D01*
Y45278D01*
Y45343D01*
Y47012D01*
X-51926D01*
Y45425D01*
D02*
G37*
G36*
X-49509Y46432D02*
X-50600D01*
X-50690Y45918D01*
X-50688D01*
X-50683Y45923D01*
X-50672Y45928D01*
X-50657Y45934D01*
X-50639Y45941D01*
X-50618Y45949D01*
X-50595Y45957D01*
X-50569Y45967D01*
X-50510Y45985D01*
X-50443Y46001D01*
X-50370Y46011D01*
X-50296Y46016D01*
X-50278D01*
X-50260Y46014D01*
X-50231Y46011D01*
X-50197Y46009D01*
X-50159Y46001D01*
X-50118Y45993D01*
X-50068Y45980D01*
X-50020Y45967D01*
X-49968Y45946D01*
X-49914Y45926D01*
X-49857Y45897D01*
X-49803Y45867D01*
X-49749Y45828D01*
X-49694Y45784D01*
X-49643Y45735D01*
X-49640Y45732D01*
X-49630Y45722D01*
X-49617Y45707D01*
X-49602Y45683D01*
X-49581Y45655D01*
X-49558Y45621D01*
X-49534Y45583D01*
X-49509Y45539D01*
X-49483Y45490D01*
X-49460Y45433D01*
X-49436Y45374D01*
X-49416Y45309D01*
X-49400Y45240D01*
X-49385Y45167D01*
X-49377Y45090D01*
X-49374Y45007D01*
Y45002D01*
Y44992D01*
X-49377Y44971D01*
Y44945D01*
X-49382Y44912D01*
X-49385Y44873D01*
X-49393Y44832D01*
X-49400Y44785D01*
X-49413Y44734D01*
X-49426Y44682D01*
X-49444Y44626D01*
X-49465Y44569D01*
X-49491Y44512D01*
X-49519Y44455D01*
X-49553Y44398D01*
X-49591Y44342D01*
X-49594Y44337D01*
X-49604Y44324D01*
X-49622Y44306D01*
X-49645Y44280D01*
X-49676Y44249D01*
X-49712Y44215D01*
X-49754Y44179D01*
X-49803Y44143D01*
X-49860Y44107D01*
X-49919Y44071D01*
X-49986Y44037D01*
X-50061Y44006D01*
X-50138Y43981D01*
X-50223Y43962D01*
X-50314Y43950D01*
X-50409Y43944D01*
X-50427D01*
X-50450Y43947D01*
X-50479D01*
X-50512Y43952D01*
X-50554Y43957D01*
X-50600Y43962D01*
X-50649Y43973D01*
X-50703Y43983D01*
X-50757Y43999D01*
X-50814Y44017D01*
X-50871Y44037D01*
X-50928Y44063D01*
X-50984Y44094D01*
X-51039Y44128D01*
X-51090Y44166D01*
X-51093Y44169D01*
X-51100Y44177D01*
X-51116Y44190D01*
X-51131Y44208D01*
X-51152Y44231D01*
X-51175Y44257D01*
X-51201Y44290D01*
X-51227Y44326D01*
X-51255Y44368D01*
X-51281Y44411D01*
X-51307Y44460D01*
X-51333Y44515D01*
X-51356Y44571D01*
X-51374Y44633D01*
X-51389Y44698D01*
X-51402Y44767D01*
X-50827Y44829D01*
Y44827D01*
X-50824Y44822D01*
Y44811D01*
X-50822Y44796D01*
X-50817Y44780D01*
X-50814Y44762D01*
X-50801Y44719D01*
X-50781Y44667D01*
X-50757Y44615D01*
X-50724Y44566D01*
X-50683Y44520D01*
X-50680D01*
X-50677Y44515D01*
X-50670Y44510D01*
X-50662Y44502D01*
X-50636Y44484D01*
X-50603Y44463D01*
X-50561Y44442D01*
X-50512Y44424D01*
X-50458Y44411D01*
X-50430Y44409D01*
X-50401Y44406D01*
X-50383D01*
X-50370Y44409D01*
X-50355Y44411D01*
X-50337Y44414D01*
X-50296Y44424D01*
X-50247Y44442D01*
X-50221Y44455D01*
X-50195Y44468D01*
X-50169Y44486D01*
X-50143Y44504D01*
X-50118Y44528D01*
X-50094Y44553D01*
X-50092Y44556D01*
X-50089Y44561D01*
X-50081Y44569D01*
X-50074Y44582D01*
X-50066Y44597D01*
X-50053Y44615D01*
X-50043Y44638D01*
X-50030Y44664D01*
X-50020Y44693D01*
X-50007Y44726D01*
X-49996Y44762D01*
X-49989Y44804D01*
X-49978Y44845D01*
X-49973Y44894D01*
X-49970Y44943D01*
X-49968Y44997D01*
Y45000D01*
Y45010D01*
Y45023D01*
X-49970Y45044D01*
Y45067D01*
X-49976Y45093D01*
X-49978Y45121D01*
X-49983Y45155D01*
X-49999Y45222D01*
X-50022Y45291D01*
X-50035Y45325D01*
X-50053Y45358D01*
X-50071Y45387D01*
X-50094Y45415D01*
X-50097Y45418D01*
X-50099Y45420D01*
X-50107Y45428D01*
X-50118Y45436D01*
X-50128Y45449D01*
X-50143Y45459D01*
X-50182Y45485D01*
X-50229Y45511D01*
X-50283Y45534D01*
X-50347Y45549D01*
X-50383Y45552D01*
X-50419Y45554D01*
X-50430D01*
X-50443Y45552D01*
X-50461D01*
X-50484Y45547D01*
X-50507Y45544D01*
X-50536Y45536D01*
X-50569Y45526D01*
X-50603Y45516D01*
X-50636Y45500D01*
X-50675Y45482D01*
X-50711Y45461D01*
X-50750Y45436D01*
X-50788Y45407D01*
X-50827Y45374D01*
X-50866Y45335D01*
X-51333Y45402D01*
X-51036Y46973D01*
X-49509D01*
Y46432D01*
D02*
G37*
G36*
X-65213Y-8972D02*
Y-10236D01*
X-65822D01*
Y-8967D01*
X-66926Y-7220D01*
X-66215D01*
X-65502Y-8417D01*
X-64808Y-7220D01*
X-64107D01*
X-65213Y-8972D01*
D02*
G37*
G36*
X-62894Y-7210D02*
X-62863D01*
X-62827Y-7215D01*
X-62783Y-7220D01*
X-62734Y-7228D01*
X-62682Y-7238D01*
X-62628Y-7251D01*
X-62572Y-7267D01*
X-62512Y-7287D01*
X-62453Y-7310D01*
X-62396Y-7336D01*
X-62339Y-7370D01*
X-62285Y-7406D01*
X-62236Y-7450D01*
X-62234Y-7452D01*
X-62226Y-7460D01*
X-62213Y-7473D01*
X-62195Y-7494D01*
X-62177Y-7517D01*
X-62156Y-7545D01*
X-62133Y-7576D01*
X-62107Y-7615D01*
X-62084Y-7656D01*
X-62061Y-7700D01*
X-62040Y-7752D01*
X-62019Y-7803D01*
X-62004Y-7860D01*
X-61991Y-7919D01*
X-61983Y-7981D01*
X-61981Y-8048D01*
Y-8051D01*
Y-8059D01*
Y-8069D01*
Y-8082D01*
X-61983Y-8100D01*
Y-8123D01*
X-61986Y-8146D01*
X-61991Y-8172D01*
X-61999Y-8234D01*
X-62012Y-8299D01*
X-62030Y-8368D01*
X-62055Y-8438D01*
Y-8440D01*
X-62058Y-8446D01*
X-62063Y-8456D01*
X-62068Y-8469D01*
X-62076Y-8487D01*
X-62086Y-8508D01*
X-62097Y-8528D01*
X-62112Y-8554D01*
X-62143Y-8613D01*
X-62182Y-8678D01*
X-62231Y-8748D01*
X-62285Y-8822D01*
Y-8825D01*
X-62290Y-8828D01*
X-62296Y-8835D01*
X-62306Y-8848D01*
X-62319Y-8861D01*
X-62334Y-8879D01*
X-62352Y-8897D01*
X-62373Y-8920D01*
X-62396Y-8946D01*
X-62424Y-8975D01*
X-62455Y-9006D01*
X-62489Y-9042D01*
X-62528Y-9078D01*
X-62569Y-9119D01*
X-62615Y-9160D01*
X-62664Y-9207D01*
X-62667Y-9209D01*
X-62677Y-9217D01*
X-62690Y-9230D01*
X-62708Y-9248D01*
X-62729Y-9266D01*
X-62755Y-9289D01*
X-62811Y-9341D01*
X-62871Y-9398D01*
X-62928Y-9452D01*
X-62953Y-9478D01*
X-62977Y-9501D01*
X-62997Y-9522D01*
X-63013Y-9540D01*
X-63015Y-9542D01*
X-63026Y-9552D01*
X-63038Y-9571D01*
X-63054Y-9591D01*
X-63075Y-9614D01*
X-63093Y-9643D01*
X-63131Y-9700D01*
X-61981D01*
Y-10236D01*
X-64006D01*
Y-10234D01*
X-64003Y-10223D01*
X-64001Y-10205D01*
X-63998Y-10185D01*
X-63993Y-10156D01*
X-63988Y-10125D01*
X-63980Y-10089D01*
X-63970Y-10051D01*
X-63957Y-10007D01*
X-63944Y-9963D01*
X-63911Y-9865D01*
X-63890Y-9816D01*
X-63867Y-9764D01*
X-63838Y-9713D01*
X-63810Y-9661D01*
X-63807Y-9658D01*
X-63802Y-9648D01*
X-63792Y-9633D01*
X-63776Y-9612D01*
X-63756Y-9584D01*
X-63732Y-9550D01*
X-63701Y-9511D01*
X-63665Y-9467D01*
X-63627Y-9418D01*
X-63578Y-9364D01*
X-63526Y-9305D01*
X-63467Y-9240D01*
X-63400Y-9171D01*
X-63327Y-9098D01*
X-63248Y-9021D01*
X-63160Y-8939D01*
X-63155Y-8933D01*
X-63142Y-8923D01*
X-63124Y-8905D01*
X-63098Y-8879D01*
X-63067Y-8851D01*
X-63031Y-8815D01*
X-62995Y-8778D01*
X-62953Y-8740D01*
X-62871Y-8657D01*
X-62832Y-8616D01*
X-62793Y-8575D01*
X-62760Y-8536D01*
X-62729Y-8502D01*
X-62703Y-8469D01*
X-62682Y-8443D01*
X-62680Y-8440D01*
X-62677Y-8435D01*
X-62672Y-8425D01*
X-62664Y-8412D01*
X-62654Y-8397D01*
X-62644Y-8379D01*
X-62633Y-8355D01*
X-62621Y-8332D01*
X-62600Y-8278D01*
X-62579Y-8219D01*
X-62566Y-8154D01*
X-62561Y-8123D01*
Y-8090D01*
Y-8087D01*
Y-8082D01*
Y-8072D01*
X-62564Y-8059D01*
Y-8041D01*
X-62566Y-8023D01*
X-62574Y-7979D01*
X-62587Y-7932D01*
X-62605Y-7883D01*
X-62631Y-7834D01*
X-62667Y-7793D01*
X-62672Y-7788D01*
X-62685Y-7778D01*
X-62708Y-7759D01*
X-62742Y-7739D01*
X-62783Y-7721D01*
X-62832Y-7703D01*
X-62889Y-7692D01*
X-62953Y-7687D01*
X-62971D01*
X-62984Y-7690D01*
X-62997D01*
X-63015Y-7692D01*
X-63057Y-7700D01*
X-63103Y-7713D01*
X-63152Y-7734D01*
X-63199Y-7762D01*
X-63222Y-7778D01*
X-63242Y-7798D01*
X-63248Y-7803D01*
X-63253Y-7808D01*
X-63258Y-7819D01*
X-63268Y-7832D01*
X-63276Y-7845D01*
X-63286Y-7863D01*
X-63297Y-7883D01*
X-63307Y-7907D01*
X-63317Y-7935D01*
X-63327Y-7963D01*
X-63338Y-7997D01*
X-63345Y-8033D01*
X-63353Y-8072D01*
X-63358Y-8113D01*
X-63364Y-8159D01*
X-63939Y-8103D01*
Y-8100D01*
Y-8097D01*
X-63936Y-8082D01*
X-63934Y-8056D01*
X-63926Y-8025D01*
X-63918Y-7987D01*
X-63908Y-7940D01*
X-63895Y-7891D01*
X-63880Y-7837D01*
X-63862Y-7783D01*
X-63838Y-7726D01*
X-63813Y-7669D01*
X-63784Y-7612D01*
X-63748Y-7558D01*
X-63709Y-7507D01*
X-63668Y-7458D01*
X-63619Y-7416D01*
X-63616Y-7414D01*
X-63606Y-7406D01*
X-63591Y-7396D01*
X-63570Y-7383D01*
X-63544Y-7367D01*
X-63511Y-7349D01*
X-63475Y-7331D01*
X-63431Y-7310D01*
X-63384Y-7292D01*
X-63333Y-7274D01*
X-63276Y-7256D01*
X-63217Y-7241D01*
X-63152Y-7225D01*
X-63085Y-7215D01*
X-63013Y-7210D01*
X-62938Y-7207D01*
X-62917D01*
X-62894Y-7210D01*
D02*
G37*
G36*
X-57030Y-48903D02*
X-56991D01*
X-56945Y-48909D01*
X-56890Y-48914D01*
X-56828Y-48921D01*
X-56764Y-48932D01*
X-56697Y-48945D01*
X-56625Y-48963D01*
X-56555Y-48981D01*
X-56485Y-49007D01*
X-56416Y-49035D01*
X-56349Y-49069D01*
X-56287Y-49107D01*
X-56230Y-49151D01*
X-56227Y-49154D01*
X-56217Y-49161D01*
X-56204Y-49177D01*
X-56186Y-49195D01*
X-56163Y-49221D01*
X-56139Y-49252D01*
X-56111Y-49285D01*
X-56085Y-49327D01*
X-56057Y-49373D01*
X-56031Y-49422D01*
X-56005Y-49476D01*
X-55982Y-49536D01*
X-55962Y-49597D01*
X-55946Y-49667D01*
X-55933Y-49739D01*
X-55928Y-49814D01*
X-56537Y-49840D01*
Y-49837D01*
X-56539Y-49830D01*
X-56542Y-49817D01*
X-56545Y-49801D01*
X-56550Y-49783D01*
X-56558Y-49760D01*
X-56573Y-49711D01*
X-56596Y-49657D01*
X-56627Y-49603D01*
X-56663Y-49551D01*
X-56684Y-49528D01*
X-56707Y-49507D01*
X-56710D01*
X-56712Y-49502D01*
X-56720Y-49497D01*
X-56730Y-49492D01*
X-56743Y-49484D01*
X-56761Y-49474D01*
X-56779Y-49466D01*
X-56803Y-49456D01*
X-56828Y-49445D01*
X-56857Y-49437D01*
X-56888Y-49427D01*
X-56921Y-49420D01*
X-56960Y-49414D01*
X-56999Y-49409D01*
X-57042Y-49404D01*
X-57115D01*
X-57133Y-49406D01*
X-57156D01*
X-57182Y-49409D01*
X-57210Y-49414D01*
X-57241Y-49417D01*
X-57308Y-49430D01*
X-57375Y-49450D01*
X-57442Y-49479D01*
X-57476Y-49494D01*
X-57504Y-49515D01*
X-57509Y-49518D01*
X-57520Y-49528D01*
X-57535Y-49543D01*
X-57551Y-49564D01*
X-57569Y-49590D01*
X-57584Y-49623D01*
X-57595Y-49659D01*
X-57600Y-49701D01*
Y-49706D01*
X-57597Y-49719D01*
X-57595Y-49739D01*
X-57590Y-49765D01*
X-57577Y-49793D01*
X-57561Y-49825D01*
X-57540Y-49856D01*
X-57509Y-49884D01*
X-57507D01*
X-57504Y-49889D01*
X-57497Y-49894D01*
X-57484Y-49902D01*
X-57471Y-49910D01*
X-57450Y-49920D01*
X-57427Y-49933D01*
X-57396Y-49946D01*
X-57362Y-49961D01*
X-57324Y-49977D01*
X-57277Y-49992D01*
X-57226Y-50010D01*
X-57169Y-50028D01*
X-57104Y-50049D01*
X-57032Y-50067D01*
X-56952Y-50088D01*
X-56947D01*
X-56932Y-50093D01*
X-56911Y-50098D01*
X-56880Y-50106D01*
X-56844Y-50116D01*
X-56800Y-50126D01*
X-56753Y-50139D01*
X-56704Y-50155D01*
X-56596Y-50188D01*
X-56488Y-50224D01*
X-56436Y-50245D01*
X-56385Y-50266D01*
X-56338Y-50286D01*
X-56297Y-50307D01*
X-56294D01*
X-56287Y-50312D01*
X-56276Y-50317D01*
X-56261Y-50328D01*
X-56243Y-50338D01*
X-56222Y-50353D01*
X-56176Y-50387D01*
X-56121Y-50431D01*
X-56065Y-50482D01*
X-56011Y-50544D01*
X-55962Y-50614D01*
X-55959Y-50617D01*
X-55956Y-50622D01*
X-55951Y-50635D01*
X-55943Y-50647D01*
X-55933Y-50668D01*
X-55923Y-50691D01*
X-55913Y-50717D01*
X-55900Y-50746D01*
X-55889Y-50779D01*
X-55879Y-50815D01*
X-55869Y-50857D01*
X-55858Y-50898D01*
X-55850Y-50944D01*
X-55845Y-50991D01*
X-55840Y-51042D01*
Y-51094D01*
Y-51096D01*
Y-51104D01*
Y-51120D01*
X-55843Y-51138D01*
X-55845Y-51161D01*
X-55848Y-51187D01*
X-55853Y-51218D01*
X-55858Y-51251D01*
X-55866Y-51287D01*
X-55876Y-51326D01*
X-55902Y-51406D01*
X-55918Y-51450D01*
X-55936Y-51494D01*
X-55959Y-51535D01*
X-55985Y-51579D01*
X-55987Y-51582D01*
X-55992Y-51589D01*
X-56000Y-51600D01*
X-56011Y-51615D01*
X-56026Y-51636D01*
X-56044Y-51656D01*
X-56065Y-51679D01*
X-56090Y-51705D01*
X-56116Y-51734D01*
X-56147Y-51762D01*
X-56181Y-51790D01*
X-56217Y-51816D01*
X-56258Y-51845D01*
X-56300Y-51871D01*
X-56343Y-51894D01*
X-56392Y-51917D01*
X-56395D01*
X-56405Y-51922D01*
X-56418Y-51927D01*
X-56439Y-51935D01*
X-56465Y-51943D01*
X-56496Y-51950D01*
X-56532Y-51961D01*
X-56573Y-51971D01*
X-56619Y-51981D01*
X-56668Y-51992D01*
X-56723Y-51999D01*
X-56779Y-52007D01*
X-56841Y-52015D01*
X-56906Y-52020D01*
X-56975Y-52023D01*
X-57048Y-52025D01*
X-57086D01*
X-57102Y-52023D01*
X-57143Y-52020D01*
X-57190Y-52017D01*
X-57244Y-52012D01*
X-57306Y-52002D01*
X-57373Y-51992D01*
X-57442Y-51979D01*
X-57515Y-51961D01*
X-57587Y-51940D01*
X-57659Y-51914D01*
X-57731Y-51883D01*
X-57801Y-51850D01*
X-57868Y-51809D01*
X-57927Y-51762D01*
X-57930Y-51759D01*
X-57940Y-51749D01*
X-57956Y-51734D01*
X-57977Y-51713D01*
X-58000Y-51685D01*
X-58028Y-51651D01*
X-58056Y-51613D01*
X-58087Y-51566D01*
X-58118Y-51514D01*
X-58149Y-51458D01*
X-58180Y-51396D01*
X-58209Y-51326D01*
X-58235Y-51251D01*
X-58258Y-51169D01*
X-58278Y-51084D01*
X-58291Y-50991D01*
X-57698Y-50934D01*
Y-50937D01*
X-57695Y-50947D01*
X-57693Y-50962D01*
X-57687Y-50983D01*
X-57680Y-51009D01*
X-57672Y-51037D01*
X-57664Y-51068D01*
X-57651Y-51102D01*
X-57623Y-51171D01*
X-57587Y-51246D01*
X-57540Y-51313D01*
X-57512Y-51344D01*
X-57484Y-51372D01*
X-57481Y-51375D01*
X-57476Y-51378D01*
X-57466Y-51385D01*
X-57453Y-51393D01*
X-57437Y-51403D01*
X-57417Y-51416D01*
X-57393Y-51429D01*
X-57368Y-51442D01*
X-57337Y-51455D01*
X-57303Y-51468D01*
X-57267Y-51478D01*
X-57228Y-51491D01*
X-57184Y-51499D01*
X-57140Y-51507D01*
X-57094Y-51509D01*
X-57042Y-51512D01*
X-57014D01*
X-56994Y-51509D01*
X-56970D01*
X-56942Y-51504D01*
X-56911Y-51502D01*
X-56877Y-51496D01*
X-56805Y-51481D01*
X-56730Y-51460D01*
X-56661Y-51429D01*
X-56627Y-51409D01*
X-56599Y-51388D01*
X-56596Y-51385D01*
X-56591Y-51383D01*
X-56586Y-51375D01*
X-56576Y-51365D01*
X-56552Y-51339D01*
X-56524Y-51305D01*
X-56496Y-51262D01*
X-56472Y-51213D01*
X-56462Y-51187D01*
X-56454Y-51156D01*
X-56452Y-51127D01*
X-56449Y-51096D01*
Y-51091D01*
Y-51078D01*
X-56452Y-51058D01*
X-56457Y-51034D01*
X-56465Y-51006D01*
X-56477Y-50975D01*
X-56493Y-50944D01*
X-56514Y-50916D01*
X-56516Y-50913D01*
X-56526Y-50903D01*
X-56542Y-50890D01*
X-56565Y-50872D01*
X-56594Y-50851D01*
X-56632Y-50828D01*
X-56679Y-50805D01*
X-56733Y-50784D01*
X-56738Y-50782D01*
X-56746Y-50779D01*
X-56756Y-50776D01*
X-56769Y-50774D01*
X-56787Y-50769D01*
X-56808Y-50761D01*
X-56833Y-50753D01*
X-56865Y-50746D01*
X-56898Y-50735D01*
X-56939Y-50725D01*
X-56983Y-50715D01*
X-57035Y-50699D01*
X-57089Y-50686D01*
X-57151Y-50671D01*
X-57221Y-50653D01*
X-57223D01*
X-57226Y-50650D01*
X-57241Y-50647D01*
X-57267Y-50640D01*
X-57301Y-50630D01*
X-57339Y-50619D01*
X-57386Y-50604D01*
X-57435Y-50588D01*
X-57489Y-50568D01*
X-57602Y-50526D01*
X-57716Y-50475D01*
X-57770Y-50446D01*
X-57819Y-50415D01*
X-57866Y-50384D01*
X-57907Y-50353D01*
X-57909Y-50351D01*
X-57920Y-50343D01*
X-57933Y-50328D01*
X-57951Y-50310D01*
X-57971Y-50284D01*
X-57995Y-50255D01*
X-58018Y-50222D01*
X-58044Y-50183D01*
X-58069Y-50142D01*
X-58095Y-50095D01*
X-58118Y-50044D01*
X-58139Y-49990D01*
X-58157Y-49933D01*
X-58170Y-49874D01*
X-58180Y-49812D01*
X-58183Y-49744D01*
Y-49742D01*
Y-49734D01*
Y-49721D01*
X-58180Y-49706D01*
X-58178Y-49685D01*
X-58175Y-49662D01*
X-58173Y-49634D01*
X-58167Y-49605D01*
X-58152Y-49538D01*
X-58129Y-49466D01*
X-58113Y-49427D01*
X-58095Y-49391D01*
X-58077Y-49352D01*
X-58054Y-49314D01*
X-58051Y-49311D01*
X-58049Y-49306D01*
X-58041Y-49296D01*
X-58031Y-49280D01*
X-58015Y-49265D01*
X-58000Y-49244D01*
X-57979Y-49223D01*
X-57958Y-49200D01*
X-57933Y-49174D01*
X-57904Y-49151D01*
X-57873Y-49125D01*
X-57840Y-49099D01*
X-57804Y-49074D01*
X-57765Y-49051D01*
X-57721Y-49027D01*
X-57677Y-49007D01*
X-57675D01*
X-57667Y-49002D01*
X-57651Y-48996D01*
X-57633Y-48991D01*
X-57610Y-48981D01*
X-57582Y-48973D01*
X-57548Y-48963D01*
X-57512Y-48952D01*
X-57471Y-48945D01*
X-57424Y-48934D01*
X-57375Y-48924D01*
X-57324Y-48916D01*
X-57267Y-48911D01*
X-57210Y-48906D01*
X-57148Y-48901D01*
X-57045D01*
X-57030Y-48903D01*
D02*
G37*
G36*
X-53978Y-51968D02*
X-54555D01*
Y-49791D01*
X-54558Y-49793D01*
X-54571Y-49804D01*
X-54586Y-49819D01*
X-54612Y-49840D01*
X-54643Y-49863D01*
X-54679Y-49892D01*
X-54720Y-49923D01*
X-54767Y-49956D01*
X-54819Y-49992D01*
X-54878Y-50028D01*
X-54937Y-50064D01*
X-55004Y-50101D01*
X-55074Y-50134D01*
X-55146Y-50168D01*
X-55221Y-50199D01*
X-55301Y-50227D01*
Y-49703D01*
X-55298D01*
X-55291Y-49701D01*
X-55278Y-49696D01*
X-55262Y-49688D01*
X-55242Y-49680D01*
X-55216Y-49670D01*
X-55187Y-49657D01*
X-55156Y-49641D01*
X-55120Y-49623D01*
X-55082Y-49603D01*
X-55043Y-49579D01*
X-54999Y-49556D01*
X-54955Y-49528D01*
X-54909Y-49497D01*
X-54860Y-49461D01*
X-54811Y-49425D01*
X-54808Y-49422D01*
X-54798Y-49414D01*
X-54785Y-49404D01*
X-54767Y-49389D01*
X-54746Y-49368D01*
X-54720Y-49345D01*
X-54695Y-49316D01*
X-54666Y-49285D01*
X-54635Y-49252D01*
X-54604Y-49213D01*
X-54576Y-49174D01*
X-54545Y-49130D01*
X-54517Y-49087D01*
X-54491Y-49040D01*
X-54468Y-48991D01*
X-54447Y-48940D01*
X-53978D01*
Y-51968D01*
D02*
G37*
G36*
X19551Y-70079D02*
X18973D01*
Y-67901D01*
X18971Y-67904D01*
X18958Y-67914D01*
X18942Y-67930D01*
X18916Y-67950D01*
X18886Y-67974D01*
X18849Y-68002D01*
X18808Y-68033D01*
X18762Y-68066D01*
X18710Y-68103D01*
X18651Y-68139D01*
X18591Y-68175D01*
X18524Y-68211D01*
X18455Y-68244D01*
X18383Y-68278D01*
X18308Y-68309D01*
X18228Y-68337D01*
Y-67813D01*
X18230D01*
X18238Y-67811D01*
X18251Y-67806D01*
X18266Y-67798D01*
X18287Y-67790D01*
X18313Y-67780D01*
X18341Y-67767D01*
X18372Y-67752D01*
X18408Y-67734D01*
X18447Y-67713D01*
X18486Y-67690D01*
X18530Y-67666D01*
X18573Y-67638D01*
X18620Y-67607D01*
X18669Y-67571D01*
X18718Y-67535D01*
X18721Y-67532D01*
X18731Y-67524D01*
X18744Y-67514D01*
X18762Y-67499D01*
X18782Y-67478D01*
X18808Y-67455D01*
X18834Y-67427D01*
X18862Y-67396D01*
X18893Y-67362D01*
X18924Y-67323D01*
X18953Y-67285D01*
X18984Y-67241D01*
X19012Y-67197D01*
X19038Y-67150D01*
X19061Y-67101D01*
X19082Y-67050D01*
X19551D01*
Y-70079D01*
D02*
G37*
G36*
X16362Y-67065D02*
X16398D01*
X16440Y-67068D01*
X16484Y-67071D01*
X16574Y-67078D01*
X16669Y-67089D01*
X16716Y-67094D01*
X16762Y-67101D01*
X16804Y-67112D01*
X16842Y-67122D01*
X16845D01*
X16855Y-67125D01*
X16868Y-67130D01*
X16886Y-67137D01*
X16909Y-67145D01*
X16935Y-67158D01*
X16966Y-67171D01*
X17000Y-67187D01*
X17069Y-67225D01*
X17108Y-67246D01*
X17147Y-67272D01*
X17185Y-67300D01*
X17224Y-67331D01*
X17260Y-67365D01*
X17296Y-67401D01*
X17299Y-67403D01*
X17304Y-67408D01*
X17314Y-67421D01*
X17327Y-67437D01*
X17343Y-67455D01*
X17361Y-67478D01*
X17381Y-67506D01*
X17405Y-67535D01*
X17428Y-67571D01*
X17451Y-67607D01*
X17474Y-67648D01*
X17500Y-67690D01*
X17523Y-67736D01*
X17544Y-67785D01*
X17585Y-67888D01*
Y-67891D01*
X17590Y-67901D01*
X17596Y-67917D01*
X17601Y-67940D01*
X17608Y-67968D01*
X17616Y-68002D01*
X17627Y-68041D01*
X17637Y-68084D01*
X17645Y-68136D01*
X17655Y-68190D01*
X17663Y-68247D01*
X17670Y-68311D01*
X17676Y-68379D01*
X17681Y-68448D01*
X17686Y-68523D01*
Y-68600D01*
Y-68606D01*
Y-68616D01*
Y-68637D01*
X17683Y-68662D01*
Y-68696D01*
X17681Y-68732D01*
X17678Y-68773D01*
X17676Y-68820D01*
X17670Y-68869D01*
X17663Y-68920D01*
X17647Y-69029D01*
X17624Y-69137D01*
X17593Y-69243D01*
Y-69245D01*
X17588Y-69258D01*
X17580Y-69274D01*
X17572Y-69297D01*
X17560Y-69325D01*
X17547Y-69359D01*
X17528Y-69395D01*
X17510Y-69434D01*
X17464Y-69519D01*
X17407Y-69607D01*
X17343Y-69694D01*
X17307Y-69736D01*
X17268Y-69774D01*
X17265Y-69777D01*
X17260Y-69782D01*
X17252Y-69790D01*
X17240Y-69800D01*
X17224Y-69813D01*
X17203Y-69828D01*
X17183Y-69844D01*
X17157Y-69862D01*
X17126Y-69883D01*
X17095Y-69901D01*
X17059Y-69921D01*
X17023Y-69942D01*
X16982Y-69963D01*
X16938Y-69981D01*
X16891Y-69999D01*
X16842Y-70017D01*
X16840D01*
X16832Y-70019D01*
X16822Y-70022D01*
X16806Y-70027D01*
X16785Y-70032D01*
X16760Y-70038D01*
X16731Y-70043D01*
X16698Y-70048D01*
X16662Y-70053D01*
X16620Y-70058D01*
X16577Y-70063D01*
X16530Y-70068D01*
X16478Y-70074D01*
X16422Y-70076D01*
X16365Y-70079D01*
X15157D01*
Y-67063D01*
X16331D01*
X16362Y-67065D01*
D02*
G37*
G36*
X-78660Y19222D02*
X-78286D01*
Y18717D01*
X-78660D01*
Y18110D01*
X-79220D01*
Y18717D01*
X-80453D01*
Y19220D01*
X-79147Y21139D01*
X-78660D01*
Y19222D01*
D02*
G37*
G36*
X-82063Y21124D02*
X-82027D01*
X-81985Y21121D01*
X-81942Y21118D01*
X-81851Y21111D01*
X-81756Y21100D01*
X-81709Y21095D01*
X-81663Y21088D01*
X-81622Y21077D01*
X-81583Y21067D01*
X-81580D01*
X-81570Y21064D01*
X-81557Y21059D01*
X-81539Y21051D01*
X-81516Y21044D01*
X-81490Y21031D01*
X-81459Y21018D01*
X-81426Y21002D01*
X-81356Y20964D01*
X-81317Y20943D01*
X-81279Y20917D01*
X-81240Y20889D01*
X-81201Y20858D01*
X-81165Y20824D01*
X-81129Y20788D01*
X-81126Y20786D01*
X-81121Y20780D01*
X-81111Y20768D01*
X-81098Y20752D01*
X-81082Y20734D01*
X-81064Y20711D01*
X-81044Y20682D01*
X-81020Y20654D01*
X-80997Y20618D01*
X-80974Y20582D01*
X-80951Y20540D01*
X-80925Y20499D01*
X-80902Y20453D01*
X-80881Y20404D01*
X-80840Y20301D01*
Y20298D01*
X-80835Y20288D01*
X-80830Y20272D01*
X-80825Y20249D01*
X-80817Y20221D01*
X-80809Y20187D01*
X-80799Y20148D01*
X-80788Y20105D01*
X-80781Y20053D01*
X-80770Y19999D01*
X-80762Y19942D01*
X-80755Y19877D01*
X-80750Y19810D01*
X-80744Y19741D01*
X-80739Y19666D01*
Y19589D01*
Y19583D01*
Y19573D01*
Y19552D01*
X-80742Y19527D01*
Y19493D01*
X-80744Y19457D01*
X-80747Y19416D01*
X-80750Y19369D01*
X-80755Y19320D01*
X-80762Y19269D01*
X-80778Y19160D01*
X-80801Y19052D01*
X-80832Y18946D01*
Y18944D01*
X-80837Y18931D01*
X-80845Y18915D01*
X-80853Y18892D01*
X-80866Y18864D01*
X-80879Y18830D01*
X-80897Y18794D01*
X-80915Y18755D01*
X-80961Y18670D01*
X-81018Y18582D01*
X-81082Y18495D01*
X-81119Y18453D01*
X-81157Y18415D01*
X-81160Y18412D01*
X-81165Y18407D01*
X-81173Y18399D01*
X-81186Y18389D01*
X-81201Y18376D01*
X-81222Y18360D01*
X-81242Y18345D01*
X-81268Y18327D01*
X-81299Y18306D01*
X-81330Y18288D01*
X-81366Y18268D01*
X-81402Y18247D01*
X-81444Y18226D01*
X-81488Y18208D01*
X-81534Y18190D01*
X-81583Y18172D01*
X-81586D01*
X-81593Y18169D01*
X-81604Y18167D01*
X-81619Y18162D01*
X-81640Y18157D01*
X-81665Y18151D01*
X-81694Y18146D01*
X-81727Y18141D01*
X-81764Y18136D01*
X-81805Y18131D01*
X-81849Y18126D01*
X-81895Y18121D01*
X-81947Y18115D01*
X-82003Y18113D01*
X-82060Y18110D01*
X-83268D01*
Y21126D01*
X-82094D01*
X-82063Y21124D01*
D02*
G37*
G36*
X-69747Y40972D02*
X-69715Y40969D01*
X-69682Y40964D01*
X-69646Y40959D01*
X-69605Y40951D01*
X-69561Y40941D01*
X-69514Y40928D01*
X-69468Y40913D01*
X-69419Y40892D01*
X-69372Y40871D01*
X-69323Y40846D01*
X-69279Y40815D01*
X-69236Y40781D01*
X-69233Y40778D01*
X-69225Y40773D01*
X-69215Y40760D01*
X-69200Y40745D01*
X-69182Y40727D01*
X-69161Y40701D01*
X-69138Y40673D01*
X-69114Y40639D01*
X-69089Y40603D01*
X-69065Y40562D01*
X-69042Y40515D01*
X-69019Y40466D01*
X-68996Y40412D01*
X-68978Y40353D01*
X-68960Y40291D01*
X-68947Y40224D01*
X-69507Y40165D01*
Y40167D01*
Y40172D01*
X-69509Y40180D01*
X-69512Y40193D01*
X-69517Y40224D01*
X-69527Y40260D01*
X-69543Y40301D01*
X-69561Y40343D01*
X-69584Y40384D01*
X-69615Y40417D01*
X-69617Y40420D01*
X-69630Y40430D01*
X-69648Y40443D01*
X-69674Y40459D01*
X-69708Y40474D01*
X-69747Y40487D01*
X-69790Y40497D01*
X-69839Y40500D01*
X-69857D01*
X-69870Y40497D01*
X-69886Y40495D01*
X-69904Y40492D01*
X-69948Y40479D01*
X-69994Y40459D01*
X-70020Y40446D01*
X-70048Y40430D01*
X-70074Y40412D01*
X-70100Y40389D01*
X-70126Y40363D01*
X-70149Y40335D01*
X-70152Y40332D01*
X-70154Y40327D01*
X-70162Y40317D01*
X-70170Y40301D01*
X-70180Y40281D01*
X-70190Y40255D01*
X-70203Y40224D01*
X-70216Y40188D01*
X-70229Y40144D01*
X-70244Y40095D01*
X-70257Y40041D01*
X-70270Y39976D01*
X-70281Y39906D01*
X-70293Y39829D01*
X-70301Y39744D01*
X-70309Y39651D01*
X-70306Y39654D01*
X-70299Y39661D01*
X-70286Y39674D01*
X-70270Y39692D01*
X-70250Y39710D01*
X-70224Y39731D01*
X-70193Y39754D01*
X-70159Y39780D01*
X-70123Y39803D01*
X-70082Y39827D01*
X-70038Y39847D01*
X-69989Y39868D01*
X-69940Y39883D01*
X-69886Y39896D01*
X-69829Y39904D01*
X-69770Y39906D01*
X-69754D01*
X-69734Y39904D01*
X-69710Y39901D01*
X-69677Y39899D01*
X-69641Y39891D01*
X-69602Y39883D01*
X-69556Y39873D01*
X-69509Y39858D01*
X-69460Y39839D01*
X-69409Y39816D01*
X-69357Y39790D01*
X-69303Y39759D01*
X-69251Y39721D01*
X-69200Y39679D01*
X-69151Y39630D01*
X-69148Y39628D01*
X-69140Y39617D01*
X-69127Y39602D01*
X-69109Y39581D01*
X-69091Y39553D01*
X-69068Y39520D01*
X-69045Y39481D01*
X-69019Y39437D01*
X-68996Y39388D01*
X-68972Y39334D01*
X-68949Y39277D01*
X-68931Y39213D01*
X-68913Y39145D01*
X-68900Y39073D01*
X-68893Y38996D01*
X-68890Y38916D01*
Y38911D01*
Y38895D01*
X-68893Y38872D01*
X-68895Y38838D01*
X-68898Y38800D01*
X-68905Y38756D01*
X-68913Y38704D01*
X-68923Y38650D01*
X-68939Y38591D01*
X-68957Y38531D01*
X-68978Y38469D01*
X-69006Y38407D01*
X-69037Y38346D01*
X-69073Y38286D01*
X-69114Y38227D01*
X-69163Y38173D01*
X-69166Y38170D01*
X-69176Y38160D01*
X-69192Y38147D01*
X-69212Y38129D01*
X-69238Y38108D01*
X-69272Y38085D01*
X-69308Y38059D01*
X-69352Y38033D01*
X-69401Y38008D01*
X-69452Y37982D01*
X-69509Y37959D01*
X-69571Y37938D01*
X-69638Y37920D01*
X-69708Y37907D01*
X-69783Y37897D01*
X-69860Y37894D01*
X-69881D01*
X-69904Y37897D01*
X-69935Y37899D01*
X-69973Y37904D01*
X-70020Y37912D01*
X-70072Y37925D01*
X-70126Y37938D01*
X-70183Y37956D01*
X-70244Y37979D01*
X-70306Y38010D01*
X-70368Y38044D01*
X-70433Y38085D01*
X-70495Y38131D01*
X-70554Y38186D01*
X-70611Y38247D01*
X-70613Y38253D01*
X-70624Y38266D01*
X-70637Y38286D01*
X-70657Y38315D01*
X-70678Y38356D01*
X-70704Y38402D01*
X-70730Y38459D01*
X-70758Y38526D01*
X-70786Y38604D01*
X-70812Y38689D01*
X-70838Y38784D01*
X-70859Y38890D01*
X-70876Y39004D01*
X-70892Y39130D01*
X-70897Y39197D01*
X-70902Y39264D01*
X-70905Y39336D01*
Y39411D01*
Y39414D01*
Y39421D01*
Y39432D01*
Y39447D01*
Y39468D01*
X-70902Y39491D01*
Y39517D01*
X-70900Y39548D01*
X-70897Y39579D01*
X-70895Y39615D01*
X-70889Y39692D01*
X-70879Y39780D01*
X-70866Y39873D01*
X-70851Y39968D01*
X-70830Y40069D01*
X-70807Y40167D01*
X-70776Y40268D01*
X-70742Y40361D01*
X-70701Y40451D01*
X-70655Y40533D01*
X-70629Y40572D01*
X-70600Y40608D01*
X-70598Y40613D01*
X-70585Y40624D01*
X-70569Y40642D01*
X-70544Y40665D01*
X-70515Y40693D01*
X-70477Y40724D01*
X-70435Y40758D01*
X-70386Y40791D01*
X-70332Y40825D01*
X-70270Y40859D01*
X-70206Y40889D01*
X-70134Y40918D01*
X-70059Y40941D01*
X-69979Y40959D01*
X-69894Y40969D01*
X-69803Y40975D01*
X-69770D01*
X-69747Y40972D01*
D02*
G37*
G36*
X-72615Y40959D02*
X-72579D01*
X-72538Y40957D01*
X-72494Y40954D01*
X-72404Y40946D01*
X-72308Y40936D01*
X-72262Y40931D01*
X-72215Y40923D01*
X-72174Y40913D01*
X-72136Y40902D01*
X-72133D01*
X-72123Y40900D01*
X-72110Y40895D01*
X-72092Y40887D01*
X-72069Y40879D01*
X-72043Y40866D01*
X-72012Y40853D01*
X-71978Y40838D01*
X-71908Y40799D01*
X-71870Y40778D01*
X-71831Y40753D01*
X-71792Y40724D01*
X-71754Y40693D01*
X-71718Y40660D01*
X-71681Y40624D01*
X-71679Y40621D01*
X-71674Y40616D01*
X-71663Y40603D01*
X-71650Y40588D01*
X-71635Y40569D01*
X-71617Y40546D01*
X-71596Y40518D01*
X-71573Y40490D01*
X-71550Y40453D01*
X-71527Y40417D01*
X-71504Y40376D01*
X-71478Y40335D01*
X-71454Y40288D01*
X-71434Y40239D01*
X-71393Y40136D01*
Y40134D01*
X-71387Y40123D01*
X-71382Y40108D01*
X-71377Y40084D01*
X-71369Y40056D01*
X-71362Y40023D01*
X-71351Y39984D01*
X-71341Y39940D01*
X-71333Y39888D01*
X-71323Y39834D01*
X-71315Y39777D01*
X-71307Y39713D01*
X-71302Y39646D01*
X-71297Y39576D01*
X-71292Y39501D01*
Y39424D01*
Y39419D01*
Y39408D01*
Y39388D01*
X-71294Y39362D01*
Y39329D01*
X-71297Y39292D01*
X-71300Y39251D01*
X-71302Y39205D01*
X-71307Y39156D01*
X-71315Y39104D01*
X-71331Y38996D01*
X-71354Y38887D01*
X-71385Y38782D01*
Y38779D01*
X-71390Y38766D01*
X-71398Y38751D01*
X-71405Y38727D01*
X-71418Y38699D01*
X-71431Y38666D01*
X-71449Y38629D01*
X-71467Y38591D01*
X-71514Y38506D01*
X-71571Y38418D01*
X-71635Y38330D01*
X-71671Y38289D01*
X-71710Y38250D01*
X-71712Y38247D01*
X-71718Y38242D01*
X-71725Y38235D01*
X-71738Y38224D01*
X-71754Y38211D01*
X-71774Y38196D01*
X-71795Y38181D01*
X-71821Y38162D01*
X-71852Y38142D01*
X-71883Y38124D01*
X-71919Y38103D01*
X-71955Y38082D01*
X-71996Y38062D01*
X-72040Y38044D01*
X-72087Y38026D01*
X-72136Y38008D01*
X-72138D01*
X-72146Y38005D01*
X-72156Y38002D01*
X-72172Y37997D01*
X-72192Y37992D01*
X-72218Y37987D01*
X-72246Y37982D01*
X-72280Y37977D01*
X-72316Y37971D01*
X-72357Y37966D01*
X-72401Y37961D01*
X-72448Y37956D01*
X-72499Y37951D01*
X-72556Y37948D01*
X-72613Y37946D01*
X-73820D01*
Y40962D01*
X-72646D01*
X-72615Y40959D01*
D02*
G37*
G36*
X-62206Y55452D02*
X-62192Y55453D01*
X-62157Y55449D01*
X-62109Y55442D01*
X-62055Y55431D01*
X-61995Y55411D01*
X-61932Y55387D01*
X-61865Y55353D01*
X-61863Y55351D01*
X-61855Y55348D01*
X-61848Y55341D01*
X-61834Y55334D01*
X-61818Y55324D01*
X-61800Y55311D01*
X-61781Y55295D01*
X-61758Y55279D01*
X-61736Y55260D01*
X-61711Y55237D01*
X-61660Y55189D01*
X-61608Y55130D01*
X-61556Y55065D01*
X-61547Y55052D01*
X-61536Y55033D01*
X-61522Y55008D01*
X-61505Y54979D01*
X-61489Y54944D01*
X-61470Y54905D01*
X-61452Y54863D01*
X-61435Y54814D01*
X-61419Y54762D01*
X-61405Y54708D01*
X-61396Y54651D01*
X-61389Y54592D01*
X-61388Y54532D01*
X-61391Y54469D01*
X-61402Y54407D01*
X-61402Y54403D01*
X-61404Y54393D01*
X-61408Y54379D01*
X-61413Y54361D01*
X-61421Y54339D01*
X-61431Y54311D01*
X-61441Y54281D01*
X-61453Y54249D01*
X-61471Y54216D01*
X-61489Y54180D01*
X-61511Y54145D01*
X-61536Y54110D01*
X-61564Y54076D01*
X-61595Y54043D01*
X-61628Y54011D01*
X-61665Y53982D01*
X-61669Y53979D01*
X-61679Y53972D01*
X-61696Y53963D01*
X-61718Y53954D01*
X-61746Y53940D01*
X-61783Y53926D01*
X-61821Y53914D01*
X-61865Y53903D01*
X-61916Y53893D01*
X-61970Y53887D01*
X-62028Y53887D01*
X-62090Y53890D01*
X-62156Y53901D01*
X-62225Y53917D01*
X-62297Y53942D01*
X-62373Y53975D01*
X-62371Y53974D01*
X-62369Y53966D01*
X-62363Y53953D01*
X-62357Y53937D01*
X-62353Y53917D01*
X-62347Y53892D01*
X-62340Y53866D01*
X-62333Y53836D01*
X-62324Y53769D01*
X-62320Y53735D01*
X-62318Y53695D01*
X-62320Y53656D01*
X-62324Y53616D01*
X-62333Y53575D01*
X-62342Y53534D01*
X-62342Y53531D01*
X-62344Y53524D01*
X-62349Y53512D01*
X-62353Y53497D01*
X-62363Y53479D01*
X-62372Y53458D01*
X-62384Y53433D01*
X-62399Y53405D01*
X-62417Y53377D01*
X-62434Y53348D01*
X-62457Y53318D01*
X-62481Y53286D01*
X-62510Y53258D01*
X-62541Y53227D01*
X-62575Y53198D01*
X-62612Y53168D01*
X-62616Y53166D01*
X-62626Y53159D01*
X-62643Y53150D01*
X-62665Y53137D01*
X-62692Y53121D01*
X-62725Y53107D01*
X-62762Y53089D01*
X-62806Y53073D01*
X-62853Y53058D01*
X-62905Y53045D01*
X-62959Y53032D01*
X-63017Y53024D01*
X-63077Y53019D01*
X-63141Y53018D01*
X-63206Y53021D01*
X-63274Y53032D01*
X-63278Y53032D01*
X-63291Y53035D01*
X-63309Y53039D01*
X-63335Y53047D01*
X-63365Y53058D01*
X-63400Y53071D01*
X-63441Y53088D01*
X-63484Y53108D01*
X-63529Y53131D01*
X-63578Y53160D01*
X-63627Y53193D01*
X-63675Y53228D01*
X-63726Y53271D01*
X-63773Y53319D01*
X-63821Y53370D01*
X-63865Y53429D01*
X-63874Y53442D01*
X-63883Y53459D01*
X-63898Y53480D01*
X-63913Y53510D01*
X-63931Y53544D01*
X-63948Y53581D01*
X-63970Y53624D01*
X-63987Y53670D01*
X-64004Y53719D01*
X-64018Y53772D01*
X-64033Y53826D01*
X-64043Y53885D01*
X-64048Y53942D01*
X-64051Y54004D01*
X-64047Y54065D01*
X-64046Y54068D01*
X-64045Y54078D01*
X-64043Y54096D01*
X-64036Y54119D01*
X-64030Y54149D01*
X-64021Y54181D01*
X-64012Y54217D01*
X-63996Y54256D01*
X-63980Y54300D01*
X-63959Y54343D01*
X-63933Y54390D01*
X-63905Y54436D01*
X-63872Y54485D01*
X-63835Y54531D01*
X-63793Y54578D01*
X-63746Y54623D01*
X-63399Y54238D01*
X-63401Y54237D01*
X-63405Y54231D01*
X-63413Y54225D01*
X-63423Y54215D01*
X-63434Y54202D01*
X-63447Y54187D01*
X-63475Y54153D01*
X-63506Y54111D01*
X-63535Y54065D01*
X-63558Y54011D01*
X-63572Y53957D01*
X-63571Y53955D01*
X-63573Y53951D01*
X-63575Y53932D01*
X-63575Y53903D01*
X-63571Y53869D01*
X-63565Y53826D01*
X-63552Y53780D01*
X-63534Y53733D01*
X-63521Y53710D01*
X-63506Y53685D01*
X-63497Y53672D01*
X-63488Y53663D01*
X-63478Y53653D01*
X-63467Y53641D01*
X-63437Y53615D01*
X-63401Y53588D01*
X-63356Y53562D01*
X-63331Y53550D01*
X-63304Y53541D01*
X-63276Y53534D01*
X-63246Y53529D01*
X-63243Y53528D01*
X-63240Y53528D01*
X-63229Y53529D01*
X-63216Y53527D01*
X-63202Y53528D01*
X-63185Y53528D01*
X-63163Y53529D01*
X-63140Y53534D01*
X-63116Y53536D01*
X-63089Y53544D01*
X-63031Y53561D01*
X-62970Y53589D01*
X-62938Y53609D01*
X-62905Y53629D01*
X-62903Y53630D01*
X-62898Y53634D01*
X-62890Y53640D01*
X-62880Y53650D01*
X-62866Y53659D01*
X-62850Y53673D01*
X-62818Y53707D01*
X-62784Y53745D01*
X-62753Y53790D01*
X-62726Y53844D01*
X-62716Y53871D01*
X-62708Y53900D01*
X-62706Y53901D01*
X-62707Y53907D01*
X-62703Y53926D01*
X-62701Y53957D01*
X-62701Y53994D01*
X-62706Y54037D01*
X-62715Y54083D01*
X-62733Y54134D01*
X-62746Y54157D01*
X-62760Y54182D01*
X-62771Y54197D01*
X-62785Y54213D01*
X-62804Y54235D01*
X-62828Y54262D01*
X-62857Y54290D01*
X-62892Y54324D01*
X-62932Y54356D01*
X-62544Y54559D01*
X-62524Y54530D01*
X-62511Y54515D01*
X-62500Y54500D01*
X-62466Y54463D01*
X-62428Y54426D01*
X-62383Y54391D01*
X-62334Y54362D01*
X-62305Y54350D01*
X-62279Y54342D01*
X-62276Y54341D01*
X-62273Y54341D01*
X-62253Y54337D01*
X-62226Y54336D01*
X-62189Y54336D01*
X-62145Y54340D01*
X-62097Y54351D01*
X-62050Y54369D01*
X-62025Y54384D01*
X-61999Y54400D01*
X-61997Y54401D01*
X-61993Y54404D01*
X-61987Y54408D01*
X-61980Y54415D01*
X-61961Y54432D01*
X-61938Y54453D01*
X-61916Y54484D01*
X-61893Y54517D01*
X-61876Y54555D01*
X-61865Y54597D01*
X-61864Y54604D01*
X-61861Y54617D01*
X-61863Y54639D01*
X-61864Y54670D01*
X-61868Y54705D01*
X-61880Y54743D01*
X-61897Y54783D01*
X-61922Y54827D01*
X-61928Y54836D01*
X-61937Y54845D01*
X-61953Y54863D01*
X-61977Y54886D01*
X-62008Y54908D01*
X-62043Y54930D01*
X-62085Y54949D01*
X-62132Y54963D01*
X-62139Y54964D01*
X-62154Y54965D01*
X-62183Y54965D01*
X-62217Y54964D01*
X-62262Y54958D01*
X-62312Y54947D01*
X-62366Y54929D01*
X-62424Y54900D01*
X-62638Y55349D01*
X-62636Y55351D01*
X-62627Y55354D01*
X-62616Y55359D01*
X-62599Y55365D01*
X-62579Y55373D01*
X-62554Y55382D01*
X-62528Y55391D01*
X-62499Y55400D01*
X-62435Y55419D01*
X-62366Y55436D01*
X-62293Y55449D01*
X-62225Y55454D01*
X-62221Y55453D01*
X-62216Y55454D01*
X-62206Y55452D01*
D02*
G37*
G36*
X-62917Y56988D02*
X-62896Y56954D01*
X-62840Y56874D01*
X-62811Y56828D01*
X-62751Y56734D01*
X-62723Y56687D01*
X-62696Y56639D01*
X-62672Y56596D01*
X-62650Y56556D01*
X-62632Y56519D01*
X-62619Y56488D01*
X-62618Y56486D01*
X-62616Y56479D01*
X-62611Y56464D01*
X-62606Y56448D01*
X-62603Y56427D01*
X-62597Y56402D01*
X-62591Y56374D01*
X-62585Y56341D01*
X-62583Y56308D01*
X-62579Y56270D01*
X-62580Y56229D01*
X-62580Y56188D01*
X-62584Y56145D01*
X-62590Y56100D01*
X-62600Y56053D01*
X-62614Y56006D01*
X-62615Y56002D01*
X-62618Y55994D01*
X-62623Y55982D01*
X-62630Y55962D01*
X-62641Y55941D01*
X-62652Y55915D01*
X-62667Y55887D01*
X-62686Y55857D01*
X-62709Y55823D01*
X-62732Y55787D01*
X-62763Y55751D01*
X-62795Y55714D01*
X-62829Y55676D01*
X-62869Y55639D01*
X-62915Y55601D01*
X-62962Y55565D01*
X-62964Y55564D01*
X-62972Y55558D01*
X-62982Y55551D01*
X-62998Y55542D01*
X-63016Y55530D01*
X-63039Y55517D01*
X-63063Y55503D01*
X-63091Y55489D01*
X-63153Y55457D01*
X-63221Y55430D01*
X-63293Y55409D01*
X-63367Y55395D01*
X-63368Y55393D01*
X-63375Y55394D01*
X-63386Y55393D01*
X-63399Y55392D01*
X-63416Y55392D01*
X-63437Y55392D01*
X-63485Y55390D01*
X-63540Y55395D01*
X-63600Y55402D01*
X-63663Y55413D01*
X-63726Y55432D01*
X-63727Y55434D01*
X-63734Y55436D01*
X-63742Y55439D01*
X-63753Y55442D01*
X-63767Y55450D01*
X-63783Y55456D01*
X-63822Y55475D01*
X-63864Y55498D01*
X-63910Y55526D01*
X-63957Y55557D01*
X-64000Y55593D01*
X-64002Y55595D01*
X-64008Y55599D01*
X-64015Y55609D01*
X-64026Y55621D01*
X-64041Y55634D01*
X-64058Y55654D01*
X-64077Y55678D01*
X-64100Y55703D01*
X-64124Y55732D01*
X-64152Y55765D01*
X-64181Y55802D01*
X-64213Y55843D01*
X-64248Y55889D01*
X-64285Y55938D01*
X-64324Y55989D01*
X-64571Y56342D01*
X-65427Y55743D01*
X-65748Y56201D01*
X-63478Y57790D01*
X-62917Y56988D01*
D02*
G37*
G36*
X-11737Y17065D02*
X-11698Y17063D01*
X-11652Y17057D01*
X-11598Y17050D01*
X-11536Y17039D01*
X-11471Y17026D01*
X-11402Y17008D01*
X-11327Y16988D01*
X-11252Y16962D01*
X-11177Y16928D01*
X-11102Y16892D01*
X-11028Y16848D01*
X-10958Y16797D01*
X-10891Y16740D01*
X-10888Y16737D01*
X-10881Y16732D01*
X-10870Y16719D01*
X-10857Y16704D01*
X-10839Y16683D01*
X-10821Y16660D01*
X-10798Y16632D01*
X-10775Y16598D01*
X-10749Y16562D01*
X-10726Y16521D01*
X-10700Y16474D01*
X-10674Y16425D01*
X-10648Y16371D01*
X-10625Y16312D01*
X-10602Y16252D01*
X-10581Y16185D01*
X-11185Y16041D01*
Y16043D01*
X-11188Y16051D01*
X-11190Y16064D01*
X-11195Y16080D01*
X-11203Y16100D01*
X-11211Y16121D01*
X-11234Y16175D01*
X-11262Y16232D01*
X-11304Y16294D01*
X-11350Y16355D01*
X-11378Y16384D01*
X-11410Y16410D01*
X-11412Y16412D01*
X-11417Y16415D01*
X-11428Y16423D01*
X-11440Y16430D01*
X-11456Y16441D01*
X-11477Y16454D01*
X-11500Y16466D01*
X-11526Y16479D01*
X-11554Y16490D01*
X-11585Y16503D01*
X-11655Y16526D01*
X-11735Y16541D01*
X-11778Y16544D01*
X-11822Y16546D01*
X-11838D01*
X-11853Y16544D01*
X-11879D01*
X-11907Y16539D01*
X-11938Y16534D01*
X-11977Y16526D01*
X-12016Y16515D01*
X-12060Y16503D01*
X-12104Y16487D01*
X-12147Y16466D01*
X-12194Y16443D01*
X-12238Y16418D01*
X-12284Y16384D01*
X-12325Y16348D01*
X-12367Y16304D01*
X-12369Y16301D01*
X-12374Y16294D01*
X-12385Y16278D01*
X-12398Y16258D01*
X-12416Y16232D01*
X-12431Y16201D01*
X-12452Y16162D01*
X-12470Y16116D01*
X-12488Y16067D01*
X-12509Y16007D01*
X-12524Y15945D01*
X-12539Y15873D01*
X-12555Y15798D01*
X-12565Y15713D01*
X-12571Y15623D01*
X-12573Y15525D01*
Y15522D01*
Y15520D01*
Y15509D01*
Y15499D01*
Y15486D01*
X-12571Y15471D01*
Y15432D01*
X-12568Y15385D01*
X-12563Y15331D01*
X-12555Y15272D01*
X-12547Y15210D01*
X-12537Y15143D01*
X-12524Y15076D01*
X-12506Y15009D01*
X-12488Y14942D01*
X-12465Y14877D01*
X-12436Y14818D01*
X-12405Y14761D01*
X-12369Y14712D01*
X-12367Y14709D01*
X-12359Y14702D01*
X-12349Y14689D01*
X-12331Y14673D01*
X-12313Y14655D01*
X-12287Y14635D01*
X-12258Y14614D01*
X-12225Y14591D01*
X-12189Y14568D01*
X-12147Y14547D01*
X-12104Y14526D01*
X-12057Y14508D01*
X-12005Y14493D01*
X-11951Y14480D01*
X-11895Y14472D01*
X-11835Y14470D01*
X-11812D01*
X-11794Y14472D01*
X-11773Y14475D01*
X-11748Y14477D01*
X-11722Y14482D01*
X-11691Y14490D01*
X-11626Y14508D01*
X-11590Y14521D01*
X-11557Y14534D01*
X-11520Y14552D01*
X-11484Y14573D01*
X-11451Y14596D01*
X-11417Y14624D01*
X-11415Y14627D01*
X-11410Y14632D01*
X-11399Y14640D01*
X-11389Y14653D01*
X-11373Y14671D01*
X-11358Y14691D01*
X-11340Y14715D01*
X-11319Y14743D01*
X-11299Y14777D01*
X-11278Y14813D01*
X-11257Y14851D01*
X-11237Y14895D01*
X-11216Y14944D01*
X-11198Y14996D01*
X-11180Y15053D01*
X-11164Y15112D01*
X-10574Y14924D01*
Y14921D01*
X-10576Y14919D01*
Y14911D01*
X-10579Y14903D01*
X-10589Y14877D01*
X-10599Y14844D01*
X-10615Y14802D01*
X-10633Y14753D01*
X-10656Y14702D01*
X-10682Y14645D01*
X-10710Y14588D01*
X-10744Y14526D01*
X-10783Y14464D01*
X-10824Y14405D01*
X-10868Y14346D01*
X-10917Y14289D01*
X-10971Y14237D01*
X-11028Y14188D01*
X-11030Y14186D01*
X-11043Y14178D01*
X-11059Y14165D01*
X-11084Y14152D01*
X-11115Y14132D01*
X-11152Y14114D01*
X-11195Y14090D01*
X-11244Y14070D01*
X-11301Y14046D01*
X-11361Y14023D01*
X-11428Y14005D01*
X-11497Y13987D01*
X-11575Y13972D01*
X-11655Y13959D01*
X-11740Y13951D01*
X-11827Y13948D01*
X-11853D01*
X-11869Y13951D01*
X-11884D01*
X-11905Y13954D01*
X-11928Y13956D01*
X-11980Y13961D01*
X-12039Y13969D01*
X-12104Y13982D01*
X-12176Y14000D01*
X-12253Y14021D01*
X-12333Y14049D01*
X-12416Y14083D01*
X-12498Y14121D01*
X-12581Y14168D01*
X-12661Y14224D01*
X-12741Y14286D01*
X-12816Y14359D01*
X-12821Y14364D01*
X-12831Y14377D01*
X-12852Y14402D01*
X-12875Y14433D01*
X-12906Y14475D01*
X-12937Y14526D01*
X-12973Y14586D01*
X-13006Y14653D01*
X-13043Y14728D01*
X-13079Y14813D01*
X-13110Y14906D01*
X-13141Y15006D01*
X-13164Y15112D01*
X-13184Y15228D01*
X-13195Y15352D01*
X-13200Y15481D01*
Y15484D01*
Y15489D01*
Y15499D01*
Y15515D01*
X-13197Y15532D01*
Y15553D01*
X-13195Y15579D01*
Y15605D01*
X-13192Y15636D01*
X-13187Y15669D01*
X-13179Y15742D01*
X-13167Y15822D01*
X-13151Y15909D01*
X-13130Y16002D01*
X-13104Y16097D01*
X-13074Y16196D01*
X-13037Y16291D01*
X-12994Y16387D01*
X-12939Y16479D01*
X-12880Y16567D01*
X-12813Y16650D01*
X-12808Y16655D01*
X-12795Y16668D01*
X-12772Y16688D01*
X-12743Y16714D01*
X-12702Y16748D01*
X-12656Y16781D01*
X-12601Y16820D01*
X-12539Y16859D01*
X-12470Y16897D01*
X-12393Y16936D01*
X-12307Y16970D01*
X-12217Y17003D01*
X-12119Y17029D01*
X-12016Y17050D01*
X-11907Y17063D01*
X-11791Y17068D01*
X-11753D01*
X-11737Y17065D01*
D02*
G37*
G36*
X-6796Y17026D02*
X-6765D01*
X-6729Y17021D01*
X-6685Y17016D01*
X-6637Y17008D01*
X-6585Y16998D01*
X-6531Y16985D01*
X-6474Y16970D01*
X-6415Y16949D01*
X-6355Y16926D01*
X-6299Y16900D01*
X-6242Y16866D01*
X-6188Y16830D01*
X-6138Y16786D01*
X-6136Y16784D01*
X-6128Y16776D01*
X-6115Y16763D01*
X-6097Y16743D01*
X-6079Y16719D01*
X-6059Y16691D01*
X-6035Y16660D01*
X-6010Y16621D01*
X-5986Y16580D01*
X-5963Y16536D01*
X-5943Y16485D01*
X-5922Y16433D01*
X-5906Y16376D01*
X-5893Y16317D01*
X-5886Y16255D01*
X-5883Y16188D01*
Y16185D01*
Y16177D01*
Y16167D01*
Y16154D01*
X-5886Y16136D01*
Y16113D01*
X-5888Y16090D01*
X-5893Y16064D01*
X-5901Y16002D01*
X-5914Y15938D01*
X-5932Y15868D01*
X-5958Y15798D01*
Y15796D01*
X-5960Y15790D01*
X-5966Y15780D01*
X-5971Y15767D01*
X-5979Y15749D01*
X-5989Y15729D01*
X-5999Y15708D01*
X-6015Y15682D01*
X-6046Y15623D01*
X-6084Y15558D01*
X-6133Y15489D01*
X-6188Y15414D01*
Y15411D01*
X-6193Y15409D01*
X-6198Y15401D01*
X-6208Y15388D01*
X-6221Y15375D01*
X-6237Y15357D01*
X-6255Y15339D01*
X-6275Y15316D01*
X-6299Y15290D01*
X-6327Y15262D01*
X-6358Y15231D01*
X-6391Y15194D01*
X-6430Y15158D01*
X-6471Y15117D01*
X-6518Y15076D01*
X-6567Y15029D01*
X-6569Y15027D01*
X-6580Y15019D01*
X-6593Y15006D01*
X-6611Y14988D01*
X-6631Y14970D01*
X-6657Y14947D01*
X-6714Y14895D01*
X-6773Y14839D01*
X-6830Y14784D01*
X-6856Y14759D01*
X-6879Y14735D01*
X-6900Y14715D01*
X-6915Y14697D01*
X-6918Y14694D01*
X-6928Y14684D01*
X-6941Y14666D01*
X-6956Y14645D01*
X-6977Y14622D01*
X-6995Y14593D01*
X-7034Y14537D01*
X-5883D01*
Y14000D01*
X-7908D01*
Y14003D01*
X-7906Y14013D01*
X-7903Y14031D01*
X-7901Y14052D01*
X-7896Y14080D01*
X-7890Y14111D01*
X-7883Y14147D01*
X-7872Y14186D01*
X-7859Y14230D01*
X-7846Y14274D01*
X-7813Y14371D01*
X-7792Y14421D01*
X-7769Y14472D01*
X-7741Y14524D01*
X-7712Y14575D01*
X-7710Y14578D01*
X-7705Y14588D01*
X-7694Y14604D01*
X-7679Y14624D01*
X-7658Y14653D01*
X-7635Y14686D01*
X-7604Y14725D01*
X-7568Y14769D01*
X-7529Y14818D01*
X-7480Y14872D01*
X-7429Y14931D01*
X-7369Y14996D01*
X-7302Y15066D01*
X-7230Y15138D01*
X-7150Y15215D01*
X-7062Y15298D01*
X-7057Y15303D01*
X-7044Y15313D01*
X-7026Y15331D01*
X-7000Y15357D01*
X-6969Y15385D01*
X-6933Y15422D01*
X-6897Y15458D01*
X-6856Y15496D01*
X-6773Y15579D01*
X-6735Y15620D01*
X-6696Y15662D01*
X-6662Y15700D01*
X-6631Y15734D01*
X-6605Y15767D01*
X-6585Y15793D01*
X-6582Y15796D01*
X-6580Y15801D01*
X-6575Y15811D01*
X-6567Y15824D01*
X-6556Y15840D01*
X-6546Y15858D01*
X-6536Y15881D01*
X-6523Y15904D01*
X-6502Y15958D01*
X-6482Y16018D01*
X-6469Y16082D01*
X-6464Y16113D01*
Y16147D01*
Y16149D01*
Y16154D01*
Y16165D01*
X-6466Y16177D01*
Y16196D01*
X-6469Y16214D01*
X-6476Y16258D01*
X-6489Y16304D01*
X-6508Y16353D01*
X-6533Y16402D01*
X-6569Y16443D01*
X-6575Y16448D01*
X-6588Y16459D01*
X-6611Y16477D01*
X-6644Y16497D01*
X-6685Y16515D01*
X-6735Y16534D01*
X-6791Y16544D01*
X-6856Y16549D01*
X-6874D01*
X-6887Y16546D01*
X-6900D01*
X-6918Y16544D01*
X-6959Y16536D01*
X-7005Y16523D01*
X-7054Y16503D01*
X-7101Y16474D01*
X-7124Y16459D01*
X-7145Y16438D01*
X-7150Y16433D01*
X-7155Y16428D01*
X-7160Y16418D01*
X-7170Y16405D01*
X-7178Y16392D01*
X-7189Y16374D01*
X-7199Y16353D01*
X-7209Y16330D01*
X-7220Y16301D01*
X-7230Y16273D01*
X-7240Y16239D01*
X-7248Y16203D01*
X-7256Y16165D01*
X-7261Y16123D01*
X-7266Y16077D01*
X-7841Y16134D01*
Y16136D01*
Y16139D01*
X-7839Y16154D01*
X-7836Y16180D01*
X-7828Y16211D01*
X-7821Y16250D01*
X-7810Y16296D01*
X-7797Y16345D01*
X-7782Y16399D01*
X-7764Y16454D01*
X-7741Y16510D01*
X-7715Y16567D01*
X-7687Y16624D01*
X-7650Y16678D01*
X-7612Y16730D01*
X-7570Y16779D01*
X-7521Y16820D01*
X-7519Y16823D01*
X-7508Y16830D01*
X-7493Y16841D01*
X-7472Y16853D01*
X-7447Y16869D01*
X-7413Y16887D01*
X-7377Y16905D01*
X-7333Y16926D01*
X-7287Y16944D01*
X-7235Y16962D01*
X-7178Y16980D01*
X-7119Y16995D01*
X-7054Y17011D01*
X-6987Y17021D01*
X-6915Y17026D01*
X-6840Y17029D01*
X-6820D01*
X-6796Y17026D01*
D02*
G37*
G36*
X-8700Y14000D02*
X-9278D01*
Y16177D01*
X-9281Y16175D01*
X-9294Y16165D01*
X-9309Y16149D01*
X-9335Y16128D01*
X-9366Y16105D01*
X-9402Y16077D01*
X-9443Y16046D01*
X-9490Y16012D01*
X-9542Y15976D01*
X-9601Y15940D01*
X-9660Y15904D01*
X-9727Y15868D01*
X-9797Y15834D01*
X-9869Y15801D01*
X-9944Y15770D01*
X-10024Y15742D01*
Y16265D01*
X-10021D01*
X-10014Y16268D01*
X-10001Y16273D01*
X-9985Y16281D01*
X-9965Y16288D01*
X-9939Y16299D01*
X-9911Y16312D01*
X-9879Y16327D01*
X-9843Y16345D01*
X-9805Y16366D01*
X-9766Y16389D01*
X-9722Y16412D01*
X-9678Y16441D01*
X-9632Y16472D01*
X-9583Y16508D01*
X-9534Y16544D01*
X-9531Y16546D01*
X-9521Y16554D01*
X-9508Y16565D01*
X-9490Y16580D01*
X-9469Y16601D01*
X-9443Y16624D01*
X-9418Y16652D01*
X-9389Y16683D01*
X-9358Y16717D01*
X-9327Y16755D01*
X-9299Y16794D01*
X-9268Y16838D01*
X-9240Y16882D01*
X-9214Y16928D01*
X-9191Y16977D01*
X-9170Y17029D01*
X-8700D01*
Y14000D01*
D02*
G37*
G36*
X-8654Y43026D02*
X-8623Y43024D01*
X-8587Y43021D01*
X-8546Y43013D01*
X-8499Y43006D01*
X-8450Y42995D01*
X-8396Y42980D01*
X-8339Y42962D01*
X-8282Y42941D01*
X-8225Y42913D01*
X-8169Y42882D01*
X-8115Y42846D01*
X-8060Y42805D01*
X-8011Y42755D01*
X-8009Y42753D01*
X-8001Y42745D01*
X-7991Y42732D01*
X-7978Y42717D01*
X-7962Y42696D01*
X-7944Y42670D01*
X-7924Y42642D01*
X-7903Y42611D01*
X-7885Y42575D01*
X-7864Y42536D01*
X-7846Y42495D01*
X-7831Y42451D01*
X-7818Y42405D01*
X-7808Y42355D01*
X-7800Y42307D01*
X-7797Y42255D01*
Y42250D01*
Y42237D01*
X-7800Y42216D01*
X-7805Y42190D01*
X-7810Y42157D01*
X-7820Y42116D01*
X-7833Y42074D01*
X-7851Y42028D01*
X-7875Y41976D01*
X-7903Y41925D01*
X-7939Y41873D01*
X-7980Y41819D01*
X-8032Y41767D01*
X-8089Y41716D01*
X-8156Y41667D01*
X-8233Y41620D01*
X-8231D01*
X-8223Y41618D01*
X-8207Y41615D01*
X-8189Y41610D01*
X-8169Y41602D01*
X-8143Y41592D01*
X-8115Y41581D01*
X-8084Y41569D01*
X-8019Y41535D01*
X-7986Y41517D01*
X-7949Y41494D01*
X-7916Y41468D01*
X-7882Y41440D01*
X-7851Y41406D01*
X-7820Y41373D01*
X-7818Y41370D01*
X-7813Y41365D01*
X-7805Y41352D01*
X-7795Y41339D01*
X-7784Y41318D01*
X-7772Y41298D01*
X-7756Y41272D01*
X-7740Y41241D01*
X-7728Y41207D01*
X-7712Y41174D01*
X-7699Y41135D01*
X-7686Y41094D01*
X-7679Y41050D01*
X-7671Y41004D01*
X-7666Y40955D01*
X-7663Y40903D01*
Y40898D01*
Y40885D01*
X-7666Y40864D01*
X-7668Y40836D01*
X-7671Y40802D01*
X-7679Y40764D01*
X-7686Y40720D01*
X-7699Y40671D01*
X-7715Y40619D01*
X-7735Y40565D01*
X-7759Y40508D01*
X-7787Y40451D01*
X-7820Y40395D01*
X-7859Y40338D01*
X-7903Y40281D01*
X-7955Y40227D01*
X-7957Y40224D01*
X-7967Y40214D01*
X-7983Y40201D01*
X-8006Y40183D01*
X-8035Y40163D01*
X-8068Y40139D01*
X-8109Y40113D01*
X-8153Y40088D01*
X-8202Y40062D01*
X-8259Y40036D01*
X-8318Y40013D01*
X-8380Y39992D01*
X-8450Y39974D01*
X-8522Y39961D01*
X-8597Y39951D01*
X-8677Y39948D01*
X-8695D01*
X-8716Y39951D01*
X-8744D01*
X-8780Y39956D01*
X-8822Y39961D01*
X-8865Y39969D01*
X-8917Y39977D01*
X-8969Y39990D01*
X-9023Y40005D01*
X-9080Y40026D01*
X-9136Y40046D01*
X-9196Y40075D01*
X-9250Y40106D01*
X-9307Y40142D01*
X-9358Y40183D01*
X-9361Y40186D01*
X-9369Y40194D01*
X-9384Y40206D01*
X-9399Y40227D01*
X-9423Y40250D01*
X-9446Y40279D01*
X-9472Y40310D01*
X-9498Y40348D01*
X-9526Y40390D01*
X-9552Y40436D01*
X-9578Y40488D01*
X-9601Y40542D01*
X-9624Y40601D01*
X-9642Y40663D01*
X-9657Y40730D01*
X-9668Y40800D01*
X-9108Y40870D01*
Y40867D01*
X-9105Y40859D01*
Y40849D01*
X-9103Y40833D01*
X-9098Y40815D01*
X-9092Y40795D01*
X-9080Y40748D01*
X-9061Y40694D01*
X-9038Y40640D01*
X-9005Y40586D01*
X-8966Y40539D01*
X-8963D01*
X-8961Y40534D01*
X-8945Y40521D01*
X-8920Y40503D01*
X-8886Y40485D01*
X-8845Y40464D01*
X-8796Y40446D01*
X-8742Y40433D01*
X-8713Y40431D01*
X-8682Y40428D01*
X-8664D01*
X-8651Y40431D01*
X-8636Y40433D01*
X-8618Y40436D01*
X-8576Y40446D01*
X-8530Y40462D01*
X-8478Y40485D01*
X-8453Y40501D01*
X-8427Y40519D01*
X-8404Y40539D01*
X-8380Y40562D01*
X-8378Y40565D01*
X-8375Y40568D01*
X-8370Y40578D01*
X-8360Y40588D01*
X-8352Y40601D01*
X-8342Y40617D01*
X-8329Y40637D01*
X-8318Y40661D01*
X-8305Y40684D01*
X-8295Y40712D01*
X-8275Y40774D01*
X-8262Y40846D01*
X-8259Y40887D01*
X-8257Y40929D01*
Y40931D01*
Y40939D01*
Y40949D01*
X-8259Y40965D01*
Y40983D01*
X-8262Y41006D01*
X-8272Y41055D01*
X-8285Y41109D01*
X-8305Y41166D01*
X-8337Y41223D01*
X-8354Y41249D01*
X-8375Y41274D01*
Y41277D01*
X-8380Y41280D01*
X-8396Y41295D01*
X-8422Y41316D01*
X-8455Y41339D01*
X-8496Y41362D01*
X-8543Y41383D01*
X-8600Y41398D01*
X-8628Y41401D01*
X-8659Y41403D01*
X-8680D01*
X-8703Y41401D01*
X-8734Y41398D01*
X-8772Y41393D01*
X-8816Y41385D01*
X-8868Y41375D01*
X-8922Y41360D01*
X-8860Y41832D01*
X-8822D01*
X-8801Y41834D01*
X-8780D01*
X-8726Y41842D01*
X-8669Y41852D01*
X-8610Y41870D01*
X-8553Y41896D01*
X-8525Y41914D01*
X-8502Y41932D01*
X-8499Y41935D01*
X-8496Y41938D01*
X-8481Y41953D01*
X-8463Y41976D01*
X-8440Y42010D01*
X-8416Y42051D01*
X-8396Y42100D01*
X-8383Y42154D01*
X-8380Y42185D01*
X-8378Y42219D01*
Y42221D01*
Y42226D01*
Y42234D01*
X-8380Y42245D01*
X-8383Y42273D01*
X-8388Y42307D01*
X-8401Y42345D01*
X-8416Y42386D01*
X-8440Y42425D01*
X-8471Y42461D01*
X-8476Y42467D01*
X-8486Y42477D01*
X-8507Y42490D01*
X-8535Y42508D01*
X-8569Y42526D01*
X-8610Y42539D01*
X-8656Y42549D01*
X-8711Y42554D01*
X-8724D01*
X-8736Y42552D01*
X-8762Y42549D01*
X-8798Y42541D01*
X-8837Y42528D01*
X-8878Y42510D01*
X-8922Y42485D01*
X-8963Y42451D01*
X-8969Y42446D01*
X-8979Y42433D01*
X-8997Y42407D01*
X-9018Y42376D01*
X-9041Y42332D01*
X-9061Y42281D01*
X-9080Y42221D01*
X-9090Y42152D01*
X-9624Y42242D01*
Y42245D01*
X-9621Y42255D01*
X-9619Y42268D01*
X-9614Y42286D01*
X-9608Y42309D01*
X-9601Y42338D01*
X-9593Y42366D01*
X-9583Y42397D01*
X-9559Y42467D01*
X-9531Y42539D01*
X-9498Y42611D01*
X-9459Y42676D01*
X-9456Y42678D01*
X-9454Y42683D01*
X-9446Y42691D01*
X-9438Y42704D01*
X-9412Y42732D01*
X-9376Y42771D01*
X-9332Y42812D01*
X-9278Y42854D01*
X-9216Y42895D01*
X-9144Y42933D01*
X-9141D01*
X-9134Y42939D01*
X-9123Y42941D01*
X-9108Y42949D01*
X-9090Y42957D01*
X-9067Y42964D01*
X-9041Y42972D01*
X-9012Y42983D01*
X-8981Y42990D01*
X-8945Y42998D01*
X-8871Y43013D01*
X-8785Y43024D01*
X-8695Y43029D01*
X-8677D01*
X-8654Y43026D01*
D02*
G37*
G36*
X-10511Y40000D02*
X-11089D01*
Y42178D01*
X-11092Y42175D01*
X-11105Y42165D01*
X-11120Y42149D01*
X-11146Y42129D01*
X-11177Y42105D01*
X-11213Y42077D01*
X-11254Y42046D01*
X-11301Y42012D01*
X-11353Y41976D01*
X-11412Y41940D01*
X-11471Y41904D01*
X-11538Y41868D01*
X-11608Y41834D01*
X-11680Y41801D01*
X-11755Y41770D01*
X-11835Y41741D01*
Y42265D01*
X-11832D01*
X-11825Y42268D01*
X-11812Y42273D01*
X-11796Y42281D01*
X-11776Y42289D01*
X-11750Y42299D01*
X-11721Y42312D01*
X-11690Y42327D01*
X-11654Y42345D01*
X-11616Y42366D01*
X-11577Y42389D01*
X-11533Y42412D01*
X-11489Y42441D01*
X-11443Y42472D01*
X-11394Y42508D01*
X-11345Y42544D01*
X-11342Y42546D01*
X-11332Y42554D01*
X-11319Y42564D01*
X-11301Y42580D01*
X-11280Y42601D01*
X-11254Y42624D01*
X-11229Y42652D01*
X-11200Y42683D01*
X-11169Y42717D01*
X-11138Y42755D01*
X-11110Y42794D01*
X-11079Y42838D01*
X-11051Y42882D01*
X-11025Y42928D01*
X-11002Y42977D01*
X-10981Y43029D01*
X-10511D01*
Y40000D01*
D02*
G37*
G36*
X-13502Y43013D02*
X-13455Y43011D01*
X-13406Y43008D01*
X-13352Y43006D01*
X-13236Y42995D01*
X-13120Y42983D01*
X-13066Y42972D01*
X-13011Y42962D01*
X-12962Y42949D01*
X-12919Y42933D01*
X-12916D01*
X-12908Y42931D01*
X-12898Y42926D01*
X-12882Y42918D01*
X-12864Y42908D01*
X-12841Y42897D01*
X-12792Y42866D01*
X-12764Y42848D01*
X-12735Y42828D01*
X-12707Y42805D01*
X-12679Y42779D01*
X-12648Y42748D01*
X-12619Y42717D01*
X-12594Y42683D01*
X-12568Y42645D01*
X-12565Y42642D01*
X-12562Y42634D01*
X-12555Y42624D01*
X-12547Y42608D01*
X-12537Y42588D01*
X-12526Y42564D01*
X-12514Y42536D01*
X-12501Y42508D01*
X-12490Y42474D01*
X-12477Y42438D01*
X-12467Y42397D01*
X-12457Y42355D01*
X-12441Y42268D01*
X-12439Y42219D01*
X-12436Y42170D01*
Y42167D01*
Y42154D01*
Y42136D01*
X-12439Y42113D01*
X-12441Y42085D01*
X-12446Y42051D01*
X-12454Y42012D01*
X-12462Y41971D01*
X-12472Y41927D01*
X-12485Y41883D01*
X-12501Y41837D01*
X-12521Y41788D01*
X-12544Y41741D01*
X-12570Y41695D01*
X-12601Y41651D01*
X-12637Y41607D01*
X-12640Y41605D01*
X-12648Y41597D01*
X-12658Y41587D01*
X-12674Y41571D01*
X-12694Y41556D01*
X-12720Y41535D01*
X-12751Y41515D01*
X-12787Y41491D01*
X-12826Y41468D01*
X-12869Y41442D01*
X-12919Y41419D01*
X-12970Y41398D01*
X-13029Y41378D01*
X-13091Y41357D01*
X-13159Y41342D01*
X-13231Y41329D01*
X-13228D01*
X-13223Y41324D01*
X-13213Y41318D01*
X-13197Y41308D01*
X-13182Y41298D01*
X-13161Y41285D01*
X-13117Y41254D01*
X-13066Y41218D01*
X-13011Y41174D01*
X-12957Y41127D01*
X-12906Y41076D01*
X-12903Y41073D01*
X-12900Y41068D01*
X-12893Y41060D01*
X-12882Y41050D01*
X-12869Y41035D01*
X-12854Y41014D01*
X-12836Y40991D01*
X-12813Y40965D01*
X-12790Y40931D01*
X-12764Y40898D01*
X-12735Y40857D01*
X-12704Y40813D01*
X-12674Y40764D01*
X-12637Y40709D01*
X-12599Y40653D01*
X-12560Y40588D01*
X-12191Y40000D01*
X-12921D01*
X-13357Y40655D01*
X-13360Y40661D01*
X-13367Y40671D01*
X-13380Y40689D01*
X-13396Y40712D01*
X-13414Y40740D01*
X-13437Y40771D01*
X-13460Y40805D01*
X-13486Y40841D01*
X-13538Y40918D01*
X-13592Y40991D01*
X-13618Y41022D01*
X-13641Y41053D01*
X-13662Y41076D01*
X-13680Y41096D01*
X-13682Y41102D01*
X-13695Y41112D01*
X-13711Y41127D01*
X-13734Y41148D01*
X-13762Y41169D01*
X-13793Y41189D01*
X-13827Y41207D01*
X-13863Y41223D01*
X-13868Y41225D01*
X-13881Y41228D01*
X-13904Y41233D01*
X-13938Y41241D01*
X-13979Y41249D01*
X-14005Y41251D01*
X-14033Y41254D01*
X-14064Y41256D01*
X-14095D01*
X-14131Y41259D01*
X-14291D01*
Y40000D01*
X-14900D01*
Y43016D01*
X-13540D01*
X-13502Y43013D01*
D02*
G37*
G36*
X6645Y40712D02*
X7019D01*
Y40206D01*
X6645D01*
Y39600D01*
X6086D01*
Y40206D01*
X4852D01*
Y40709D01*
X6158Y42629D01*
X6645D01*
Y40712D01*
D02*
G37*
G36*
X4089Y39600D02*
X3511D01*
Y41778D01*
X3508Y41775D01*
X3495Y41765D01*
X3480Y41749D01*
X3454Y41728D01*
X3423Y41705D01*
X3387Y41677D01*
X3345Y41646D01*
X3299Y41612D01*
X3247Y41576D01*
X3188Y41540D01*
X3129Y41504D01*
X3062Y41468D01*
X2992Y41434D01*
X2920Y41401D01*
X2845Y41370D01*
X2765Y41342D01*
Y41865D01*
X2768D01*
X2775Y41868D01*
X2788Y41873D01*
X2804Y41881D01*
X2824Y41888D01*
X2850Y41899D01*
X2879Y41912D01*
X2909Y41927D01*
X2946Y41945D01*
X2984Y41966D01*
X3023Y41989D01*
X3067Y42012D01*
X3111Y42041D01*
X3157Y42072D01*
X3206Y42108D01*
X3255Y42144D01*
X3258Y42147D01*
X3268Y42154D01*
X3281Y42164D01*
X3299Y42180D01*
X3320Y42201D01*
X3345Y42224D01*
X3371Y42252D01*
X3400Y42283D01*
X3431Y42317D01*
X3462Y42355D01*
X3490Y42394D01*
X3521Y42438D01*
X3549Y42482D01*
X3575Y42528D01*
X3598Y42577D01*
X3619Y42629D01*
X4089D01*
Y39600D01*
D02*
G37*
G36*
X1098Y42613D02*
X1145Y42611D01*
X1194Y42608D01*
X1248Y42606D01*
X1364Y42595D01*
X1480Y42582D01*
X1534Y42572D01*
X1589Y42562D01*
X1638Y42549D01*
X1681Y42533D01*
X1684D01*
X1692Y42531D01*
X1702Y42526D01*
X1718Y42518D01*
X1736Y42508D01*
X1759Y42497D01*
X1808Y42466D01*
X1836Y42448D01*
X1865Y42428D01*
X1893Y42404D01*
X1921Y42379D01*
X1952Y42348D01*
X1981Y42317D01*
X2007Y42283D01*
X2032Y42244D01*
X2035Y42242D01*
X2038Y42234D01*
X2045Y42224D01*
X2053Y42208D01*
X2063Y42188D01*
X2074Y42164D01*
X2087Y42136D01*
X2099Y42108D01*
X2110Y42074D01*
X2123Y42038D01*
X2133Y41997D01*
X2143Y41956D01*
X2159Y41868D01*
X2161Y41819D01*
X2164Y41770D01*
Y41767D01*
Y41754D01*
Y41736D01*
X2161Y41713D01*
X2159Y41685D01*
X2154Y41651D01*
X2146Y41612D01*
X2138Y41571D01*
X2128Y41527D01*
X2115Y41483D01*
X2099Y41437D01*
X2079Y41388D01*
X2056Y41342D01*
X2030Y41295D01*
X1999Y41251D01*
X1963Y41207D01*
X1960Y41205D01*
X1952Y41197D01*
X1942Y41187D01*
X1926Y41171D01*
X1906Y41156D01*
X1880Y41135D01*
X1849Y41115D01*
X1813Y41091D01*
X1774Y41068D01*
X1730Y41042D01*
X1681Y41019D01*
X1630Y40998D01*
X1571Y40978D01*
X1509Y40957D01*
X1441Y40942D01*
X1369Y40929D01*
X1372D01*
X1377Y40924D01*
X1387Y40918D01*
X1403Y40908D01*
X1418Y40898D01*
X1439Y40885D01*
X1483Y40854D01*
X1534Y40818D01*
X1589Y40774D01*
X1643Y40727D01*
X1694Y40676D01*
X1697Y40673D01*
X1699Y40668D01*
X1707Y40660D01*
X1718Y40650D01*
X1730Y40635D01*
X1746Y40614D01*
X1764Y40591D01*
X1787Y40565D01*
X1810Y40531D01*
X1836Y40498D01*
X1865Y40457D01*
X1896Y40413D01*
X1926Y40364D01*
X1963Y40310D01*
X2001Y40253D01*
X2040Y40188D01*
X2409Y39600D01*
X1679D01*
X1243Y40255D01*
X1240Y40260D01*
X1233Y40271D01*
X1220Y40289D01*
X1204Y40312D01*
X1186Y40341D01*
X1163Y40371D01*
X1140Y40405D01*
X1114Y40441D01*
X1062Y40519D01*
X1008Y40591D01*
X982Y40622D01*
X959Y40653D01*
X938Y40676D01*
X920Y40696D01*
X918Y40702D01*
X905Y40712D01*
X889Y40727D01*
X866Y40748D01*
X838Y40769D01*
X807Y40789D01*
X773Y40807D01*
X737Y40823D01*
X732Y40826D01*
X719Y40828D01*
X696Y40833D01*
X662Y40841D01*
X621Y40849D01*
X595Y40851D01*
X567Y40854D01*
X536Y40857D01*
X505D01*
X469Y40859D01*
X309D01*
Y39600D01*
X-300D01*
Y42616D01*
X1060D01*
X1098Y42613D01*
D02*
G37*
%LPC*%
G36*
X34167Y77857D02*
X33471D01*
Y75553D01*
X34162D01*
X34188Y75555D01*
X34216D01*
X34250Y75558D01*
X34284Y75561D01*
X34358Y75566D01*
X34436Y75576D01*
X34513Y75589D01*
X34547Y75597D01*
X34580Y75607D01*
X34583D01*
X34588Y75610D01*
X34596Y75612D01*
X34609Y75617D01*
X34624Y75623D01*
X34639Y75630D01*
X34678Y75648D01*
X34722Y75672D01*
X34766Y75697D01*
X34810Y75728D01*
X34851Y75764D01*
X34854Y75767D01*
X34856Y75772D01*
X34864Y75780D01*
X34874Y75790D01*
X34887Y75806D01*
X34900Y75821D01*
X34916Y75842D01*
X34931Y75865D01*
X34949Y75891D01*
X34967Y75919D01*
X34985Y75950D01*
X35006Y75984D01*
X35039Y76059D01*
X35073Y76144D01*
Y76146D01*
X35076Y76154D01*
X35081Y76167D01*
X35086Y76188D01*
X35091Y76211D01*
X35099Y76237D01*
X35107Y76270D01*
X35114Y76306D01*
X35119Y76348D01*
X35127Y76391D01*
X35135Y76440D01*
X35140Y76492D01*
X35145Y76546D01*
X35150Y76603D01*
X35153Y76665D01*
Y76727D01*
Y76729D01*
Y76732D01*
Y76747D01*
Y76773D01*
X35150Y76804D01*
X35148Y76843D01*
X35145Y76889D01*
X35140Y76941D01*
X35132Y76995D01*
X35124Y77052D01*
X35114Y77111D01*
X35101Y77171D01*
X35086Y77232D01*
X35068Y77292D01*
X35047Y77349D01*
X35024Y77403D01*
X34995Y77452D01*
X34993Y77454D01*
X34988Y77462D01*
X34980Y77475D01*
X34967Y77493D01*
X34952Y77514D01*
X34936Y77537D01*
X34913Y77563D01*
X34890Y77591D01*
X34864Y77619D01*
X34836Y77648D01*
X34771Y77705D01*
X34735Y77730D01*
X34699Y77756D01*
X34660Y77777D01*
X34619Y77795D01*
X34616D01*
X34611Y77798D01*
X34601Y77800D01*
X34588Y77805D01*
X34570Y77810D01*
X34549Y77816D01*
X34523Y77821D01*
X34495Y77826D01*
X34462Y77831D01*
X34423Y77836D01*
X34381Y77841D01*
X34335Y77846D01*
X34284Y77852D01*
X34227Y77854D01*
X34167Y77857D01*
D02*
G37*
G36*
X-44490Y53493D02*
X-44895Y52378D01*
X-44074D01*
X-44490Y53493D01*
D02*
G37*
G36*
X-37194Y-15299D02*
X-37259D01*
X-37264D01*
X-37274D01*
X-37292D01*
X-37315D01*
X-37346Y-15302D01*
X-37380D01*
X-37416Y-15304D01*
X-37457Y-15307D01*
X-37542Y-15314D01*
X-37630Y-15325D01*
X-37715Y-15340D01*
X-37756Y-15351D01*
X-37793Y-15361D01*
X-37795D01*
X-37800Y-15363D01*
X-37811Y-15366D01*
X-37824Y-15371D01*
X-37839Y-15379D01*
X-37857Y-15387D01*
X-37901Y-15405D01*
X-37947Y-15430D01*
X-37996Y-15461D01*
X-38043Y-15495D01*
X-38084Y-15536D01*
X-38089Y-15541D01*
X-38102Y-15557D01*
X-38120Y-15580D01*
X-38141Y-15614D01*
X-38164Y-15652D01*
X-38190Y-15701D01*
X-38211Y-15756D01*
X-38226Y-15818D01*
Y-15820D01*
X-38229Y-15823D01*
Y-15833D01*
X-38231Y-15843D01*
X-38234Y-15859D01*
X-38236Y-15877D01*
X-38239Y-15900D01*
X-38242Y-15928D01*
X-38244Y-15959D01*
X-38247Y-15996D01*
X-38249Y-16037D01*
X-38252Y-16083D01*
X-38254Y-16135D01*
X-38257Y-16189D01*
Y-16591D01*
X-36263D01*
Y-16075D01*
X-36265Y-16050D01*
Y-15996D01*
X-36270Y-15936D01*
X-36276Y-15874D01*
X-36281Y-15818D01*
X-36286Y-15792D01*
X-36291Y-15768D01*
Y-15766D01*
X-36294Y-15761D01*
X-36296Y-15753D01*
X-36299Y-15743D01*
X-36307Y-15717D01*
X-36320Y-15681D01*
X-36338Y-15642D01*
X-36358Y-15601D01*
X-36384Y-15560D01*
X-36415Y-15521D01*
X-36420Y-15516D01*
X-36433Y-15505D01*
X-36454Y-15487D01*
X-36485Y-15464D01*
X-36523Y-15438D01*
X-36575Y-15413D01*
X-36603Y-15400D01*
X-36634Y-15387D01*
X-36668Y-15374D01*
X-36704Y-15361D01*
X-36707D01*
X-36714Y-15358D01*
X-36724Y-15356D01*
X-36743Y-15351D01*
X-36763Y-15345D01*
X-36786Y-15340D01*
X-36817Y-15335D01*
X-36851Y-15330D01*
X-36887Y-15325D01*
X-36928Y-15320D01*
X-36975Y-15314D01*
X-37024Y-15309D01*
X-37078Y-15304D01*
X-37135Y-15302D01*
X-37194Y-15299D01*
D02*
G37*
G36*
X-37994Y-33498D02*
X-37997D01*
X-38002D01*
X-38010D01*
X-38020D01*
X-38048Y-33503D01*
X-38082Y-33508D01*
X-38120Y-33518D01*
X-38162Y-33531D01*
X-38203Y-33552D01*
X-38239Y-33580D01*
X-38244Y-33583D01*
X-38255Y-33596D01*
X-38270Y-33614D01*
X-38288Y-33640D01*
X-38309Y-33670D01*
X-38329Y-33712D01*
X-38345Y-33756D01*
X-38358Y-33810D01*
Y-33820D01*
X-38360Y-33828D01*
Y-33851D01*
X-38363Y-33869D01*
Y-33918D01*
X-38366Y-33949D01*
Y-34027D01*
X-38368Y-34076D01*
Y-34726D01*
X-37604D01*
Y-34171D01*
X-37607Y-34132D01*
Y-34091D01*
X-37610Y-34045D01*
X-37612Y-33952D01*
X-37617Y-33908D01*
X-37620Y-33864D01*
X-37625Y-33823D01*
X-37628Y-33787D01*
X-37635Y-33756D01*
X-37641Y-33733D01*
Y-33730D01*
X-37643Y-33727D01*
X-37648Y-33714D01*
X-37656Y-33694D01*
X-37669Y-33668D01*
X-37687Y-33642D01*
X-37710Y-33614D01*
X-37736Y-33585D01*
X-37767Y-33560D01*
X-37772Y-33557D01*
X-37782Y-33549D01*
X-37803Y-33539D01*
X-37829Y-33529D01*
X-37863Y-33518D01*
X-37901Y-33508D01*
X-37945Y-33500D01*
X-37994Y-33498D01*
D02*
G37*
G36*
X-32410Y75370D02*
X-33104Y74340D01*
X-32410D01*
Y75370D01*
D02*
G37*
G36*
X-35206Y75734D02*
X-35612D01*
Y74877D01*
X-35225D01*
X-35194Y74879D01*
X-35163D01*
X-35124Y74882D01*
X-35088D01*
X-35005Y74887D01*
X-34928Y74898D01*
X-34892Y74903D01*
X-34856Y74908D01*
X-34827Y74916D01*
X-34802Y74923D01*
X-34799D01*
X-34796Y74926D01*
X-34781Y74931D01*
X-34760Y74944D01*
X-34732Y74959D01*
X-34701Y74980D01*
X-34670Y75006D01*
X-34639Y75034D01*
X-34611Y75071D01*
X-34608Y75076D01*
X-34600Y75089D01*
X-34587Y75109D01*
X-34574Y75138D01*
X-34564Y75171D01*
X-34551Y75212D01*
X-34543Y75256D01*
X-34541Y75305D01*
Y75308D01*
Y75313D01*
Y75321D01*
X-34543Y75334D01*
X-34546Y75362D01*
X-34554Y75401D01*
X-34564Y75445D01*
X-34582Y75488D01*
X-34605Y75535D01*
X-34639Y75576D01*
X-34644Y75581D01*
X-34657Y75594D01*
X-34678Y75612D01*
X-34706Y75633D01*
X-34740Y75656D01*
X-34781Y75679D01*
X-34830Y75700D01*
X-34881Y75713D01*
X-34887D01*
X-34894Y75716D01*
X-34905D01*
X-34918Y75718D01*
X-34933Y75721D01*
X-34954D01*
X-34977Y75723D01*
X-35005Y75726D01*
X-35036Y75728D01*
X-35072D01*
X-35114Y75731D01*
X-35157D01*
X-35206Y75734D01*
D02*
G37*
G36*
X-55703Y-10979D02*
X-56107D01*
Y-11836D01*
X-55721D01*
X-55690Y-11833D01*
X-55659D01*
X-55620Y-11830D01*
X-55584D01*
X-55501Y-11825D01*
X-55424Y-11815D01*
X-55388Y-11810D01*
X-55352Y-11805D01*
X-55323Y-11797D01*
X-55297Y-11789D01*
X-55295D01*
X-55292Y-11787D01*
X-55277Y-11781D01*
X-55256Y-11768D01*
X-55228Y-11753D01*
X-55197Y-11732D01*
X-55166Y-11707D01*
X-55135Y-11678D01*
X-55107Y-11642D01*
X-55104Y-11637D01*
X-55096Y-11624D01*
X-55083Y-11603D01*
X-55070Y-11575D01*
X-55060Y-11541D01*
X-55047Y-11500D01*
X-55039Y-11456D01*
X-55037Y-11407D01*
Y-11405D01*
Y-11400D01*
Y-11392D01*
X-55039Y-11379D01*
X-55042Y-11351D01*
X-55050Y-11312D01*
X-55060Y-11268D01*
X-55078Y-11224D01*
X-55101Y-11178D01*
X-55135Y-11136D01*
X-55140Y-11131D01*
X-55153Y-11118D01*
X-55174Y-11100D01*
X-55202Y-11080D01*
X-55235Y-11056D01*
X-55277Y-11033D01*
X-55326Y-11013D01*
X-55377Y-11000D01*
X-55383D01*
X-55390Y-10997D01*
X-55401D01*
X-55414Y-10994D01*
X-55429Y-10992D01*
X-55450D01*
X-55473Y-10989D01*
X-55501Y-10987D01*
X-55532Y-10984D01*
X-55568D01*
X-55610Y-10982D01*
X-55654D01*
X-55703Y-10979D01*
D02*
G37*
G36*
X62578Y21762D02*
X62562D01*
X62552Y21760D01*
X62521Y21755D01*
X62485Y21747D01*
X62444Y21732D01*
X62397Y21708D01*
X62377Y21693D01*
X62353Y21677D01*
X62333Y21657D01*
X62312Y21633D01*
Y21631D01*
X62307Y21628D01*
X62302Y21621D01*
X62297Y21610D01*
X62289Y21595D01*
X62278Y21579D01*
X62268Y21559D01*
X62261Y21535D01*
X62250Y21507D01*
X62240Y21476D01*
X62232Y21442D01*
X62222Y21404D01*
X62217Y21362D01*
X62212Y21319D01*
X62206Y21270D01*
Y21218D01*
Y21215D01*
Y21205D01*
Y21190D01*
X62209Y21172D01*
Y21146D01*
X62212Y21117D01*
X62217Y21089D01*
X62222Y21056D01*
X62235Y20986D01*
X62255Y20914D01*
X62284Y20846D01*
X62299Y20818D01*
X62320Y20790D01*
X62322Y20787D01*
X62325Y20785D01*
X62340Y20769D01*
X62366Y20746D01*
X62400Y20723D01*
X62441Y20697D01*
X62490Y20674D01*
X62547Y20658D01*
X62578Y20656D01*
X62609Y20653D01*
X62624D01*
X62637Y20656D01*
X62650Y20658D01*
X62668Y20661D01*
X62707Y20669D01*
X62751Y20684D01*
X62797Y20710D01*
X62820Y20723D01*
X62844Y20741D01*
X62867Y20761D01*
X62887Y20785D01*
X62890Y20787D01*
X62893Y20790D01*
X62898Y20798D01*
X62906Y20810D01*
X62913Y20823D01*
X62924Y20839D01*
X62934Y20859D01*
X62947Y20883D01*
X62957Y20908D01*
X62967Y20937D01*
X62978Y20968D01*
X62985Y21004D01*
X62993Y21040D01*
X62998Y21081D01*
X63003Y21125D01*
Y21172D01*
Y21174D01*
Y21184D01*
Y21197D01*
X63001Y21218D01*
Y21241D01*
X62996Y21270D01*
X62993Y21298D01*
X62988Y21332D01*
X62973Y21401D01*
X62949Y21474D01*
X62934Y21510D01*
X62918Y21546D01*
X62898Y21577D01*
X62875Y21608D01*
X62872Y21610D01*
X62869Y21615D01*
X62862Y21623D01*
X62851Y21631D01*
X62826Y21657D01*
X62789Y21685D01*
X62745Y21713D01*
X62694Y21739D01*
X62668Y21747D01*
X62640Y21755D01*
X62609Y21760D01*
X62578Y21762D01*
D02*
G37*
G36*
X69515Y50143D02*
X69113D01*
Y48149D01*
X69629D01*
X69655Y48151D01*
X69709D01*
X69768Y48156D01*
X69830Y48162D01*
X69887Y48167D01*
X69913Y48172D01*
X69936Y48177D01*
X69938D01*
X69944Y48180D01*
X69951Y48182D01*
X69962Y48185D01*
X69987Y48193D01*
X70024Y48205D01*
X70062Y48224D01*
X70104Y48244D01*
X70145Y48270D01*
X70183Y48301D01*
X70189Y48306D01*
X70199Y48319D01*
X70217Y48340D01*
X70240Y48371D01*
X70266Y48409D01*
X70292Y48461D01*
X70305Y48489D01*
X70318Y48520D01*
X70331Y48554D01*
X70344Y48590D01*
Y48592D01*
X70346Y48600D01*
X70349Y48610D01*
X70354Y48629D01*
X70359Y48649D01*
X70364Y48672D01*
X70369Y48703D01*
X70374Y48737D01*
X70380Y48773D01*
X70385Y48814D01*
X70390Y48861D01*
X70395Y48910D01*
X70400Y48964D01*
X70403Y49021D01*
X70405Y49080D01*
Y49145D01*
Y49150D01*
Y49160D01*
Y49178D01*
Y49201D01*
X70403Y49232D01*
Y49266D01*
X70400Y49302D01*
X70398Y49343D01*
X70390Y49428D01*
X70380Y49516D01*
X70364Y49601D01*
X70354Y49643D01*
X70344Y49679D01*
Y49681D01*
X70341Y49686D01*
X70338Y49697D01*
X70333Y49709D01*
X70325Y49725D01*
X70318Y49743D01*
X70300Y49787D01*
X70274Y49833D01*
X70243Y49882D01*
X70209Y49929D01*
X70168Y49970D01*
X70163Y49975D01*
X70147Y49988D01*
X70124Y50006D01*
X70091Y50027D01*
X70052Y50050D01*
X70003Y50076D01*
X69949Y50096D01*
X69887Y50112D01*
X69884D01*
X69882Y50115D01*
X69871D01*
X69861Y50117D01*
X69845Y50120D01*
X69828Y50122D01*
X69804Y50125D01*
X69776Y50128D01*
X69745Y50130D01*
X69709Y50133D01*
X69668Y50135D01*
X69621Y50138D01*
X69569Y50140D01*
X69515Y50143D01*
D02*
G37*
G36*
X51549Y34637D02*
X51144D01*
Y33781D01*
X51531D01*
X51562Y33784D01*
X51593D01*
X51632Y33786D01*
X51668D01*
X51751Y33791D01*
X51828Y33801D01*
X51864Y33807D01*
X51900Y33812D01*
X51929Y33820D01*
X51954Y33827D01*
X51957D01*
X51960Y33830D01*
X51975Y33835D01*
X51996Y33848D01*
X52024Y33863D01*
X52055Y33884D01*
X52086Y33910D01*
X52117Y33938D01*
X52145Y33974D01*
X52148Y33980D01*
X52156Y33992D01*
X52169Y34013D01*
X52182Y34042D01*
X52192Y34075D01*
X52205Y34116D01*
X52212Y34160D01*
X52215Y34209D01*
Y34212D01*
Y34217D01*
Y34225D01*
X52212Y34238D01*
X52210Y34266D01*
X52202Y34305D01*
X52192Y34348D01*
X52174Y34392D01*
X52150Y34439D01*
X52117Y34480D01*
X52112Y34485D01*
X52099Y34498D01*
X52078Y34516D01*
X52050Y34537D01*
X52016Y34560D01*
X51975Y34583D01*
X51926Y34604D01*
X51875Y34617D01*
X51869D01*
X51862Y34619D01*
X51851D01*
X51838Y34622D01*
X51823Y34625D01*
X51802D01*
X51779Y34627D01*
X51751Y34630D01*
X51720Y34632D01*
X51683D01*
X51642Y34635D01*
X51598D01*
X51549Y34637D01*
D02*
G37*
G36*
X33480Y32063D02*
X32786Y31033D01*
X33480D01*
Y32063D01*
D02*
G37*
G36*
X16169Y-67574D02*
X15766D01*
Y-69568D01*
X16282D01*
X16308Y-69565D01*
X16362D01*
X16422Y-69560D01*
X16484Y-69555D01*
X16540Y-69550D01*
X16566Y-69545D01*
X16589Y-69539D01*
X16592D01*
X16597Y-69537D01*
X16605Y-69534D01*
X16615Y-69532D01*
X16641Y-69524D01*
X16677Y-69511D01*
X16716Y-69493D01*
X16757Y-69472D01*
X16798Y-69447D01*
X16837Y-69416D01*
X16842Y-69411D01*
X16852Y-69398D01*
X16871Y-69377D01*
X16894Y-69346D01*
X16920Y-69307D01*
X16945Y-69256D01*
X16958Y-69227D01*
X16971Y-69196D01*
X16984Y-69163D01*
X16997Y-69127D01*
Y-69124D01*
X17000Y-69116D01*
X17002Y-69106D01*
X17007Y-69088D01*
X17012Y-69067D01*
X17018Y-69044D01*
X17023Y-69013D01*
X17028Y-68980D01*
X17033Y-68944D01*
X17038Y-68902D01*
X17043Y-68856D01*
X17049Y-68807D01*
X17054Y-68753D01*
X17056Y-68696D01*
X17059Y-68637D01*
Y-68572D01*
Y-68567D01*
Y-68556D01*
Y-68538D01*
Y-68515D01*
X17056Y-68484D01*
Y-68451D01*
X17054Y-68415D01*
X17051Y-68373D01*
X17043Y-68288D01*
X17033Y-68200D01*
X17018Y-68115D01*
X17007Y-68074D01*
X16997Y-68038D01*
Y-68035D01*
X16994Y-68030D01*
X16992Y-68020D01*
X16987Y-68007D01*
X16979Y-67992D01*
X16971Y-67974D01*
X16953Y-67930D01*
X16927Y-67883D01*
X16896Y-67834D01*
X16863Y-67788D01*
X16822Y-67746D01*
X16816Y-67741D01*
X16801Y-67728D01*
X16778Y-67710D01*
X16744Y-67690D01*
X16705Y-67666D01*
X16657Y-67641D01*
X16602Y-67620D01*
X16540Y-67605D01*
X16538D01*
X16535Y-67602D01*
X16525D01*
X16515Y-67599D01*
X16499Y-67597D01*
X16481Y-67594D01*
X16458Y-67592D01*
X16429Y-67589D01*
X16398Y-67586D01*
X16362Y-67584D01*
X16321Y-67581D01*
X16275Y-67579D01*
X16223Y-67576D01*
X16169Y-67574D01*
D02*
G37*
G36*
X-79220Y20252D02*
X-79914Y19222D01*
X-79220D01*
Y20252D01*
D02*
G37*
G36*
X-82256Y20615D02*
X-82659D01*
Y18621D01*
X-82143D01*
X-82117Y18624D01*
X-82063D01*
X-82003Y18629D01*
X-81942Y18634D01*
X-81885Y18639D01*
X-81859Y18644D01*
X-81836Y18649D01*
X-81833D01*
X-81828Y18652D01*
X-81820Y18655D01*
X-81810Y18657D01*
X-81784Y18665D01*
X-81748Y18678D01*
X-81709Y18696D01*
X-81668Y18717D01*
X-81627Y18742D01*
X-81588Y18773D01*
X-81583Y18778D01*
X-81573Y18791D01*
X-81555Y18812D01*
X-81531Y18843D01*
X-81506Y18882D01*
X-81480Y18933D01*
X-81467Y18962D01*
X-81454Y18993D01*
X-81441Y19026D01*
X-81428Y19062D01*
Y19065D01*
X-81426Y19072D01*
X-81423Y19083D01*
X-81418Y19101D01*
X-81413Y19121D01*
X-81407Y19145D01*
X-81402Y19176D01*
X-81397Y19209D01*
X-81392Y19245D01*
X-81387Y19287D01*
X-81382Y19333D01*
X-81377Y19382D01*
X-81371Y19436D01*
X-81369Y19493D01*
X-81366Y19552D01*
Y19617D01*
Y19622D01*
Y19632D01*
Y19650D01*
Y19674D01*
X-81369Y19705D01*
Y19738D01*
X-81371Y19774D01*
X-81374Y19816D01*
X-81382Y19901D01*
X-81392Y19988D01*
X-81407Y20074D01*
X-81418Y20115D01*
X-81428Y20151D01*
Y20154D01*
X-81431Y20159D01*
X-81433Y20169D01*
X-81438Y20182D01*
X-81446Y20197D01*
X-81454Y20215D01*
X-81472Y20259D01*
X-81498Y20306D01*
X-81529Y20355D01*
X-81562Y20401D01*
X-81604Y20443D01*
X-81609Y20448D01*
X-81624Y20461D01*
X-81647Y20479D01*
X-81681Y20499D01*
X-81720Y20523D01*
X-81769Y20548D01*
X-81823Y20569D01*
X-81885Y20584D01*
X-81887D01*
X-81890Y20587D01*
X-81900D01*
X-81911Y20590D01*
X-81926Y20592D01*
X-81944Y20595D01*
X-81967Y20597D01*
X-81996Y20600D01*
X-82027Y20602D01*
X-82063Y20605D01*
X-82104Y20608D01*
X-82151Y20610D01*
X-82202Y20613D01*
X-82256Y20615D01*
D02*
G37*
G36*
X-69860Y39481D02*
X-69876D01*
X-69888Y39478D01*
X-69901Y39476D01*
X-69919Y39473D01*
X-69958Y39465D01*
X-70002Y39450D01*
X-70051Y39427D01*
X-70074Y39411D01*
X-70097Y39393D01*
X-70121Y39372D01*
X-70144Y39349D01*
Y39347D01*
X-70149Y39344D01*
X-70154Y39336D01*
X-70162Y39326D01*
X-70170Y39311D01*
X-70180Y39295D01*
X-70190Y39274D01*
X-70201Y39251D01*
X-70211Y39225D01*
X-70221Y39197D01*
X-70231Y39166D01*
X-70239Y39130D01*
X-70247Y39094D01*
X-70252Y39053D01*
X-70255Y39009D01*
X-70257Y38962D01*
Y38960D01*
Y38949D01*
Y38936D01*
X-70255Y38916D01*
X-70252Y38892D01*
X-70250Y38864D01*
X-70247Y38836D01*
X-70242Y38802D01*
X-70226Y38733D01*
X-70203Y38660D01*
X-70188Y38624D01*
X-70170Y38591D01*
X-70152Y38557D01*
X-70128Y38526D01*
X-70126Y38524D01*
X-70123Y38518D01*
X-70115Y38513D01*
X-70105Y38503D01*
X-70079Y38477D01*
X-70043Y38451D01*
X-69999Y38423D01*
X-69948Y38397D01*
X-69922Y38387D01*
X-69894Y38382D01*
X-69863Y38377D01*
X-69832Y38374D01*
X-69816D01*
X-69806Y38377D01*
X-69775Y38382D01*
X-69739Y38389D01*
X-69695Y38405D01*
X-69651Y38425D01*
X-69605Y38456D01*
X-69584Y38477D01*
X-69563Y38498D01*
X-69561Y38500D01*
X-69558Y38503D01*
X-69553Y38511D01*
X-69545Y38521D01*
X-69538Y38537D01*
X-69530Y38552D01*
X-69519Y38573D01*
X-69509Y38596D01*
X-69499Y38624D01*
X-69489Y38655D01*
X-69481Y38689D01*
X-69473Y38725D01*
X-69465Y38766D01*
X-69460Y38810D01*
X-69455Y38859D01*
Y38911D01*
Y38913D01*
Y38923D01*
Y38939D01*
X-69458Y38960D01*
Y38983D01*
X-69460Y39011D01*
X-69465Y39042D01*
X-69470Y39076D01*
X-69483Y39145D01*
X-69504Y39218D01*
X-69532Y39285D01*
X-69550Y39313D01*
X-69571Y39341D01*
Y39344D01*
X-69576Y39347D01*
X-69592Y39362D01*
X-69617Y39385D01*
X-69651Y39411D01*
X-69692Y39437D01*
X-69741Y39460D01*
X-69798Y39476D01*
X-69829Y39478D01*
X-69860Y39481D01*
D02*
G37*
G36*
X-72809Y40451D02*
X-73211D01*
Y38456D01*
X-72695D01*
X-72670Y38459D01*
X-72615D01*
X-72556Y38464D01*
X-72494Y38469D01*
X-72437Y38475D01*
X-72412Y38480D01*
X-72388Y38485D01*
X-72386D01*
X-72381Y38487D01*
X-72373Y38490D01*
X-72363Y38493D01*
X-72337Y38500D01*
X-72301Y38513D01*
X-72262Y38531D01*
X-72221Y38552D01*
X-72179Y38578D01*
X-72141Y38609D01*
X-72136Y38614D01*
X-72125Y38627D01*
X-72107Y38647D01*
X-72084Y38678D01*
X-72058Y38717D01*
X-72032Y38769D01*
X-72019Y38797D01*
X-72007Y38828D01*
X-71994Y38862D01*
X-71981Y38898D01*
Y38900D01*
X-71978Y38908D01*
X-71976Y38918D01*
X-71970Y38936D01*
X-71965Y38957D01*
X-71960Y38980D01*
X-71955Y39011D01*
X-71950Y39045D01*
X-71945Y39081D01*
X-71939Y39122D01*
X-71934Y39169D01*
X-71929Y39218D01*
X-71924Y39272D01*
X-71921Y39329D01*
X-71919Y39388D01*
Y39452D01*
Y39457D01*
Y39468D01*
Y39486D01*
Y39509D01*
X-71921Y39540D01*
Y39574D01*
X-71924Y39610D01*
X-71927Y39651D01*
X-71934Y39736D01*
X-71945Y39824D01*
X-71960Y39909D01*
X-71970Y39950D01*
X-71981Y39987D01*
Y39989D01*
X-71983Y39994D01*
X-71986Y40005D01*
X-71991Y40017D01*
X-71999Y40033D01*
X-72007Y40051D01*
X-72025Y40095D01*
X-72050Y40141D01*
X-72081Y40190D01*
X-72115Y40237D01*
X-72156Y40278D01*
X-72161Y40283D01*
X-72177Y40296D01*
X-72200Y40314D01*
X-72234Y40335D01*
X-72272Y40358D01*
X-72321Y40384D01*
X-72376Y40404D01*
X-72437Y40420D01*
X-72440D01*
X-72443Y40422D01*
X-72453D01*
X-72463Y40425D01*
X-72479Y40428D01*
X-72497Y40430D01*
X-72520Y40433D01*
X-72548Y40435D01*
X-72579Y40438D01*
X-72615Y40440D01*
X-72657Y40443D01*
X-72703Y40446D01*
X-72755Y40448D01*
X-72809Y40451D01*
D02*
G37*
G36*
X-63542Y57063D02*
X-64187Y56611D01*
X-63983Y56320D01*
X-63964Y56298D01*
X-63948Y56275D01*
X-63926Y56247D01*
X-63907Y56220D01*
X-63859Y56160D01*
X-63811Y56108D01*
X-63788Y56083D01*
X-63765Y56059D01*
X-63744Y56042D01*
X-63725Y56026D01*
X-63723Y56024D01*
X-63720Y56024D01*
X-63708Y56015D01*
X-63688Y56006D01*
X-63661Y55993D01*
X-63629Y55980D01*
X-63593Y55971D01*
X-63556Y55962D01*
X-63514Y55960D01*
X-63508Y55961D01*
X-63495Y55962D01*
X-63472Y55963D01*
X-63444Y55968D01*
X-63413Y55978D01*
X-63376Y55990D01*
X-63339Y56007D01*
X-63300Y56031D01*
X-63298Y56033D01*
X-63294Y56035D01*
X-63289Y56039D01*
X-63280Y56048D01*
X-63260Y56065D01*
X-63235Y56091D01*
X-63208Y56122D01*
X-63184Y56159D01*
X-63161Y56201D01*
X-63148Y56248D01*
X-63147Y56254D01*
X-63144Y56271D01*
X-63141Y56296D01*
X-63141Y56328D01*
X-63141Y56366D01*
X-63145Y56409D01*
X-63156Y56457D01*
X-63173Y56502D01*
X-63176Y56506D01*
X-63178Y56513D01*
X-63183Y56521D01*
X-63188Y56532D01*
X-63194Y56545D01*
X-63205Y56561D01*
X-63216Y56580D01*
X-63228Y56602D01*
X-63243Y56627D01*
X-63262Y56654D01*
X-63282Y56687D01*
X-63305Y56719D01*
X-63329Y56758D01*
X-63542Y57063D01*
D02*
G37*
G36*
X-13641Y42505D02*
X-14291D01*
Y41741D01*
X-13736D01*
X-13698Y41744D01*
X-13656D01*
X-13610Y41747D01*
X-13517Y41749D01*
X-13473Y41754D01*
X-13429Y41757D01*
X-13388Y41762D01*
X-13352Y41765D01*
X-13321Y41772D01*
X-13298Y41778D01*
X-13295D01*
X-13293Y41780D01*
X-13280Y41785D01*
X-13259Y41793D01*
X-13233Y41806D01*
X-13207Y41824D01*
X-13179Y41847D01*
X-13151Y41873D01*
X-13125Y41904D01*
X-13122Y41909D01*
X-13115Y41919D01*
X-13104Y41940D01*
X-13094Y41966D01*
X-13084Y42000D01*
X-13073Y42038D01*
X-13066Y42082D01*
X-13063Y42131D01*
Y42134D01*
Y42139D01*
Y42147D01*
Y42157D01*
X-13068Y42185D01*
X-13073Y42219D01*
X-13084Y42257D01*
X-13097Y42299D01*
X-13117Y42340D01*
X-13146Y42376D01*
X-13148Y42381D01*
X-13161Y42392D01*
X-13179Y42407D01*
X-13205Y42425D01*
X-13236Y42446D01*
X-13277Y42467D01*
X-13321Y42482D01*
X-13375Y42495D01*
X-13386D01*
X-13393Y42497D01*
X-13417D01*
X-13435Y42500D01*
X-13484D01*
X-13514Y42503D01*
X-13592D01*
X-13641Y42505D01*
D02*
G37*
G36*
X6086Y41741D02*
X5392Y40712D01*
X6086D01*
Y41741D01*
D02*
G37*
G36*
X959Y42105D02*
X309D01*
Y41342D01*
X864D01*
X902Y41344D01*
X944D01*
X990Y41347D01*
X1083Y41349D01*
X1127Y41354D01*
X1171Y41357D01*
X1212Y41362D01*
X1248Y41365D01*
X1279Y41372D01*
X1302Y41378D01*
X1305D01*
X1307Y41380D01*
X1320Y41385D01*
X1341Y41393D01*
X1367Y41406D01*
X1393Y41424D01*
X1421Y41447D01*
X1449Y41473D01*
X1475Y41504D01*
X1478Y41509D01*
X1485Y41519D01*
X1496Y41540D01*
X1506Y41566D01*
X1516Y41600D01*
X1527Y41638D01*
X1534Y41682D01*
X1537Y41731D01*
Y41734D01*
Y41739D01*
Y41747D01*
Y41757D01*
X1532Y41785D01*
X1527Y41819D01*
X1516Y41857D01*
X1503Y41899D01*
X1483Y41940D01*
X1454Y41976D01*
X1452Y41981D01*
X1439Y41992D01*
X1421Y42007D01*
X1395Y42025D01*
X1364Y42046D01*
X1323Y42066D01*
X1279Y42082D01*
X1225Y42095D01*
X1214D01*
X1207Y42097D01*
X1183D01*
X1165Y42100D01*
X1116D01*
X1085Y42103D01*
X1008D01*
X959Y42105D01*
D02*
G37*
%LPD*%
D10*
X31133Y79059D02*
G03*
X31133Y79059I-255J0D01*
G01*
X-67951Y-14543D02*
G03*
X-67951Y-14543I-285J0D01*
G01*
X-30295Y73740D02*
Y83740D01*
X-10295Y83740D01*
X-30295Y73740D02*
X-10295Y73740D01*
X-10295Y83740D02*
X-10295Y73740D01*
X-20295Y73740D02*
X-10295Y73740D01*
X-40043Y-35709D02*
Y-25709D01*
X-70043Y-35709D02*
X-40043D01*
X-70043D02*
Y-25709D01*
Y-15709D02*
X-60043D01*
X-70043Y-25709D02*
Y-15709D01*
X-40043Y-25709D02*
Y-15709D01*
X-70043D02*
X-40043D01*
X51535Y36732D02*
Y46732D01*
X71535D01*
X51535Y36732D02*
X71535D01*
Y46732D01*
X61535Y36732D02*
X71535D01*
X-68602Y-11417D02*
Y-6299D01*
X-81201Y-11417D02*
Y-6299D01*
X-62574Y58315D02*
X-56838Y50123D01*
X-62574Y58315D02*
X-46191Y69786D01*
X-56838Y50123D02*
X-40455Y61594D01*
X-46191Y69786D02*
X-40455Y61594D01*
X-48647Y55859D02*
X-40455Y61594D01*
D11*
X-6240Y78740D02*
G03*
X-6240Y78740I-591J0D01*
G01*
X-74453Y-30709D02*
G03*
X-74453Y-30709I-591J0D01*
G01*
X75590Y41732D02*
G03*
X75590Y41732I-591J0D01*
G01*
X-39894Y67677D02*
G03*
X-39894Y67677I-591J0D01*
G01*
D12*
X-29673Y-26528D02*
G03*
X-29673Y-26528I-787J0D01*
G01*
D13*
X-4842Y58661D02*
X7126D01*
X-73917Y68D02*
Y13848D01*
X-83563Y68D02*
X-73917D01*
X-83563D02*
Y13848D01*
X-66546Y19048D02*
Y32828D01*
X-76192Y19048D02*
X-66546D01*
X-76192D02*
Y32828D01*
X22146Y-61417D02*
Y-47638D01*
X12500D02*
X22146D01*
X12500Y-61417D02*
Y-47638D01*
X-57898Y-46803D02*
X-54748Y-46803D01*
X-57898Y-40898D02*
X-54748Y-40898D01*
X-54823Y43012D02*
X-28051D01*
Y-2461D02*
Y43012D01*
X-54823Y-2461D02*
X-28051D01*
X-54823D02*
Y43012D01*
X-63484Y42933D02*
X-56201D01*
X-26822Y66339D02*
X-14223D01*
Y47047D02*
Y66339D01*
X-26822Y47047D02*
X-14223D01*
X-26822D02*
Y66339D01*
X-34203Y66850D02*
X-28199D01*
X27362Y27953D02*
X45472D01*
Y-12205D02*
Y27953D01*
X27362Y-12205D02*
X45472D01*
X27362D02*
Y27953D01*
X18898Y26772D02*
X25984D01*
X43110Y49114D02*
Y64272D01*
X17520Y49114D02*
X43110D01*
X17520D02*
Y64272D01*
X43110D01*
X42618Y65650D02*
Y72539D01*
X-24752Y-29874D02*
X51D01*
Y-54677D02*
Y-29874D01*
X-24752Y-54677D02*
X51D01*
X-24752D02*
Y-29874D01*
X60100Y-46884D02*
Y-34916D01*
X50984Y56791D02*
X64764D01*
X50984Y47146D02*
Y56791D01*
Y47146D02*
X64764D01*
X58563Y9932D02*
X64075D01*
X-14567Y29721D02*
X-9055D01*
X313D02*
X5825D01*
X2800Y13044D02*
Y18556D01*
D14*
X695Y46062D02*
X-1142D01*
Y44685D01*
X-223D01*
X-1142D01*
Y43307D01*
X1613D02*
X2532D01*
X2073D01*
Y46062D01*
X1613Y45603D01*
M02*
