M48
;Layer_Color=9474304
;FILE_FORMAT=2:5
INCH,LZ
;TYPE=PLATED
T1F00S00C0.01181
T2F00S00C0.03100
T3F00S00C0.03346
T4F00S00C0.03937
T5F00S00C0.05512
T6F00S00C0.15748
%
T01
X0075295Y0032565
X0049071Y00345
X0056526Y0022061
X0043508Y001982
X0036009Y0025944
X0028308Y001712
X0034Y00071
X00406Y00062
X00434Y00057
X00414Y-00017
X0031Y-00006
X0036608Y-0010979
X0035505Y-0021341
X004746Y-00169
X0048908Y-001158
X00505Y-0025072
X0050787Y-00555
X0014937Y-0051673
X0002043Y-0053346
X-0001698Y-0053299
X-0004453Y-0056791
X-0006913Y-005059
X0002043Y-0043898
X00021Y-0040572
X-0006913Y-0033858
X-0014Y-0027756
Y-0010044
X-0017176Y-00086
X-0016368Y0001695
X-0029768Y0006144
X-0032984Y-0020472
X-00237Y-00193
X-00268Y-0037551
X-0026809Y-0043836
X-00232Y-00504
X-0039657Y-0047244
X-0038803Y-0039173
X-0038926Y-0056299
X-0050709Y-0055936
X-0051106Y-005
X-0051181Y-0066929
X-0026Y-00771
X-0015181Y-0077756
X-00012Y-00661
X0004351Y-0062205
X0007874Y-0027559
X0017717Y-0032008
X00128Y-00137
X00111Y0001
X0011847Y0012253
X0016732Y0024508
X0020079Y0029921
X00233Y00337
X0021471Y0037391
X0006154Y0039764
X-0004Y00413
X-0004476Y0035626
X-0025295Y0035335
Y0040256
X-0051083Y002815
X-0071369Y0022344
X-007874Y0004793
X-0064823Y-00027
X-0060167Y-0008163
X-00581Y-00061
X-0047227Y-00083
X-0081791Y-0014862
X-0069685Y-0046457
X-0064492Y-0044589
X-0002546Y00152
X0060708Y000932
X00556Y0004
X0036614Y0052264
X0036608Y0055118
X0036614Y0058169
X0036608Y0061024
X0032639
X0032646Y0058169
X0032639Y0055118
X0032646Y0052264
X0028677
X0028671Y0055118
X0028677Y0058169
X0028671Y0061024
X0024702
X0024709Y0058169
X0024702Y0055118
X0024709Y0052264
X002074
X0020734Y0055118
X002074Y0058169
X0020734Y0061024
X0016535Y0068504
X001378Y0079059
X0030315Y0068898
X0038976
X-0004016Y0058661
X-0011467Y0059252
Y0064272
X-0017717Y0062205
X-0015354Y0071155
X-0011467Y0054232
X-0024803Y0050394
X-0038976
X-0041339Y0074506
X0065323Y0051968
T02
X-0007071Y-000714
Y0007002
X0007071
Y-000714
T03
X0071063Y-0009252
Y0010433
T04
X0066535Y0041732
X0056535
X-0045043Y-0020709
Y-0030709
X-0055043
X-0065043
Y-0020709
X-0055043
X-005561Y0057087
X-0047419Y0062822
X-0025295Y007874
X-0015295Y007874
T05
X0081693Y-0013189
Y001437
T06
X0Y-0079724
Y0079724
M30
