G04*
G04 #@! TF.GenerationSoftware,Altium Limited,Altium Designer,18.1.9 (240)*
G04*
G04 Layer_Color=255*
%FSLAX25Y25*%
%MOIN*%
G70*
G01*
G75*
%ADD15R,0.03000X0.05000*%
%ADD16R,0.10512X0.10000*%
%ADD17R,0.13504X0.03347*%
%ADD18R,0.06890X0.06693*%
%ADD19R,0.04331X0.06693*%
%ADD20R,0.07284X0.02559*%
%ADD21R,0.06004X0.02559*%
%ADD22R,0.07087X0.01772*%
%ADD23R,0.03740X0.06890*%
%ADD24R,0.12598X0.06890*%
%ADD25R,0.05906X0.02362*%
%ADD26R,0.02362X0.05906*%
%ADD27R,0.07480X0.08268*%
%ADD28R,0.07480X0.05906*%
%ADD29R,0.05315X0.01575*%
%ADD30R,0.03347X0.13504*%
%ADD31R,0.06693X0.06890*%
%ADD32R,0.07362X0.04055*%
%ADD33R,0.01575X0.07874*%
%ADD34R,0.07087X0.04134*%
%ADD35R,0.04055X0.07362*%
G04:AMPARAMS|DCode=36|XSize=70.87mil|YSize=70.87mil|CornerRadius=8.86mil|HoleSize=0mil|Usage=FLASHONLY|Rotation=180.000|XOffset=0mil|YOffset=0mil|HoleType=Round|Shape=RoundedRectangle|*
%AMROUNDEDRECTD36*
21,1,0.07087,0.05315,0,0,180.0*
21,1,0.05315,0.07087,0,0,180.0*
1,1,0.01772,-0.02657,0.02657*
1,1,0.01772,0.02657,0.02657*
1,1,0.01772,0.02657,-0.02657*
1,1,0.01772,-0.02657,-0.02657*
%
%ADD36ROUNDEDRECTD36*%
%ADD37C,0.07087*%
%ADD38C,0.05709*%
G04:AMPARAMS|DCode=39|XSize=70.87mil|YSize=70.87mil|CornerRadius=8.86mil|HoleSize=0mil|Usage=FLASHONLY|Rotation=215.000|XOffset=0mil|YOffset=0mil|HoleType=Round|Shape=RoundedRectangle|*
%AMROUNDEDRECTD39*
21,1,0.07087,0.05315,0,0,215.0*
21,1,0.05315,0.07087,0,0,215.0*
1,1,0.01772,-0.03701,0.00653*
1,1,0.01772,0.00653,0.03701*
1,1,0.01772,0.03701,-0.00653*
1,1,0.01772,-0.00653,-0.03701*
%
%ADD39ROUNDEDRECTD39*%
%ADD40C,0.06000*%
%ADD41R,0.06000X0.06000*%
D15*
X13966Y79134D02*
D03*
D16*
X23222D02*
D03*
D17*
X1142Y67716D02*
D03*
Y49606D02*
D03*
D18*
X-78740Y13848D02*
D03*
Y4793D02*
D03*
X-71369Y32828D02*
D03*
Y23772D02*
D03*
X17323Y-52362D02*
D03*
Y-61417D02*
D03*
D19*
X-51008Y-43850D02*
D03*
X-61638D02*
D03*
D20*
X-59842Y40276D02*
D03*
Y35276D02*
D03*
Y30276D02*
D03*
Y25276D02*
D03*
Y20276D02*
D03*
Y15276D02*
D03*
Y10276D02*
D03*
Y5276D02*
D03*
Y276D02*
D03*
X-23031D02*
D03*
Y5276D02*
D03*
Y10276D02*
D03*
Y15276D02*
D03*
Y20276D02*
D03*
Y25276D02*
D03*
Y30276D02*
D03*
Y35276D02*
D03*
Y40276D02*
D03*
D21*
X-31199Y64193D02*
D03*
Y59193D02*
D03*
Y54193D02*
D03*
Y49193D02*
D03*
X-9845D02*
D03*
Y54193D02*
D03*
Y59193D02*
D03*
Y64193D02*
D03*
D22*
X22441Y24508D02*
D03*
Y21949D02*
D03*
Y19390D02*
D03*
Y16831D02*
D03*
Y14272D02*
D03*
Y11712D02*
D03*
Y9154D02*
D03*
Y6594D02*
D03*
Y4035D02*
D03*
Y1476D02*
D03*
Y-1083D02*
D03*
Y-3642D02*
D03*
Y-6201D02*
D03*
Y-8760D02*
D03*
X50394D02*
D03*
Y-6201D02*
D03*
Y-3642D02*
D03*
Y-1083D02*
D03*
Y1476D02*
D03*
Y4035D02*
D03*
Y6594D02*
D03*
Y9154D02*
D03*
Y11712D02*
D03*
Y14272D02*
D03*
Y16831D02*
D03*
Y19390D02*
D03*
Y21949D02*
D03*
Y24508D02*
D03*
D23*
X39370Y69095D02*
D03*
X30315D02*
D03*
X21260D02*
D03*
D24*
X30315Y44291D02*
D03*
D25*
X-29083Y-31252D02*
D03*
Y-34402D02*
D03*
Y-37551D02*
D03*
Y-40701D02*
D03*
Y-43850D02*
D03*
Y-47000D02*
D03*
Y-50150D02*
D03*
Y-53299D02*
D03*
X4382D02*
D03*
Y-50150D02*
D03*
Y-47000D02*
D03*
Y-43850D02*
D03*
Y-40701D02*
D03*
Y-37551D02*
D03*
Y-34402D02*
D03*
Y-31252D02*
D03*
D26*
X-23374Y-59008D02*
D03*
X-20224D02*
D03*
X-17075D02*
D03*
X-13925D02*
D03*
X-10775D02*
D03*
X-7626D02*
D03*
X-4476D02*
D03*
X-1327D02*
D03*
Y-25543D02*
D03*
X-4476D02*
D03*
X-7626D02*
D03*
X-10775D02*
D03*
X-13925D02*
D03*
X-17075D02*
D03*
X-20224D02*
D03*
X-23374D02*
D03*
D27*
X81693Y-12598D02*
D03*
Y13780D02*
D03*
D28*
Y-3347D02*
D03*
Y4527D02*
D03*
D29*
X71063Y591D02*
D03*
Y3150D02*
D03*
Y-1969D02*
D03*
Y5709D02*
D03*
Y-4527D02*
D03*
D30*
X51045Y-40900D02*
D03*
X69155D02*
D03*
D31*
X55709Y51968D02*
D03*
X64764D02*
D03*
D32*
X61319Y15522D02*
D03*
Y4341D02*
D03*
D33*
X-79626Y-8858D02*
D03*
X-74902D02*
D03*
X-70177D02*
D03*
D34*
X-11811Y35626D02*
D03*
Y23815D02*
D03*
X3069Y35626D02*
D03*
Y23815D02*
D03*
D35*
X8391Y15800D02*
D03*
X-2791D02*
D03*
D36*
X-15295Y78740D02*
D03*
X-65043Y-30709D02*
D03*
X66535Y41732D02*
D03*
D37*
X-25295Y78740D02*
D03*
X-65043Y-20709D02*
D03*
X-55043Y-30709D02*
D03*
X-45043D02*
D03*
Y-20709D02*
D03*
X-55043D02*
D03*
X81693Y-13189D02*
D03*
Y14370D02*
D03*
X56535Y41732D02*
D03*
X-55610Y57087D02*
D03*
D38*
X71063Y10433D02*
D03*
Y-9252D02*
D03*
D39*
X-47419Y62822D02*
D03*
D40*
X-7071Y7002D02*
D03*
X7071D02*
D03*
Y-7140D02*
D03*
D41*
X-7071D02*
D03*
M02*
