G04*
G04 #@! TF.GenerationSoftware,Altium Limited,Altium Designer,18.1.9 (240)*
G04*
G04 Layer_Physical_Order=1*
G04 Layer_Color=255*
%FSLAX25Y25*%
%MOIN*%
G70*
G01*
G75*
%ADD11C,0.01968*%
%ADD15R,0.03000X0.05000*%
%ADD16R,0.10512X0.10000*%
%ADD17R,0.13504X0.03347*%
%ADD18R,0.06890X0.06693*%
%ADD19R,0.04331X0.06693*%
%ADD20R,0.07284X0.02559*%
%ADD21R,0.06004X0.02559*%
%ADD22R,0.07087X0.01772*%
%ADD23R,0.03740X0.06890*%
%ADD24R,0.12598X0.06890*%
%ADD25R,0.05906X0.02362*%
%ADD26R,0.02362X0.05906*%
%ADD27R,0.07480X0.08268*%
%ADD28R,0.07480X0.05906*%
%ADD29R,0.05315X0.01575*%
%ADD30R,0.03347X0.13504*%
%ADD31R,0.06693X0.06890*%
%ADD32R,0.07362X0.04055*%
%ADD33R,0.01575X0.07874*%
%ADD34R,0.07087X0.04134*%
%ADD35R,0.04055X0.07362*%
G04:AMPARAMS|DCode=36|XSize=70.87mil|YSize=70.87mil|CornerRadius=8.86mil|HoleSize=0mil|Usage=FLASHONLY|Rotation=180.000|XOffset=0mil|YOffset=0mil|HoleType=Round|Shape=RoundedRectangle|*
%AMROUNDEDRECTD36*
21,1,0.07087,0.05315,0,0,180.0*
21,1,0.05315,0.07087,0,0,180.0*
1,1,0.01772,-0.02657,0.02657*
1,1,0.01772,0.02657,0.02657*
1,1,0.01772,0.02657,-0.02657*
1,1,0.01772,-0.02657,-0.02657*
%
%ADD36ROUNDEDRECTD36*%
%ADD37C,0.07087*%
%ADD38C,0.05709*%
G04:AMPARAMS|DCode=39|XSize=70.87mil|YSize=70.87mil|CornerRadius=8.86mil|HoleSize=0mil|Usage=FLASHONLY|Rotation=215.000|XOffset=0mil|YOffset=0mil|HoleType=Round|Shape=RoundedRectangle|*
%AMROUNDEDRECTD39*
21,1,0.07087,0.05315,0,0,215.0*
21,1,0.05315,0.07087,0,0,215.0*
1,1,0.01772,-0.03701,0.00653*
1,1,0.01772,0.00653,0.03701*
1,1,0.01772,0.03701,-0.00653*
1,1,0.01772,-0.00653,-0.03701*
%
%ADD39ROUNDEDRECTD39*%
%ADD40C,0.06000*%
%ADD41R,0.06000X0.06000*%
%ADD42C,0.01968*%
%ADD44C,0.15748*%
%ADD45C,0.03937*%
%ADD46C,0.02165*%
%ADD47C,0.01378*%
G36*
X8880Y90163D02*
X14758Y89390D01*
X20573Y88233D01*
X26300Y86699D01*
X31914Y84793D01*
X37391Y82524D01*
X42708Y79902D01*
X47843Y76938D01*
X52772Y73644D01*
X57476Y70034D01*
X61933Y66126D01*
X66126Y61933D01*
X70034Y57476D01*
X73644Y52772D01*
X76938Y47843D01*
X79902Y42708D01*
X82524Y37391D01*
X84793Y31914D01*
X86699Y26300D01*
X88233Y20573D01*
X89390Y14758D01*
X90163Y8880D01*
X90551Y2964D01*
Y0D01*
Y-2964D01*
X90163Y-8880D01*
X89390Y-14758D01*
X88233Y-20573D01*
X86699Y-26300D01*
X84793Y-31914D01*
X82524Y-37391D01*
X79902Y-42708D01*
X76938Y-47843D01*
X73644Y-52772D01*
X70034Y-57476D01*
X66126Y-61933D01*
X61933Y-66126D01*
X57476Y-70034D01*
X52772Y-73644D01*
X47843Y-76938D01*
X42708Y-79902D01*
X37391Y-82524D01*
X31914Y-84793D01*
X26300Y-86699D01*
X20573Y-88233D01*
X14758Y-89390D01*
X8880Y-90163D01*
X2964Y-90551D01*
X-2964D01*
X-8880Y-90163D01*
X-14758Y-89390D01*
X-20573Y-88233D01*
X-26300Y-86699D01*
X-31914Y-84793D01*
X-37391Y-82524D01*
X-42708Y-79902D01*
X-47843Y-76938D01*
X-52772Y-73644D01*
X-57476Y-70034D01*
X-61933Y-66126D01*
X-66126Y-61933D01*
X-70034Y-57476D01*
X-73644Y-52772D01*
X-76938Y-47843D01*
X-79902Y-42708D01*
X-82524Y-37391D01*
X-84793Y-31914D01*
X-86699Y-26300D01*
X-88233Y-20573D01*
X-89390Y-14758D01*
X-90163Y-8880D01*
X-90551Y-2964D01*
Y0D01*
Y2964D01*
X-90163Y8880D01*
X-89390Y14758D01*
X-88233Y20573D01*
X-86699Y26300D01*
X-84793Y31914D01*
X-82524Y37391D01*
X-79902Y42708D01*
X-76938Y47843D01*
X-73644Y52772D01*
X-70034Y57476D01*
X-66126Y61933D01*
X-61933Y66126D01*
X-57476Y70034D01*
X-52772Y73644D01*
X-47843Y76938D01*
X-42708Y79902D01*
X-37391Y82524D01*
X-31914Y84793D01*
X-26300Y86699D01*
X-20573Y88233D01*
X-14758Y89390D01*
X-8880Y90163D01*
X-2964Y90551D01*
X2964D01*
X8880Y90163D01*
D02*
G37*
%LPC*%
G36*
X16254Y82421D02*
X11679D01*
Y75846D01*
X16254D01*
Y82421D01*
D02*
G37*
G36*
X-12638Y83104D02*
X-17953D01*
X-18606Y82974D01*
X-19159Y82604D01*
X-19529Y82051D01*
X-19659Y81398D01*
Y76083D01*
X-19529Y75430D01*
X-19159Y74876D01*
X-18606Y74506D01*
X-17953Y74377D01*
X-12638D01*
X-11985Y74506D01*
X-11432Y74876D01*
X-11062Y75430D01*
X-10932Y76083D01*
Y81398D01*
X-11062Y82051D01*
X-11432Y82604D01*
X-11985Y82974D01*
X-12638Y83104D01*
D02*
G37*
G36*
X-24016Y71198D02*
X-40950D01*
X-41679Y71053D01*
X-42298Y70640D01*
X-44906Y68032D01*
X-45048Y67913D01*
X-45253Y67767D01*
X-45416Y67674D01*
X-45510Y67637D01*
X-45849Y67962D01*
X-46470Y68204D01*
X-47135Y68189D01*
X-47745Y67921D01*
X-52098Y64872D01*
X-52559Y64392D01*
X-52800Y63771D01*
X-52785Y63106D01*
X-52517Y62497D01*
X-49469Y58143D01*
X-48988Y57682D01*
X-48368Y57441D01*
X-47702Y57456D01*
X-47093Y57724D01*
X-43220Y60436D01*
X-42897Y60051D01*
X-45762Y57186D01*
X-46153Y56600D01*
X-46291Y55909D01*
Y51114D01*
X-54433D01*
X-55124Y50976D01*
X-55710Y50585D01*
X-58088Y48207D01*
X-66000D01*
X-66000Y48207D01*
X-66730Y48062D01*
X-67348Y47648D01*
X-67348Y47648D01*
X-68548Y46448D01*
X-68962Y45830D01*
X-69107Y45100D01*
Y43049D01*
X-73819D01*
X-73819Y43049D01*
X-74549Y42903D01*
X-75167Y42490D01*
X-80974Y36683D01*
X-81388Y36064D01*
X-81533Y35335D01*
Y18854D01*
X-81549Y18670D01*
X-81591Y18414D01*
X-81644Y18219D01*
X-81698Y18088D01*
X-81741Y18016D01*
X-81763Y17993D01*
X-81763Y17993D01*
X-81764Y17993D01*
X-81866Y17982D01*
X-82972D01*
Y9714D01*
X-74508D01*
Y17982D01*
X-77386D01*
X-77488Y17993D01*
X-77488Y17993D01*
X-77489Y17993D01*
X-77510Y18016D01*
X-77554Y18088D01*
X-77608Y18219D01*
X-77660Y18414D01*
X-77703Y18670D01*
X-77719Y18854D01*
Y34545D01*
X-76064Y36201D01*
X-75602Y36009D01*
Y28694D01*
X-67137D01*
Y33112D01*
X-67113Y33134D01*
X-67040Y33178D01*
X-66906Y33233D01*
X-66710Y33285D01*
X-66453Y33328D01*
X-66267Y33345D01*
X-64500D01*
X-64289Y33341D01*
X-64272Y33339D01*
Y33209D01*
X-63490D01*
X-63472Y33205D01*
X-63455Y33209D01*
X-55875D01*
X-55413Y33209D01*
Y33209D01*
X-54980Y33369D01*
X-54251Y33514D01*
X-53632Y33927D01*
X-48324Y39235D01*
X-42194D01*
X-41465Y39380D01*
X-40846Y39794D01*
X-33514Y47126D01*
X-27410D01*
Y51260D01*
X-29772D01*
X-29872Y51760D01*
X-29810Y51786D01*
X-29366Y52126D01*
X-27410D01*
Y56260D01*
X-29366D01*
X-29810Y56600D01*
X-30480Y56878D01*
X-31199Y56973D01*
X-35177D01*
X-35897Y56878D01*
X-36567Y56600D01*
X-37143Y56159D01*
X-40942Y52359D01*
X-41384Y51784D01*
X-41661Y51113D01*
X-41756Y50394D01*
X-41661Y49674D01*
X-41384Y49004D01*
X-40942Y48428D01*
X-40366Y47986D01*
X-39696Y47709D01*
X-39108Y47631D01*
X-38868Y47165D01*
X-42984Y43049D01*
X-49114D01*
X-49844Y42903D01*
X-50462Y42490D01*
X-54769Y38183D01*
X-54940Y38182D01*
X-55413Y38649D01*
X-55413Y42342D01*
X-63957D01*
X-65293Y43679D01*
Y44310D01*
X-65210Y44393D01*
X-57440D01*
X-56711Y44538D01*
X-56092Y44952D01*
X-56022Y45022D01*
X-55736Y45450D01*
X-53685Y47501D01*
X-44485D01*
X-43793Y47638D01*
X-43207Y48030D01*
X-42816Y48616D01*
X-42678Y49307D01*
Y55161D01*
X-35489Y62350D01*
X-34989Y62299D01*
Y62126D01*
X-34234D01*
X-34223Y62123D01*
X-34206Y62126D01*
X-34189Y62123D01*
X-34172Y62126D01*
X-27410D01*
Y66260D01*
X-34172D01*
X-34189Y66263D01*
X-34206Y66260D01*
X-34223Y66263D01*
X-34234Y66260D01*
X-34989D01*
Y66033D01*
X-35542Y65999D01*
X-36201D01*
X-36892Y65862D01*
X-37478Y65470D01*
X-41772Y61176D01*
X-42200Y61455D01*
X-42037Y61874D01*
X-42052Y62539D01*
X-42320Y63148D01*
X-42995Y64112D01*
X-42998Y64145D01*
X-42989Y64222D01*
X-42954Y64340D01*
X-42883Y64498D01*
X-42768Y64691D01*
X-42607Y64914D01*
X-42483Y65062D01*
X-40160Y67385D01*
X-24805D01*
X-19623Y62202D01*
X-19478Y61475D01*
X-19065Y60856D01*
X-18446Y60443D01*
X-17717Y60298D01*
X-16987Y60443D01*
X-16368Y60856D01*
X-15955Y61475D01*
X-15810Y62205D01*
Y62992D01*
X-15955Y63722D01*
X-16368Y64340D01*
X-22668Y70640D01*
X-23286Y71053D01*
X-24016Y71198D01*
D02*
G37*
G36*
X-6056Y61260D02*
X-13634D01*
Y57126D01*
X-6056D01*
Y61260D01*
D02*
G37*
G36*
X-55991Y61438D02*
X-57104Y61191D01*
X-58116Y60665D01*
X-58956Y59894D01*
X-59569Y58933D01*
X-59912Y57845D01*
X-59962Y56706D01*
X-59715Y55593D01*
X-59188Y54581D01*
X-58418Y53741D01*
X-57456Y53128D01*
X-56369Y52785D01*
X-55230Y52735D01*
X-54116Y52982D01*
X-53105Y53509D01*
X-52264Y54279D01*
X-51651Y55241D01*
X-51309Y56328D01*
X-51259Y57467D01*
X-51506Y58581D01*
X-52032Y59592D01*
X-52802Y60433D01*
X-53764Y61045D01*
X-54852Y61388D01*
X-55991Y61438D01*
D02*
G37*
G36*
X0Y88428D02*
X-1698Y88261D01*
X-3331Y87765D01*
X-4835Y86961D01*
X-6154Y85879D01*
X-7237Y84560D01*
X-8041Y83055D01*
X-8536Y81422D01*
X-8703Y79724D01*
X-8536Y78026D01*
X-8041Y76394D01*
X-7237Y74889D01*
X-6154Y73570D01*
X-4835Y72488D01*
X-3331Y71684D01*
X-1698Y71188D01*
X0Y71021D01*
X1202Y71139D01*
X1423Y71161D01*
X1480Y70664D01*
X974Y70598D01*
X729Y70496D01*
X-1698D01*
X-2417Y70402D01*
X-2959Y70177D01*
X-6397D01*
Y66260D01*
X-13634D01*
Y62126D01*
X-6056D01*
Y65256D01*
X-2959D01*
X-2417Y65032D01*
X-1698Y64937D01*
X1890D01*
X2609Y65032D01*
X2854Y65133D01*
X9040D01*
Y52409D01*
X8681Y52067D01*
X2403D01*
X1861Y52291D01*
X1142Y52386D01*
X422Y52291D01*
X-119Y52067D01*
X-5580D01*
X-6056Y52126D01*
X-6056Y52425D01*
Y56260D01*
X-13634D01*
Y52126D01*
X-6873D01*
X-6484Y52078D01*
X-6433Y51578D01*
X-6751Y51260D01*
X-13634D01*
Y47126D01*
X-13363D01*
X-13156Y46626D01*
X-13897Y45885D01*
X-16826D01*
X-17545Y45790D01*
X-18216Y45513D01*
X-18791Y45071D01*
X-18957Y44905D01*
X-20194Y43748D01*
X-20808Y43245D01*
X-21069Y43055D01*
X-25275D01*
X-25995Y42961D01*
X-26665Y42683D01*
X-27109Y42342D01*
X-27461D01*
Y41955D01*
X-27683Y41666D01*
X-27960Y40995D01*
X-28055Y40276D01*
X-27960Y39556D01*
X-27683Y38886D01*
X-27461Y38596D01*
Y38209D01*
X-27109D01*
X-26665Y37868D01*
X-26603Y37843D01*
X-26702Y37343D01*
X-27461D01*
Y33209D01*
X-18602D01*
Y37188D01*
X-18602Y37343D01*
X-18465Y37786D01*
X-18266Y37868D01*
X-17690Y38310D01*
X-16063Y39937D01*
X-15577Y39715D01*
X-15614Y39178D01*
X-15664Y38794D01*
X-15721Y38502D01*
X-15728Y38480D01*
X-16142D01*
Y37745D01*
X-16143Y37740D01*
X-16142Y37730D01*
Y37698D01*
X-16145Y37681D01*
X-16142Y37664D01*
Y32772D01*
X-7480D01*
Y38480D01*
X-8734D01*
X-9005Y38509D01*
X-9156Y38562D01*
X-9289Y38651D01*
X-9426Y38798D01*
X-9567Y39029D01*
X-9700Y39356D01*
X-9815Y39781D01*
X-9902Y40302D01*
X-9956Y40916D01*
X-9966Y41311D01*
Y41954D01*
X-9660Y42261D01*
X-6045D01*
X-5715Y41761D01*
X-5806Y41300D01*
X-5669Y40609D01*
X-5277Y40023D01*
X-4691Y39631D01*
X-4000Y39494D01*
X-3309Y39631D01*
X-2723Y40023D01*
X-2331Y40609D01*
X-2194Y41300D01*
X-2285Y41761D01*
X-1956Y42261D01*
X-949D01*
X-366Y41678D01*
Y38480D01*
X-1261D01*
Y33434D01*
X-2971D01*
Y34690D01*
X-2807Y34935D01*
X-2670Y35626D01*
X-2807Y36317D01*
X-3199Y36903D01*
X-3785Y37295D01*
X-4476Y37432D01*
X-5167Y37295D01*
X-5754Y36903D01*
X-6145Y36317D01*
X-6283Y35626D01*
X-6145Y34935D01*
X-5982Y34690D01*
Y32551D01*
X-5867Y31975D01*
X-5541Y31487D01*
X-4919Y30865D01*
X-4431Y30538D01*
X-3854Y30424D01*
X7111D01*
X7181Y30307D01*
X6899Y29807D01*
X-10510D01*
X-12327Y31624D01*
X-12946Y32037D01*
X-13676Y32182D01*
X-18298D01*
X-18602Y32196D01*
Y32342D01*
X-19385D01*
X-19402Y32346D01*
X-19419Y32342D01*
X-27461D01*
Y28209D01*
X-19419D01*
X-19402Y28205D01*
X-19385Y28209D01*
X-18602D01*
Y28320D01*
X-17897Y28369D01*
X-14465D01*
X-13228Y27131D01*
X-13419Y26669D01*
X-16142D01*
Y20961D01*
X-14079D01*
X-14058Y20938D01*
X-14014Y20866D01*
X-13960Y20732D01*
X-13907Y20535D01*
X-13864Y20278D01*
X-13848Y20091D01*
Y-2269D01*
X-13703Y-2999D01*
X-13289Y-3618D01*
X-11774Y-5133D01*
X-11400Y-5536D01*
X-11127Y-5876D01*
X-10916Y-6178D01*
X-10859Y-6278D01*
Y-10927D01*
X-9161D01*
X-9140Y-10929D01*
X-9116Y-10973D01*
X-9070Y-11093D01*
X-9025Y-11273D01*
X-9008Y-11383D01*
X-11556Y-13931D01*
X-12018Y-13740D01*
Y-10119D01*
X-12018Y-10119D01*
X-12163Y-9389D01*
X-12577Y-8771D01*
X-12652Y-8696D01*
X-13270Y-8283D01*
X-14000Y-8137D01*
X-14729Y-8282D01*
X-14863Y-8309D01*
X-15267Y-8141D01*
X-15297Y-7987D01*
X-15711Y-7369D01*
X-15828Y-7252D01*
X-16446Y-6838D01*
X-17176Y-6693D01*
X-17906Y-6838D01*
X-18524Y-7252D01*
X-18937Y-7870D01*
X-19083Y-8600D01*
X-18966Y-9188D01*
Y-13008D01*
X-19428Y-13200D01*
X-27861Y-4766D01*
Y-2032D01*
X-27461Y-1791D01*
X-27361Y-1791D01*
X-18602D01*
Y2342D01*
X-27361D01*
X-27461Y2342D01*
X-27752Y2517D01*
Y2945D01*
X-27324Y3209D01*
X-18602D01*
Y7343D01*
X-27461D01*
Y6694D01*
X-27961Y6645D01*
X-28006Y6874D01*
X-28420Y7492D01*
X-28585Y7603D01*
X-28692Y8276D01*
X-28619Y8369D01*
X-27765D01*
X-27461Y8355D01*
Y8209D01*
X-26678D01*
X-26661Y8205D01*
X-26644Y8209D01*
X-18602D01*
Y12342D01*
X-26644D01*
X-26661Y12346D01*
X-26678Y12342D01*
X-27461D01*
Y12232D01*
X-28166Y12182D01*
X-31636D01*
X-32366Y12037D01*
X-32984Y11624D01*
X-35216Y9392D01*
X-35402Y9114D01*
X-35902Y9266D01*
Y12113D01*
X-34646Y13369D01*
X-27765D01*
X-27461Y13355D01*
Y13209D01*
X-26678D01*
X-26661Y13205D01*
X-26644Y13209D01*
X-18602D01*
Y17343D01*
X-26644D01*
X-26661Y17346D01*
X-26678Y17343D01*
X-27461D01*
Y17232D01*
X-28166Y17182D01*
X-35436D01*
X-35436Y17182D01*
X-36166Y17037D01*
X-36784Y16624D01*
X-39157Y14252D01*
X-39570Y13633D01*
X-39715Y12903D01*
Y-33246D01*
X-47041Y-40572D01*
X-47454Y-41191D01*
X-47555Y-41697D01*
X-48055Y-41647D01*
Y-40533D01*
X-48052Y-40516D01*
X-48055Y-40499D01*
Y-39717D01*
X-48780D01*
X-48875Y-39706D01*
X-48894Y-39685D01*
X-48937Y-39614D01*
X-48991Y-39482D01*
X-49043Y-39286D01*
X-49085Y-39030D01*
X-49101Y-38847D01*
Y-36625D01*
X-48618Y-36143D01*
X-46171D01*
X-45480Y-36005D01*
X-44894Y-35614D01*
X-44253Y-34973D01*
X-43913Y-34928D01*
X-42859Y-34492D01*
X-41954Y-33797D01*
X-41260Y-32893D01*
X-40824Y-31839D01*
X-40675Y-30709D01*
X-40824Y-29578D01*
X-41260Y-28525D01*
X-41954Y-27620D01*
X-42859Y-26926D01*
X-43913Y-26489D01*
X-45043Y-26340D01*
X-46174Y-26489D01*
X-47227Y-26926D01*
X-48132Y-27620D01*
X-48826Y-28525D01*
X-49262Y-29578D01*
X-49411Y-30709D01*
X-49262Y-31839D01*
X-49204Y-31980D01*
X-49486Y-32397D01*
X-49555Y-32439D01*
X-50238Y-32575D01*
X-50721Y-32897D01*
X-51125Y-32566D01*
X-50824Y-31839D01*
X-50675Y-30709D01*
X-50824Y-29578D01*
X-51260Y-28525D01*
X-51954Y-27620D01*
X-52859Y-26926D01*
X-53913Y-26489D01*
X-55043Y-26340D01*
X-56174Y-26489D01*
X-57227Y-26926D01*
X-58132Y-27620D01*
X-58826Y-28525D01*
X-59262Y-29578D01*
X-59411Y-30709D01*
X-59262Y-31839D01*
X-58826Y-32893D01*
X-58132Y-33797D01*
X-57227Y-34492D01*
X-56174Y-34928D01*
X-55043Y-35077D01*
X-53913Y-34928D01*
X-52999Y-34549D01*
X-52667Y-34953D01*
X-52769Y-35106D01*
X-52915Y-35835D01*
Y-38847D01*
X-52930Y-39030D01*
X-52973Y-39286D01*
X-53025Y-39482D01*
X-53078Y-39614D01*
X-53122Y-39685D01*
X-53141Y-39706D01*
X-53236Y-39717D01*
X-53961D01*
Y-40499D01*
X-53964Y-40516D01*
X-53961Y-40533D01*
Y-47593D01*
X-53961Y-47984D01*
X-54415Y-48093D01*
X-65352D01*
X-68337Y-45108D01*
X-68955Y-44695D01*
X-69685Y-44550D01*
X-70415Y-44695D01*
X-71033Y-45108D01*
X-71447Y-45727D01*
X-71592Y-46457D01*
X-71447Y-47186D01*
X-71033Y-47805D01*
X-67490Y-51348D01*
X-66871Y-51762D01*
X-66142Y-51907D01*
X-51106D01*
X-50376Y-51762D01*
X-49758Y-51348D01*
X-49345Y-50730D01*
X-49200Y-50000D01*
X-49345Y-49270D01*
X-49758Y-48652D01*
X-50009Y-48484D01*
X-49857Y-47984D01*
X-48099D01*
X-48055Y-47984D01*
X-47600Y-48092D01*
Y-50131D01*
X-52057Y-54588D01*
X-52470Y-55207D01*
X-52615Y-55936D01*
X-52470Y-56666D01*
X-52057Y-57284D01*
X-51438Y-57698D01*
X-50709Y-57843D01*
X-49979Y-57698D01*
X-49360Y-57284D01*
X-44344Y-52269D01*
X-43931Y-51650D01*
X-43786Y-50920D01*
Y-42710D01*
X-40942Y-39867D01*
X-40376Y-40008D01*
X-40080Y-40451D01*
X-39494Y-40842D01*
X-38803Y-40980D01*
X-38075D01*
X-36406Y-42648D01*
Y-47196D01*
X-36507Y-47700D01*
Y-48261D01*
X-36362Y-48991D01*
X-35948Y-49609D01*
X-34344Y-51214D01*
X-34404Y-51855D01*
X-34547Y-51951D01*
X-36989Y-54392D01*
X-38926D01*
X-39656Y-54538D01*
X-40274Y-54951D01*
X-40688Y-55569D01*
X-40833Y-56299D01*
X-40688Y-57029D01*
X-40274Y-57648D01*
X-39656Y-58061D01*
X-38926Y-58206D01*
X-36199D01*
X-35469Y-58061D01*
X-34851Y-57648D01*
X-32471Y-55268D01*
X-32041D01*
X-32023Y-55271D01*
X-32006Y-55268D01*
X-29168D01*
X-28984Y-55304D01*
X-28800Y-55268D01*
X-25842D01*
X-25342Y-55268D01*
X-25342Y-55768D01*
Y-62748D01*
X-12716D01*
X-12682Y-63599D01*
Y-66200D01*
X-12537Y-66930D01*
X-12124Y-67548D01*
X-9271Y-70401D01*
X-8652Y-70814D01*
X-7923Y-70960D01*
X-7923Y-70960D01*
X-2666D01*
X-2592Y-71460D01*
X-3331Y-71684D01*
X-4835Y-72488D01*
X-6154Y-73570D01*
X-7237Y-74889D01*
X-8041Y-76394D01*
X-8536Y-78026D01*
X-8703Y-79724D01*
X-8536Y-81422D01*
X-8041Y-83055D01*
X-7237Y-84560D01*
X-6154Y-85879D01*
X-4835Y-86961D01*
X-3331Y-87765D01*
X-1698Y-88261D01*
X0Y-88428D01*
X1698Y-88261D01*
X3331Y-87765D01*
X4835Y-86961D01*
X6154Y-85879D01*
X7237Y-84560D01*
X8041Y-83055D01*
X8536Y-81422D01*
X8703Y-79724D01*
X8536Y-78026D01*
X8041Y-76394D01*
X7237Y-74889D01*
X6154Y-73570D01*
X4835Y-72488D01*
X3331Y-71684D01*
X2747Y-71507D01*
X2822Y-71007D01*
X24483D01*
X25213Y-70862D01*
X25831Y-70448D01*
X30086Y-66193D01*
X30499Y-65575D01*
X30645Y-64845D01*
Y-24893D01*
X30645Y-24893D01*
X30499Y-24164D01*
X30086Y-23545D01*
X16707Y-10166D01*
Y9886D01*
X16814Y10047D01*
X16960Y10777D01*
Y12959D01*
X17298Y13142D01*
X17459Y13180D01*
X17907Y12881D01*
X18110Y12840D01*
Y10039D01*
X26772D01*
Y12598D01*
Y15312D01*
X26956Y15325D01*
X28018D01*
X28135Y15349D01*
X28308Y15314D01*
X28999Y15452D01*
X29585Y15843D01*
X29977Y16429D01*
X30114Y17120D01*
X29977Y17812D01*
X29585Y18398D01*
X28999Y18789D01*
X28308Y18927D01*
X27617Y18789D01*
X27272Y18559D01*
X26772Y18826D01*
Y20430D01*
X26956Y20444D01*
X41318D01*
X41894Y20558D01*
X42382Y20884D01*
X45601Y24103D01*
X46063Y23912D01*
Y20276D01*
X54318D01*
Y15945D01*
X46063D01*
Y13231D01*
X45879Y13218D01*
X40513D01*
X39937Y13103D01*
X39448Y12777D01*
X36336Y9664D01*
X36009Y9176D01*
X35895Y8600D01*
Y8353D01*
X35395Y8202D01*
X35277Y8377D01*
X34691Y8769D01*
X34000Y8906D01*
X33309Y8769D01*
X32723Y8377D01*
X32331Y7791D01*
X32194Y7100D01*
X32331Y6409D01*
X32495Y6164D01*
Y-3000D01*
X32609Y-3576D01*
X32936Y-4064D01*
X35920Y-7049D01*
X36409Y-7376D01*
X36985Y-7490D01*
X42135D01*
X42567Y-7880D01*
Y-10044D01*
X42682Y-10620D01*
X43008Y-11108D01*
X44543Y-12644D01*
X45032Y-12970D01*
X45608Y-13085D01*
X47972D01*
X48217Y-13248D01*
X48908Y-13386D01*
X49599Y-13248D01*
X49844Y-13085D01*
X56467D01*
X57043Y-12970D01*
X57531Y-12644D01*
X66206Y-3969D01*
X66667Y-4215D01*
X66605Y-4527D01*
Y-5457D01*
X65668Y-6394D01*
X65342Y-6882D01*
X65227Y-7458D01*
Y-16432D01*
X65342Y-17008D01*
X65668Y-17497D01*
X67595Y-19423D01*
Y-33086D01*
X67586Y-33182D01*
X67563Y-33322D01*
X67553Y-33361D01*
X66694D01*
Y-48439D01*
X71616D01*
Y-33361D01*
X70647D01*
X70637Y-33322D01*
X70614Y-33182D01*
X70605Y-33086D01*
Y-18800D01*
X70491Y-18224D01*
X70164Y-17736D01*
X68238Y-15809D01*
Y-12304D01*
X68738Y-12058D01*
X69226Y-12433D01*
X70112Y-12800D01*
X71063Y-12925D01*
X72014Y-12800D01*
X72900Y-12433D01*
X73660Y-11849D01*
X74244Y-11089D01*
X74611Y-10203D01*
X74736Y-9252D01*
X74611Y-8301D01*
X74244Y-7415D01*
X73660Y-6655D01*
X73558Y-6576D01*
X73718Y-6102D01*
X74508D01*
Y-3543D01*
Y-984D01*
Y1575D01*
Y4724D01*
X67618D01*
Y2105D01*
X67477Y2096D01*
X65787D01*
Y6324D01*
X65791Y6339D01*
X65793Y6451D01*
X65799Y6534D01*
X65808Y6604D01*
X65819Y6662D01*
X65830Y6706D01*
X65840Y6733D01*
X67466Y8359D01*
X67468Y8360D01*
X68111Y8298D01*
X68466Y7836D01*
X69226Y7252D01*
X70112Y6885D01*
X71063Y6760D01*
X72014Y6885D01*
X72900Y7252D01*
X73660Y7836D01*
X74244Y8597D01*
X74611Y9482D01*
X74736Y10433D01*
X74611Y11384D01*
X74244Y12270D01*
X73660Y13030D01*
X72900Y13614D01*
X72014Y13981D01*
X71063Y14106D01*
X70112Y13981D01*
X69226Y13614D01*
X68738Y13239D01*
X68238Y13486D01*
Y26568D01*
X68123Y27144D01*
X67797Y27632D01*
X64264Y31164D01*
X63776Y31491D01*
X63200Y31605D01*
X62155D01*
X62003Y32105D01*
X62372Y32352D01*
X66493Y36473D01*
X66673Y36628D01*
X66954Y36842D01*
X67221Y37019D01*
X67473Y37159D01*
X67708Y37265D01*
X67927Y37339D01*
X68065Y37369D01*
X69193D01*
X69846Y37499D01*
X70399Y37868D01*
X70769Y38422D01*
X70899Y39075D01*
Y44390D01*
X70769Y45043D01*
X70399Y45596D01*
X69846Y45966D01*
X69193Y46096D01*
X63878D01*
X63225Y45966D01*
X62672Y45596D01*
X62302Y45043D01*
X62172Y44390D01*
Y39075D01*
X62258Y38644D01*
X62257Y38641D01*
X62260Y38635D01*
X62302Y38422D01*
X62353Y38346D01*
X62353Y38343D01*
X62419Y38225D01*
X62436Y38177D01*
X62442Y38132D01*
X62440Y38076D01*
X62424Y37997D01*
X62384Y37890D01*
X62313Y37756D01*
X62207Y37597D01*
X62134Y37507D01*
X60234Y35607D01*
X52308D01*
X52307Y35607D01*
X51578Y35462D01*
X50959Y35048D01*
X50959Y35048D01*
X47739Y31828D01*
X24764D01*
X24613Y32328D01*
X24648Y32352D01*
X25724Y33428D01*
X46053D01*
X46783Y33573D01*
X47402Y33986D01*
X47565Y34149D01*
X47937Y34706D01*
X52496Y39265D01*
X52995Y39233D01*
X53447Y38644D01*
X54351Y37949D01*
X55405Y37513D01*
X56535Y37364D01*
X57666Y37513D01*
X58719Y37949D01*
X59624Y38644D01*
X60318Y39548D01*
X60755Y40602D01*
X60904Y41732D01*
X60755Y42863D01*
X60318Y43916D01*
X59624Y44821D01*
X58719Y45515D01*
X57666Y45952D01*
X56535Y46100D01*
X55405Y45952D01*
X54351Y45515D01*
X53447Y44821D01*
X52893Y44099D01*
X52527Y44060D01*
X52091Y44433D01*
Y47359D01*
X52374Y47733D01*
X52391Y47736D01*
X59842D01*
Y56201D01*
X52391D01*
X52374Y56204D01*
X52091Y56578D01*
Y64960D01*
X52061Y65110D01*
X52033Y65260D01*
X52030Y65263D01*
X52030Y65267D01*
X51945Y65394D01*
X51861Y65522D01*
X51858Y65524D01*
X51856Y65527D01*
X51729Y65612D01*
X51602Y65698D01*
X51599Y65699D01*
X51595Y65701D01*
X51445Y65731D01*
X51296Y65762D01*
X42221Y65849D01*
X42219Y65848D01*
X42217Y65849D01*
X42065Y65819D01*
X41913Y65791D01*
X41911Y65790D01*
X41909Y65789D01*
X41781Y65704D01*
X41721Y65665D01*
X37281D01*
X37280Y65666D01*
X37153Y65751D01*
X37027Y65837D01*
X37023Y65838D01*
X37020Y65840D01*
X36870Y65870D01*
X36720Y65901D01*
X33252Y65934D01*
X33230Y65963D01*
X32972Y66377D01*
Y73327D01*
X29758D01*
X29266Y73347D01*
Y84921D01*
X17179D01*
Y73347D01*
X18111D01*
X18602Y73327D01*
Y71022D01*
X18102Y70775D01*
X17925Y70911D01*
X17255Y71189D01*
X16535Y71284D01*
X14961D01*
X14241Y71189D01*
X13571Y70911D01*
X13286Y70692D01*
X1968D01*
X1750Y70693D01*
X1698Y71188D01*
X1902Y71250D01*
X3331Y71684D01*
X4835Y72488D01*
X6154Y73570D01*
X7237Y74889D01*
X8041Y76394D01*
X8536Y78026D01*
X8703Y79724D01*
X8536Y81422D01*
X8041Y83055D01*
X7237Y84560D01*
X6154Y85879D01*
X4835Y86961D01*
X3331Y87765D01*
X1698Y88261D01*
X0Y88428D01*
D02*
G37*
G36*
X68898Y56201D02*
X60630D01*
Y47736D01*
X68898D01*
Y56201D01*
D02*
G37*
G36*
X-55413Y32342D02*
X-64272D01*
Y28209D01*
X-55413D01*
Y32342D01*
D02*
G37*
G36*
X-26661Y27346D02*
X-26678Y27343D01*
X-27461D01*
Y27232D01*
X-28166Y27182D01*
X-42036D01*
X-42036Y27182D01*
X-42766Y27037D01*
X-43384Y26624D01*
X-49916Y20092D01*
X-50329Y19474D01*
X-50474Y18744D01*
Y8357D01*
X-54951Y3880D01*
X-55413Y4072D01*
Y7343D01*
X-64272D01*
Y7030D01*
X-64701Y6944D01*
X-65287Y6553D01*
X-68493Y3346D01*
X-68993Y3553D01*
Y4038D01*
X-64772Y8260D01*
X-64272Y8209D01*
Y8209D01*
X-63490D01*
X-63472Y8205D01*
X-63455Y8209D01*
X-55413D01*
Y12342D01*
X-63455D01*
X-63472Y12346D01*
X-63490Y12342D01*
X-64272D01*
Y12215D01*
X-64790Y12182D01*
X-65453D01*
X-66182Y12037D01*
X-66801Y11624D01*
X-72248Y6177D01*
X-72662Y5558D01*
X-72807Y4828D01*
Y2574D01*
X-74046Y1335D01*
X-74508Y1526D01*
Y8927D01*
X-82972D01*
Y659D01*
X-75650D01*
X-75406Y159D01*
X-75578Y-62D01*
X-77559D01*
X-78289Y-207D01*
X-78907Y-620D01*
X-80974Y-2687D01*
X-81388Y-3306D01*
X-81533Y-4035D01*
Y-8858D01*
X-81388Y-9588D01*
X-81201Y-9867D01*
Y-13583D01*
X-78051D01*
Y-9867D01*
X-77864Y-9588D01*
X-77719Y-8858D01*
Y-4825D01*
X-76769Y-3875D01*
X-74653D01*
X-73923Y-3730D01*
X-73304Y-3317D01*
X-70164Y-176D01*
X-69621Y-341D01*
X-69600Y-446D01*
X-71153Y-1998D01*
X-71454Y-2200D01*
X-71846Y-2786D01*
X-71983Y-3477D01*
Y-8858D01*
X-71846Y-9550D01*
X-71752Y-9690D01*
Y-12883D01*
X-71854Y-12904D01*
X-72472Y-13317D01*
X-76273Y-17118D01*
X-76687Y-17737D01*
X-76832Y-18466D01*
Y-25787D01*
X-76687Y-26517D01*
X-76273Y-27136D01*
X-71352Y-32057D01*
X-70733Y-32470D01*
X-70004Y-32615D01*
X-70004Y-32615D01*
X-69447D01*
X-69406Y-32618D01*
Y-33366D01*
X-69277Y-34019D01*
X-68907Y-34572D01*
X-68353Y-34942D01*
X-67700Y-35072D01*
X-62386D01*
X-61733Y-34942D01*
X-61179Y-34572D01*
X-60809Y-34019D01*
X-60680Y-33366D01*
Y-28051D01*
X-60809Y-27398D01*
X-61179Y-26845D01*
X-61733Y-26475D01*
X-62386Y-26345D01*
X-67700D01*
X-68353Y-26475D01*
X-68907Y-26845D01*
X-69277Y-27398D01*
X-69382Y-27927D01*
X-69856Y-28160D01*
X-73018Y-24998D01*
Y-19256D01*
X-70334Y-16572D01*
X-68615D01*
X-67886Y-16427D01*
X-67267Y-16014D01*
X-62452Y-11198D01*
X-62038Y-10580D01*
X-61893Y-9850D01*
Y-9767D01*
X-61393Y-9601D01*
X-61210Y-9723D01*
X-56950Y-13983D01*
Y-15527D01*
X-56973Y-15697D01*
X-57027Y-15936D01*
X-57103Y-16172D01*
X-57202Y-16409D01*
X-57326Y-16646D01*
X-57475Y-16884D01*
X-57651Y-17124D01*
X-57854Y-17364D01*
X-58012Y-17528D01*
X-58132Y-17620D01*
X-58826Y-18525D01*
X-59262Y-19578D01*
X-59411Y-20709D01*
X-59262Y-21839D01*
X-58826Y-22893D01*
X-58132Y-23797D01*
X-57227Y-24491D01*
X-56174Y-24928D01*
X-55043Y-25077D01*
X-53913Y-24928D01*
X-52859Y-24491D01*
X-51954Y-23797D01*
X-51260Y-22893D01*
X-50824Y-21839D01*
X-50675Y-20709D01*
X-50695Y-20559D01*
X-50690Y-20332D01*
X-50664Y-20018D01*
X-50619Y-19724D01*
X-50556Y-19450D01*
X-50476Y-19195D01*
X-50379Y-18958D01*
X-50265Y-18736D01*
X-50135Y-18529D01*
X-50031Y-18393D01*
X-42020Y-10381D01*
X-41606Y-9763D01*
X-41461Y-9033D01*
Y15954D01*
X-39046Y18369D01*
X-27765D01*
X-27461Y18355D01*
Y18209D01*
X-26678D01*
X-26661Y18205D01*
X-26644Y18209D01*
X-18602D01*
Y22343D01*
X-26644D01*
X-26661Y22346D01*
X-26678Y22343D01*
X-27461D01*
Y22232D01*
X-28166Y22182D01*
X-39836D01*
X-39836Y22182D01*
X-40566Y22037D01*
X-41184Y21624D01*
X-44716Y18092D01*
X-45129Y17474D01*
X-45274Y16744D01*
Y-8243D01*
X-52623Y-15592D01*
X-52909Y-15556D01*
X-53136Y-15380D01*
Y-13194D01*
X-53136Y-13194D01*
X-53281Y-12464D01*
X-53695Y-11845D01*
X-58725Y-6815D01*
X-59218Y-6486D01*
X-59365Y-5927D01*
X-58220Y-4781D01*
X-55426D01*
X-54697Y-4636D01*
X-54078Y-4222D01*
X-52982Y-3127D01*
X-52569Y-2508D01*
X-52424Y-1778D01*
Y1015D01*
X-47219Y6219D01*
X-46806Y6838D01*
X-46661Y7568D01*
Y17954D01*
X-41246Y23369D01*
X-27765D01*
X-27461Y23355D01*
Y23209D01*
X-26678D01*
X-26661Y23205D01*
X-26644Y23209D01*
X-18602D01*
Y27343D01*
X-26644D01*
X-26661Y27346D01*
D02*
G37*
G36*
X-55413Y27343D02*
X-64272D01*
Y23209D01*
X-55413D01*
Y27343D01*
D02*
G37*
G36*
X-67137Y27906D02*
X-75602D01*
Y19639D01*
X-67137D01*
Y27906D01*
D02*
G37*
G36*
X-55413Y22343D02*
X-64272D01*
Y18209D01*
X-55413D01*
Y22343D01*
D02*
G37*
G36*
Y17343D02*
X-64272D01*
Y13209D01*
X-55413D01*
Y17343D01*
D02*
G37*
G36*
X81693Y18738D02*
X81409Y18701D01*
X77165D01*
Y8858D01*
X86220D01*
Y18701D01*
X81977D01*
X81693Y18738D01*
D02*
G37*
G36*
X86220Y8268D02*
X77165D01*
Y894D01*
X77165Y787D01*
Y394D01*
X77165Y287D01*
Y-7087D01*
X86220D01*
Y287D01*
X86220Y394D01*
Y787D01*
X86220Y894D01*
Y8268D01*
D02*
G37*
G36*
X26772Y8268D02*
X18110D01*
Y4921D01*
Y2362D01*
Y-197D01*
Y-2756D01*
Y-5315D01*
Y-7874D01*
Y-10433D01*
X26772D01*
Y-7874D01*
Y-5315D01*
Y-2756D01*
Y-197D01*
Y2362D01*
Y4921D01*
Y8268D01*
D02*
G37*
G36*
X86220Y-7677D02*
X77165D01*
Y-17520D01*
X81409D01*
X81693Y-17557D01*
X81977Y-17520D01*
X86220D01*
Y-7677D01*
D02*
G37*
G36*
X-65043Y-16341D02*
X-66174Y-16489D01*
X-67227Y-16926D01*
X-68132Y-17620D01*
X-68826Y-18525D01*
X-69262Y-19578D01*
X-69411Y-20709D01*
X-69262Y-21839D01*
X-68826Y-22893D01*
X-68132Y-23797D01*
X-67227Y-24491D01*
X-66174Y-24928D01*
X-65043Y-25077D01*
X-63912Y-24928D01*
X-62859Y-24491D01*
X-61954Y-23797D01*
X-61260Y-22893D01*
X-60824Y-21839D01*
X-60675Y-20709D01*
X-60824Y-19578D01*
X-61260Y-18525D01*
X-61954Y-17620D01*
X-62859Y-16926D01*
X-63912Y-16489D01*
X-65043Y-16341D01*
D02*
G37*
G36*
X36508Y-8300D02*
X35789Y-8395D01*
X35118Y-8672D01*
X34542Y-9114D01*
X34101Y-9690D01*
X33823Y-10360D01*
X33728Y-11079D01*
X33823Y-11799D01*
X34101Y-12469D01*
X34542Y-13045D01*
X40194Y-18697D01*
X40211Y-18738D01*
X40653Y-19313D01*
X43945Y-22606D01*
X44521Y-23047D01*
X44562Y-23065D01*
X47720Y-26223D01*
Y-40355D01*
X47815Y-41074D01*
X48093Y-41745D01*
X48535Y-42321D01*
X48584Y-42370D01*
Y-48439D01*
X53505D01*
Y-42161D01*
X53730Y-41619D01*
X53825Y-40900D01*
X53730Y-40181D01*
X53505Y-39639D01*
Y-33361D01*
X53280D01*
Y-25072D01*
X53185Y-24352D01*
X52907Y-23682D01*
X52465Y-23106D01*
X48034Y-18675D01*
X47458Y-18233D01*
X47417Y-18216D01*
X45042Y-15841D01*
X45025Y-15800D01*
X44584Y-15224D01*
X38473Y-9114D01*
X37898Y-8672D01*
X37227Y-8395D01*
X36508Y-8300D01*
D02*
G37*
%LPD*%
G36*
X-42709Y66001D02*
X-42996Y65698D01*
X-43240Y65409D01*
X-43440Y65132D01*
X-43597Y64869D01*
X-43709Y64618D01*
X-43779Y64381D01*
X-43804Y64157D01*
X-43786Y63946D01*
X-43725Y63747D01*
X-43620Y63562D01*
X-46163Y67140D01*
X-46027Y66985D01*
X-45872Y66880D01*
X-45699Y66824D01*
X-45507Y66816D01*
X-45297Y66858D01*
X-45068Y66949D01*
X-44822Y67088D01*
X-44556Y67277D01*
X-44273Y67515D01*
X-43970Y67802D01*
X-42709Y66001D01*
D02*
G37*
G36*
X-34189Y62925D02*
X-34209Y62979D01*
X-34268Y63027D01*
X-34367Y63070D01*
X-34504Y63107D01*
X-34682Y63138D01*
X-34898Y63163D01*
X-35449Y63197D01*
X-36158Y63209D01*
Y65177D01*
X-35784Y65180D01*
X-34682Y65248D01*
X-34504Y65279D01*
X-34367Y65316D01*
X-34268Y65359D01*
X-34209Y65407D01*
X-34189Y65460D01*
Y62925D01*
D02*
G37*
G36*
X-64150Y41370D02*
X-63460Y41390D01*
Y39161D01*
X-63472Y39167D01*
X-63505Y39173D01*
X-63562Y39177D01*
X-64012Y39190D01*
X-64587Y39193D01*
Y40276D01*
X-65352Y39510D01*
X-65478Y39614D01*
X-65636Y39708D01*
X-65827Y39790D01*
X-66050Y39861D01*
X-66305Y39922D01*
X-66593Y39971D01*
X-67650Y40054D01*
X-68067Y40059D01*
X-65453Y41142D01*
X-64687Y41907D01*
X-64150Y41370D01*
D02*
G37*
G36*
X-66692Y39174D02*
X-66466Y39135D01*
X-66265Y39087D01*
X-66109Y39037D01*
X-66001Y38991D01*
X-65994Y38987D01*
X-65935Y38927D01*
X-65316Y38514D01*
X-64587Y38369D01*
X-64272D01*
Y38209D01*
X-55912D01*
X-55853Y38209D01*
X-55387Y37735D01*
X-55388Y37565D01*
X-55610Y37343D01*
X-63455D01*
X-63472Y37346D01*
X-63490Y37343D01*
X-64272D01*
Y37202D01*
X-64955Y37158D01*
X-71415D01*
X-72145Y37013D01*
X-72222Y36961D01*
X-74650D01*
X-74841Y37423D01*
X-73029Y39235D01*
X-67479D01*
X-66692Y39174D01*
D02*
G37*
G36*
X-56212Y36461D02*
X-56175Y36419D01*
X-56113Y36382D01*
X-56026Y36349D01*
X-55914Y36322D01*
X-55777Y36300D01*
X-55615Y36282D01*
X-55217Y36262D01*
X-54980Y36260D01*
Y34291D01*
X-55217Y34289D01*
X-55777Y34252D01*
X-55914Y34229D01*
X-56026Y34202D01*
X-56113Y34170D01*
X-56175Y34133D01*
X-56212Y34090D01*
X-56225Y34043D01*
Y36508D01*
X-56212Y36461D01*
D02*
G37*
G36*
X-63472Y34008D02*
X-63494Y34038D01*
X-63559Y34066D01*
X-63667Y34090D01*
X-63819Y34111D01*
X-64252Y34143D01*
X-65638Y34168D01*
Y36334D01*
X-65226Y36336D01*
X-63667Y36436D01*
X-63559Y36468D01*
X-63494Y36503D01*
X-63472Y36543D01*
Y34008D01*
D02*
G37*
G36*
X-65771Y34168D02*
X-66184Y34158D01*
X-66554Y34125D01*
X-66880Y34071D01*
X-67163Y33995D01*
X-67402Y33898D01*
X-67598Y33779D01*
X-67751Y33638D01*
X-67860Y33476D01*
X-67926Y33292D01*
X-67949Y33086D01*
X-67936Y36162D01*
X-65771Y36334D01*
Y34168D01*
D02*
G37*
G36*
X-78532Y18936D02*
X-78500Y18568D01*
X-78446Y18244D01*
X-78370Y17962D01*
X-78273Y17724D01*
X-78154Y17529D01*
X-78013Y17377D01*
X-77850Y17269D01*
X-77666Y17204D01*
X-77461Y17183D01*
X-81791D01*
X-81586Y17204D01*
X-81402Y17269D01*
X-81239Y17377D01*
X-81098Y17529D01*
X-80979Y17724D01*
X-80882Y17962D01*
X-80806Y18244D01*
X-80752Y18568D01*
X-80720Y18936D01*
X-80709Y19348D01*
X-78543D01*
X-78532Y18936D01*
D02*
G37*
G36*
X26100Y74127D02*
X25910Y74034D01*
X25743Y73879D01*
X25598Y73663D01*
X25475Y73384D01*
X25375Y73044D01*
X25297Y72641D01*
X25241Y72177D01*
X25208Y71651D01*
X25197Y71063D01*
X21260D01*
X21249Y71651D01*
X21159Y72641D01*
X21081Y73044D01*
X20981Y73384D01*
X20859Y73663D01*
X20714Y73879D01*
X20547Y74034D01*
X20357Y74127D01*
X20145Y74158D01*
X26311D01*
X26100Y74127D01*
D02*
G37*
G36*
X18602Y65271D02*
Y64862D01*
X23917D01*
Y64865D01*
X24273Y65217D01*
X27657Y65185D01*
Y64862D01*
X32972D01*
Y64862D01*
X33244Y65131D01*
X36713Y65098D01*
Y64862D01*
X42028D01*
Y64862D01*
X42213Y65046D01*
X51288Y64960D01*
Y55139D01*
X51106Y55056D01*
X50761Y54951D01*
X50329Y54864D01*
X49140Y54754D01*
X48856Y54748D01*
X48670D01*
X42320Y61098D01*
X41744Y61540D01*
X41074Y61818D01*
X40354Y61913D01*
X36614D01*
X35895Y61818D01*
X35224Y61540D01*
X34649Y61098D01*
X34207Y60523D01*
X33929Y59852D01*
X33834Y59133D01*
X33929Y58413D01*
X34207Y57743D01*
X34649Y57167D01*
X35224Y56726D01*
X35895Y56448D01*
X36614Y56353D01*
X39203D01*
X45553Y50003D01*
X46129Y49561D01*
X46799Y49283D01*
X47519Y49189D01*
X48856D01*
X49151Y49183D01*
X49779Y49142D01*
X50317Y49075D01*
X50761Y48986D01*
X51106Y48881D01*
X51288Y48798D01*
Y43416D01*
X51186Y43348D01*
X46027Y38189D01*
X9843D01*
Y65133D01*
X14370D01*
X15089Y65228D01*
X15269Y65303D01*
X18602Y65271D01*
D02*
G37*
G36*
X52374Y48536D02*
X52335Y48814D01*
X52217Y49063D01*
X52020Y49283D01*
X51744Y49473D01*
X51390Y49634D01*
X50957Y49766D01*
X50445Y49868D01*
X49854Y49941D01*
X49185Y49985D01*
X48437Y50000D01*
Y53937D01*
X49185Y53952D01*
X50445Y54069D01*
X50957Y54171D01*
X51390Y54303D01*
X51744Y54464D01*
X52020Y54655D01*
X52217Y54874D01*
X52335Y55123D01*
X52374Y55401D01*
Y48536D01*
D02*
G37*
G36*
X-15434Y41713D02*
X-16188Y40972D01*
X-18410Y39053D01*
X-18767Y38835D01*
X-19045Y38721D01*
X-19243Y38712D01*
X-19362Y38808D01*
X-19402Y39008D01*
X-23540Y41531D01*
X-23223Y41400D01*
X-22859Y41364D01*
X-22446Y41423D01*
X-21986Y41577D01*
X-21477Y41826D01*
X-20921Y42171D01*
X-20317Y42610D01*
X-19665Y43144D01*
X-18218Y44497D01*
X-15434Y41713D01*
D02*
G37*
G36*
X68570Y38196D02*
X68290Y38205D01*
X68004Y38177D01*
X67713Y38114D01*
X67415Y38014D01*
X67112Y37878D01*
X66803Y37705D01*
X66488Y37496D01*
X66167Y37251D01*
X65840Y36970D01*
X65508Y36653D01*
X62445D01*
X62667Y36889D01*
X62853Y37120D01*
X63004Y37344D01*
X63118Y37561D01*
X63197Y37773D01*
X63240Y37977D01*
X63248Y38176D01*
X63219Y38368D01*
X63155Y38554D01*
X63055Y38734D01*
X68570Y38196D01*
D02*
G37*
G36*
X-10758Y40870D02*
X-10699Y40201D01*
X-10600Y39610D01*
X-10462Y39098D01*
X-10285Y38665D01*
X-10069Y38311D01*
X-9813Y38035D01*
X-9517Y37838D01*
X-9183Y37720D01*
X-8809Y37681D01*
X-15342D01*
X-15223Y37720D01*
X-15116Y37838D01*
X-15022Y38035D01*
X-14940Y38311D01*
X-14871Y38665D01*
X-14815Y39098D01*
X-14739Y40201D01*
X-14714Y41618D01*
X-10777D01*
X-10758Y40870D01*
D02*
G37*
G36*
X-19380Y31508D02*
X-19315Y31477D01*
X-19207Y31449D01*
X-19055Y31425D01*
X-18860Y31405D01*
X-18016Y31366D01*
X-17236Y31358D01*
Y29193D01*
X-17648Y29191D01*
X-19315Y29075D01*
X-19380Y29043D01*
X-19402Y29008D01*
Y31543D01*
X-19380Y31508D01*
D02*
G37*
G36*
X65227Y25944D02*
Y18337D01*
X57328D01*
Y20466D01*
X57804Y20784D01*
X58195Y21370D01*
X58333Y22061D01*
X58195Y22752D01*
X57804Y23338D01*
X57218Y23730D01*
X56526Y23868D01*
X55835Y23730D01*
X55249Y23338D01*
X55224Y23302D01*
X54724Y23453D01*
Y26181D01*
X54724Y26181D01*
X54724D01*
X54927Y26599D01*
X56924Y28595D01*
X62577D01*
X65227Y25944D01*
D02*
G37*
G36*
X18910Y23634D02*
X18896Y23669D01*
X18855Y23700D01*
X18786Y23728D01*
X18689Y23752D01*
X18565Y23773D01*
X18414Y23789D01*
X17794Y23817D01*
X17532Y23819D01*
Y25197D01*
X17794Y25199D01*
X18689Y25263D01*
X18786Y25287D01*
X18855Y25315D01*
X18896Y25346D01*
X18910Y25382D01*
Y23634D01*
D02*
G37*
G36*
X8681Y47146D02*
X9040Y46804D01*
Y38189D01*
X9101Y37882D01*
X9275Y37621D01*
X9535Y37447D01*
X9843Y37386D01*
X19666D01*
X19802Y36700D01*
X20194Y36114D01*
X20780Y35722D01*
X21471Y35585D01*
X21858Y35662D01*
X22105Y35201D01*
X21952Y35048D01*
X21538Y34430D01*
X21393Y33700D01*
X21538Y32970D01*
X21952Y32352D01*
X21987Y32328D01*
X21836Y31828D01*
X20079D01*
X19349Y31683D01*
X18731Y31269D01*
X18317Y30651D01*
X18172Y29921D01*
X18317Y29192D01*
X18731Y28573D01*
X19349Y28160D01*
X20079Y28015D01*
X44548D01*
X44755Y27515D01*
X40694Y23454D01*
X26846D01*
X26772Y23457D01*
Y26181D01*
X18927D01*
X18910Y26184D01*
X18902Y26183D01*
X18895Y26184D01*
X18880Y26181D01*
X18110D01*
Y26181D01*
X17610Y26052D01*
X17424Y26177D01*
X16732Y26314D01*
X16041Y26177D01*
X15539Y25842D01*
X15228Y25937D01*
X15039Y26063D01*
Y26427D01*
X14925Y27003D01*
X14598Y27491D01*
X9096Y32994D01*
X8608Y33320D01*
X8032Y33434D01*
X7400D01*
Y38480D01*
X5193D01*
Y42829D01*
X5099Y43549D01*
X4821Y44219D01*
X4379Y44795D01*
X3921Y45252D01*
Y47146D01*
X8681D01*
D02*
G37*
G36*
X25986Y22787D02*
X26027Y22756D01*
X26096Y22728D01*
X26193Y22704D01*
X26317Y22684D01*
X26468Y22667D01*
X27088Y22640D01*
X27350Y22638D01*
Y21260D01*
X27088Y21258D01*
X26193Y21193D01*
X26096Y21169D01*
X26027Y21141D01*
X25986Y21110D01*
X25972Y21075D01*
Y22823D01*
X25986Y22787D01*
D02*
G37*
G36*
X5029Y21750D02*
X4845Y21685D01*
X4682Y21576D01*
X4542Y21424D01*
X4423Y21228D01*
X4325Y20988D01*
X4249Y20705D01*
X4195Y20379D01*
X4163Y20008D01*
X4152Y19595D01*
X1987D01*
X1976Y20008D01*
X1943Y20379D01*
X1889Y20705D01*
X1813Y20988D01*
X1716Y21228D01*
X1597Y21424D01*
X1456Y21576D01*
X1294Y21685D01*
X1110Y21750D01*
X904Y21772D01*
X5235D01*
X5029Y21750D01*
D02*
G37*
G36*
X-9982D02*
X-10166Y21685D01*
X-10328Y21576D01*
X-10469Y21424D01*
X-10588Y21228D01*
X-10685Y20988D01*
X-10761Y20705D01*
X-10815Y20379D01*
X-10848Y20008D01*
X-10859Y19595D01*
X-13024D01*
X-13035Y20008D01*
X-13067Y20379D01*
X-13121Y20705D01*
X-13197Y20988D01*
X-13295Y21228D01*
X-13414Y21424D01*
X-13554Y21576D01*
X-13717Y21685D01*
X-13901Y21750D01*
X-14107Y21772D01*
X-9776D01*
X-9982Y21750D01*
D02*
G37*
G36*
X25986Y17669D02*
X26027Y17638D01*
X26096Y17610D01*
X26193Y17586D01*
X26317Y17566D01*
X26468Y17549D01*
X27088Y17521D01*
X27350Y17520D01*
Y16142D01*
X27088Y16140D01*
X26193Y16075D01*
X26096Y16051D01*
X26027Y16023D01*
X25986Y15992D01*
X25972Y15957D01*
Y17705D01*
X25986Y17669D01*
D02*
G37*
G36*
X-26661Y14008D02*
X-26683Y14043D01*
X-26748Y14075D01*
X-26856Y14102D01*
X-27008Y14126D01*
X-27203Y14147D01*
X-28047Y14186D01*
X-28827Y14193D01*
Y16358D01*
X-28415Y16360D01*
X-26748Y16477D01*
X-26683Y16508D01*
X-26661Y16543D01*
Y14008D01*
D02*
G37*
G36*
X62566Y13493D02*
X62449Y13451D01*
X62345Y13383D01*
X62256Y13286D01*
X62180Y13162D01*
X62118Y13010D01*
X62070Y12831D01*
X62035Y12625D01*
X62015Y12390D01*
X62008Y12128D01*
X60630D01*
X60623Y12390D01*
X60602Y12625D01*
X60568Y12831D01*
X60520Y13010D01*
X60458Y13162D01*
X60382Y13286D01*
X60292Y13383D01*
X60189Y13451D01*
X60072Y13493D01*
X59941Y13507D01*
X62697D01*
X62566Y13493D01*
D02*
G37*
G36*
X10421Y16395D02*
X10467Y16119D01*
X10544Y15840D01*
X10651Y15557D01*
X10789Y15271D01*
X10957Y14980D01*
X11156Y14687D01*
X11386Y14390D01*
X11646Y14089D01*
X11937Y13784D01*
X11082Y11578D01*
X10953Y11705D01*
X10467Y12133D01*
X10433Y12148D01*
X10413Y12147D01*
X10406Y12131D01*
Y16667D01*
X10421Y16395D01*
D02*
G37*
G36*
X46862Y10839D02*
X46849Y10874D01*
X46807Y10905D01*
X46738Y10933D01*
X46642Y10957D01*
X46518Y10977D01*
X46366Y10994D01*
X45746Y11022D01*
X45485Y11024D01*
Y12402D01*
X45746Y12403D01*
X46642Y12468D01*
X46738Y12492D01*
X46807Y12520D01*
X46849Y12551D01*
X46862Y12586D01*
Y10839D01*
D02*
G37*
G36*
X-26661Y9008D02*
X-26683Y9043D01*
X-26748Y9075D01*
X-26856Y9102D01*
X-27008Y9126D01*
X-27203Y9147D01*
X-28047Y9186D01*
X-28827Y9193D01*
Y11358D01*
X-28415Y11360D01*
X-26748Y11477D01*
X-26683Y11508D01*
X-26661Y11543D01*
Y9008D01*
D02*
G37*
G36*
X-1261Y20961D02*
X932D01*
X953Y20938D01*
X996Y20866D01*
X1051Y20732D01*
X1103Y20535D01*
X1146Y20278D01*
X1163Y20091D01*
Y11005D01*
X-933Y8909D01*
X-2817D01*
X-2919Y8921D01*
X-3125Y8960D01*
X-3321Y9013D01*
X-3509Y9082D01*
X-3688Y9165D01*
X-3862Y9264D01*
X-4031Y9380D01*
X-4195Y9513D01*
X-4301Y9613D01*
X-4370Y9704D01*
X-5161Y10311D01*
X-6082Y10693D01*
X-7071Y10823D01*
X-8060Y10693D01*
X-8981Y10311D01*
X-9534Y9886D01*
X-10034Y10133D01*
Y20091D01*
X-10018Y20278D01*
X-9975Y20535D01*
X-9923Y20732D01*
X-9868Y20866D01*
X-9824Y20938D01*
X-9804Y20961D01*
X-7480D01*
Y25993D01*
X-1261D01*
Y20961D01*
D02*
G37*
G36*
X53935Y10027D02*
X54015Y10025D01*
X54923Y10024D01*
Y8646D01*
X54731Y8643D01*
X54409Y8618D01*
X54278Y8596D01*
X54167Y8568D01*
X54076Y8535D01*
X54005Y8494D01*
X53954Y8448D01*
X53923Y8396D01*
X53913Y8337D01*
X53925Y10027D01*
X53935Y10027D01*
D02*
G37*
G36*
X59782Y12661D02*
X59805Y12523D01*
X59814Y12430D01*
Y10854D01*
X59431Y10598D01*
X59039Y10012D01*
X58902Y9320D01*
X59039Y8629D01*
X59431Y8043D01*
X60017Y7652D01*
X59946Y7156D01*
X56850D01*
Y5826D01*
X56409Y5590D01*
X56291Y5669D01*
X55600Y5806D01*
X55216Y5730D01*
X54724Y5709D01*
X54724Y5709D01*
X54724Y5709D01*
X53989D01*
X53985Y5710D01*
X53975Y5709D01*
X53942D01*
X53925Y5712D01*
X53908Y5709D01*
X50342D01*
X50197Y5737D01*
X45491D01*
X45126Y6103D01*
X45069Y6391D01*
X44677Y6977D01*
X44091Y7369D01*
X43400Y7506D01*
X42709Y7369D01*
X42123Y6977D01*
X41731Y6391D01*
X41594Y5700D01*
X41731Y5009D01*
X42123Y4423D01*
X42709Y4031D01*
X42998Y3974D01*
X43803Y3168D01*
X44292Y2842D01*
X44868Y2727D01*
X45910D01*
X45931Y2726D01*
X46063Y2714D01*
Y-197D01*
X54724D01*
Y1897D01*
X54726Y1900D01*
X55224Y2268D01*
X55600Y2194D01*
X56291Y2331D01*
X56409Y2410D01*
X56850Y2174D01*
Y1526D01*
X62444D01*
X62635Y1064D01*
X55186Y-6385D01*
X54724Y-6194D01*
Y-1969D01*
X46880D01*
X46862Y-1965D01*
X46855Y-1967D01*
X46847Y-1965D01*
X46832Y-1969D01*
X46063D01*
Y-2123D01*
X45878Y-2136D01*
X45333D01*
X44756Y-2251D01*
X44268Y-2577D01*
X44128Y-2717D01*
X43850Y-2773D01*
X43361Y-3099D01*
X41981Y-4479D01*
X37608D01*
X35505Y-2376D01*
Y1695D01*
X36005Y1744D01*
X36009Y1724D01*
X36336Y1236D01*
X39674Y-2103D01*
X39731Y-2391D01*
X40123Y-2977D01*
X40709Y-3369D01*
X41400Y-3506D01*
X42091Y-3369D01*
X42677Y-2977D01*
X43069Y-2391D01*
X43206Y-1700D01*
X43069Y-1009D01*
X42677Y-423D01*
X42091Y-31D01*
X41802Y26D01*
X38905Y2923D01*
Y7976D01*
X41136Y10207D01*
X45989D01*
X46063Y10204D01*
Y7480D01*
X54724D01*
Y7829D01*
X54923D01*
X55499Y7944D01*
X55987Y8270D01*
X56887Y9170D01*
X57213Y9659D01*
X57328Y10235D01*
Y12707D01*
X59770D01*
X59782Y12661D01*
D02*
G37*
G36*
X65227Y7268D02*
X65177Y7197D01*
X65133Y7119D01*
X65094Y7033D01*
X65062Y6940D01*
X65035Y6838D01*
X65014Y6729D01*
X65000Y6613D01*
X64991Y6488D01*
X64988Y6357D01*
X61386Y6345D01*
X61579Y6355D01*
X61773Y6385D01*
X61967Y6435D01*
X62161Y6504D01*
X62356Y6593D01*
X62551Y6701D01*
X62746Y6829D01*
X62942Y6977D01*
X63138Y7144D01*
X63334Y7331D01*
X65283D01*
X65227Y7268D01*
D02*
G37*
G36*
X-4725Y8909D02*
X-4511Y8736D01*
X-4289Y8584D01*
X-4057Y8451D01*
X-3816Y8340D01*
X-3566Y8248D01*
X-3307Y8177D01*
X-3038Y8126D01*
X-2760Y8095D01*
X-2473Y8085D01*
Y5920D01*
X-2760Y5910D01*
X-3038Y5879D01*
X-3307Y5828D01*
X-3566Y5757D01*
X-3816Y5666D01*
X-4057Y5554D01*
X-4289Y5421D01*
X-4511Y5269D01*
X-4725Y5096D01*
X-4929Y4903D01*
Y9103D01*
X-4725Y8909D01*
D02*
G37*
G36*
X44802Y5273D02*
X43827Y4298D01*
X43410Y4716D01*
X44384Y5690D01*
X44802Y5273D01*
D02*
G37*
G36*
X8673Y20730D02*
X8482Y20268D01*
X5576D01*
Y11332D01*
X10162D01*
X10166Y11328D01*
X10317Y11177D01*
X10499Y10904D01*
X11118Y10491D01*
X11847Y10346D01*
X12393Y10455D01*
X12819Y10193D01*
X12893Y10101D01*
Y-10956D01*
X13038Y-11685D01*
X13452Y-12304D01*
X26831Y-25683D01*
Y-64055D01*
X23693Y-67193D01*
X2198D01*
X1961Y-67146D01*
X906D01*
X598Y-66646D01*
X707Y-66100D01*
Y-58938D01*
X707Y-58938D01*
X642Y-58611D01*
Y-55768D01*
X642Y-55268D01*
X1142Y-55268D01*
X8122D01*
Y-52118D01*
Y-48968D01*
Y-45819D01*
Y-41882D01*
X642D01*
Y-42806D01*
X375Y-43206D01*
X237Y-43898D01*
X375Y-44589D01*
X642Y-44989D01*
Y-48209D01*
X-209Y-48243D01*
X-6472D01*
X-6549Y-48258D01*
X-9155Y-45652D01*
X-9155Y-45652D01*
X-15455Y-39353D01*
X-16073Y-38939D01*
X-16803Y-38794D01*
X-17307Y-38895D01*
X-25097D01*
X-25342Y-38882D01*
Y-38732D01*
X-26125D01*
X-26142Y-38729D01*
X-26159Y-38732D01*
X-32823D01*
Y-40471D01*
X-33323Y-40623D01*
X-36049Y-37896D01*
X-36635Y-37504D01*
X-37327Y-37367D01*
X-37789D01*
X-37981Y-36905D01*
X-36460Y-35385D01*
X-36047Y-34766D01*
X-35902Y-34036D01*
Y-14659D01*
X-35402Y-14507D01*
X-35216Y-14785D01*
X-26137Y-23864D01*
X-25930Y-24098D01*
X-25665Y-24432D01*
X-25461Y-24727D01*
X-25342Y-24934D01*
Y-28784D01*
X-25342Y-29283D01*
X-25842Y-29283D01*
X-32823D01*
Y-33220D01*
Y-36370D01*
X-25342D01*
Y-33220D01*
Y-29783D01*
X-25342Y-29283D01*
X-24842Y-29283D01*
X-14903D01*
X-14691Y-29425D01*
X-14000Y-29562D01*
X-13309Y-29425D01*
X-13097Y-29283D01*
X142D01*
X642Y-29283D01*
X642Y-29783D01*
Y-33220D01*
Y-36370D01*
Y-39520D01*
X8122D01*
Y-36370D01*
Y-33220D01*
Y-29283D01*
X1142D01*
X642Y-29283D01*
X642Y-28784D01*
Y-21803D01*
X-4165D01*
X-4356Y-21341D01*
X1348Y-15637D01*
X1762Y-15018D01*
X1907Y-14288D01*
X1907Y-14288D01*
Y-5566D01*
X1762Y-4836D01*
X1348Y-4218D01*
X-5164Y2295D01*
Y2748D01*
X-5153Y2851D01*
X-5114Y3057D01*
X-5060Y3253D01*
X-4992Y3440D01*
X-4908Y3620D01*
X-4809Y3793D01*
X-4693Y3962D01*
X-4560Y4126D01*
X-4460Y4232D01*
X-4370Y4301D01*
X-4301Y4392D01*
X-4195Y4492D01*
X-4031Y4625D01*
X-3862Y4741D01*
X-3689Y4840D01*
X-3509Y4923D01*
X-3321Y4992D01*
X-3125Y5046D01*
X-2919Y5085D01*
X-2817Y5096D01*
X-143D01*
X587Y5241D01*
X1205Y5654D01*
X2807Y7256D01*
X3101Y7111D01*
X3252Y6994D01*
X3381Y6014D01*
X3763Y5093D01*
X4370Y4301D01*
X5161Y3694D01*
X6082Y3313D01*
X7071Y3182D01*
X8060Y3313D01*
X8981Y3694D01*
X9772Y4301D01*
X10379Y5093D01*
X10761Y6014D01*
X10891Y7002D01*
X10761Y7991D01*
X10379Y8913D01*
X9772Y9704D01*
X8981Y10311D01*
X8060Y10693D01*
X7071Y10823D01*
X6082Y10693D01*
X5476Y10441D01*
X4976Y10775D01*
Y20091D01*
X4992Y20278D01*
X5035Y20535D01*
X5088Y20732D01*
X5142Y20866D01*
X5186Y20938D01*
X5207Y20961D01*
X7400D01*
Y21350D01*
X7862Y21542D01*
X8673Y20730D01*
D02*
G37*
G36*
X53939Y4867D02*
X53980Y4830D01*
X54049Y4797D01*
X54145Y4768D01*
X54269Y4744D01*
X54421Y4724D01*
X54807Y4698D01*
X55303Y4689D01*
Y3311D01*
X55041Y3309D01*
X54145Y3257D01*
X54049Y3238D01*
X53980Y3215D01*
X53939Y3190D01*
X53925Y3162D01*
Y4909D01*
X53939Y4867D01*
D02*
G37*
G36*
X46862Y4909D02*
Y3162D01*
X46849Y3234D01*
X46807Y3299D01*
X46738Y3356D01*
X46642Y3406D01*
X46518Y3448D01*
X46366Y3482D01*
X46187Y3509D01*
X45981Y3528D01*
X45485Y3543D01*
Y4921D01*
X46862Y4909D01*
D02*
G37*
G36*
X-5164Y4656D02*
X-5337Y4443D01*
X-5490Y4220D01*
X-5622Y3989D01*
X-5734Y3748D01*
X-5826Y3497D01*
X-5897Y3238D01*
X-5948Y2970D01*
X-5978Y2692D01*
X-5988Y2405D01*
X-8154D01*
X-8164Y2692D01*
X-8194Y2970D01*
X-8245Y3238D01*
X-8316Y3497D01*
X-8408Y3748D01*
X-8520Y3989D01*
X-8652Y4220D01*
X-8805Y4443D01*
X-8978Y4656D01*
X-9171Y4860D01*
X-4971D01*
X-5164Y4656D01*
D02*
G37*
G36*
X68418Y-185D02*
X68404Y-169D01*
X68362Y-154D01*
X68294Y-141D01*
X68197Y-130D01*
X67922Y-112D01*
X67040Y-99D01*
Y1280D01*
X67301Y1280D01*
X68404Y1350D01*
X68418Y1366D01*
Y-185D01*
D02*
G37*
G36*
X41390Y-716D02*
X40416Y-1690D01*
X39998Y-1273D01*
X40973Y-298D01*
X41390Y-716D01*
D02*
G37*
G36*
X68418Y-2744D02*
X68404Y-2727D01*
X68362Y-2713D01*
X68294Y-2700D01*
X68197Y-2689D01*
X67922Y-2671D01*
X67040Y-2657D01*
Y-1280D01*
X67301Y-1279D01*
X68404Y-1209D01*
X68418Y-1193D01*
Y-2744D01*
D02*
G37*
G36*
X46862Y-4516D02*
X46849Y-4481D01*
X46807Y-4449D01*
X46738Y-4421D01*
X46642Y-4397D01*
X46518Y-4377D01*
X46366Y-4360D01*
X45746Y-4333D01*
X45485Y-4331D01*
Y-2953D01*
X45746Y-2951D01*
X46642Y-2886D01*
X46738Y-2862D01*
X46807Y-2834D01*
X46849Y-2803D01*
X46862Y-2768D01*
Y-4516D01*
D02*
G37*
G36*
Y-7075D02*
X46850Y-7064D01*
X46813Y-7054D01*
X46751Y-7046D01*
X46553Y-7032D01*
X45623Y-7018D01*
Y-5640D01*
X45859Y-5637D01*
X46416Y-5590D01*
X46553Y-5562D01*
X46664Y-5527D01*
X46751Y-5487D01*
X46813Y-5440D01*
X46850Y-5387D01*
X46862Y-5327D01*
Y-7075D01*
D02*
G37*
G36*
X-9614Y-3050D02*
X-8816Y-3726D01*
X-8464Y-3973D01*
X-8142Y-4158D01*
X-7851Y-4281D01*
X-7591Y-4344D01*
X-7362Y-4345D01*
X-7164Y-4285D01*
X-6997Y-4164D01*
X-10047Y-7214D01*
X-9926Y-7046D01*
X-9866Y-6848D01*
X-9867Y-6619D01*
X-9929Y-6359D01*
X-10053Y-6069D01*
X-10238Y-5747D01*
X-10484Y-5394D01*
X-10792Y-5011D01*
X-11590Y-4152D01*
X-10059Y-2620D01*
X-9614Y-3050D01*
D02*
G37*
G36*
X53935Y-7921D02*
X53966Y-7953D01*
X54016Y-7980D01*
X54088Y-8004D01*
X54179Y-8025D01*
X54290Y-8041D01*
X54575Y-8063D01*
X54940Y-8071D01*
Y-9449D01*
X54747Y-9451D01*
X54179Y-9495D01*
X54088Y-9515D01*
X54016Y-9539D01*
X53966Y-9567D01*
X53935Y-9599D01*
X53925Y-9634D01*
Y-7886D01*
X53935Y-7921D01*
D02*
G37*
G36*
X-5234Y-10148D02*
X-5392Y-10208D01*
X-5532Y-10309D01*
X-5653Y-10450D01*
X-5755Y-10631D01*
X-5839Y-10853D01*
X-5904Y-11115D01*
X-5951Y-11417D01*
X-5979Y-11759D01*
X-5988Y-12142D01*
X-8154D01*
X-8163Y-11759D01*
X-8191Y-11417D01*
X-8238Y-11115D01*
X-8303Y-10853D01*
X-8387Y-10631D01*
X-8489Y-10450D01*
X-8610Y-10309D01*
X-8750Y-10208D01*
X-8908Y-10148D01*
X-9086Y-10128D01*
X-5057D01*
X-5234Y-10148D01*
D02*
G37*
G36*
X-1907Y-6356D02*
Y-13499D01*
X-8308Y-19900D01*
X-8770Y-19709D01*
Y-16538D01*
X-5723Y-13490D01*
X-5723Y-13490D01*
X-5310Y-12872D01*
X-5164Y-12142D01*
X-5164Y-12142D01*
Y-11646D01*
X-5153Y-11511D01*
X-5117Y-11273D01*
X-5072Y-11093D01*
X-5026Y-10973D01*
X-5002Y-10929D01*
X-4981Y-10927D01*
X-3284D01*
Y-5632D01*
X-2822Y-5441D01*
X-1907Y-6356D01*
D02*
G37*
G36*
X-31116Y-6904D02*
X-22131Y-15889D01*
Y-21302D01*
X-22154Y-21374D01*
X-22192Y-21435D01*
X-22345Y-21561D01*
X-22631Y-21675D01*
X-22702Y-21642D01*
X-22894Y-21534D01*
X-23106Y-21394D01*
X-23331Y-21226D01*
X-23706Y-20903D01*
X-31961Y-12647D01*
Y-6483D01*
X-31461Y-6388D01*
X-31116Y-6904D01*
D02*
G37*
G36*
X-9606Y-22603D02*
X-11945D01*
X-11909Y-22581D01*
X-11878Y-22516D01*
X-11850Y-22408D01*
X-11826Y-22256D01*
X-11806Y-22061D01*
X-11767Y-21217D01*
X-11760Y-20437D01*
X-9594D01*
X-9606Y-22603D01*
D02*
G37*
G36*
X-12756D02*
X-15094D01*
X-15078Y-22581D01*
X-15063Y-22516D01*
X-15050Y-22408D01*
X-15029Y-22061D01*
X-15008Y-20437D01*
X-12842D01*
X-12756Y-22603D01*
D02*
G37*
G36*
X-15991Y-21387D02*
X-15922Y-22588D01*
X-15906Y-22603D01*
X-18244D01*
X-18227Y-22588D01*
X-18213Y-22543D01*
X-18200Y-22467D01*
X-18188Y-22363D01*
X-18165Y-21867D01*
X-18157Y-21102D01*
X-15992D01*
X-15991Y-21387D01*
D02*
G37*
G36*
X-19055Y-22603D02*
X-21393D01*
X-21377Y-22581D01*
X-21362Y-22516D01*
X-21349Y-22408D01*
X-21328Y-22061D01*
X-21307Y-20437D01*
X-19141D01*
X-19055Y-22603D01*
D02*
G37*
G36*
X-24402Y-21362D02*
X-23834Y-21852D01*
X-23568Y-22051D01*
X-23312Y-22220D01*
X-23068Y-22358D01*
X-22835Y-22465D01*
X-22614Y-22541D01*
X-22404Y-22587D01*
X-22205Y-22603D01*
X-24531Y-25824D01*
X-24432Y-25635D01*
X-24389Y-25419D01*
X-24402Y-25178D01*
X-24472Y-24911D01*
X-24598Y-24618D01*
X-24781Y-24298D01*
X-25020Y-23953D01*
X-25315Y-23582D01*
X-25666Y-23185D01*
X-26074Y-22762D01*
X-24702Y-21071D01*
X-24402Y-21362D01*
D02*
G37*
G36*
X69796Y-33046D02*
X69816Y-33283D01*
X69851Y-33491D01*
X69899Y-33672D01*
X69961Y-33825D01*
X70037Y-33950D01*
X70127Y-34047D01*
X70230Y-34116D01*
X70347Y-34158D01*
X70478Y-34172D01*
X67722D01*
X67853Y-34158D01*
X67970Y-34116D01*
X68073Y-34047D01*
X68163Y-33950D01*
X68239Y-33825D01*
X68301Y-33672D01*
X68349Y-33491D01*
X68384Y-33283D01*
X68404Y-33046D01*
X68411Y-32782D01*
X69789D01*
X69796Y-33046D01*
D02*
G37*
G36*
X-49914Y-38762D02*
X-49882Y-39130D01*
X-49829Y-39455D01*
X-49754Y-39736D01*
X-49657Y-39975D01*
X-49540Y-40169D01*
X-49400Y-40321D01*
X-49240Y-40429D01*
X-49058Y-40494D01*
X-48854Y-40516D01*
X-53161D01*
X-52958Y-40494D01*
X-52776Y-40429D01*
X-52615Y-40321D01*
X-52476Y-40169D01*
X-52358Y-39975D01*
X-52262Y-39736D01*
X-52187Y-39455D01*
X-52133Y-39130D01*
X-52101Y-38762D01*
X-52090Y-38350D01*
X-49925D01*
X-49914Y-38762D01*
D02*
G37*
G36*
X-26122Y-39567D02*
X-26063Y-39598D01*
X-25965Y-39626D01*
X-25827Y-39650D01*
X-25650Y-39670D01*
X-24882Y-39709D01*
X-24173Y-39717D01*
Y-41685D01*
X-24547Y-41687D01*
X-25965Y-41776D01*
X-26063Y-41803D01*
X-26122Y-41835D01*
X-26142Y-41870D01*
Y-39532D01*
X-26122Y-39567D01*
D02*
G37*
G36*
X-15569Y-44631D02*
X-15760Y-45093D01*
X-19413D01*
X-19413Y-45093D01*
X-25342D01*
Y-45031D01*
X-26125D01*
X-26142Y-45028D01*
X-26159Y-45031D01*
X-32794D01*
Y-42669D01*
X-26159D01*
X-26142Y-42673D01*
X-26125Y-42669D01*
X-25342D01*
Y-42541D01*
X-24801Y-42507D01*
X-17693D01*
X-15569Y-44631D01*
D02*
G37*
G36*
X-26120Y-45847D02*
X-26055Y-45862D01*
X-25947Y-45875D01*
X-25600Y-45896D01*
X-23977Y-45917D01*
Y-48083D01*
X-26142Y-48169D01*
Y-45831D01*
X-26120Y-45847D01*
D02*
G37*
G36*
X-9738Y-46234D02*
X-8207Y-47766D01*
X-9421Y-49614D01*
X-9734Y-49323D01*
X-10059Y-49063D01*
X-10397Y-48833D01*
X-10747Y-48634D01*
X-11111Y-48465D01*
X-11487Y-48328D01*
X-11875Y-48221D01*
X-12277Y-48144D01*
X-12691Y-48098D01*
X-13117Y-48083D01*
X-15283Y-45917D01*
X-14887Y-45902D01*
X-14564Y-45856D01*
X-14316Y-45779D01*
X-14142Y-45672D01*
X-14042Y-45535D01*
X-14015Y-45366D01*
X-14063Y-45167D01*
X-14184Y-44937D01*
X-14379Y-44677D01*
X-14649Y-44386D01*
X-9738Y-46234D01*
D02*
G37*
G36*
X1441Y-51319D02*
X1420Y-51302D01*
X1355Y-51288D01*
X1246Y-51275D01*
X900Y-51254D01*
X-724Y-51232D01*
Y-49067D01*
X1441Y-48981D01*
Y-51319D01*
D02*
G37*
G36*
X-32023Y-54468D02*
X-32035Y-54452D01*
X-32070Y-54437D01*
X-32129Y-54424D01*
X-32212Y-54413D01*
X-32447Y-54396D01*
X-33199Y-54382D01*
Y-52217D01*
X-32976Y-52216D01*
X-32070Y-52161D01*
X-32035Y-52147D01*
X-32023Y-52130D01*
Y-54468D01*
D02*
G37*
G36*
X-19413Y-48907D02*
X-12682D01*
X-12396Y-48938D01*
X-12058Y-49003D01*
X-11732Y-49093D01*
X-11418Y-49208D01*
X-11115Y-49348D01*
X-10821Y-49515D01*
X-10536Y-49709D01*
X-10312Y-49889D01*
X-8261Y-51939D01*
X-7643Y-52352D01*
X-6913Y-52497D01*
X-6183Y-52352D01*
X-5741Y-52056D01*
X173D01*
X441Y-52556D01*
X375Y-52655D01*
X237Y-53346D01*
X375Y-54038D01*
X642Y-54438D01*
Y-54768D01*
X642Y-55268D01*
X142Y-55268D01*
X-3544D01*
X-3761Y-55123D01*
X-4453Y-54985D01*
X-5144Y-55123D01*
X-5361Y-55268D01*
X-24842D01*
X-25342Y-55268D01*
X-25342Y-54768D01*
Y-52118D01*
Y-48941D01*
X-24492Y-48907D01*
X-19413D01*
X-19413Y-48907D01*
D02*
G37*
G36*
X-117Y-64114D02*
X-2283D01*
X-2285Y-63702D01*
X-2387Y-62143D01*
X-2419Y-62035D01*
X-2455Y-61970D01*
X-2496Y-61949D01*
X-158D01*
X-117Y-64114D01*
D02*
G37*
G36*
X-9623Y-61970D02*
X-9638Y-62035D01*
X-9650Y-62143D01*
X-9671Y-62490D01*
X-9693Y-64114D01*
X-11858D01*
X-11945Y-61949D01*
X-9606D01*
X-9623Y-61970D01*
D02*
G37*
%LPC*%
G36*
X37402Y48524D02*
X23228D01*
Y40059D01*
X37402D01*
Y48524D01*
D02*
G37*
G36*
X-6913Y-32052D02*
X-7604Y-32189D01*
X-8190Y-32581D01*
X-8582Y-33167D01*
X-8720Y-33858D01*
X-8582Y-34549D01*
X-8190Y-35136D01*
X-7604Y-35527D01*
X-6913Y-35665D01*
X-6222Y-35527D01*
X-5636Y-35136D01*
X-5244Y-34549D01*
X-5107Y-33858D01*
X-5244Y-33167D01*
X-5636Y-32581D01*
X-6222Y-32189D01*
X-6913Y-32052D01*
D02*
G37*
G36*
X21555Y-48228D02*
X13091D01*
Y-56496D01*
X21555D01*
Y-48228D01*
D02*
G37*
%LPD*%
G36*
X-26661Y24008D02*
X-26683Y24043D01*
X-26748Y24075D01*
X-26856Y24102D01*
X-27008Y24126D01*
X-27203Y24147D01*
X-28047Y24186D01*
X-28827Y24193D01*
Y26358D01*
X-28415Y26360D01*
X-26748Y26477D01*
X-26683Y26508D01*
X-26661Y26543D01*
Y24008D01*
D02*
G37*
G36*
Y19008D02*
X-26683Y19043D01*
X-26748Y19075D01*
X-26856Y19102D01*
X-27008Y19126D01*
X-27203Y19147D01*
X-28047Y19186D01*
X-28827Y19193D01*
Y21358D01*
X-28415Y21360D01*
X-26748Y21477D01*
X-26683Y21508D01*
X-26661Y21543D01*
Y19008D01*
D02*
G37*
G36*
X-63472Y9008D02*
X-63492Y9043D01*
X-63551Y9075D01*
X-63651Y9102D01*
X-63789Y9126D01*
X-63967Y9147D01*
X-64740Y9185D01*
X-65453Y9193D01*
Y11358D01*
X-65076Y11360D01*
X-63651Y11449D01*
X-63551Y11477D01*
X-63492Y11508D01*
X-63472Y11543D01*
Y9008D01*
D02*
G37*
G36*
X-55976Y2709D02*
X-56092Y2534D01*
X-56237Y1805D01*
Y-967D01*
X-59009D01*
X-59009Y-967D01*
X-59739Y-1112D01*
X-60358Y-1526D01*
X-60358Y-1526D01*
X-65148Y-6316D01*
X-65562Y-6935D01*
X-65707Y-7665D01*
Y-9060D01*
X-68140Y-11494D01*
X-68602Y-11303D01*
Y-9690D01*
X-68508Y-9550D01*
X-68371Y-8858D01*
Y-4325D01*
X-66223Y-2177D01*
X-65831Y-1591D01*
X-65694Y-900D01*
Y1037D01*
X-63522Y3209D01*
X-56243D01*
X-55976Y2709D01*
D02*
G37*
G36*
X-53946Y-15526D02*
X-53904Y-15839D01*
X-53835Y-16148D01*
X-53737Y-16452D01*
X-53611Y-16751D01*
X-53495Y-16972D01*
X-53257Y-16897D01*
X-52957Y-16775D01*
X-52673Y-16629D01*
X-52405Y-16461D01*
X-52154Y-16269D01*
X-51920Y-16054D01*
X-50388Y-17585D01*
X-50603Y-17820D01*
X-50795Y-18071D01*
X-50964Y-18338D01*
X-51109Y-18622D01*
X-51232Y-18923D01*
X-51332Y-19240D01*
X-51408Y-19573D01*
X-51462Y-19923D01*
X-51492Y-20290D01*
X-51500Y-20673D01*
X-53995Y-18178D01*
X-57523D01*
X-57258Y-17902D01*
X-57020Y-17621D01*
X-56811Y-17336D01*
X-56629Y-17045D01*
X-56475Y-16751D01*
X-56349Y-16452D01*
X-56252Y-16148D01*
X-56182Y-15839D01*
X-56140Y-15526D01*
X-56126Y-15209D01*
X-53960D01*
X-53946Y-15526D01*
D02*
G37*
G36*
X-68580Y-32121D02*
X-68594Y-32058D01*
X-68637Y-32002D01*
X-68708Y-31953D01*
X-68807Y-31910D01*
X-68936Y-31874D01*
X-69092Y-31844D01*
X-69277Y-31821D01*
X-69733Y-31795D01*
X-70004Y-31791D01*
Y-29626D01*
X-69733Y-29623D01*
X-69092Y-29573D01*
X-68936Y-29544D01*
X-68807Y-29507D01*
X-68708Y-29464D01*
X-68637Y-29415D01*
X-68594Y-29359D01*
X-68580Y-29296D01*
Y-32121D01*
D02*
G37*
D11*
X-36201Y64193D02*
X-31546D01*
X-44485Y55909D02*
X-36201Y64193D01*
X-28886Y-40701D02*
X-16803D01*
X-49509Y-34336D02*
X-46171D01*
X-45043Y-33209D01*
X-38803Y-39173D02*
X-37327D01*
X-59842Y35276D02*
X-54980D01*
X-44485Y49307D02*
Y55909D01*
X-67500Y1785D02*
X-64009Y5276D01*
X-59842D01*
X-54433Y49307D02*
X-44485D01*
X-57370Y46370D02*
X-54433Y49307D01*
X-70177Y-8858D02*
Y-3477D01*
X-67500Y-900D02*
Y1785D01*
X-70077Y-3477D02*
X-67500Y-900D01*
X-70177Y-3477D02*
X-70077D01*
X-37327Y-39173D02*
X-34600Y-41900D01*
Y-47700D02*
Y-41900D01*
D15*
X13966Y79134D02*
D03*
D16*
X23222D02*
D03*
D17*
X1142Y67716D02*
D03*
Y49606D02*
D03*
D18*
X-78740Y13848D02*
D03*
Y4793D02*
D03*
X-71369Y32828D02*
D03*
Y23772D02*
D03*
X17323Y-52362D02*
D03*
Y-61417D02*
D03*
D19*
X-51008Y-43850D02*
D03*
X-61638D02*
D03*
D20*
X-59842Y40276D02*
D03*
Y35276D02*
D03*
Y30276D02*
D03*
Y25276D02*
D03*
Y20276D02*
D03*
Y15276D02*
D03*
Y10276D02*
D03*
Y5276D02*
D03*
Y276D02*
D03*
X-23031D02*
D03*
Y5276D02*
D03*
Y10276D02*
D03*
Y15276D02*
D03*
Y20276D02*
D03*
Y25276D02*
D03*
Y30276D02*
D03*
Y35276D02*
D03*
Y40276D02*
D03*
D21*
X-31199Y64193D02*
D03*
Y59193D02*
D03*
Y54193D02*
D03*
Y49193D02*
D03*
X-9845D02*
D03*
Y54193D02*
D03*
Y59193D02*
D03*
Y64193D02*
D03*
D22*
X22441Y24508D02*
D03*
Y21949D02*
D03*
Y19390D02*
D03*
Y16831D02*
D03*
Y14272D02*
D03*
Y11712D02*
D03*
Y9154D02*
D03*
Y6594D02*
D03*
Y4035D02*
D03*
Y1476D02*
D03*
Y-1083D02*
D03*
Y-3642D02*
D03*
Y-6201D02*
D03*
Y-8760D02*
D03*
X50394D02*
D03*
Y-6201D02*
D03*
Y-3642D02*
D03*
Y-1083D02*
D03*
Y1476D02*
D03*
Y4035D02*
D03*
Y6594D02*
D03*
Y9154D02*
D03*
Y11712D02*
D03*
Y14272D02*
D03*
Y16831D02*
D03*
Y19390D02*
D03*
Y21949D02*
D03*
Y24508D02*
D03*
D23*
X39370Y69095D02*
D03*
X30315D02*
D03*
X21260D02*
D03*
D24*
X30315Y44291D02*
D03*
D25*
X-29083Y-31252D02*
D03*
Y-34402D02*
D03*
Y-37551D02*
D03*
Y-40701D02*
D03*
Y-43850D02*
D03*
Y-47000D02*
D03*
Y-50150D02*
D03*
Y-53299D02*
D03*
X4382D02*
D03*
Y-50150D02*
D03*
Y-47000D02*
D03*
Y-43850D02*
D03*
Y-40701D02*
D03*
Y-37551D02*
D03*
Y-34402D02*
D03*
Y-31252D02*
D03*
D26*
X-23374Y-59008D02*
D03*
X-20224D02*
D03*
X-17075D02*
D03*
X-13925D02*
D03*
X-10775D02*
D03*
X-7626D02*
D03*
X-4476D02*
D03*
X-1327D02*
D03*
Y-25543D02*
D03*
X-4476D02*
D03*
X-7626D02*
D03*
X-10775D02*
D03*
X-13925D02*
D03*
X-17075D02*
D03*
X-20224D02*
D03*
X-23374D02*
D03*
D27*
X81693Y-12598D02*
D03*
Y13780D02*
D03*
D28*
Y-3347D02*
D03*
Y4527D02*
D03*
D29*
X71063Y591D02*
D03*
Y3150D02*
D03*
Y-1969D02*
D03*
Y5709D02*
D03*
Y-4527D02*
D03*
D30*
X51045Y-40900D02*
D03*
X69155D02*
D03*
D31*
X55709Y51968D02*
D03*
X64764D02*
D03*
D32*
X61319Y15522D02*
D03*
Y4341D02*
D03*
D33*
X-79626Y-8858D02*
D03*
X-74902D02*
D03*
X-70177D02*
D03*
D34*
X-11811Y35626D02*
D03*
Y23815D02*
D03*
X3069Y35626D02*
D03*
Y23815D02*
D03*
D35*
X8391Y15800D02*
D03*
X-2791D02*
D03*
D36*
X-15295Y78740D02*
D03*
X-65043Y-30709D02*
D03*
X66535Y41732D02*
D03*
D37*
X-25295Y78740D02*
D03*
X-65043Y-20709D02*
D03*
X-55043Y-30709D02*
D03*
X-45043D02*
D03*
Y-20709D02*
D03*
X-55043D02*
D03*
X81693Y-13189D02*
D03*
Y14370D02*
D03*
X56535Y41732D02*
D03*
X-55610Y57087D02*
D03*
D38*
X71063Y10433D02*
D03*
Y-9252D02*
D03*
D39*
X-47419Y62822D02*
D03*
D40*
X-7071Y7002D02*
D03*
X7071D02*
D03*
Y-7140D02*
D03*
D41*
X-7071D02*
D03*
D42*
X6154Y39764D02*
D03*
X36009Y25944D02*
D03*
X-32984Y-20472D02*
D03*
X-1698Y-53299D02*
D03*
X35505Y-21341D02*
D03*
X-16368Y1695D02*
D03*
X13780Y79059D02*
D03*
X20079Y29921D02*
D03*
X21471Y37391D02*
D03*
X36608Y61024D02*
D03*
X38976Y68898D02*
D03*
X20734Y55118D02*
D03*
X24702D02*
D03*
X32646Y52264D02*
D03*
X36614D02*
D03*
X28677D02*
D03*
X28671Y55118D02*
D03*
X20740Y52264D02*
D03*
X24709D02*
D03*
X36608Y55118D02*
D03*
X32639D02*
D03*
X-15354Y71155D02*
D03*
X-41339Y74506D02*
D03*
X-17717Y62205D02*
D03*
X-38976Y50394D02*
D03*
X-51106Y-50000D02*
D03*
X-64492Y-44589D02*
D03*
X-69685Y-46457D02*
D03*
X-24803Y50394D02*
D03*
X-71369Y22344D02*
D03*
X-78740Y4793D02*
D03*
X14937Y-51673D02*
D03*
X2043Y-53346D02*
D03*
X-11467Y54232D02*
D03*
X-6913Y-33858D02*
D03*
Y-50590D02*
D03*
X-14000Y-27756D02*
D03*
X-4453Y-56791D02*
D03*
X-50709Y-55936D02*
D03*
X28308Y17120D02*
D03*
X36608Y-10979D02*
D03*
X48908Y-11580D02*
D03*
X-26809Y-43836D02*
D03*
X-81791Y-14862D02*
D03*
X-4476Y35626D02*
D03*
X2043Y-43898D02*
D03*
X32639Y61024D02*
D03*
X-15181Y-77756D02*
D03*
X-26000Y-77100D02*
D03*
X75295Y32565D02*
D03*
X-51083Y28150D02*
D03*
X-11467Y59252D02*
D03*
Y64272D02*
D03*
X-38926Y-56299D02*
D03*
X-38803Y-39173D02*
D03*
X-39657Y-47244D02*
D03*
X4351Y-62205D02*
D03*
X-29768Y6144D02*
D03*
X-60167Y-8163D02*
D03*
X-17176Y-8600D02*
D03*
X-14000Y-10044D02*
D03*
X16732Y24508D02*
D03*
X11847Y12253D02*
D03*
X-1200Y-66100D02*
D03*
X-2546Y15200D02*
D03*
X17717Y-32008D02*
D03*
X12800Y-13700D02*
D03*
X11100Y1000D02*
D03*
X47460Y-16900D02*
D03*
X50787Y-55500D02*
D03*
X-47227Y-8300D02*
D03*
X-58100Y-6100D02*
D03*
X-64823Y-2700D02*
D03*
X-26800Y-37551D02*
D03*
X2100Y-40572D02*
D03*
X-51181Y-66929D02*
D03*
X7874Y-27559D02*
D03*
X49071Y34500D02*
D03*
X-23700Y-19300D02*
D03*
X-23200Y-50400D02*
D03*
X43508Y19820D02*
D03*
X50500Y-25072D02*
D03*
X56526Y22061D02*
D03*
X-25295Y40256D02*
D03*
Y35335D02*
D03*
X24709Y58169D02*
D03*
X20740D02*
D03*
X28671Y61024D02*
D03*
X-4000Y41300D02*
D03*
X60708Y9320D02*
D03*
X55600Y4000D02*
D03*
X34000Y7100D02*
D03*
X31000Y-600D02*
D03*
X40600Y6200D02*
D03*
X41400Y-1700D02*
D03*
X43400Y5700D02*
D03*
X28677Y58169D02*
D03*
X36614D02*
D03*
X32646D02*
D03*
X23300Y33700D02*
D03*
X65323Y51968D02*
D03*
X-4016Y58661D02*
D03*
X24702Y61024D02*
D03*
X20734D02*
D03*
X30315Y68898D02*
D03*
X16535Y68504D02*
D03*
D44*
X0Y79724D02*
D03*
Y-79724D02*
D03*
D45*
X14370Y67913D02*
X14961Y68504D01*
X1693Y67913D02*
X14370D01*
X14961Y68504D02*
X16535D01*
X1142Y44101D02*
Y49606D01*
X203Y45040D02*
X1142Y44101D01*
X-10811Y45040D02*
X203D01*
X1142Y44101D02*
X2413Y42829D01*
X1142Y67716D02*
X1890D01*
X-1698D02*
X1142D01*
X1693Y67913D02*
X1890Y67716D01*
X23228Y78740D02*
X24803Y80315D01*
X23228Y71063D02*
Y78740D01*
X21260Y69095D02*
X23228Y71063D01*
X36614Y59133D02*
X40354D01*
X-25275Y40276D02*
X-19655D01*
X-35177Y54193D02*
X-31199D01*
X-38976Y50394D02*
X-35177Y54193D01*
X-16826Y43105D02*
X-12746D01*
X-19655Y40276D02*
X-16826Y43105D01*
X-12746Y36561D02*
X-11811Y35626D01*
X-12746Y36561D02*
Y43105D01*
X2413Y36282D02*
X3069Y35626D01*
X2413Y36282D02*
Y42829D01*
X42618Y-17348D02*
Y-17190D01*
Y-17348D02*
X45910Y-20640D01*
X46069D01*
X50500Y-25072D01*
X36508Y-11079D02*
X42618Y-17190D01*
X50500Y-40355D02*
Y-25072D01*
Y-40355D02*
X51045Y-40900D01*
X-12746Y43105D02*
X-10811Y45040D01*
X47519Y51968D02*
X55709D01*
X40354Y59133D02*
X47519Y51968D01*
D46*
X-10775Y-66200D02*
Y-58811D01*
X14800Y-10956D02*
X28738Y-24893D01*
Y-64845D02*
Y-24893D01*
X24483Y-69100D02*
X28738Y-64845D01*
X14800Y-10956D02*
Y10524D01*
X20079Y29921D02*
X48529D01*
X52307Y33700D01*
X-20224Y-25740D02*
Y-15099D01*
X-17075Y-25740D02*
Y-21102D01*
X52534Y42000D02*
X56268D01*
X46216Y35682D02*
X52534Y42000D01*
X46216Y35498D02*
Y35682D01*
X46053Y35335D02*
X46216Y35498D01*
X24935Y35335D02*
X46053D01*
X23300Y33700D02*
X24935Y35335D01*
X-24016Y69291D02*
X-17717Y62992D01*
X-40950Y69291D02*
X-24016D01*
X-17717Y62205D02*
Y62992D01*
X-47419Y62822D02*
X-40950Y69291D01*
X-42194Y41142D02*
X-34252Y49084D01*
X-49114Y41142D02*
X-42194D01*
X-54980Y35276D02*
X-49114Y41142D01*
X-42036Y25276D02*
X-22539D01*
X-48568Y18744D02*
X-42036Y25276D01*
X-39836Y20276D02*
X-22539D01*
X-43368Y16744D02*
X-39836Y20276D01*
X-71415Y35251D02*
X-60343D01*
X-71369Y33761D02*
X-69637Y32029D01*
X-31308Y49084D02*
X-31199Y49193D01*
X-34252Y49084D02*
X-31308D01*
X-66142Y-50000D02*
X-51106D01*
X-69685Y-46457D02*
X-66142Y-50000D01*
X-60145Y-8185D02*
X-60123Y-8163D01*
X-1200Y-66100D02*
Y-58938D01*
X-1327Y-58811D02*
X-1200Y-58938D01*
X-35436Y15276D02*
X-22539D01*
X-16803Y-40701D02*
X-10504Y-47000D01*
X-6913Y-50590D01*
X-43368Y-9033D02*
Y16744D01*
X-45043Y-33209D02*
Y-30709D01*
X-37809Y-34036D02*
Y12903D01*
X-31636Y10276D02*
X-22539D01*
X-33868Y8044D02*
X-31636Y10276D01*
X-33868Y-13437D02*
Y8044D01*
X-29768Y-5556D02*
Y6144D01*
X-74925Y-25787D02*
X-70004Y-30709D01*
X-50709Y-55936D02*
X-45693Y-50920D01*
X-51008Y-43850D02*
Y-35835D01*
X-49509Y-34336D01*
X-70004Y-30709D02*
X-65043D01*
X-19413Y-47000D02*
X-19413Y-47000D01*
X-29083Y-47000D02*
X-19413D01*
X-19413Y-47000D02*
X-10504D01*
X-29083Y-50150D02*
X-28886D01*
X-45693Y-50920D02*
Y-41921D01*
X-37809Y-34036D01*
X-47419Y62822D02*
X-46036D01*
X-6913Y-50590D02*
X-6472Y-50150D01*
X4185D01*
X-79626Y-8858D02*
Y-4035D01*
X-73819Y41142D02*
X-65453D01*
X-10775Y-25543D02*
X-10677Y-25445D01*
X-11941Y23685D02*
X-11811Y23815D01*
X-11941Y-2269D02*
Y23685D01*
Y-2269D02*
X-7071Y-7140D01*
Y1505D02*
Y7002D01*
X-10677Y-25445D02*
Y-15748D01*
X-7071Y-12142D01*
Y-7140D01*
X-7527Y-25445D02*
Y-21816D01*
X-7626Y-25543D02*
X-7527Y-25445D01*
Y-21816D02*
X0Y-14288D01*
Y-5566D01*
X-7071Y1505D02*
X0Y-5566D01*
X-79626Y-4035D02*
X-77559Y-1969D01*
X-65453Y10276D02*
X-59842D01*
X-55043Y-20709D02*
X-43368Y-9033D01*
X-74925Y-25787D02*
Y-18466D01*
X-71124Y-14665D01*
X-68615D01*
X-33868Y-13437D02*
X-23374Y-23931D01*
Y-25543D02*
Y-23931D01*
X-29768Y-5556D02*
X-20224Y-15099D01*
X-48568Y7568D02*
Y18744D01*
X-59009Y-2874D02*
X-55426D01*
X-54331Y-1778D01*
Y1805D01*
X-48568Y7568D01*
X-79626Y35335D02*
X-73819Y41142D01*
X-79626Y14734D02*
Y35335D01*
Y14734D02*
X-78740Y13848D01*
X-17059Y-21102D02*
Y-8717D01*
X-17176Y-8600D02*
X-17059Y-8717D01*
X-7071Y7002D02*
X-143D01*
X-13925Y-25543D02*
Y-10119D01*
X-14000Y-10044D02*
X-13925Y-10119D01*
X-23031Y30276D02*
X-13676D01*
X-11300Y27900D01*
X7239D01*
X8483Y26656D01*
Y23617D02*
Y26656D01*
Y23617D02*
X10749Y21351D01*
X12469D01*
X8391Y15800D02*
X11847Y12343D01*
X12469Y21351D02*
X14800Y19020D01*
Y10524D02*
X15053Y10777D01*
Y13223D01*
X14800Y13476D02*
X15053Y13223D01*
X14800Y13476D02*
Y19020D01*
X11847Y12253D02*
Y12343D01*
X-10775Y-66200D02*
X-7923Y-69053D01*
X-143Y7002D02*
X3069Y10215D01*
Y23815D01*
X-37809Y12903D02*
X-35436Y15276D01*
X-59842Y40276D02*
X-59000D01*
X-64587D02*
X-59842D01*
X-67200Y42889D02*
Y45100D01*
X-66000Y46300D01*
X-57440D01*
X-57370Y46370D01*
X-67200Y42889D02*
X-65453Y41142D01*
X-64587Y40276D01*
X-77559Y-1969D02*
X-74653D01*
X-70900Y1784D01*
Y4828D01*
X-65453Y10276D01*
X-60123Y-8163D02*
X-60073D01*
X-55043Y-13194D01*
Y-20709D02*
Y-13194D01*
X2008Y-69100D02*
X24483D01*
X-7923Y-69053D02*
X1961D01*
X2008Y-69100D01*
X-68615Y-14665D02*
X-63800Y-9850D01*
Y-7665D01*
X-59009Y-2874D01*
X-33199Y-53299D02*
X-29083D01*
X-36199Y-56299D02*
X-33199Y-53299D01*
X-38926Y-56299D02*
X-36199D01*
X-28984Y-53398D02*
X-28886Y-53299D01*
X-32711Y-50150D02*
X-29083D01*
X-34600Y-48261D02*
X-32711Y-50150D01*
X-34600Y-48261D02*
Y-47700D01*
X56268Y42000D02*
X56535Y41732D01*
X52307Y33700D02*
X61024D01*
X66535Y39212D01*
Y41732D01*
D47*
X46239Y26870D02*
X53070D01*
X41318Y21949D02*
X46239Y26870D01*
X22835Y16831D02*
X28018D01*
X28308Y17120D01*
X50000Y9153D02*
X50181Y9335D01*
X45608Y-11580D02*
X48908D01*
X44072Y-10044D02*
X45608Y-11580D01*
X43939Y19390D02*
X50000D01*
X22441Y14272D02*
X22835D01*
X-4476Y32551D02*
Y35626D01*
X18483Y14272D02*
X22441D01*
X-4476Y32551D02*
X-3854Y31929D01*
X8032D01*
X13534Y26427D01*
Y23905D02*
Y26427D01*
X17421Y15333D02*
X18483Y14272D01*
X17421Y15333D02*
Y20018D01*
X13534Y23905D02*
X17421Y20018D01*
X43508Y19820D02*
X43939Y19390D01*
X66732Y-7458D02*
X68110Y-6080D01*
X66732Y-16432D02*
Y-7458D01*
Y-16432D02*
X69100Y-18800D01*
Y-40845D02*
Y-18800D01*
Y-40845D02*
X69155Y-40900D01*
X50181Y9335D02*
X54923D01*
X55823Y10235D01*
Y21358D01*
X48908Y-11580D02*
X56467D01*
X68110Y-6080D02*
Y-4527D01*
X71063D01*
X56467Y-11580D02*
X66078Y-1969D01*
X71063D01*
X55823Y21358D02*
X56526Y22061D01*
X22441Y21949D02*
X41318D01*
X53070Y26870D02*
X56300Y30100D01*
X63200D01*
X66732Y26568D01*
Y9754D02*
Y26568D01*
X61319Y4341D02*
X66732Y9754D01*
X54940Y-8760D02*
X64290Y591D01*
X71063D01*
X50000Y-8760D02*
X54940D01*
X50394Y4035D02*
X50429Y4000D01*
X16732Y24508D02*
X22441D01*
X22441Y24508D01*
X44072Y-10044D02*
Y-7880D01*
X61319Y9932D02*
Y15522D01*
X60708Y9320D02*
X61319Y9932D01*
X42604Y-5985D02*
X44426Y-4163D01*
X44811D01*
X45333Y-3642D01*
X50000D01*
X44072Y-7880D02*
X45623Y-6329D01*
X49872D02*
X50000Y-6201D01*
X45623Y-6329D02*
X49872D01*
X40513Y11713D02*
X50000D01*
X50429Y4000D02*
X55600D01*
X36985Y-5985D02*
X42604D01*
X34000Y-3000D02*
X36985Y-5985D01*
X34000Y-3000D02*
Y7100D01*
X37400Y2300D02*
Y8600D01*
X40513Y11713D01*
X37400Y2300D02*
X41400Y-1700D01*
X50197Y4232D02*
X50394Y4035D01*
X44868Y4232D02*
X50197D01*
X43400Y5700D02*
X44868Y4232D01*
M02*
